G04 Layer_Color=16711935*
%FSLAX25Y25*%
%MOIN*%
G70*
G01*
G75*
%ADD14C,0.00984*%
%ADD18C,0.00787*%
D14*
X-157480Y196850D02*
X-158478Y196838D01*
X-159474Y196800D01*
X-160470Y196737D01*
X-161463Y196648D01*
X-162454Y196535D01*
X-163442Y196396D01*
X-164426Y196233D01*
X-165405Y196045D01*
X-166380Y195831D01*
X-167349Y195594D01*
X-168311Y195331D01*
X-169266Y195045D01*
X-170214Y194734D01*
X-171154Y194400D01*
X-172085Y194042D01*
X-173006Y193660D01*
X-173918Y193255D01*
X-174819Y192827D01*
X-175708Y192376D01*
X-176587Y191903D01*
X-177453Y191408D01*
X-178306Y190892D01*
X-179145Y190353D01*
X-179971Y189794D01*
X-180783Y189214D01*
X-181579Y188613D01*
X-182360Y187993D01*
X-183125Y187353D01*
X-183873Y186693D01*
X-184605Y186015D01*
X-185319Y185319D01*
X-186015Y184605D01*
X-186694Y183873D01*
X-187353Y183125D01*
X-187993Y182360D01*
X-188613Y181579D01*
X-189214Y180782D01*
X-189794Y179971D01*
X-190353Y179145D01*
X-190892Y178306D01*
X-191408Y177453D01*
X-191903Y176587D01*
X-192376Y175708D01*
X-192827Y174819D01*
X-193255Y173918D01*
X-193660Y173006D01*
X-194042Y172085D01*
X-194400Y171154D01*
X-194734Y170214D01*
X-195045Y169266D01*
X-195331Y168311D01*
X-195594Y167349D01*
X-195831Y166380D01*
X-196045Y165405D01*
X-196233Y164426D01*
X-196396Y163442D01*
X-196535Y162454D01*
X-196648Y161463D01*
X-196737Y160470D01*
X-196800Y159474D01*
X-196838Y158478D01*
X-196850Y157480D01*
X196850D02*
X196838Y158478D01*
X196800Y159474D01*
X196737Y160470D01*
X196648Y161463D01*
X196535Y162454D01*
X196396Y163442D01*
X196233Y164426D01*
X196045Y165405D01*
X195831Y166380D01*
X195594Y167349D01*
X195331Y168311D01*
X195045Y169266D01*
X194734Y170214D01*
X194400Y171154D01*
X194042Y172085D01*
X193660Y173006D01*
X193255Y173918D01*
X192827Y174819D01*
X192376Y175708D01*
X191903Y176587D01*
X191408Y177453D01*
X190892Y178306D01*
X190353Y179145D01*
X189794Y179971D01*
X189214Y180783D01*
X188613Y181579D01*
X187993Y182360D01*
X187353Y183125D01*
X186693Y183873D01*
X186015Y184605D01*
X185319Y185319D01*
X184605Y186015D01*
X183873Y186694D01*
X183125Y187353D01*
X182360Y187993D01*
X181579Y188613D01*
X180782Y189214D01*
X179971Y189794D01*
X179145Y190353D01*
X178306Y190892D01*
X177453Y191408D01*
X176587Y191903D01*
X175708Y192376D01*
X174819Y192827D01*
X173918Y193255D01*
X173006Y193660D01*
X172085Y194042D01*
X171154Y194400D01*
X170214Y194734D01*
X169266Y195045D01*
X168311Y195331D01*
X167349Y195594D01*
X166380Y195831D01*
X165405Y196045D01*
X164426Y196233D01*
X163442Y196396D01*
X162454Y196535D01*
X161463Y196648D01*
X160470Y196737D01*
X159474Y196800D01*
X158478Y196838D01*
X157480Y196850D01*
X-196850Y-157480D02*
X-196838Y-158478D01*
X-196800Y-159474D01*
X-196737Y-160470D01*
X-196648Y-161463D01*
X-196535Y-162454D01*
X-196396Y-163442D01*
X-196233Y-164426D01*
X-196045Y-165405D01*
X-195831Y-166380D01*
X-195594Y-167349D01*
X-195331Y-168311D01*
X-195045Y-169266D01*
X-194734Y-170214D01*
X-194400Y-171154D01*
X-194042Y-172085D01*
X-193660Y-173006D01*
X-193255Y-173918D01*
X-192827Y-174819D01*
X-192376Y-175708D01*
X-191903Y-176587D01*
X-191408Y-177453D01*
X-190892Y-178306D01*
X-190353Y-179145D01*
X-189794Y-179971D01*
X-189214Y-180783D01*
X-188613Y-181579D01*
X-187993Y-182360D01*
X-187353Y-183125D01*
X-186693Y-183873D01*
X-186015Y-184605D01*
X-185319Y-185319D01*
X-184605Y-186015D01*
X-183873Y-186694D01*
X-183125Y-187353D01*
X-182360Y-187993D01*
X-181579Y-188613D01*
X-180782Y-189214D01*
X-179971Y-189794D01*
X-179145Y-190353D01*
X-178306Y-190892D01*
X-177453Y-191408D01*
X-176587Y-191903D01*
X-175708Y-192376D01*
X-174819Y-192827D01*
X-173918Y-193255D01*
X-173006Y-193660D01*
X-172085Y-194042D01*
X-171154Y-194400D01*
X-170214Y-194734D01*
X-169266Y-195045D01*
X-168311Y-195331D01*
X-167349Y-195594D01*
X-166380Y-195831D01*
X-165405Y-196045D01*
X-164426Y-196233D01*
X-163442Y-196396D01*
X-162454Y-196535D01*
X-161463Y-196648D01*
X-160470Y-196737D01*
X-159474Y-196800D01*
X-158478Y-196838D01*
X-157480Y-196850D01*
X157480D02*
X158478Y-196838D01*
X159474Y-196800D01*
X160470Y-196737D01*
X161463Y-196648D01*
X162454Y-196535D01*
X163442Y-196396D01*
X164426Y-196233D01*
X165405Y-196045D01*
X166380Y-195831D01*
X167348Y-195594D01*
X168311Y-195331D01*
X169266Y-195045D01*
X170214Y-194734D01*
X171154Y-194400D01*
X172084Y-194042D01*
X173006Y-193660D01*
X173917Y-193255D01*
X174819Y-192827D01*
X175708Y-192376D01*
X176586Y-191903D01*
X177452Y-191408D01*
X178305Y-190892D01*
X179145Y-190353D01*
X179971Y-189794D01*
X180782Y-189214D01*
X181579Y-188613D01*
X182360Y-187993D01*
X183125Y-187353D01*
X183873Y-186694D01*
X184605Y-186016D01*
X185319Y-185319D01*
X186015Y-184605D01*
X186693Y-183874D01*
X187353Y-183125D01*
X187993Y-182360D01*
X188613Y-181579D01*
X189214Y-180783D01*
X189794Y-179972D01*
X190353Y-179146D01*
X190891Y-178306D01*
X191408Y-177453D01*
X191903Y-176587D01*
X192376Y-175709D01*
X192827Y-174819D01*
X193255Y-173918D01*
X193660Y-173006D01*
X194041Y-172085D01*
X194399Y-171154D01*
X194734Y-170214D01*
X195045Y-169267D01*
X195331Y-168311D01*
X195594Y-167349D01*
X195831Y-166380D01*
X196044Y-165406D01*
X196233Y-164427D01*
X196396Y-163443D01*
X196535Y-162455D01*
X196648Y-161464D01*
X196737Y-160470D01*
X196800Y-159475D01*
X196838Y-158478D01*
X196850Y-157481D01*
D18*
X-157480Y196850D02*
X157480D01*
X196850Y-157480D02*
Y157480D01*
X-157480Y-196850D02*
X157480D01*
X-196850Y-157480D02*
Y157480D01*
M02*
