G04 Layer_Color=65535*
%FSLAX25Y25*%
%MOIN*%
G70*
G01*
G75*
G36*
X-50862Y-176558D02*
X-50815D01*
X-50698Y-176574D01*
X-50566Y-176590D01*
X-50418Y-176621D01*
X-50262Y-176660D01*
X-50106Y-176714D01*
X-50099D01*
X-50091Y-176722D01*
X-50067Y-176730D01*
X-50036Y-176745D01*
X-49958Y-176784D01*
X-49865Y-176839D01*
X-49756Y-176909D01*
X-49639Y-176995D01*
X-49514Y-177096D01*
X-49405Y-177221D01*
X-49390Y-177236D01*
X-49374Y-177260D01*
X-49358Y-177283D01*
X-49304Y-177361D01*
X-49234Y-177462D01*
X-49164Y-177594D01*
X-49086Y-177750D01*
X-49008Y-177929D01*
X-48938Y-178132D01*
Y-178140D01*
X-48930Y-178155D01*
X-48922Y-178187D01*
X-48914Y-178233D01*
X-48899Y-178288D01*
X-48883Y-178350D01*
X-48868Y-178428D01*
X-48852Y-178514D01*
X-48836Y-178607D01*
X-48821Y-178709D01*
X-48805Y-178825D01*
X-48790Y-178942D01*
X-48774Y-179207D01*
X-48766Y-179495D01*
Y-179503D01*
Y-179534D01*
Y-179589D01*
Y-179651D01*
X-48774Y-179737D01*
X-48782Y-179830D01*
Y-179931D01*
X-48798Y-180048D01*
X-48805Y-180173D01*
X-48821Y-180305D01*
X-48868Y-180578D01*
X-48922Y-180851D01*
X-49000Y-181116D01*
Y-181123D01*
X-49008Y-181147D01*
X-49024Y-181178D01*
X-49039Y-181225D01*
X-49062Y-181287D01*
X-49094Y-181349D01*
X-49132Y-181427D01*
X-49172Y-181505D01*
X-49265Y-181684D01*
X-49374Y-181871D01*
X-49514Y-182058D01*
X-49670Y-182229D01*
X-49678Y-182237D01*
X-49693Y-182245D01*
X-49717Y-182269D01*
X-49748Y-182300D01*
X-49795Y-182339D01*
X-49841Y-182378D01*
X-49904Y-182424D01*
X-49974Y-182471D01*
X-50130Y-182572D01*
X-50317Y-182681D01*
X-50535Y-182783D01*
X-50769Y-182868D01*
X-50776D01*
X-50800Y-182876D01*
X-50831Y-182884D01*
X-50885Y-182899D01*
X-50948Y-182915D01*
X-51018Y-182931D01*
X-51103Y-182954D01*
X-51205Y-182970D01*
X-51306Y-182985D01*
X-51423Y-183009D01*
X-51547Y-183024D01*
X-51680Y-183040D01*
X-51968Y-183063D01*
X-52280Y-183071D01*
X-52809D01*
Y-182323D01*
X-52108D01*
X-52054Y-182315D01*
X-51991D01*
X-51844Y-182307D01*
X-51672Y-182292D01*
X-51493Y-182269D01*
X-51306Y-182237D01*
X-51127Y-182198D01*
X-51119D01*
X-51103Y-182191D01*
X-51080Y-182183D01*
X-51049Y-182175D01*
X-50963Y-182144D01*
X-50854Y-182105D01*
X-50730Y-182050D01*
X-50605Y-181988D01*
X-50472Y-181910D01*
X-50356Y-181825D01*
X-50340Y-181817D01*
X-50301Y-181778D01*
X-50247Y-181723D01*
X-50176Y-181653D01*
X-50099Y-181567D01*
X-50021Y-181466D01*
X-49951Y-181349D01*
X-49880Y-181217D01*
Y-181209D01*
X-49873Y-181201D01*
X-49857Y-181155D01*
X-49826Y-181077D01*
X-49795Y-180983D01*
X-49756Y-180859D01*
X-49725Y-180718D01*
X-49701Y-180562D01*
X-49678Y-180399D01*
X-49654Y-180196D01*
X-49670Y-180204D01*
X-49709Y-180227D01*
X-49771Y-180259D01*
X-49857Y-180305D01*
X-49966Y-180352D01*
X-50091Y-180399D01*
X-50223Y-180446D01*
X-50371Y-180492D01*
X-50379D01*
X-50387Y-180500D01*
X-50410D01*
X-50441Y-180508D01*
X-50527Y-180524D01*
X-50636Y-180547D01*
X-50761Y-180570D01*
X-50916Y-180586D01*
X-51080Y-180594D01*
X-51251Y-180601D01*
X-51329D01*
X-51376Y-180594D01*
X-51423D01*
X-51540Y-180586D01*
X-51672Y-180570D01*
X-51820Y-180539D01*
X-51960Y-180508D01*
X-52108Y-180461D01*
X-52116D01*
X-52124Y-180453D01*
X-52171Y-180438D01*
X-52241Y-180407D01*
X-52319Y-180360D01*
X-52420Y-180305D01*
X-52521Y-180235D01*
X-52622Y-180157D01*
X-52724Y-180064D01*
X-52732Y-180048D01*
X-52763Y-180017D01*
X-52809Y-179963D01*
X-52856Y-179893D01*
X-52918Y-179799D01*
X-52981Y-179698D01*
X-53035Y-179581D01*
X-53090Y-179456D01*
Y-179448D01*
X-53098Y-179441D01*
X-53105Y-179394D01*
X-53129Y-179324D01*
X-53144Y-179230D01*
X-53168Y-179114D01*
X-53191Y-178989D01*
X-53199Y-178841D01*
X-53207Y-178693D01*
Y-178685D01*
Y-178670D01*
Y-178646D01*
Y-178615D01*
X-53199Y-178529D01*
X-53183Y-178420D01*
X-53168Y-178288D01*
X-53144Y-178148D01*
X-53105Y-178000D01*
X-53051Y-177852D01*
Y-177844D01*
X-53043Y-177836D01*
X-53020Y-177789D01*
X-52981Y-177711D01*
X-52934Y-177618D01*
X-52864Y-177517D01*
X-52786Y-177400D01*
X-52693Y-177283D01*
X-52591Y-177174D01*
X-52576Y-177158D01*
X-52537Y-177127D01*
X-52474Y-177073D01*
X-52389Y-177010D01*
X-52288Y-176940D01*
X-52171Y-176862D01*
X-52038Y-176784D01*
X-51890Y-176722D01*
X-51882D01*
X-51875Y-176714D01*
X-51851Y-176706D01*
X-51820Y-176699D01*
X-51734Y-176667D01*
X-51625Y-176636D01*
X-51485Y-176605D01*
X-51337Y-176574D01*
X-51166Y-176558D01*
X-50987Y-176551D01*
X-50909D01*
X-50862Y-176558D01*
D02*
G37*
G36*
X43420Y-178046D02*
X43529Y-178054D01*
X43654Y-178062D01*
X43787Y-178077D01*
X43927Y-178109D01*
X44067Y-178140D01*
X44075D01*
X44083Y-178148D01*
X44129Y-178155D01*
X44192Y-178179D01*
X44277Y-178218D01*
X44371Y-178257D01*
X44472Y-178311D01*
X44573Y-178374D01*
X44675Y-178444D01*
X44682Y-178451D01*
X44714Y-178483D01*
X44760Y-178522D01*
X44815Y-178584D01*
X44877Y-178654D01*
X44940Y-178740D01*
X45002Y-178841D01*
X45056Y-178950D01*
X45064Y-178965D01*
X45080Y-179005D01*
X45103Y-179067D01*
X45126Y-179153D01*
X45150Y-179262D01*
X45173Y-179378D01*
X45189Y-179519D01*
X45197Y-179667D01*
Y-183071D01*
X44425D01*
X44402Y-182409D01*
X44394Y-182416D01*
X44386Y-182424D01*
X44363Y-182448D01*
X44332Y-182471D01*
X44254Y-182541D01*
X44145Y-182627D01*
X44020Y-182720D01*
X43880Y-182822D01*
X43732Y-182907D01*
X43576Y-182985D01*
X43569D01*
X43561Y-182993D01*
X43537Y-183001D01*
X43506Y-183009D01*
X43420Y-183040D01*
X43311Y-183071D01*
X43179Y-183102D01*
X43031Y-183133D01*
X42875Y-183149D01*
X42704Y-183157D01*
X42634D01*
X42556Y-183149D01*
X42454Y-183141D01*
X42345Y-183133D01*
X42221Y-183110D01*
X42096Y-183086D01*
X41979Y-183055D01*
X41964Y-183047D01*
X41932Y-183032D01*
X41878Y-183009D01*
X41808Y-182977D01*
X41730Y-182938D01*
X41644Y-182884D01*
X41566Y-182822D01*
X41489Y-182759D01*
X41481Y-182752D01*
X41457Y-182728D01*
X41418Y-182681D01*
X41379Y-182627D01*
X41333Y-182564D01*
X41286Y-182487D01*
X41239Y-182401D01*
X41200Y-182307D01*
Y-182292D01*
X41185Y-182261D01*
X41177Y-182214D01*
X41161Y-182144D01*
X41146Y-182058D01*
X41130Y-181965D01*
X41122Y-181863D01*
X41115Y-181754D01*
Y-181747D01*
Y-181723D01*
Y-181684D01*
X41122Y-181630D01*
X41130Y-181567D01*
X41146Y-181497D01*
X41161Y-181412D01*
X41185Y-181326D01*
X41216Y-181232D01*
X41247Y-181139D01*
X41294Y-181045D01*
X41348Y-180944D01*
X41411Y-180851D01*
X41489Y-180757D01*
X41574Y-180672D01*
X41668Y-180586D01*
X41675Y-180578D01*
X41691Y-180570D01*
X41722Y-180547D01*
X41769Y-180524D01*
X41831Y-180485D01*
X41901Y-180453D01*
X41987Y-180414D01*
X42081Y-180376D01*
X42190Y-180337D01*
X42314Y-180298D01*
X42447Y-180259D01*
X42595Y-180227D01*
X42750Y-180204D01*
X42922Y-180181D01*
X43109Y-180173D01*
X43304Y-180165D01*
X44332D01*
Y-179737D01*
Y-179729D01*
Y-179713D01*
Y-179698D01*
X44324Y-179667D01*
X44316Y-179581D01*
X44293Y-179488D01*
X44262Y-179371D01*
X44207Y-179254D01*
X44137Y-179145D01*
X44044Y-179036D01*
X44028Y-179028D01*
X43989Y-178997D01*
X43927Y-178950D01*
X43833Y-178903D01*
X43709Y-178857D01*
X43561Y-178810D01*
X43389Y-178779D01*
X43187Y-178771D01*
X43117D01*
X43031Y-178779D01*
X42930D01*
X42805Y-178794D01*
X42665Y-178810D01*
X42517Y-178833D01*
X42361Y-178864D01*
X42353D01*
X42345Y-178872D01*
X42322D01*
X42291Y-178880D01*
X42213Y-178903D01*
X42104Y-178934D01*
X41979Y-178973D01*
X41839Y-179012D01*
X41683Y-179067D01*
X41528Y-179129D01*
Y-178358D01*
X41535D01*
X41559Y-178350D01*
X41590Y-178334D01*
X41629Y-178327D01*
X41683Y-178303D01*
X41746Y-178288D01*
X41886Y-178249D01*
X41894D01*
X41925Y-178241D01*
X41964Y-178226D01*
X42018Y-178210D01*
X42081Y-178194D01*
X42151Y-178179D01*
X42307Y-178148D01*
X42314D01*
X42345Y-178140D01*
X42392Y-178132D01*
X42447Y-178116D01*
X42517Y-178109D01*
X42603Y-178093D01*
X42774Y-178070D01*
X42782D01*
X42813Y-178062D01*
X42860D01*
X42922Y-178054D01*
X43000Y-178046D01*
X43078D01*
X43257Y-178039D01*
X43335D01*
X43420Y-178046D01*
D02*
G37*
G36*
X65575D02*
X65684Y-178054D01*
X65809Y-178062D01*
X65941Y-178077D01*
X66082Y-178109D01*
X66222Y-178140D01*
X66230D01*
X66237Y-178148D01*
X66284Y-178155D01*
X66346Y-178179D01*
X66432Y-178218D01*
X66526Y-178257D01*
X66627Y-178311D01*
X66728Y-178374D01*
X66829Y-178444D01*
X66837Y-178451D01*
X66868Y-178483D01*
X66915Y-178522D01*
X66970Y-178584D01*
X67032Y-178654D01*
X67094Y-178740D01*
X67157Y-178841D01*
X67211Y-178950D01*
X67219Y-178965D01*
X67234Y-179005D01*
X67258Y-179067D01*
X67281Y-179153D01*
X67305Y-179262D01*
X67328Y-179378D01*
X67343Y-179519D01*
X67351Y-179667D01*
Y-183071D01*
X66580D01*
X66557Y-182409D01*
X66549Y-182416D01*
X66541Y-182424D01*
X66518Y-182448D01*
X66487Y-182471D01*
X66409Y-182541D01*
X66300Y-182627D01*
X66175Y-182720D01*
X66035Y-182822D01*
X65887Y-182907D01*
X65731Y-182985D01*
X65723D01*
X65715Y-182993D01*
X65692Y-183001D01*
X65661Y-183009D01*
X65575Y-183040D01*
X65466Y-183071D01*
X65334Y-183102D01*
X65186Y-183133D01*
X65030Y-183149D01*
X64859Y-183157D01*
X64788D01*
X64710Y-183149D01*
X64609Y-183141D01*
X64500Y-183133D01*
X64376Y-183110D01*
X64251Y-183086D01*
X64134Y-183055D01*
X64118Y-183047D01*
X64087Y-183032D01*
X64033Y-183009D01*
X63963Y-182977D01*
X63885Y-182938D01*
X63799Y-182884D01*
X63721Y-182822D01*
X63643Y-182759D01*
X63635Y-182752D01*
X63612Y-182728D01*
X63573Y-182681D01*
X63534Y-182627D01*
X63487Y-182564D01*
X63441Y-182487D01*
X63394Y-182401D01*
X63355Y-182307D01*
Y-182292D01*
X63340Y-182261D01*
X63332Y-182214D01*
X63316Y-182144D01*
X63301Y-182058D01*
X63285Y-181965D01*
X63277Y-181863D01*
X63269Y-181754D01*
Y-181747D01*
Y-181723D01*
Y-181684D01*
X63277Y-181630D01*
X63285Y-181567D01*
X63301Y-181497D01*
X63316Y-181412D01*
X63340Y-181326D01*
X63371Y-181232D01*
X63402Y-181139D01*
X63449Y-181045D01*
X63503Y-180944D01*
X63565Y-180851D01*
X63643Y-180757D01*
X63729Y-180672D01*
X63823Y-180586D01*
X63830Y-180578D01*
X63846Y-180570D01*
X63877Y-180547D01*
X63924Y-180524D01*
X63986Y-180485D01*
X64056Y-180453D01*
X64142Y-180414D01*
X64235Y-180376D01*
X64344Y-180337D01*
X64469Y-180298D01*
X64601Y-180259D01*
X64749Y-180227D01*
X64905Y-180204D01*
X65077Y-180181D01*
X65264Y-180173D01*
X65458Y-180165D01*
X66487D01*
Y-179737D01*
Y-179729D01*
Y-179713D01*
Y-179698D01*
X66479Y-179667D01*
X66471Y-179581D01*
X66448Y-179488D01*
X66417Y-179371D01*
X66362Y-179254D01*
X66292Y-179145D01*
X66198Y-179036D01*
X66183Y-179028D01*
X66144Y-178997D01*
X66082Y-178950D01*
X65988Y-178903D01*
X65863Y-178857D01*
X65715Y-178810D01*
X65544Y-178779D01*
X65342Y-178771D01*
X65271D01*
X65186Y-178779D01*
X65084D01*
X64960Y-178794D01*
X64820Y-178810D01*
X64672Y-178833D01*
X64516Y-178864D01*
X64508D01*
X64500Y-178872D01*
X64477D01*
X64446Y-178880D01*
X64368Y-178903D01*
X64259Y-178934D01*
X64134Y-178973D01*
X63994Y-179012D01*
X63838Y-179067D01*
X63682Y-179129D01*
Y-178358D01*
X63690D01*
X63713Y-178350D01*
X63745Y-178334D01*
X63784Y-178327D01*
X63838Y-178303D01*
X63900Y-178288D01*
X64041Y-178249D01*
X64048D01*
X64079Y-178241D01*
X64118Y-178226D01*
X64173Y-178210D01*
X64235Y-178194D01*
X64305Y-178179D01*
X64461Y-178148D01*
X64469D01*
X64500Y-178140D01*
X64547Y-178132D01*
X64601Y-178116D01*
X64672Y-178109D01*
X64757Y-178093D01*
X64929Y-178070D01*
X64936D01*
X64968Y-178062D01*
X65014D01*
X65077Y-178054D01*
X65154Y-178046D01*
X65232D01*
X65412Y-178039D01*
X65490D01*
X65575Y-178046D01*
D02*
G37*
G36*
X-55770Y-182276D02*
X-54336D01*
Y-183071D01*
X-58372D01*
Y-182276D01*
X-56720D01*
Y-177571D01*
X-58262Y-178412D01*
X-58574Y-177680D01*
X-56533Y-176605D01*
X-55770D01*
Y-182276D01*
D02*
G37*
G36*
X-95047Y-178046D02*
X-94938Y-178054D01*
X-94813Y-178062D01*
X-94681Y-178077D01*
X-94541Y-178109D01*
X-94400Y-178140D01*
X-94392D01*
X-94385Y-178148D01*
X-94338Y-178155D01*
X-94276Y-178179D01*
X-94190Y-178218D01*
X-94096Y-178257D01*
X-93995Y-178311D01*
X-93894Y-178374D01*
X-93793Y-178444D01*
X-93785Y-178451D01*
X-93754Y-178483D01*
X-93707Y-178522D01*
X-93652Y-178584D01*
X-93590Y-178654D01*
X-93528Y-178740D01*
X-93465Y-178841D01*
X-93411Y-178950D01*
X-93403Y-178965D01*
X-93388Y-179005D01*
X-93364Y-179067D01*
X-93341Y-179153D01*
X-93317Y-179262D01*
X-93294Y-179378D01*
X-93278Y-179519D01*
X-93271Y-179667D01*
Y-183071D01*
X-94042D01*
X-94065Y-182409D01*
X-94073Y-182416D01*
X-94081Y-182424D01*
X-94104Y-182448D01*
X-94135Y-182471D01*
X-94213Y-182541D01*
X-94322Y-182627D01*
X-94447Y-182720D01*
X-94587Y-182822D01*
X-94735Y-182907D01*
X-94891Y-182985D01*
X-94899D01*
X-94907Y-182993D01*
X-94930Y-183001D01*
X-94961Y-183009D01*
X-95047Y-183040D01*
X-95156Y-183071D01*
X-95288Y-183102D01*
X-95436Y-183133D01*
X-95592Y-183149D01*
X-95763Y-183157D01*
X-95834D01*
X-95912Y-183149D01*
X-96013Y-183141D01*
X-96122Y-183133D01*
X-96246Y-183110D01*
X-96371Y-183086D01*
X-96488Y-183055D01*
X-96504Y-183047D01*
X-96535Y-183032D01*
X-96589Y-183009D01*
X-96659Y-182977D01*
X-96737Y-182938D01*
X-96823Y-182884D01*
X-96901Y-182822D01*
X-96979Y-182759D01*
X-96987Y-182752D01*
X-97010Y-182728D01*
X-97049Y-182681D01*
X-97088Y-182627D01*
X-97135Y-182564D01*
X-97181Y-182487D01*
X-97228Y-182401D01*
X-97267Y-182307D01*
Y-182292D01*
X-97282Y-182261D01*
X-97290Y-182214D01*
X-97306Y-182144D01*
X-97321Y-182058D01*
X-97337Y-181965D01*
X-97345Y-181863D01*
X-97353Y-181754D01*
Y-181747D01*
Y-181723D01*
Y-181684D01*
X-97345Y-181630D01*
X-97337Y-181567D01*
X-97321Y-181497D01*
X-97306Y-181412D01*
X-97282Y-181326D01*
X-97251Y-181232D01*
X-97220Y-181139D01*
X-97174Y-181045D01*
X-97119Y-180944D01*
X-97057Y-180851D01*
X-96979Y-180757D01*
X-96893Y-180672D01*
X-96800Y-180586D01*
X-96792Y-180578D01*
X-96776Y-180570D01*
X-96745Y-180547D01*
X-96698Y-180524D01*
X-96636Y-180485D01*
X-96566Y-180453D01*
X-96480Y-180414D01*
X-96387Y-180376D01*
X-96278Y-180337D01*
X-96153Y-180298D01*
X-96021Y-180259D01*
X-95873Y-180227D01*
X-95717Y-180204D01*
X-95545Y-180181D01*
X-95358Y-180173D01*
X-95164Y-180165D01*
X-94135D01*
Y-179737D01*
Y-179729D01*
Y-179713D01*
Y-179698D01*
X-94143Y-179667D01*
X-94151Y-179581D01*
X-94174Y-179488D01*
X-94205Y-179371D01*
X-94260Y-179254D01*
X-94330Y-179145D01*
X-94424Y-179036D01*
X-94439Y-179028D01*
X-94478Y-178997D01*
X-94541Y-178950D01*
X-94634Y-178903D01*
X-94759Y-178857D01*
X-94907Y-178810D01*
X-95078Y-178779D01*
X-95280Y-178771D01*
X-95351D01*
X-95436Y-178779D01*
X-95538D01*
X-95662Y-178794D01*
X-95802Y-178810D01*
X-95951Y-178833D01*
X-96106Y-178864D01*
X-96114D01*
X-96122Y-178872D01*
X-96145D01*
X-96176Y-178880D01*
X-96254Y-178903D01*
X-96363Y-178934D01*
X-96488Y-178973D01*
X-96628Y-179012D01*
X-96784Y-179067D01*
X-96940Y-179129D01*
Y-178358D01*
X-96932D01*
X-96909Y-178350D01*
X-96877Y-178334D01*
X-96838Y-178327D01*
X-96784Y-178303D01*
X-96722Y-178288D01*
X-96581Y-178249D01*
X-96574D01*
X-96543Y-178241D01*
X-96504Y-178226D01*
X-96449Y-178210D01*
X-96387Y-178194D01*
X-96317Y-178179D01*
X-96161Y-178148D01*
X-96153D01*
X-96122Y-178140D01*
X-96075Y-178132D01*
X-96021Y-178116D01*
X-95951Y-178109D01*
X-95865Y-178093D01*
X-95693Y-178070D01*
X-95686D01*
X-95654Y-178062D01*
X-95608D01*
X-95545Y-178054D01*
X-95468Y-178046D01*
X-95390D01*
X-95210Y-178039D01*
X-95132D01*
X-95047Y-178046D01*
D02*
G37*
G36*
X-79747Y-178132D02*
X-79778Y-178911D01*
X-79771Y-178903D01*
X-79747Y-178872D01*
X-79700Y-178825D01*
X-79654Y-178771D01*
X-79591Y-178709D01*
X-79521Y-178638D01*
X-79381Y-178506D01*
X-79373Y-178498D01*
X-79350Y-178475D01*
X-79311Y-178444D01*
X-79256Y-178405D01*
X-79202Y-178366D01*
X-79140Y-178319D01*
X-78999Y-178233D01*
X-78992Y-178226D01*
X-78968Y-178218D01*
X-78929Y-178202D01*
X-78875Y-178179D01*
X-78820Y-178155D01*
X-78750Y-178124D01*
X-78602Y-178085D01*
X-78594D01*
X-78563Y-178077D01*
X-78524Y-178070D01*
X-78470Y-178062D01*
X-78407Y-178054D01*
X-78337Y-178046D01*
X-78181Y-178039D01*
X-78111D01*
X-78057Y-178046D01*
X-77995Y-178054D01*
X-77924Y-178062D01*
X-77846Y-178077D01*
X-77761Y-178093D01*
X-77574Y-178148D01*
X-77480Y-178187D01*
X-77387Y-178226D01*
X-77293Y-178280D01*
X-77200Y-178342D01*
X-77114Y-178412D01*
X-77036Y-178490D01*
X-77029Y-178498D01*
X-77021Y-178514D01*
X-76997Y-178537D01*
X-76974Y-178576D01*
X-76943Y-178623D01*
X-76912Y-178677D01*
X-76873Y-178747D01*
X-76834Y-178825D01*
X-76795Y-178919D01*
X-76756Y-179020D01*
X-76725Y-179129D01*
X-76694Y-179254D01*
X-76670Y-179386D01*
X-76647Y-179526D01*
X-76639Y-179682D01*
X-76631Y-179846D01*
Y-183071D01*
X-77488D01*
Y-179916D01*
Y-179908D01*
Y-179893D01*
Y-179861D01*
Y-179822D01*
X-77496Y-179776D01*
Y-179721D01*
X-77512Y-179596D01*
X-77543Y-179456D01*
X-77582Y-179316D01*
X-77636Y-179184D01*
X-77706Y-179067D01*
X-77714Y-179051D01*
X-77745Y-179020D01*
X-77792Y-178973D01*
X-77862Y-178919D01*
X-77948Y-178872D01*
X-78057Y-178825D01*
X-78181Y-178794D01*
X-78322Y-178779D01*
X-78384D01*
X-78423Y-178786D01*
X-78532Y-178794D01*
X-78641Y-178825D01*
X-78649D01*
X-78664Y-178833D01*
X-78696Y-178849D01*
X-78735Y-178864D01*
X-78836Y-178911D01*
X-78953Y-178989D01*
X-78961Y-178997D01*
X-78984Y-179012D01*
X-79015Y-179036D01*
X-79062Y-179075D01*
X-79109Y-179121D01*
X-79171Y-179176D01*
X-79241Y-179238D01*
X-79311Y-179308D01*
X-79319Y-179316D01*
X-79342Y-179340D01*
X-79381Y-179386D01*
X-79436Y-179441D01*
X-79498Y-179511D01*
X-79576Y-179596D01*
X-79654Y-179690D01*
X-79747Y-179799D01*
Y-183071D01*
X-80604D01*
Y-176114D01*
X-79747D01*
Y-178132D01*
D02*
G37*
G36*
X-67470Y-176558D02*
X-67369Y-176566D01*
X-67244Y-176582D01*
X-67120Y-176605D01*
X-66979Y-176636D01*
X-66847Y-176683D01*
X-66839D01*
X-66831Y-176691D01*
X-66785Y-176706D01*
X-66722Y-176738D01*
X-66637Y-176777D01*
X-66543Y-176823D01*
X-66442Y-176893D01*
X-66341Y-176963D01*
X-66239Y-177049D01*
X-66232Y-177057D01*
X-66200Y-177096D01*
X-66154Y-177143D01*
X-66091Y-177213D01*
X-66029Y-177298D01*
X-65967Y-177400D01*
X-65897Y-177517D01*
X-65842Y-177641D01*
X-65834Y-177657D01*
X-65819Y-177704D01*
X-65795Y-177774D01*
X-65764Y-177867D01*
X-65741Y-177984D01*
X-65718Y-178124D01*
X-65702Y-178272D01*
X-65694Y-178428D01*
Y-178436D01*
Y-178444D01*
Y-178490D01*
X-65702Y-178560D01*
X-65710Y-178654D01*
X-65718Y-178755D01*
X-65733Y-178872D01*
X-65764Y-178989D01*
X-65795Y-179114D01*
X-65803Y-179129D01*
X-65811Y-179168D01*
X-65834Y-179230D01*
X-65873Y-179308D01*
X-65912Y-179402D01*
X-65967Y-179511D01*
X-66029Y-179628D01*
X-66099Y-179745D01*
X-66107Y-179760D01*
X-66130Y-179799D01*
X-66177Y-179861D01*
X-66232Y-179939D01*
X-66309Y-180041D01*
X-66395Y-180150D01*
X-66489Y-180266D01*
X-66598Y-180391D01*
X-66613Y-180407D01*
X-66652Y-180446D01*
X-66715Y-180516D01*
X-66800Y-180601D01*
X-66909Y-180710D01*
X-67026Y-180835D01*
X-67166Y-180975D01*
X-67314Y-181123D01*
X-68475Y-182253D01*
X-65351D01*
Y-183071D01*
X-69589D01*
Y-182307D01*
X-67930Y-180656D01*
X-67922Y-180648D01*
X-67914Y-180640D01*
X-67891Y-180617D01*
X-67860Y-180586D01*
X-67790Y-180516D01*
X-67688Y-180414D01*
X-67587Y-180305D01*
X-67478Y-180189D01*
X-67369Y-180072D01*
X-67268Y-179955D01*
X-67260Y-179939D01*
X-67229Y-179908D01*
X-67182Y-179846D01*
X-67120Y-179776D01*
X-67057Y-179690D01*
X-66995Y-179604D01*
X-66925Y-179511D01*
X-66870Y-179417D01*
X-66863Y-179410D01*
X-66847Y-179378D01*
X-66824Y-179332D01*
X-66793Y-179269D01*
X-66761Y-179199D01*
X-66722Y-179121D01*
X-66699Y-179043D01*
X-66676Y-178958D01*
Y-178950D01*
X-66668Y-178919D01*
X-66660Y-178872D01*
X-66645Y-178817D01*
X-66637Y-178747D01*
X-66629Y-178670D01*
X-66621Y-178490D01*
Y-178483D01*
Y-178451D01*
Y-178405D01*
X-66629Y-178342D01*
X-66637Y-178272D01*
X-66652Y-178194D01*
X-66691Y-178039D01*
Y-178031D01*
X-66699Y-178000D01*
X-66715Y-177961D01*
X-66738Y-177906D01*
X-66800Y-177789D01*
X-66886Y-177665D01*
X-66894Y-177657D01*
X-66909Y-177633D01*
X-66940Y-177610D01*
X-66979Y-177571D01*
X-67026Y-177532D01*
X-67089Y-177485D01*
X-67151Y-177446D01*
X-67229Y-177408D01*
X-67237Y-177400D01*
X-67268Y-177392D01*
X-67314Y-177376D01*
X-67369Y-177353D01*
X-67447Y-177337D01*
X-67532Y-177322D01*
X-67626Y-177314D01*
X-67735Y-177306D01*
X-67805D01*
X-67883Y-177314D01*
X-67984Y-177330D01*
X-68101Y-177353D01*
X-68226Y-177384D01*
X-68350Y-177431D01*
X-68483Y-177493D01*
X-68498Y-177501D01*
X-68537Y-177524D01*
X-68600Y-177563D01*
X-68686Y-177618D01*
X-68779Y-177688D01*
X-68880Y-177766D01*
X-68989Y-177859D01*
X-69098Y-177961D01*
X-69566Y-177400D01*
X-69558Y-177392D01*
X-69550Y-177384D01*
X-69503Y-177337D01*
X-69425Y-177267D01*
X-69324Y-177182D01*
X-69207Y-177080D01*
X-69059Y-176979D01*
X-68904Y-176878D01*
X-68732Y-176784D01*
X-68724D01*
X-68709Y-176777D01*
X-68686Y-176761D01*
X-68647Y-176745D01*
X-68600Y-176730D01*
X-68545Y-176706D01*
X-68483Y-176691D01*
X-68413Y-176667D01*
X-68249Y-176621D01*
X-68062Y-176590D01*
X-67852Y-176558D01*
X-67626Y-176551D01*
X-67556D01*
X-67470Y-176558D01*
D02*
G37*
G36*
X87465Y-176270D02*
X87559Y-176278D01*
X87668Y-176294D01*
X87784Y-176309D01*
X87901Y-176340D01*
X88018Y-176379D01*
X88034Y-176387D01*
X88073Y-176403D01*
X88127Y-176426D01*
X88197Y-176465D01*
X88275Y-176504D01*
X88361Y-176558D01*
X88447Y-176621D01*
X88525Y-176691D01*
X88532Y-176699D01*
X88556Y-176722D01*
X88595Y-176769D01*
X88641Y-176823D01*
X88688Y-176886D01*
X88735Y-176963D01*
X88789Y-177049D01*
X88828Y-177143D01*
X88836Y-177150D01*
X88844Y-177189D01*
X88859Y-177236D01*
X88883Y-177306D01*
X88898Y-177392D01*
X88914Y-177485D01*
X88922Y-177587D01*
X88930Y-177696D01*
Y-177704D01*
Y-177711D01*
Y-177758D01*
X88922Y-177828D01*
X88914Y-177914D01*
X88898Y-178015D01*
X88875Y-178124D01*
X88844Y-178233D01*
X88797Y-178342D01*
X88789Y-178358D01*
X88774Y-178389D01*
X88750Y-178444D01*
X88712Y-178506D01*
X88665Y-178584D01*
X88610Y-178662D01*
X88540Y-178747D01*
X88470Y-178833D01*
X88462Y-178841D01*
X88431Y-178872D01*
X88392Y-178911D01*
X88338Y-178958D01*
X88267Y-179020D01*
X88190Y-179082D01*
X88096Y-179153D01*
X88003Y-179215D01*
X87995Y-179223D01*
X87956Y-179246D01*
X87909Y-179277D01*
X87839Y-179316D01*
X87761Y-179363D01*
X87668Y-179417D01*
X87473Y-179534D01*
X88743Y-181123D01*
Y-181116D01*
X88750Y-181100D01*
X88766Y-181061D01*
X88774Y-181022D01*
X88789Y-180960D01*
X88813Y-180897D01*
X88828Y-180820D01*
X88844Y-180726D01*
X88867Y-180633D01*
X88883Y-180524D01*
X88898Y-180407D01*
X88914Y-180282D01*
X88937Y-180009D01*
X88945Y-179713D01*
X89810D01*
Y-179721D01*
Y-179745D01*
Y-179776D01*
Y-179822D01*
Y-179877D01*
X89802Y-179947D01*
Y-180017D01*
X89794Y-180103D01*
X89779Y-180282D01*
X89755Y-180485D01*
X89724Y-180687D01*
X89678Y-180890D01*
Y-180897D01*
X89670Y-180913D01*
X89662Y-180944D01*
X89654Y-180975D01*
X89639Y-181022D01*
X89623Y-181077D01*
X89584Y-181209D01*
X89537Y-181349D01*
X89467Y-181513D01*
X89397Y-181676D01*
X89311Y-181832D01*
X90308Y-183071D01*
X89171D01*
X88743Y-182541D01*
X88727Y-182557D01*
X88680Y-182588D01*
X88610Y-182642D01*
X88517Y-182705D01*
X88400Y-182783D01*
X88260Y-182853D01*
X88112Y-182931D01*
X87956Y-182993D01*
X87948D01*
X87940Y-183001D01*
X87917Y-183009D01*
X87878Y-183016D01*
X87839Y-183024D01*
X87792Y-183040D01*
X87683Y-183063D01*
X87543Y-183094D01*
X87387Y-183118D01*
X87216Y-183133D01*
X87029Y-183141D01*
X86951D01*
X86904Y-183133D01*
X86857D01*
X86741Y-183125D01*
X86608Y-183110D01*
X86468Y-183086D01*
X86320Y-183055D01*
X86180Y-183009D01*
X86172D01*
X86164Y-183001D01*
X86117Y-182985D01*
X86047Y-182954D01*
X85962Y-182915D01*
X85868Y-182861D01*
X85759Y-182798D01*
X85658Y-182728D01*
X85557Y-182642D01*
X85549Y-182635D01*
X85518Y-182596D01*
X85471Y-182549D01*
X85416Y-182479D01*
X85354Y-182401D01*
X85292Y-182300D01*
X85229Y-182191D01*
X85175Y-182074D01*
Y-182066D01*
X85167Y-182058D01*
X85159Y-182011D01*
X85136Y-181949D01*
X85113Y-181856D01*
X85089Y-181747D01*
X85074Y-181622D01*
X85058Y-181490D01*
X85050Y-181342D01*
Y-181334D01*
Y-181326D01*
Y-181279D01*
X85058Y-181209D01*
X85066Y-181116D01*
X85074Y-181014D01*
X85089Y-180905D01*
X85113Y-180788D01*
X85144Y-180679D01*
X85151Y-180664D01*
X85159Y-180633D01*
X85183Y-180570D01*
X85214Y-180500D01*
X85253Y-180422D01*
X85299Y-180337D01*
X85409Y-180157D01*
X85416Y-180150D01*
X85440Y-180119D01*
X85471Y-180072D01*
X85525Y-180017D01*
X85580Y-179955D01*
X85642Y-179885D01*
X85798Y-179752D01*
X85806Y-179745D01*
X85837Y-179721D01*
X85884Y-179690D01*
X85938Y-179643D01*
X86008Y-179596D01*
X86086Y-179542D01*
X86258Y-179425D01*
X86149Y-179277D01*
Y-179269D01*
X86133Y-179262D01*
X86102Y-179215D01*
X86055Y-179153D01*
X85993Y-179059D01*
X85923Y-178958D01*
X85853Y-178841D01*
X85790Y-178716D01*
X85736Y-178592D01*
Y-178584D01*
X85728Y-178576D01*
X85712Y-178529D01*
X85697Y-178459D01*
X85673Y-178374D01*
X85642Y-178272D01*
X85627Y-178155D01*
X85611Y-178031D01*
X85603Y-177906D01*
Y-177898D01*
Y-177891D01*
Y-177844D01*
X85611Y-177774D01*
X85619Y-177688D01*
X85627Y-177587D01*
X85650Y-177478D01*
X85673Y-177361D01*
X85712Y-177252D01*
X85720Y-177236D01*
X85736Y-177197D01*
X85759Y-177143D01*
X85798Y-177073D01*
X85845Y-176987D01*
X85907Y-176901D01*
X85969Y-176815D01*
X86047Y-176730D01*
X86055Y-176722D01*
X86086Y-176691D01*
X86133Y-176652D01*
X86195Y-176605D01*
X86273Y-176551D01*
X86367Y-176496D01*
X86468Y-176434D01*
X86585Y-176387D01*
X86600Y-176379D01*
X86639Y-176364D01*
X86709Y-176348D01*
X86803Y-176325D01*
X86912Y-176301D01*
X87037Y-176278D01*
X87177Y-176270D01*
X87325Y-176262D01*
X87395D01*
X87465Y-176270D01*
D02*
G37*
G36*
X122637Y-183071D02*
X121601D01*
X120884Y-181007D01*
X120744Y-180500D01*
X120580Y-181038D01*
X119895Y-183071D01*
X118890D01*
X118173Y-178132D01*
X119007D01*
X119428Y-181497D01*
X119513Y-182237D01*
X119723Y-181591D01*
X120440Y-179363D01*
X121056D01*
X121835Y-181560D01*
X122053Y-182206D01*
X122123Y-181521D01*
X122512Y-178132D01*
X123361D01*
X122637Y-183071D01*
D02*
G37*
G36*
X-137354D02*
X-138546D01*
X-140346Y-179059D01*
X-140860Y-177766D01*
Y-181014D01*
Y-183071D01*
X-141732D01*
Y-176636D01*
X-140564D01*
X-138850Y-180438D01*
X-138227Y-181910D01*
Y-178467D01*
Y-176636D01*
X-137354D01*
Y-183071D01*
D02*
G37*
G36*
X-38375Y-180788D02*
X-41319D01*
Y-179978D01*
X-38375D01*
Y-180788D01*
D02*
G37*
G36*
X61711Y-183071D02*
X60675D01*
X59959Y-181007D01*
X59818Y-180500D01*
X59655Y-181038D01*
X58969Y-183071D01*
X57964D01*
X57248Y-178132D01*
X58081D01*
X58502Y-181497D01*
X58588Y-182237D01*
X58798Y-181591D01*
X59515Y-179363D01*
X60130D01*
X60909Y-181560D01*
X61127Y-182206D01*
X61197Y-181521D01*
X61587Y-178132D01*
X62436D01*
X61711Y-183071D01*
D02*
G37*
G36*
X126501Y-178046D02*
X126610Y-178054D01*
X126734Y-178062D01*
X126867Y-178077D01*
X127007Y-178109D01*
X127147Y-178140D01*
X127155D01*
X127163Y-178148D01*
X127210Y-178155D01*
X127272Y-178179D01*
X127358Y-178218D01*
X127451Y-178257D01*
X127552Y-178311D01*
X127654Y-178374D01*
X127755Y-178444D01*
X127763Y-178451D01*
X127794Y-178483D01*
X127841Y-178522D01*
X127895Y-178584D01*
X127957Y-178654D01*
X128020Y-178740D01*
X128082Y-178841D01*
X128137Y-178950D01*
X128145Y-178965D01*
X128160Y-179005D01*
X128183Y-179067D01*
X128207Y-179153D01*
X128230Y-179262D01*
X128253Y-179378D01*
X128269Y-179519D01*
X128277Y-179667D01*
Y-183071D01*
X127506D01*
X127482Y-182409D01*
X127474Y-182416D01*
X127467Y-182424D01*
X127443Y-182448D01*
X127412Y-182471D01*
X127334Y-182541D01*
X127225Y-182627D01*
X127101Y-182720D01*
X126960Y-182822D01*
X126812Y-182907D01*
X126657Y-182985D01*
X126649D01*
X126641Y-182993D01*
X126618Y-183001D01*
X126586Y-183009D01*
X126501Y-183040D01*
X126392Y-183071D01*
X126259Y-183102D01*
X126111Y-183133D01*
X125955Y-183149D01*
X125784Y-183157D01*
X125714D01*
X125636Y-183149D01*
X125535Y-183141D01*
X125426Y-183133D01*
X125301Y-183110D01*
X125177Y-183086D01*
X125060Y-183055D01*
X125044Y-183047D01*
X125013Y-183032D01*
X124958Y-183009D01*
X124888Y-182977D01*
X124810Y-182938D01*
X124725Y-182884D01*
X124647Y-182822D01*
X124569Y-182759D01*
X124561Y-182752D01*
X124538Y-182728D01*
X124499Y-182681D01*
X124460Y-182627D01*
X124413Y-182564D01*
X124366Y-182487D01*
X124320Y-182401D01*
X124281Y-182307D01*
Y-182292D01*
X124265Y-182261D01*
X124257Y-182214D01*
X124242Y-182144D01*
X124226Y-182058D01*
X124211Y-181965D01*
X124203Y-181863D01*
X124195Y-181754D01*
Y-181747D01*
Y-181723D01*
Y-181684D01*
X124203Y-181630D01*
X124211Y-181567D01*
X124226Y-181497D01*
X124242Y-181412D01*
X124265Y-181326D01*
X124296Y-181232D01*
X124327Y-181139D01*
X124374Y-181045D01*
X124429Y-180944D01*
X124491Y-180851D01*
X124569Y-180757D01*
X124655Y-180672D01*
X124748Y-180586D01*
X124756Y-180578D01*
X124771Y-180570D01*
X124803Y-180547D01*
X124849Y-180524D01*
X124912Y-180485D01*
X124982Y-180453D01*
X125067Y-180414D01*
X125161Y-180376D01*
X125270Y-180337D01*
X125395Y-180298D01*
X125527Y-180259D01*
X125675Y-180227D01*
X125831Y-180204D01*
X126002Y-180181D01*
X126189Y-180173D01*
X126384Y-180165D01*
X127412D01*
Y-179737D01*
Y-179729D01*
Y-179713D01*
Y-179698D01*
X127404Y-179667D01*
X127397Y-179581D01*
X127373Y-179488D01*
X127342Y-179371D01*
X127288Y-179254D01*
X127217Y-179145D01*
X127124Y-179036D01*
X127108Y-179028D01*
X127069Y-178997D01*
X127007Y-178950D01*
X126914Y-178903D01*
X126789Y-178857D01*
X126641Y-178810D01*
X126470Y-178779D01*
X126267Y-178771D01*
X126197D01*
X126111Y-178779D01*
X126010D01*
X125885Y-178794D01*
X125745Y-178810D01*
X125597Y-178833D01*
X125441Y-178864D01*
X125434D01*
X125426Y-178872D01*
X125402D01*
X125371Y-178880D01*
X125293Y-178903D01*
X125184Y-178934D01*
X125060Y-178973D01*
X124919Y-179012D01*
X124764Y-179067D01*
X124608Y-179129D01*
Y-178358D01*
X124616D01*
X124639Y-178350D01*
X124670Y-178334D01*
X124709Y-178327D01*
X124764Y-178303D01*
X124826Y-178288D01*
X124966Y-178249D01*
X124974D01*
X125005Y-178241D01*
X125044Y-178226D01*
X125099Y-178210D01*
X125161Y-178194D01*
X125231Y-178179D01*
X125387Y-178148D01*
X125395D01*
X125426Y-178140D01*
X125472Y-178132D01*
X125527Y-178116D01*
X125597Y-178109D01*
X125683Y-178093D01*
X125854Y-178070D01*
X125862D01*
X125893Y-178062D01*
X125940D01*
X126002Y-178054D01*
X126080Y-178046D01*
X126158D01*
X126337Y-178039D01*
X126415D01*
X126501Y-178046D01*
D02*
G37*
G36*
X-87709Y-183071D02*
X-88480D01*
X-88511Y-182276D01*
X-88519Y-182284D01*
X-88550Y-182315D01*
X-88589Y-182370D01*
X-88643Y-182424D01*
X-88706Y-182494D01*
X-88784Y-182564D01*
X-88854Y-182635D01*
X-88932Y-182705D01*
X-88939Y-182712D01*
X-88963Y-182728D01*
X-89010Y-182759D01*
X-89056Y-182798D01*
X-89119Y-182837D01*
X-89181Y-182884D01*
X-89329Y-182970D01*
X-89337Y-182977D01*
X-89360Y-182985D01*
X-89399Y-183001D01*
X-89454Y-183024D01*
X-89508Y-183047D01*
X-89578Y-183071D01*
X-89726Y-183110D01*
X-89734D01*
X-89757Y-183118D01*
X-89796Y-183125D01*
X-89851Y-183133D01*
X-89913Y-183141D01*
X-89983Y-183149D01*
X-90147Y-183157D01*
X-90217D01*
X-90272Y-183149D01*
X-90334Y-183141D01*
X-90412Y-183133D01*
X-90490Y-183118D01*
X-90575Y-183102D01*
X-90762Y-183047D01*
X-90856Y-183009D01*
X-90957Y-182970D01*
X-91050Y-182915D01*
X-91136Y-182861D01*
X-91222Y-182790D01*
X-91300Y-182712D01*
X-91308Y-182705D01*
X-91315Y-182689D01*
X-91331Y-182666D01*
X-91362Y-182627D01*
X-91386Y-182580D01*
X-91417Y-182526D01*
X-91456Y-182456D01*
X-91487Y-182378D01*
X-91526Y-182292D01*
X-91557Y-182191D01*
X-91596Y-182074D01*
X-91619Y-181957D01*
X-91643Y-181825D01*
X-91666Y-181684D01*
X-91674Y-181528D01*
X-91681Y-181365D01*
Y-178132D01*
X-90825D01*
Y-181295D01*
Y-181310D01*
Y-181342D01*
X-90817Y-181396D01*
X-90809Y-181474D01*
X-90801Y-181560D01*
X-90778Y-181653D01*
X-90754Y-181754D01*
X-90716Y-181856D01*
X-90677Y-181965D01*
X-90614Y-182066D01*
X-90552Y-182159D01*
X-90466Y-182245D01*
X-90373Y-182323D01*
X-90256Y-182378D01*
X-90123Y-182409D01*
X-89976Y-182424D01*
X-89913D01*
X-89874Y-182416D01*
X-89773Y-182409D01*
X-89664Y-182385D01*
X-89656D01*
X-89640Y-182378D01*
X-89609Y-182362D01*
X-89570Y-182346D01*
X-89469Y-182300D01*
X-89352Y-182222D01*
X-89345Y-182214D01*
X-89321Y-182198D01*
X-89290Y-182175D01*
X-89243Y-182136D01*
X-89189Y-182097D01*
X-89126Y-182043D01*
X-89064Y-181980D01*
X-88994Y-181910D01*
X-88986Y-181902D01*
X-88963Y-181871D01*
X-88924Y-181832D01*
X-88869Y-181770D01*
X-88807Y-181700D01*
X-88737Y-181614D01*
X-88651Y-181521D01*
X-88565Y-181412D01*
Y-178132D01*
X-87709D01*
Y-183071D01*
D02*
G37*
G36*
X11988D02*
X11217D01*
X11185Y-182276D01*
X11178Y-182284D01*
X11146Y-182315D01*
X11107Y-182370D01*
X11053Y-182424D01*
X10991Y-182494D01*
X10913Y-182564D01*
X10843Y-182635D01*
X10765Y-182705D01*
X10757Y-182712D01*
X10734Y-182728D01*
X10687Y-182759D01*
X10640Y-182798D01*
X10578Y-182837D01*
X10515Y-182884D01*
X10368Y-182970D01*
X10360Y-182977D01*
X10336Y-182985D01*
X10297Y-183001D01*
X10243Y-183024D01*
X10188Y-183047D01*
X10118Y-183071D01*
X9970Y-183110D01*
X9962D01*
X9939Y-183118D01*
X9900Y-183125D01*
X9845Y-183133D01*
X9783Y-183141D01*
X9713Y-183149D01*
X9550Y-183157D01*
X9479D01*
X9425Y-183149D01*
X9363Y-183141D01*
X9285Y-183133D01*
X9207Y-183118D01*
X9121Y-183102D01*
X8934Y-183047D01*
X8841Y-183009D01*
X8739Y-182970D01*
X8646Y-182915D01*
X8560Y-182861D01*
X8474Y-182790D01*
X8397Y-182712D01*
X8389Y-182705D01*
X8381Y-182689D01*
X8365Y-182666D01*
X8334Y-182627D01*
X8311Y-182580D01*
X8280Y-182526D01*
X8241Y-182456D01*
X8210Y-182378D01*
X8171Y-182292D01*
X8140Y-182191D01*
X8101Y-182074D01*
X8077Y-181957D01*
X8054Y-181825D01*
X8031Y-181684D01*
X8023Y-181528D01*
X8015Y-181365D01*
Y-178132D01*
X8872D01*
Y-181295D01*
Y-181310D01*
Y-181342D01*
X8880Y-181396D01*
X8887Y-181474D01*
X8895Y-181560D01*
X8918Y-181653D01*
X8942Y-181754D01*
X8981Y-181856D01*
X9020Y-181965D01*
X9082Y-182066D01*
X9144Y-182159D01*
X9230Y-182245D01*
X9324Y-182323D01*
X9441Y-182378D01*
X9573Y-182409D01*
X9721Y-182424D01*
X9783D01*
X9822Y-182416D01*
X9923Y-182409D01*
X10033Y-182385D01*
X10040D01*
X10056Y-182378D01*
X10087Y-182362D01*
X10126Y-182346D01*
X10227Y-182300D01*
X10344Y-182222D01*
X10352Y-182214D01*
X10375Y-182198D01*
X10406Y-182175D01*
X10453Y-182136D01*
X10508Y-182097D01*
X10570Y-182043D01*
X10632Y-181980D01*
X10702Y-181910D01*
X10710Y-181902D01*
X10734Y-181871D01*
X10773Y-181832D01*
X10827Y-181770D01*
X10889Y-181700D01*
X10960Y-181614D01*
X11045Y-181521D01*
X11131Y-181412D01*
Y-178132D01*
X11988D01*
Y-183071D01*
D02*
G37*
G36*
X26797Y-178046D02*
X26851D01*
X26968Y-178062D01*
X27116Y-178077D01*
X27264Y-178109D01*
X27420Y-178148D01*
X27576Y-178202D01*
X27583D01*
X27591Y-178210D01*
X27646Y-178233D01*
X27716Y-178272D01*
X27809Y-178319D01*
X27911Y-178389D01*
X28027Y-178467D01*
X28137Y-178560D01*
X28245Y-178670D01*
X28261Y-178685D01*
X28292Y-178724D01*
X28339Y-178786D01*
X28401Y-178872D01*
X28464Y-178973D01*
X28534Y-179098D01*
X28604Y-179238D01*
X28658Y-179394D01*
Y-179402D01*
X28666Y-179410D01*
X28674Y-179433D01*
X28682Y-179464D01*
X28690Y-179511D01*
X28705Y-179558D01*
X28736Y-179667D01*
X28760Y-179807D01*
X28783Y-179971D01*
X28799Y-180150D01*
X28806Y-180344D01*
Y-180352D01*
Y-180376D01*
Y-180407D01*
Y-180446D01*
Y-180547D01*
X28799Y-180648D01*
Y-180656D01*
Y-180672D01*
Y-180695D01*
X28791Y-180726D01*
Y-180796D01*
X28783Y-180874D01*
X25317D01*
Y-180882D01*
Y-180905D01*
Y-180944D01*
X25324Y-180999D01*
X25332Y-181061D01*
X25340Y-181139D01*
X25355Y-181217D01*
X25371Y-181302D01*
X25418Y-181497D01*
X25496Y-181692D01*
X25542Y-181786D01*
X25597Y-181879D01*
X25667Y-181965D01*
X25737Y-182043D01*
X25745Y-182050D01*
X25760Y-182058D01*
X25784Y-182081D01*
X25815Y-182105D01*
X25862Y-182136D01*
X25916Y-182167D01*
X25979Y-182206D01*
X26049Y-182237D01*
X26127Y-182276D01*
X26220Y-182315D01*
X26321Y-182346D01*
X26430Y-182378D01*
X26547Y-182401D01*
X26680Y-182424D01*
X26812Y-182432D01*
X26960Y-182440D01*
X27093D01*
X27155Y-182432D01*
X27233D01*
X27389Y-182424D01*
X27428D01*
X27466Y-182416D01*
X27521D01*
X27591Y-182409D01*
X27661Y-182401D01*
X27809Y-182385D01*
X27817D01*
X27840Y-182378D01*
X27879Y-182370D01*
X27934Y-182362D01*
X27988Y-182354D01*
X28059Y-182339D01*
X28191Y-182315D01*
X28199D01*
X28222Y-182307D01*
X28261Y-182300D01*
X28308Y-182292D01*
X28417Y-182261D01*
X28541Y-182229D01*
Y-182931D01*
X28526Y-182938D01*
X28479Y-182946D01*
X28409Y-182970D01*
X28308Y-182985D01*
X28191Y-183016D01*
X28059Y-183040D01*
X27911Y-183071D01*
X27747Y-183094D01*
X27731D01*
X27700Y-183102D01*
X27669D01*
X27630Y-183110D01*
X27583D01*
X27466Y-183125D01*
X27334Y-183133D01*
X27178Y-183149D01*
X27015Y-183157D01*
X26726D01*
X26672Y-183149D01*
X26610D01*
X26462Y-183133D01*
X26290Y-183118D01*
X26103Y-183086D01*
X25916Y-183040D01*
X25737Y-182985D01*
X25729D01*
X25714Y-182977D01*
X25690Y-182970D01*
X25659Y-182954D01*
X25581Y-182915D01*
X25472Y-182861D01*
X25355Y-182790D01*
X25231Y-182705D01*
X25106Y-182604D01*
X24989Y-182487D01*
X24974Y-182471D01*
X24943Y-182424D01*
X24888Y-182354D01*
X24826Y-182261D01*
X24756Y-182144D01*
X24686Y-182011D01*
X24623Y-181856D01*
X24561Y-181684D01*
Y-181676D01*
X24553Y-181661D01*
X24545Y-181638D01*
X24538Y-181599D01*
X24530Y-181552D01*
X24514Y-181505D01*
X24506Y-181443D01*
X24491Y-181373D01*
X24467Y-181209D01*
X24444Y-181030D01*
X24428Y-180827D01*
X24421Y-180609D01*
Y-180601D01*
Y-180586D01*
Y-180555D01*
Y-180524D01*
X24428Y-180477D01*
Y-180422D01*
X24436Y-180290D01*
X24460Y-180142D01*
X24483Y-179978D01*
X24522Y-179799D01*
X24569Y-179628D01*
Y-179620D01*
X24576Y-179604D01*
X24584Y-179581D01*
X24600Y-179550D01*
X24631Y-179464D01*
X24678Y-179347D01*
X24740Y-179223D01*
X24818Y-179082D01*
X24904Y-178942D01*
X25005Y-178810D01*
Y-178802D01*
X25021Y-178794D01*
X25059Y-178755D01*
X25122Y-178685D01*
X25200Y-178607D01*
X25301Y-178522D01*
X25425Y-178428D01*
X25558Y-178334D01*
X25706Y-178249D01*
X25714D01*
X25722Y-178241D01*
X25745Y-178226D01*
X25784Y-178218D01*
X25823Y-178202D01*
X25870Y-178179D01*
X25986Y-178140D01*
X26127Y-178109D01*
X26290Y-178070D01*
X26469Y-178046D01*
X26664Y-178039D01*
X26750D01*
X26797Y-178046D01*
D02*
G37*
G36*
X76645D02*
X76699D01*
X76816Y-178062D01*
X76964Y-178077D01*
X77112Y-178109D01*
X77268Y-178148D01*
X77424Y-178202D01*
X77432D01*
X77439Y-178210D01*
X77494Y-178233D01*
X77564Y-178272D01*
X77658Y-178319D01*
X77759Y-178389D01*
X77876Y-178467D01*
X77985Y-178560D01*
X78094Y-178670D01*
X78109Y-178685D01*
X78140Y-178724D01*
X78187Y-178786D01*
X78250Y-178872D01*
X78312Y-178973D01*
X78382Y-179098D01*
X78452Y-179238D01*
X78507Y-179394D01*
Y-179402D01*
X78514Y-179410D01*
X78522Y-179433D01*
X78530Y-179464D01*
X78538Y-179511D01*
X78553Y-179558D01*
X78584Y-179667D01*
X78608Y-179807D01*
X78631Y-179971D01*
X78647Y-180150D01*
X78655Y-180344D01*
Y-180352D01*
Y-180376D01*
Y-180407D01*
Y-180446D01*
Y-180547D01*
X78647Y-180648D01*
Y-180656D01*
Y-180672D01*
Y-180695D01*
X78639Y-180726D01*
Y-180796D01*
X78631Y-180874D01*
X75165D01*
Y-180882D01*
Y-180905D01*
Y-180944D01*
X75173Y-180999D01*
X75180Y-181061D01*
X75188Y-181139D01*
X75204Y-181217D01*
X75219Y-181302D01*
X75266Y-181497D01*
X75344Y-181692D01*
X75391Y-181786D01*
X75445Y-181879D01*
X75515Y-181965D01*
X75585Y-182043D01*
X75593Y-182050D01*
X75609Y-182058D01*
X75632Y-182081D01*
X75663Y-182105D01*
X75710Y-182136D01*
X75765Y-182167D01*
X75827Y-182206D01*
X75897Y-182237D01*
X75975Y-182276D01*
X76068Y-182315D01*
X76170Y-182346D01*
X76279Y-182378D01*
X76395Y-182401D01*
X76528Y-182424D01*
X76660Y-182432D01*
X76808Y-182440D01*
X76941D01*
X77003Y-182432D01*
X77081D01*
X77237Y-182424D01*
X77276D01*
X77315Y-182416D01*
X77369D01*
X77439Y-182409D01*
X77509Y-182401D01*
X77658Y-182385D01*
X77665D01*
X77689Y-182378D01*
X77728Y-182370D01*
X77782Y-182362D01*
X77837Y-182354D01*
X77907Y-182339D01*
X78039Y-182315D01*
X78047D01*
X78070Y-182307D01*
X78109Y-182300D01*
X78156Y-182292D01*
X78265Y-182261D01*
X78390Y-182229D01*
Y-182931D01*
X78374Y-182938D01*
X78327Y-182946D01*
X78257Y-182970D01*
X78156Y-182985D01*
X78039Y-183016D01*
X77907Y-183040D01*
X77759Y-183071D01*
X77595Y-183094D01*
X77580D01*
X77548Y-183102D01*
X77517D01*
X77478Y-183110D01*
X77432D01*
X77315Y-183125D01*
X77182Y-183133D01*
X77026Y-183149D01*
X76863Y-183157D01*
X76575D01*
X76520Y-183149D01*
X76458D01*
X76310Y-183133D01*
X76138Y-183118D01*
X75951Y-183086D01*
X75765Y-183040D01*
X75585Y-182985D01*
X75578D01*
X75562Y-182977D01*
X75539Y-182970D01*
X75507Y-182954D01*
X75429Y-182915D01*
X75321Y-182861D01*
X75204Y-182790D01*
X75079Y-182705D01*
X74954Y-182604D01*
X74837Y-182487D01*
X74822Y-182471D01*
X74791Y-182424D01*
X74736Y-182354D01*
X74674Y-182261D01*
X74604Y-182144D01*
X74534Y-182011D01*
X74471Y-181856D01*
X74409Y-181684D01*
Y-181676D01*
X74401Y-181661D01*
X74393Y-181638D01*
X74386Y-181599D01*
X74378Y-181552D01*
X74362Y-181505D01*
X74354Y-181443D01*
X74339Y-181373D01*
X74316Y-181209D01*
X74292Y-181030D01*
X74277Y-180827D01*
X74269Y-180609D01*
Y-180601D01*
Y-180586D01*
Y-180555D01*
Y-180524D01*
X74277Y-180477D01*
Y-180422D01*
X74284Y-180290D01*
X74308Y-180142D01*
X74331Y-179978D01*
X74370Y-179799D01*
X74417Y-179628D01*
Y-179620D01*
X74425Y-179604D01*
X74432Y-179581D01*
X74448Y-179550D01*
X74479Y-179464D01*
X74526Y-179347D01*
X74588Y-179223D01*
X74666Y-179082D01*
X74752Y-178942D01*
X74853Y-178810D01*
Y-178802D01*
X74869Y-178794D01*
X74908Y-178755D01*
X74970Y-178685D01*
X75048Y-178607D01*
X75149Y-178522D01*
X75274Y-178428D01*
X75406Y-178334D01*
X75554Y-178249D01*
X75562D01*
X75570Y-178241D01*
X75593Y-178226D01*
X75632Y-178218D01*
X75671Y-178202D01*
X75718Y-178179D01*
X75835Y-178140D01*
X75975Y-178109D01*
X76138Y-178070D01*
X76318Y-178046D01*
X76512Y-178039D01*
X76598D01*
X76645Y-178046D01*
D02*
G37*
G36*
X104338D02*
X104393D01*
X104517Y-178062D01*
X104665Y-178077D01*
X104829Y-178109D01*
X104993Y-178155D01*
X105156Y-178210D01*
X105164D01*
X105172Y-178218D01*
X105195Y-178226D01*
X105226Y-178241D01*
X105304Y-178280D01*
X105405Y-178334D01*
X105515Y-178397D01*
X105631Y-178483D01*
X105748Y-178584D01*
X105865Y-178693D01*
X105881Y-178709D01*
X105912Y-178747D01*
X105966Y-178817D01*
X106036Y-178911D01*
X106107Y-179020D01*
X106184Y-179153D01*
X106255Y-179308D01*
X106317Y-179480D01*
Y-179488D01*
X106325Y-179503D01*
X106333Y-179526D01*
X106340Y-179565D01*
X106356Y-179604D01*
X106364Y-179659D01*
X106379Y-179721D01*
X106395Y-179791D01*
X106426Y-179955D01*
X106449Y-180134D01*
X106465Y-180344D01*
X106473Y-180562D01*
Y-180570D01*
Y-180586D01*
Y-180617D01*
Y-180656D01*
X106465Y-180710D01*
Y-180773D01*
X106449Y-180913D01*
X106434Y-181077D01*
X106403Y-181256D01*
X106364Y-181435D01*
X106309Y-181622D01*
Y-181630D01*
X106301Y-181645D01*
X106293Y-181669D01*
X106278Y-181700D01*
X106239Y-181793D01*
X106192Y-181902D01*
X106122Y-182027D01*
X106036Y-182167D01*
X105943Y-182307D01*
X105834Y-182440D01*
X105818Y-182456D01*
X105779Y-182494D01*
X105717Y-182557D01*
X105631Y-182635D01*
X105522Y-182720D01*
X105398Y-182806D01*
X105250Y-182892D01*
X105094Y-182970D01*
X105086D01*
X105070Y-182977D01*
X105047Y-182985D01*
X105016Y-183001D01*
X104977Y-183016D01*
X104930Y-183032D01*
X104806Y-183063D01*
X104658Y-183094D01*
X104494Y-183125D01*
X104307Y-183149D01*
X104104Y-183157D01*
X104011D01*
X103964Y-183149D01*
X103910D01*
X103785Y-183133D01*
X103637Y-183118D01*
X103474Y-183086D01*
X103310Y-183047D01*
X103146Y-182993D01*
X103139D01*
X103131Y-182985D01*
X103107Y-182977D01*
X103076Y-182962D01*
X102998Y-182923D01*
X102897Y-182868D01*
X102788Y-182806D01*
X102663Y-182720D01*
X102547Y-182619D01*
X102430Y-182510D01*
X102414Y-182494D01*
X102383Y-182456D01*
X102328Y-182385D01*
X102266Y-182292D01*
X102196Y-182175D01*
X102118Y-182043D01*
X102048Y-181895D01*
X101986Y-181723D01*
Y-181715D01*
X101978Y-181700D01*
X101970Y-181676D01*
X101962Y-181638D01*
X101954Y-181591D01*
X101939Y-181544D01*
X101923Y-181482D01*
X101916Y-181412D01*
X101884Y-181248D01*
X101861Y-181061D01*
X101845Y-180859D01*
X101838Y-180633D01*
Y-180625D01*
Y-180609D01*
Y-180578D01*
Y-180531D01*
X101845Y-180485D01*
Y-180422D01*
X101861Y-180282D01*
X101877Y-180119D01*
X101900Y-179947D01*
X101939Y-179760D01*
X101993Y-179581D01*
Y-179573D01*
X102001Y-179558D01*
X102009Y-179534D01*
X102025Y-179503D01*
X102064Y-179410D01*
X102110Y-179300D01*
X102180Y-179176D01*
X102258Y-179036D01*
X102352Y-178895D01*
X102461Y-178763D01*
Y-178755D01*
X102476Y-178747D01*
X102515Y-178709D01*
X102585Y-178646D01*
X102671Y-178568D01*
X102780Y-178483D01*
X102905Y-178397D01*
X103053Y-178311D01*
X103209Y-178233D01*
X103217D01*
X103232Y-178226D01*
X103255Y-178218D01*
X103287Y-178202D01*
X103325Y-178187D01*
X103372Y-178171D01*
X103497Y-178132D01*
X103645Y-178101D01*
X103808Y-178070D01*
X103996Y-178046D01*
X104198Y-178039D01*
X104291D01*
X104338Y-178046D01*
D02*
G37*
G36*
X4642D02*
X4696D01*
X4821Y-178062D01*
X4969Y-178077D01*
X5133Y-178109D01*
X5296Y-178155D01*
X5460Y-178210D01*
X5468D01*
X5475Y-178218D01*
X5499Y-178226D01*
X5530Y-178241D01*
X5608Y-178280D01*
X5709Y-178334D01*
X5818Y-178397D01*
X5935Y-178483D01*
X6052Y-178584D01*
X6169Y-178693D01*
X6184Y-178709D01*
X6215Y-178747D01*
X6270Y-178817D01*
X6340Y-178911D01*
X6410Y-179020D01*
X6488Y-179153D01*
X6558Y-179308D01*
X6621Y-179480D01*
Y-179488D01*
X6628Y-179503D01*
X6636Y-179526D01*
X6644Y-179565D01*
X6659Y-179604D01*
X6667Y-179659D01*
X6683Y-179721D01*
X6698Y-179791D01*
X6729Y-179955D01*
X6753Y-180134D01*
X6769Y-180344D01*
X6776Y-180562D01*
Y-180570D01*
Y-180586D01*
Y-180617D01*
Y-180656D01*
X6769Y-180710D01*
Y-180773D01*
X6753Y-180913D01*
X6737Y-181077D01*
X6706Y-181256D01*
X6667Y-181435D01*
X6613Y-181622D01*
Y-181630D01*
X6605Y-181645D01*
X6597Y-181669D01*
X6582Y-181700D01*
X6543Y-181793D01*
X6496Y-181902D01*
X6426Y-182027D01*
X6340Y-182167D01*
X6247Y-182307D01*
X6137Y-182440D01*
X6122Y-182456D01*
X6083Y-182494D01*
X6021Y-182557D01*
X5935Y-182635D01*
X5826Y-182720D01*
X5701Y-182806D01*
X5553Y-182892D01*
X5397Y-182970D01*
X5390D01*
X5374Y-182977D01*
X5351Y-182985D01*
X5320Y-183001D01*
X5281Y-183016D01*
X5234Y-183032D01*
X5109Y-183063D01*
X4961Y-183094D01*
X4798Y-183125D01*
X4611Y-183149D01*
X4408Y-183157D01*
X4315D01*
X4268Y-183149D01*
X4213D01*
X4089Y-183133D01*
X3941Y-183118D01*
X3777Y-183086D01*
X3613Y-183047D01*
X3450Y-182993D01*
X3442D01*
X3434Y-182985D01*
X3411Y-182977D01*
X3380Y-182962D01*
X3302Y-182923D01*
X3201Y-182868D01*
X3092Y-182806D01*
X2967Y-182720D01*
X2850Y-182619D01*
X2733Y-182510D01*
X2718Y-182494D01*
X2686Y-182456D01*
X2632Y-182385D01*
X2570Y-182292D01*
X2500Y-182175D01*
X2422Y-182043D01*
X2352Y-181895D01*
X2289Y-181723D01*
Y-181715D01*
X2281Y-181700D01*
X2274Y-181676D01*
X2266Y-181638D01*
X2258Y-181591D01*
X2242Y-181544D01*
X2227Y-181482D01*
X2219Y-181412D01*
X2188Y-181248D01*
X2165Y-181061D01*
X2149Y-180859D01*
X2141Y-180633D01*
Y-180625D01*
Y-180609D01*
Y-180578D01*
Y-180531D01*
X2149Y-180485D01*
Y-180422D01*
X2165Y-180282D01*
X2180Y-180119D01*
X2204Y-179947D01*
X2242Y-179760D01*
X2297Y-179581D01*
Y-179573D01*
X2305Y-179558D01*
X2313Y-179534D01*
X2328Y-179503D01*
X2367Y-179410D01*
X2414Y-179300D01*
X2484Y-179176D01*
X2562Y-179036D01*
X2655Y-178895D01*
X2764Y-178763D01*
Y-178755D01*
X2780Y-178747D01*
X2819Y-178709D01*
X2889Y-178646D01*
X2975Y-178568D01*
X3084Y-178483D01*
X3209Y-178397D01*
X3356Y-178311D01*
X3512Y-178233D01*
X3520D01*
X3536Y-178226D01*
X3559Y-178218D01*
X3590Y-178202D01*
X3629Y-178187D01*
X3676Y-178171D01*
X3801Y-178132D01*
X3949Y-178101D01*
X4112Y-178070D01*
X4299Y-178046D01*
X4502Y-178039D01*
X4595D01*
X4642Y-178046D01*
D02*
G37*
G36*
X-61822Y-176558D02*
X-61768D01*
X-61643Y-176574D01*
X-61503Y-176597D01*
X-61339Y-176636D01*
X-61184Y-176683D01*
X-61020Y-176745D01*
X-61012D01*
X-61005Y-176753D01*
X-60981Y-176769D01*
X-60950Y-176784D01*
X-60872Y-176831D01*
X-60771Y-176893D01*
X-60654Y-176979D01*
X-60537Y-177080D01*
X-60413Y-177205D01*
X-60296Y-177353D01*
Y-177361D01*
X-60280Y-177369D01*
X-60264Y-177392D01*
X-60249Y-177423D01*
X-60218Y-177462D01*
X-60194Y-177517D01*
X-60155Y-177571D01*
X-60124Y-177633D01*
X-60046Y-177781D01*
X-59968Y-177961D01*
X-59898Y-178155D01*
X-59828Y-178381D01*
Y-178389D01*
X-59820Y-178412D01*
X-59813Y-178444D01*
X-59805Y-178490D01*
X-59789Y-178553D01*
X-59774Y-178623D01*
X-59758Y-178709D01*
X-59742Y-178802D01*
X-59735Y-178903D01*
X-59719Y-179020D01*
X-59704Y-179137D01*
X-59688Y-179269D01*
X-59672Y-179550D01*
X-59665Y-179861D01*
Y-179869D01*
Y-179893D01*
Y-179931D01*
Y-179986D01*
X-59672Y-180048D01*
Y-180126D01*
X-59680Y-180212D01*
Y-180305D01*
X-59704Y-180516D01*
X-59727Y-180742D01*
X-59766Y-180975D01*
X-59813Y-181209D01*
Y-181217D01*
X-59820Y-181232D01*
X-59828Y-181264D01*
X-59844Y-181310D01*
X-59859Y-181365D01*
X-59875Y-181419D01*
X-59922Y-181560D01*
X-59984Y-181723D01*
X-60062Y-181902D01*
X-60155Y-182074D01*
X-60264Y-182245D01*
Y-182253D01*
X-60280Y-182261D01*
X-60296Y-182284D01*
X-60319Y-182315D01*
X-60381Y-182393D01*
X-60467Y-182494D01*
X-60576Y-182604D01*
X-60701Y-182712D01*
X-60849Y-182822D01*
X-61012Y-182923D01*
X-61020D01*
X-61036Y-182931D01*
X-61059Y-182946D01*
X-61090Y-182962D01*
X-61137Y-182977D01*
X-61184Y-182993D01*
X-61246Y-183016D01*
X-61308Y-183040D01*
X-61464Y-183079D01*
X-61643Y-183118D01*
X-61838Y-183149D01*
X-62056Y-183157D01*
X-62142D01*
X-62189Y-183149D01*
X-62243D01*
X-62368Y-183133D01*
X-62516Y-183110D01*
X-62672Y-183079D01*
X-62835Y-183032D01*
X-62999Y-182970D01*
X-63007D01*
X-63014Y-182962D01*
X-63038Y-182946D01*
X-63069Y-182931D01*
X-63147Y-182884D01*
X-63248Y-182822D01*
X-63357Y-182736D01*
X-63482Y-182635D01*
X-63606Y-182510D01*
X-63723Y-182370D01*
Y-182362D01*
X-63739Y-182354D01*
X-63754Y-182331D01*
X-63770Y-182300D01*
X-63793Y-182253D01*
X-63824Y-182206D01*
X-63856Y-182152D01*
X-63895Y-182089D01*
X-63965Y-181941D01*
X-64043Y-181762D01*
X-64113Y-181567D01*
X-64183Y-181342D01*
Y-181334D01*
X-64191Y-181310D01*
X-64198Y-181279D01*
X-64206Y-181232D01*
X-64222Y-181170D01*
X-64230Y-181100D01*
X-64245Y-181014D01*
X-64261Y-180921D01*
X-64276Y-180820D01*
X-64292Y-180703D01*
X-64300Y-180586D01*
X-64315Y-180453D01*
X-64331Y-180173D01*
X-64339Y-179861D01*
Y-179854D01*
Y-179830D01*
Y-179791D01*
Y-179737D01*
X-64331Y-179674D01*
Y-179596D01*
X-64323Y-179511D01*
Y-179417D01*
X-64300Y-179207D01*
X-64276Y-178981D01*
X-64237Y-178747D01*
X-64191Y-178514D01*
Y-178506D01*
X-64183Y-178490D01*
X-64175Y-178451D01*
X-64160Y-178412D01*
X-64144Y-178358D01*
X-64128Y-178296D01*
X-64082Y-178155D01*
X-64019Y-177992D01*
X-63941Y-177820D01*
X-63848Y-177641D01*
X-63747Y-177470D01*
Y-177462D01*
X-63731Y-177454D01*
X-63715Y-177431D01*
X-63692Y-177400D01*
X-63630Y-177322D01*
X-63544Y-177221D01*
X-63435Y-177111D01*
X-63310Y-177003D01*
X-63162Y-176893D01*
X-63007Y-176792D01*
X-62999D01*
X-62983Y-176784D01*
X-62960Y-176769D01*
X-62929Y-176753D01*
X-62882Y-176738D01*
X-62835Y-176714D01*
X-62773Y-176691D01*
X-62703Y-176667D01*
X-62555Y-176628D01*
X-62375Y-176590D01*
X-62173Y-176558D01*
X-61955Y-176551D01*
X-61869D01*
X-61822Y-176558D01*
D02*
G37*
G36*
X-28567D02*
X-28505Y-176566D01*
X-28357Y-176582D01*
X-28193Y-176605D01*
X-28006Y-176652D01*
X-27827Y-176706D01*
X-27648Y-176784D01*
X-27640D01*
X-27624Y-176792D01*
X-27601Y-176808D01*
X-27570Y-176823D01*
X-27484Y-176878D01*
X-27375Y-176948D01*
X-27250Y-177041D01*
X-27126Y-177150D01*
X-26993Y-177283D01*
X-26877Y-177431D01*
Y-177439D01*
X-26861Y-177446D01*
X-26845Y-177470D01*
X-26830Y-177509D01*
X-26799Y-177548D01*
X-26775Y-177594D01*
X-26744Y-177649D01*
X-26705Y-177719D01*
X-26635Y-177867D01*
X-26557Y-178039D01*
X-26487Y-178241D01*
X-26425Y-178459D01*
Y-178467D01*
X-26417Y-178483D01*
X-26409Y-178522D01*
X-26401Y-178568D01*
X-26386Y-178623D01*
X-26378Y-178685D01*
X-26362Y-178763D01*
X-26347Y-178857D01*
X-26331Y-178950D01*
X-26316Y-179051D01*
X-26292Y-179285D01*
X-26277Y-179542D01*
X-26269Y-179815D01*
Y-179822D01*
Y-179854D01*
Y-179900D01*
Y-179963D01*
X-26277Y-180033D01*
Y-180119D01*
X-26285Y-180220D01*
X-26292Y-180329D01*
X-26323Y-180562D01*
X-26355Y-180812D01*
X-26409Y-181061D01*
X-26479Y-181310D01*
Y-181318D01*
X-26487Y-181342D01*
X-26503Y-181373D01*
X-26518Y-181412D01*
X-26534Y-181466D01*
X-26565Y-181528D01*
X-26627Y-181676D01*
X-26705Y-181840D01*
X-26799Y-182019D01*
X-26908Y-182191D01*
X-27032Y-182354D01*
Y-182362D01*
X-27048Y-182370D01*
X-27095Y-182416D01*
X-27165Y-182494D01*
X-27258Y-182580D01*
X-27383Y-182681D01*
X-27515Y-182783D01*
X-27671Y-182876D01*
X-27843Y-182962D01*
X-27850D01*
X-27866Y-182970D01*
X-27889Y-182977D01*
X-27920Y-182993D01*
X-27967Y-183009D01*
X-28014Y-183024D01*
X-28139Y-183055D01*
X-28286Y-183094D01*
X-28450Y-183125D01*
X-28637Y-183149D01*
X-28824Y-183157D01*
X-28925D01*
X-28980Y-183149D01*
X-29042Y-183141D01*
X-29190Y-183125D01*
X-29362Y-183102D01*
X-29541Y-183063D01*
X-29728Y-183009D01*
X-29907Y-182938D01*
X-29915D01*
X-29930Y-182931D01*
X-29954Y-182915D01*
X-29985Y-182899D01*
X-30070Y-182845D01*
X-30172Y-182775D01*
X-30296Y-182681D01*
X-30421Y-182572D01*
X-30553Y-182440D01*
X-30670Y-182292D01*
Y-182284D01*
X-30686Y-182269D01*
X-30701Y-182245D01*
X-30717Y-182214D01*
X-30748Y-182175D01*
X-30771Y-182121D01*
X-30803Y-182066D01*
X-30842Y-182004D01*
X-30912Y-181848D01*
X-30990Y-181676D01*
X-31060Y-181474D01*
X-31122Y-181256D01*
Y-181248D01*
X-31130Y-181225D01*
X-31138Y-181193D01*
X-31145Y-181147D01*
X-31153Y-181092D01*
X-31169Y-181022D01*
X-31177Y-180944D01*
X-31192Y-180859D01*
X-31208Y-180757D01*
X-31216Y-180656D01*
X-31239Y-180422D01*
X-31255Y-180165D01*
X-31262Y-179893D01*
Y-179885D01*
Y-179854D01*
Y-179807D01*
Y-179752D01*
X-31255Y-179674D01*
Y-179589D01*
X-31247Y-179488D01*
X-31239Y-179386D01*
X-31216Y-179153D01*
X-31177Y-178903D01*
X-31130Y-178646D01*
X-31067Y-178405D01*
Y-178397D01*
X-31060Y-178374D01*
X-31044Y-178342D01*
X-31029Y-178296D01*
X-31013Y-178249D01*
X-30982Y-178187D01*
X-30920Y-178039D01*
X-30842Y-177875D01*
X-30748Y-177704D01*
X-30647Y-177532D01*
X-30522Y-177369D01*
X-30514Y-177361D01*
X-30507Y-177353D01*
X-30483Y-177330D01*
X-30460Y-177298D01*
X-30390Y-177228D01*
X-30288Y-177135D01*
X-30172Y-177034D01*
X-30031Y-176932D01*
X-29876Y-176839D01*
X-29712Y-176753D01*
X-29704D01*
X-29689Y-176745D01*
X-29665Y-176738D01*
X-29634Y-176722D01*
X-29587Y-176706D01*
X-29533Y-176691D01*
X-29416Y-176652D01*
X-29268Y-176613D01*
X-29097Y-176582D01*
X-28918Y-176558D01*
X-28723Y-176551D01*
X-28622D01*
X-28567Y-176558D01*
D02*
G37*
G36*
X-17513Y-178046D02*
X-17458D01*
X-17342Y-178062D01*
X-17194Y-178077D01*
X-17045Y-178109D01*
X-16890Y-178148D01*
X-16734Y-178202D01*
X-16726D01*
X-16718Y-178210D01*
X-16664Y-178233D01*
X-16594Y-178272D01*
X-16500Y-178319D01*
X-16399Y-178389D01*
X-16282Y-178467D01*
X-16173Y-178560D01*
X-16064Y-178670D01*
X-16048Y-178685D01*
X-16017Y-178724D01*
X-15970Y-178786D01*
X-15908Y-178872D01*
X-15846Y-178973D01*
X-15776Y-179098D01*
X-15706Y-179238D01*
X-15651Y-179394D01*
Y-179402D01*
X-15643Y-179410D01*
X-15636Y-179433D01*
X-15628Y-179464D01*
X-15620Y-179511D01*
X-15604Y-179558D01*
X-15573Y-179667D01*
X-15550Y-179807D01*
X-15527Y-179971D01*
X-15511Y-180150D01*
X-15503Y-180344D01*
Y-180352D01*
Y-180376D01*
Y-180407D01*
Y-180446D01*
Y-180547D01*
X-15511Y-180648D01*
Y-180656D01*
Y-180672D01*
Y-180695D01*
X-15519Y-180726D01*
Y-180796D01*
X-15527Y-180874D01*
X-18993D01*
Y-180882D01*
Y-180905D01*
Y-180944D01*
X-18985Y-180999D01*
X-18978Y-181061D01*
X-18970Y-181139D01*
X-18954Y-181217D01*
X-18938Y-181302D01*
X-18892Y-181497D01*
X-18814Y-181692D01*
X-18767Y-181786D01*
X-18713Y-181879D01*
X-18643Y-181965D01*
X-18572Y-182043D01*
X-18565Y-182050D01*
X-18549Y-182058D01*
X-18526Y-182081D01*
X-18495Y-182105D01*
X-18448Y-182136D01*
X-18393Y-182167D01*
X-18331Y-182206D01*
X-18261Y-182237D01*
X-18183Y-182276D01*
X-18089Y-182315D01*
X-17988Y-182346D01*
X-17879Y-182378D01*
X-17762Y-182401D01*
X-17630Y-182424D01*
X-17497Y-182432D01*
X-17349Y-182440D01*
X-17217D01*
X-17155Y-182432D01*
X-17077D01*
X-16921Y-182424D01*
X-16882D01*
X-16843Y-182416D01*
X-16789D01*
X-16718Y-182409D01*
X-16648Y-182401D01*
X-16500Y-182385D01*
X-16492D01*
X-16469Y-182378D01*
X-16430Y-182370D01*
X-16376Y-182362D01*
X-16321Y-182354D01*
X-16251Y-182339D01*
X-16118Y-182315D01*
X-16111D01*
X-16087Y-182307D01*
X-16048Y-182300D01*
X-16002Y-182292D01*
X-15893Y-182261D01*
X-15768Y-182229D01*
Y-182931D01*
X-15784Y-182938D01*
X-15830Y-182946D01*
X-15900Y-182970D01*
X-16002Y-182985D01*
X-16118Y-183016D01*
X-16251Y-183040D01*
X-16399Y-183071D01*
X-16563Y-183094D01*
X-16578D01*
X-16609Y-183102D01*
X-16641D01*
X-16679Y-183110D01*
X-16726D01*
X-16843Y-183125D01*
X-16975Y-183133D01*
X-17131Y-183149D01*
X-17295Y-183157D01*
X-17583D01*
X-17638Y-183149D01*
X-17700D01*
X-17848Y-183133D01*
X-18019Y-183118D01*
X-18206Y-183086D01*
X-18393Y-183040D01*
X-18572Y-182985D01*
X-18580D01*
X-18596Y-182977D01*
X-18619Y-182970D01*
X-18650Y-182954D01*
X-18728Y-182915D01*
X-18837Y-182861D01*
X-18954Y-182790D01*
X-19079Y-182705D01*
X-19203Y-182604D01*
X-19320Y-182487D01*
X-19336Y-182471D01*
X-19367Y-182424D01*
X-19421Y-182354D01*
X-19484Y-182261D01*
X-19554Y-182144D01*
X-19624Y-182011D01*
X-19686Y-181856D01*
X-19749Y-181684D01*
Y-181676D01*
X-19757Y-181661D01*
X-19764Y-181638D01*
X-19772Y-181599D01*
X-19780Y-181552D01*
X-19795Y-181505D01*
X-19803Y-181443D01*
X-19819Y-181373D01*
X-19842Y-181209D01*
X-19865Y-181030D01*
X-19881Y-180827D01*
X-19889Y-180609D01*
Y-180601D01*
Y-180586D01*
Y-180555D01*
Y-180524D01*
X-19881Y-180477D01*
Y-180422D01*
X-19873Y-180290D01*
X-19850Y-180142D01*
X-19827Y-179978D01*
X-19788Y-179799D01*
X-19741Y-179628D01*
Y-179620D01*
X-19733Y-179604D01*
X-19725Y-179581D01*
X-19710Y-179550D01*
X-19679Y-179464D01*
X-19632Y-179347D01*
X-19569Y-179223D01*
X-19492Y-179082D01*
X-19406Y-178942D01*
X-19305Y-178810D01*
Y-178802D01*
X-19289Y-178794D01*
X-19250Y-178755D01*
X-19188Y-178685D01*
X-19110Y-178607D01*
X-19009Y-178522D01*
X-18884Y-178428D01*
X-18752Y-178334D01*
X-18604Y-178249D01*
X-18596D01*
X-18588Y-178241D01*
X-18565Y-178226D01*
X-18526Y-178218D01*
X-18487Y-178202D01*
X-18440Y-178179D01*
X-18323Y-178140D01*
X-18183Y-178109D01*
X-18019Y-178070D01*
X-17840Y-178046D01*
X-17645Y-178039D01*
X-17560D01*
X-17513Y-178046D01*
D02*
G37*
G36*
X137570D02*
X137625D01*
X137742Y-178062D01*
X137890Y-178077D01*
X138038Y-178109D01*
X138194Y-178148D01*
X138349Y-178202D01*
X138357D01*
X138365Y-178210D01*
X138419Y-178233D01*
X138490Y-178272D01*
X138583Y-178319D01*
X138684Y-178389D01*
X138801Y-178467D01*
X138910Y-178560D01*
X139019Y-178670D01*
X139035Y-178685D01*
X139066Y-178724D01*
X139113Y-178786D01*
X139175Y-178872D01*
X139237Y-178973D01*
X139307Y-179098D01*
X139378Y-179238D01*
X139432Y-179394D01*
Y-179402D01*
X139440Y-179410D01*
X139448Y-179433D01*
X139456Y-179464D01*
X139463Y-179511D01*
X139479Y-179558D01*
X139510Y-179667D01*
X139533Y-179807D01*
X139557Y-179971D01*
X139572Y-180150D01*
X139580Y-180344D01*
Y-180352D01*
Y-180376D01*
Y-180407D01*
Y-180446D01*
Y-180547D01*
X139572Y-180648D01*
Y-180656D01*
Y-180672D01*
Y-180695D01*
X139565Y-180726D01*
Y-180796D01*
X139557Y-180874D01*
X136090D01*
Y-180882D01*
Y-180905D01*
Y-180944D01*
X136098Y-180999D01*
X136106Y-181061D01*
X136114Y-181139D01*
X136129Y-181217D01*
X136145Y-181302D01*
X136192Y-181497D01*
X136269Y-181692D01*
X136316Y-181786D01*
X136371Y-181879D01*
X136441Y-181965D01*
X136511Y-182043D01*
X136519Y-182050D01*
X136534Y-182058D01*
X136558Y-182081D01*
X136589Y-182105D01*
X136636Y-182136D01*
X136690Y-182167D01*
X136752Y-182206D01*
X136822Y-182237D01*
X136900Y-182276D01*
X136994Y-182315D01*
X137095Y-182346D01*
X137204Y-182378D01*
X137321Y-182401D01*
X137453Y-182424D01*
X137586Y-182432D01*
X137734Y-182440D01*
X137866D01*
X137929Y-182432D01*
X138007D01*
X138162Y-182424D01*
X138201D01*
X138240Y-182416D01*
X138295D01*
X138365Y-182409D01*
X138435Y-182401D01*
X138583Y-182385D01*
X138591D01*
X138614Y-182378D01*
X138653Y-182370D01*
X138708Y-182362D01*
X138762Y-182354D01*
X138832Y-182339D01*
X138965Y-182315D01*
X138973D01*
X138996Y-182307D01*
X139035Y-182300D01*
X139082Y-182292D01*
X139191Y-182261D01*
X139315Y-182229D01*
Y-182931D01*
X139300Y-182938D01*
X139253Y-182946D01*
X139183Y-182970D01*
X139082Y-182985D01*
X138965Y-183016D01*
X138832Y-183040D01*
X138684Y-183071D01*
X138521Y-183094D01*
X138505D01*
X138474Y-183102D01*
X138443D01*
X138404Y-183110D01*
X138357D01*
X138240Y-183125D01*
X138108Y-183133D01*
X137952Y-183149D01*
X137788Y-183157D01*
X137500D01*
X137446Y-183149D01*
X137383D01*
X137235Y-183133D01*
X137064Y-183118D01*
X136877Y-183086D01*
X136690Y-183040D01*
X136511Y-182985D01*
X136503D01*
X136488Y-182977D01*
X136464Y-182970D01*
X136433Y-182954D01*
X136355Y-182915D01*
X136246Y-182861D01*
X136129Y-182790D01*
X136005Y-182705D01*
X135880Y-182604D01*
X135763Y-182487D01*
X135748Y-182471D01*
X135716Y-182424D01*
X135662Y-182354D01*
X135600Y-182261D01*
X135529Y-182144D01*
X135459Y-182011D01*
X135397Y-181856D01*
X135335Y-181684D01*
Y-181676D01*
X135327Y-181661D01*
X135319Y-181638D01*
X135311Y-181599D01*
X135303Y-181552D01*
X135288Y-181505D01*
X135280Y-181443D01*
X135265Y-181373D01*
X135241Y-181209D01*
X135218Y-181030D01*
X135202Y-180827D01*
X135194Y-180609D01*
Y-180601D01*
Y-180586D01*
Y-180555D01*
Y-180524D01*
X135202Y-180477D01*
Y-180422D01*
X135210Y-180290D01*
X135233Y-180142D01*
X135257Y-179978D01*
X135296Y-179799D01*
X135342Y-179628D01*
Y-179620D01*
X135350Y-179604D01*
X135358Y-179581D01*
X135374Y-179550D01*
X135405Y-179464D01*
X135451Y-179347D01*
X135514Y-179223D01*
X135592Y-179082D01*
X135677Y-178942D01*
X135779Y-178810D01*
Y-178802D01*
X135794Y-178794D01*
X135833Y-178755D01*
X135896Y-178685D01*
X135973Y-178607D01*
X136075Y-178522D01*
X136199Y-178428D01*
X136332Y-178334D01*
X136480Y-178249D01*
X136488D01*
X136495Y-178241D01*
X136519Y-178226D01*
X136558Y-178218D01*
X136597Y-178202D01*
X136643Y-178179D01*
X136760Y-178140D01*
X136900Y-178109D01*
X137064Y-178070D01*
X137243Y-178046D01*
X137438Y-178039D01*
X137524D01*
X137570Y-178046D01*
D02*
G37*
G36*
X-122359Y-182354D02*
X-120886D01*
Y-183071D01*
X-124851D01*
Y-182354D01*
X-123223D01*
Y-176815D01*
X-124688D01*
Y-176114D01*
X-122359D01*
Y-182354D01*
D02*
G37*
G36*
X-117202Y-178046D02*
X-117093Y-178054D01*
X-116968Y-178062D01*
X-116835Y-178077D01*
X-116695Y-178109D01*
X-116555Y-178140D01*
X-116547D01*
X-116539Y-178148D01*
X-116493Y-178155D01*
X-116430Y-178179D01*
X-116345Y-178218D01*
X-116251Y-178257D01*
X-116150Y-178311D01*
X-116049Y-178374D01*
X-115947Y-178444D01*
X-115940Y-178451D01*
X-115908Y-178483D01*
X-115862Y-178522D01*
X-115807Y-178584D01*
X-115745Y-178654D01*
X-115682Y-178740D01*
X-115620Y-178841D01*
X-115566Y-178950D01*
X-115558Y-178965D01*
X-115542Y-179005D01*
X-115519Y-179067D01*
X-115496Y-179153D01*
X-115472Y-179262D01*
X-115449Y-179378D01*
X-115433Y-179519D01*
X-115426Y-179667D01*
Y-183071D01*
X-116197D01*
X-116220Y-182409D01*
X-116228Y-182416D01*
X-116236Y-182424D01*
X-116259Y-182448D01*
X-116290Y-182471D01*
X-116368Y-182541D01*
X-116477Y-182627D01*
X-116602Y-182720D01*
X-116742Y-182822D01*
X-116890Y-182907D01*
X-117046Y-182985D01*
X-117054D01*
X-117061Y-182993D01*
X-117085Y-183001D01*
X-117116Y-183009D01*
X-117202Y-183040D01*
X-117311Y-183071D01*
X-117443Y-183102D01*
X-117591Y-183133D01*
X-117747Y-183149D01*
X-117918Y-183157D01*
X-117988D01*
X-118066Y-183149D01*
X-118167Y-183141D01*
X-118277Y-183133D01*
X-118401Y-183110D01*
X-118526Y-183086D01*
X-118643Y-183055D01*
X-118658Y-183047D01*
X-118690Y-183032D01*
X-118744Y-183009D01*
X-118814Y-182977D01*
X-118892Y-182938D01*
X-118978Y-182884D01*
X-119056Y-182822D01*
X-119133Y-182759D01*
X-119141Y-182752D01*
X-119165Y-182728D01*
X-119204Y-182681D01*
X-119243Y-182627D01*
X-119289Y-182564D01*
X-119336Y-182487D01*
X-119383Y-182401D01*
X-119422Y-182307D01*
Y-182292D01*
X-119437Y-182261D01*
X-119445Y-182214D01*
X-119461Y-182144D01*
X-119476Y-182058D01*
X-119492Y-181965D01*
X-119500Y-181863D01*
X-119507Y-181754D01*
Y-181747D01*
Y-181723D01*
Y-181684D01*
X-119500Y-181630D01*
X-119492Y-181567D01*
X-119476Y-181497D01*
X-119461Y-181412D01*
X-119437Y-181326D01*
X-119406Y-181232D01*
X-119375Y-181139D01*
X-119328Y-181045D01*
X-119274Y-180944D01*
X-119211Y-180851D01*
X-119133Y-180757D01*
X-119048Y-180672D01*
X-118954Y-180586D01*
X-118947Y-180578D01*
X-118931Y-180570D01*
X-118900Y-180547D01*
X-118853Y-180524D01*
X-118791Y-180485D01*
X-118721Y-180453D01*
X-118635Y-180414D01*
X-118542Y-180376D01*
X-118432Y-180337D01*
X-118308Y-180298D01*
X-118175Y-180259D01*
X-118027Y-180227D01*
X-117871Y-180204D01*
X-117700Y-180181D01*
X-117513Y-180173D01*
X-117318Y-180165D01*
X-116290D01*
Y-179737D01*
Y-179729D01*
Y-179713D01*
Y-179698D01*
X-116298Y-179667D01*
X-116306Y-179581D01*
X-116329Y-179488D01*
X-116360Y-179371D01*
X-116415Y-179254D01*
X-116485Y-179145D01*
X-116578Y-179036D01*
X-116594Y-179028D01*
X-116633Y-178997D01*
X-116695Y-178950D01*
X-116789Y-178903D01*
X-116913Y-178857D01*
X-117061Y-178810D01*
X-117233Y-178779D01*
X-117435Y-178771D01*
X-117505D01*
X-117591Y-178779D01*
X-117692D01*
X-117817Y-178794D01*
X-117957Y-178810D01*
X-118105Y-178833D01*
X-118261Y-178864D01*
X-118269D01*
X-118277Y-178872D01*
X-118300D01*
X-118331Y-178880D01*
X-118409Y-178903D01*
X-118518Y-178934D01*
X-118643Y-178973D01*
X-118783Y-179012D01*
X-118939Y-179067D01*
X-119095Y-179129D01*
Y-178358D01*
X-119087D01*
X-119063Y-178350D01*
X-119032Y-178334D01*
X-118993Y-178327D01*
X-118939Y-178303D01*
X-118876Y-178288D01*
X-118736Y-178249D01*
X-118728D01*
X-118697Y-178241D01*
X-118658Y-178226D01*
X-118604Y-178210D01*
X-118542Y-178194D01*
X-118471Y-178179D01*
X-118315Y-178148D01*
X-118308D01*
X-118277Y-178140D01*
X-118230Y-178132D01*
X-118175Y-178116D01*
X-118105Y-178109D01*
X-118019Y-178093D01*
X-117848Y-178070D01*
X-117840D01*
X-117809Y-178062D01*
X-117762D01*
X-117700Y-178054D01*
X-117622Y-178046D01*
X-117544D01*
X-117365Y-178039D01*
X-117287D01*
X-117202Y-178046D01*
D02*
G37*
G36*
X-98903Y-177384D02*
X-101637D01*
Y-179472D01*
X-99051D01*
Y-180204D01*
X-101637D01*
Y-183071D01*
X-102533D01*
Y-176636D01*
X-98903D01*
Y-177384D01*
D02*
G37*
G36*
X-129486Y-180391D02*
X-127259Y-178132D01*
X-126129D01*
X-128450Y-180414D01*
X-126004Y-183071D01*
X-127181D01*
X-129486Y-180422D01*
Y-183071D01*
X-130343D01*
Y-176114D01*
X-129486D01*
Y-180391D01*
D02*
G37*
G36*
X-84382Y-178132D02*
X-82162D01*
Y-178849D01*
X-84382D01*
Y-181365D01*
Y-181373D01*
Y-181388D01*
Y-181412D01*
X-84374Y-181450D01*
X-84367Y-181544D01*
X-84343Y-181661D01*
X-84312Y-181793D01*
X-84265Y-181926D01*
X-84195Y-182050D01*
X-84102Y-182159D01*
X-84086Y-182167D01*
X-84047Y-182198D01*
X-83985Y-182237D01*
X-83891Y-182284D01*
X-83775Y-182339D01*
X-83635Y-182378D01*
X-83463Y-182409D01*
X-83268Y-182416D01*
X-83183D01*
X-83113Y-182409D01*
X-83042D01*
X-82949Y-182401D01*
X-82855Y-182393D01*
X-82754Y-182385D01*
X-82739D01*
X-82707Y-182378D01*
X-82645Y-182370D01*
X-82575Y-182354D01*
X-82489Y-182339D01*
X-82388Y-182315D01*
X-82279Y-182292D01*
X-82162Y-182261D01*
Y-183001D01*
X-82178D01*
X-82217Y-183009D01*
X-82271Y-183024D01*
X-82349Y-183040D01*
X-82443Y-183055D01*
X-82544Y-183071D01*
X-82653Y-183086D01*
X-82770Y-183102D01*
X-82785D01*
X-82824Y-183110D01*
X-82879Y-183118D01*
X-82964D01*
X-83058Y-183125D01*
X-83159Y-183133D01*
X-83276Y-183141D01*
X-83479D01*
X-83549Y-183133D01*
X-83627Y-183125D01*
X-83712Y-183118D01*
X-83814Y-183102D01*
X-83915Y-183086D01*
X-84141Y-183040D01*
X-84374Y-182962D01*
X-84491Y-182915D01*
X-84593Y-182861D01*
X-84694Y-182790D01*
X-84787Y-182720D01*
X-84795Y-182712D01*
X-84803Y-182697D01*
X-84826Y-182674D01*
X-84857Y-182642D01*
X-84889Y-182596D01*
X-84928Y-182541D01*
X-84974Y-182479D01*
X-85013Y-182401D01*
X-85052Y-182315D01*
X-85099Y-182222D01*
X-85138Y-182113D01*
X-85169Y-182004D01*
X-85200Y-181871D01*
X-85216Y-181739D01*
X-85231Y-181591D01*
X-85239Y-181435D01*
Y-178849D01*
X-86618D01*
Y-178132D01*
X-85239D01*
Y-176777D01*
X-84382Y-176551D01*
Y-178132D01*
D02*
G37*
G36*
X115010D02*
X117231D01*
Y-178849D01*
X115010D01*
Y-181365D01*
Y-181373D01*
Y-181388D01*
Y-181412D01*
X115018Y-181450D01*
X115026Y-181544D01*
X115050Y-181661D01*
X115081Y-181793D01*
X115127Y-181926D01*
X115198Y-182050D01*
X115291Y-182159D01*
X115307Y-182167D01*
X115346Y-182198D01*
X115408Y-182237D01*
X115501Y-182284D01*
X115618Y-182339D01*
X115758Y-182378D01*
X115930Y-182409D01*
X116124Y-182416D01*
X116210D01*
X116280Y-182409D01*
X116350D01*
X116444Y-182401D01*
X116537Y-182393D01*
X116639Y-182385D01*
X116654D01*
X116685Y-182378D01*
X116748Y-182370D01*
X116818Y-182354D01*
X116903Y-182339D01*
X117005Y-182315D01*
X117114Y-182292D01*
X117231Y-182261D01*
Y-183001D01*
X117215D01*
X117176Y-183009D01*
X117122Y-183024D01*
X117044Y-183040D01*
X116950Y-183055D01*
X116849Y-183071D01*
X116740Y-183086D01*
X116623Y-183102D01*
X116607D01*
X116569Y-183110D01*
X116514Y-183118D01*
X116428D01*
X116335Y-183125D01*
X116234Y-183133D01*
X116117Y-183141D01*
X115914D01*
X115844Y-183133D01*
X115766Y-183125D01*
X115681Y-183118D01*
X115579Y-183102D01*
X115478Y-183086D01*
X115252Y-183040D01*
X115018Y-182962D01*
X114901Y-182915D01*
X114800Y-182861D01*
X114699Y-182790D01*
X114605Y-182720D01*
X114598Y-182712D01*
X114590Y-182697D01*
X114567Y-182674D01*
X114535Y-182642D01*
X114504Y-182596D01*
X114465Y-182541D01*
X114418Y-182479D01*
X114380Y-182401D01*
X114341Y-182315D01*
X114294Y-182222D01*
X114255Y-182113D01*
X114224Y-182004D01*
X114193Y-181871D01*
X114177Y-181739D01*
X114161Y-181591D01*
X114154Y-181435D01*
Y-178849D01*
X112775D01*
Y-178132D01*
X114154D01*
Y-176777D01*
X115010Y-176551D01*
Y-178132D01*
D02*
G37*
G36*
X-133436Y-182354D02*
X-131964D01*
Y-183071D01*
X-135929D01*
Y-182354D01*
X-134301D01*
Y-178841D01*
X-135765D01*
Y-178132D01*
X-133436D01*
Y-182354D01*
D02*
G37*
G36*
X132717Y-178046D02*
X132787Y-178054D01*
X132857Y-178062D01*
X132935Y-178077D01*
X133029Y-178101D01*
X133216Y-178163D01*
X133309Y-178202D01*
X133411Y-178249D01*
X133504Y-178303D01*
X133590Y-178374D01*
X133675Y-178451D01*
X133753Y-178537D01*
X133761Y-178545D01*
X133769Y-178560D01*
X133792Y-178592D01*
X133816Y-178631D01*
X133847Y-178685D01*
X133878Y-178747D01*
X133917Y-178825D01*
X133948Y-178911D01*
X133987Y-179005D01*
X134018Y-179114D01*
X134049Y-179238D01*
X134081Y-179371D01*
X134104Y-179519D01*
X134119Y-179674D01*
X134127Y-179838D01*
Y-180017D01*
X133263D01*
Y-180009D01*
Y-179986D01*
Y-179955D01*
Y-179908D01*
X133255Y-179861D01*
Y-179799D01*
X133239Y-179659D01*
X133216Y-179503D01*
X133185Y-179347D01*
X133138Y-179199D01*
X133107Y-179137D01*
X133068Y-179075D01*
X133060Y-179059D01*
X133029Y-179028D01*
X132982Y-178981D01*
X132920Y-178927D01*
X132834Y-178872D01*
X132733Y-178825D01*
X132608Y-178794D01*
X132468Y-178779D01*
X132406D01*
X132359Y-178786D01*
X132304Y-178794D01*
X132250Y-178802D01*
X132117Y-178841D01*
X132110D01*
X132086Y-178849D01*
X132055Y-178864D01*
X132008Y-178888D01*
X131954Y-178919D01*
X131892Y-178950D01*
X131759Y-179043D01*
X131751Y-179051D01*
X131728Y-179067D01*
X131689Y-179098D01*
X131642Y-179137D01*
X131588Y-179184D01*
X131518Y-179246D01*
X131447Y-179316D01*
X131369Y-179394D01*
X131362Y-179402D01*
X131338Y-179433D01*
X131292Y-179480D01*
X131237Y-179534D01*
X131175Y-179612D01*
X131097Y-179698D01*
X131019Y-179791D01*
X130933Y-179900D01*
Y-183071D01*
X130069D01*
Y-178132D01*
X130848D01*
X130871Y-179043D01*
X130879Y-179036D01*
X130894Y-179020D01*
X130918Y-178989D01*
X130949Y-178958D01*
X131035Y-178864D01*
X131144Y-178747D01*
X131268Y-178623D01*
X131416Y-178498D01*
X131572Y-178381D01*
X131728Y-178280D01*
X131736D01*
X131751Y-178272D01*
X131767Y-178257D01*
X131806Y-178241D01*
X131884Y-178202D01*
X132001Y-178155D01*
X132125Y-178116D01*
X132273Y-178077D01*
X132429Y-178046D01*
X132593Y-178039D01*
X132663D01*
X132717Y-178046D01*
D02*
G37*
G36*
X66282Y-153178D02*
X60411D01*
Y-171260D01*
X56280D01*
Y-153178D01*
X50408D01*
Y-149800D01*
X66282D01*
Y-153178D01*
D02*
G37*
G36*
X2709Y-149826D02*
X3125D01*
X3644Y-149878D01*
X4164Y-149930D01*
X4735Y-150008D01*
X5281Y-150112D01*
X5307D01*
X5359Y-150138D01*
X5411D01*
X5515Y-150164D01*
X5801Y-150242D01*
X6138Y-150346D01*
X6528Y-150502D01*
X6944Y-150658D01*
X7359Y-150891D01*
X7749Y-151125D01*
X7801Y-151151D01*
X7905Y-151255D01*
X8087Y-151411D01*
X8321Y-151619D01*
X8580Y-151879D01*
X8840Y-152190D01*
X9074Y-152554D01*
X9308Y-152970D01*
X9334Y-153022D01*
X9386Y-153178D01*
X9490Y-153412D01*
X9594Y-153723D01*
X9698Y-154139D01*
X9802Y-154607D01*
X9854Y-155152D01*
X9879Y-155750D01*
Y-155802D01*
Y-155958D01*
X9854Y-156166D01*
X9827Y-156451D01*
X9802Y-156789D01*
X9724Y-157127D01*
X9646Y-157490D01*
X9516Y-157854D01*
X9490Y-157906D01*
X9464Y-158010D01*
X9386Y-158166D01*
X9282Y-158400D01*
X9126Y-158634D01*
X8970Y-158893D01*
X8788Y-159179D01*
X8555Y-159439D01*
X8529Y-159465D01*
X8450Y-159543D01*
X8321Y-159673D01*
X8139Y-159803D01*
X7931Y-159985D01*
X7671Y-160166D01*
X7385Y-160348D01*
X7074Y-160504D01*
X7048Y-160530D01*
X6918Y-160582D01*
X6762Y-160634D01*
X6528Y-160738D01*
X6242Y-160816D01*
X5931Y-160920D01*
X5567Y-160998D01*
X5203Y-161076D01*
X5229D01*
X5333Y-161102D01*
X5489Y-161154D01*
X5671Y-161258D01*
X5904Y-161362D01*
X6138Y-161517D01*
X6372Y-161725D01*
X6632Y-161985D01*
X6658Y-162011D01*
X6736Y-162115D01*
X6866Y-162297D01*
X7048Y-162531D01*
X7230Y-162816D01*
X7463Y-163180D01*
X7697Y-163596D01*
X7957Y-164089D01*
X11386Y-171260D01*
X6658D01*
X3618Y-164375D01*
X3592Y-164323D01*
X3540Y-164219D01*
X3436Y-164037D01*
X3306Y-163830D01*
X3151Y-163570D01*
X2943Y-163336D01*
X2709Y-163102D01*
X2423Y-162894D01*
X2397Y-162868D01*
X2293Y-162816D01*
X2111Y-162738D01*
X1904Y-162635D01*
X1644Y-162531D01*
X1332Y-162453D01*
X994Y-162401D01*
X605Y-162375D01*
X-149D01*
Y-171260D01*
X-4176D01*
Y-149800D01*
X2527D01*
X2709Y-149826D01*
D02*
G37*
G36*
X-22561Y-178046D02*
X-22460Y-178062D01*
X-22343Y-178085D01*
X-22218Y-178116D01*
X-22094Y-178155D01*
X-21969Y-178218D01*
X-21953Y-178226D01*
X-21914Y-178249D01*
X-21860Y-178288D01*
X-21782Y-178350D01*
X-21696Y-178420D01*
X-21610Y-178506D01*
X-21517Y-178607D01*
X-21431Y-178724D01*
X-21423Y-178740D01*
X-21392Y-178779D01*
X-21353Y-178849D01*
X-21307Y-178942D01*
X-21252Y-179051D01*
X-21198Y-179184D01*
X-21151Y-179340D01*
X-21104Y-179503D01*
Y-179511D01*
X-21096Y-179526D01*
Y-179550D01*
X-21089Y-179581D01*
X-21081Y-179628D01*
X-21073Y-179674D01*
X-21050Y-179799D01*
X-21026Y-179947D01*
X-21011Y-180119D01*
X-21003Y-180313D01*
X-20995Y-180516D01*
Y-180524D01*
Y-180547D01*
Y-180578D01*
Y-180625D01*
X-21003Y-180687D01*
Y-180749D01*
X-21011Y-180827D01*
X-21018Y-180905D01*
X-21042Y-181084D01*
X-21073Y-181279D01*
X-21120Y-181482D01*
X-21182Y-181669D01*
Y-181676D01*
X-21190Y-181692D01*
X-21198Y-181715D01*
X-21213Y-181747D01*
X-21260Y-181840D01*
X-21315Y-181957D01*
X-21392Y-182081D01*
X-21478Y-182222D01*
X-21579Y-182354D01*
X-21696Y-182487D01*
X-21712Y-182502D01*
X-21751Y-182541D01*
X-21821Y-182596D01*
X-21914Y-182674D01*
X-22023Y-182752D01*
X-22156Y-182829D01*
X-22296Y-182907D01*
X-22460Y-182977D01*
X-22467D01*
X-22483Y-182985D01*
X-22506Y-182993D01*
X-22537Y-183001D01*
X-22576Y-183016D01*
X-22623Y-183024D01*
X-22748Y-183055D01*
X-22888Y-183086D01*
X-23052Y-183110D01*
X-23231Y-183125D01*
X-23418Y-183133D01*
X-23504D01*
X-23566Y-183125D01*
X-23636D01*
X-23722Y-183118D01*
X-23893Y-183102D01*
X-23901D01*
X-23932Y-183094D01*
X-23979D01*
X-24041Y-183086D01*
X-24111Y-183071D01*
X-24189Y-183055D01*
X-24360Y-183024D01*
Y-185089D01*
X-25217D01*
Y-178132D01*
X-24462D01*
X-24407Y-178965D01*
X-24399Y-178958D01*
X-24392Y-178942D01*
X-24368Y-178919D01*
X-24345Y-178880D01*
X-24267Y-178794D01*
X-24166Y-178685D01*
X-24049Y-178568D01*
X-23916Y-178444D01*
X-23776Y-178334D01*
X-23620Y-178249D01*
X-23613D01*
X-23605Y-178241D01*
X-23581Y-178226D01*
X-23550Y-178218D01*
X-23511Y-178202D01*
X-23464Y-178179D01*
X-23348Y-178140D01*
X-23215Y-178109D01*
X-23059Y-178070D01*
X-22888Y-178046D01*
X-22709Y-178039D01*
X-22639D01*
X-22561Y-178046D01*
D02*
G37*
G36*
X71792D02*
X71862Y-178054D01*
X71932Y-178062D01*
X72010Y-178077D01*
X72103Y-178101D01*
X72290Y-178163D01*
X72384Y-178202D01*
X72485Y-178249D01*
X72578Y-178303D01*
X72664Y-178374D01*
X72750Y-178451D01*
X72828Y-178537D01*
X72835Y-178545D01*
X72843Y-178560D01*
X72867Y-178592D01*
X72890Y-178631D01*
X72921Y-178685D01*
X72952Y-178747D01*
X72991Y-178825D01*
X73022Y-178911D01*
X73061Y-179005D01*
X73093Y-179114D01*
X73124Y-179238D01*
X73155Y-179371D01*
X73178Y-179519D01*
X73194Y-179674D01*
X73202Y-179838D01*
Y-180017D01*
X72337D01*
Y-180009D01*
Y-179986D01*
Y-179955D01*
Y-179908D01*
X72329Y-179861D01*
Y-179799D01*
X72313Y-179659D01*
X72290Y-179503D01*
X72259Y-179347D01*
X72212Y-179199D01*
X72181Y-179137D01*
X72142Y-179075D01*
X72134Y-179059D01*
X72103Y-179028D01*
X72057Y-178981D01*
X71994Y-178927D01*
X71908Y-178872D01*
X71807Y-178825D01*
X71683Y-178794D01*
X71542Y-178779D01*
X71480D01*
X71433Y-178786D01*
X71379Y-178794D01*
X71324Y-178802D01*
X71192Y-178841D01*
X71184D01*
X71161Y-178849D01*
X71130Y-178864D01*
X71083Y-178888D01*
X71028Y-178919D01*
X70966Y-178950D01*
X70833Y-179043D01*
X70826Y-179051D01*
X70802Y-179067D01*
X70763Y-179098D01*
X70717Y-179137D01*
X70662Y-179184D01*
X70592Y-179246D01*
X70522Y-179316D01*
X70444Y-179394D01*
X70436Y-179402D01*
X70413Y-179433D01*
X70366Y-179480D01*
X70311Y-179534D01*
X70249Y-179612D01*
X70171Y-179698D01*
X70093Y-179791D01*
X70008Y-179900D01*
Y-183071D01*
X69143D01*
Y-178132D01*
X69922D01*
X69945Y-179043D01*
X69953Y-179036D01*
X69969Y-179020D01*
X69992Y-178989D01*
X70023Y-178958D01*
X70109Y-178864D01*
X70218Y-178747D01*
X70343Y-178623D01*
X70491Y-178498D01*
X70647Y-178381D01*
X70802Y-178280D01*
X70810D01*
X70826Y-178272D01*
X70841Y-178257D01*
X70880Y-178241D01*
X70958Y-178202D01*
X71075Y-178155D01*
X71200Y-178116D01*
X71348Y-178077D01*
X71503Y-178046D01*
X71667Y-178039D01*
X71737D01*
X71792Y-178046D01*
D02*
G37*
G36*
X-616Y-176558D02*
X-484Y-176566D01*
X-453D01*
X-414Y-176574D01*
X-359D01*
X-305Y-176582D01*
X-235Y-176590D01*
X-94Y-176613D01*
X-87D01*
X-63Y-176621D01*
X-24D01*
X30Y-176628D01*
X85Y-176636D01*
X147Y-176652D01*
X287Y-176675D01*
X295D01*
X318Y-176683D01*
X357D01*
X404Y-176691D01*
X521Y-176714D01*
X646Y-176738D01*
Y-177524D01*
X638D01*
X630Y-177517D01*
X607D01*
X583Y-177509D01*
X505Y-177485D01*
X404Y-177470D01*
X295Y-177439D01*
X163Y-177415D01*
X22Y-177392D01*
X-118Y-177369D01*
X-134D01*
X-180Y-177361D01*
X-258Y-177345D01*
X-352Y-177337D01*
X-461Y-177322D01*
X-585Y-177314D01*
X-850Y-177306D01*
X-975D01*
X-1037Y-177314D01*
X-1107Y-177322D01*
X-1271Y-177337D01*
X-1450Y-177369D01*
X-1637Y-177415D01*
X-1808Y-177478D01*
X-1886Y-177517D01*
X-1956Y-177563D01*
X-1972Y-177571D01*
X-2011Y-177610D01*
X-2065Y-177665D01*
X-2128Y-177743D01*
X-2198Y-177836D01*
X-2252Y-177953D01*
X-2291Y-178085D01*
X-2299Y-178155D01*
X-2307Y-178233D01*
Y-178241D01*
Y-178280D01*
X-2299Y-178327D01*
X-2291Y-178389D01*
X-2276Y-178459D01*
X-2245Y-178537D01*
X-2213Y-178615D01*
X-2167Y-178685D01*
X-2159Y-178693D01*
X-2143Y-178716D01*
X-2104Y-178755D01*
X-2065Y-178794D01*
X-2011Y-178849D01*
X-1941Y-178903D01*
X-1871Y-178965D01*
X-1785Y-179020D01*
X-1777Y-179028D01*
X-1746Y-179043D01*
X-1691Y-179075D01*
X-1629Y-179106D01*
X-1551Y-179153D01*
X-1458Y-179199D01*
X-1357Y-179246D01*
X-1247Y-179293D01*
X-1232Y-179300D01*
X-1193Y-179316D01*
X-1138Y-179340D01*
X-1053Y-179371D01*
X-967Y-179402D01*
X-858Y-179448D01*
X-632Y-179542D01*
X-616Y-179550D01*
X-577Y-179565D01*
X-515Y-179589D01*
X-437Y-179620D01*
X-336Y-179667D01*
X-235Y-179713D01*
X-9Y-179822D01*
X7Y-179830D01*
X46Y-179846D01*
X100Y-179877D01*
X170Y-179924D01*
X256Y-179978D01*
X350Y-180033D01*
X435Y-180103D01*
X529Y-180181D01*
X537Y-180189D01*
X568Y-180220D01*
X614Y-180259D01*
X661Y-180313D01*
X723Y-180391D01*
X786Y-180469D01*
X848Y-180562D01*
X910Y-180664D01*
X918Y-180679D01*
X934Y-180710D01*
X957Y-180773D01*
X988Y-180851D01*
X1012Y-180952D01*
X1035Y-181061D01*
X1051Y-181193D01*
X1058Y-181334D01*
Y-181342D01*
Y-181357D01*
Y-181380D01*
Y-181412D01*
X1051Y-181497D01*
X1035Y-181606D01*
X1012Y-181731D01*
X973Y-181863D01*
X926Y-182004D01*
X864Y-182136D01*
X856Y-182152D01*
X833Y-182191D01*
X786Y-182253D01*
X731Y-182339D01*
X653Y-182424D01*
X568Y-182518D01*
X459Y-182619D01*
X342Y-182705D01*
X326Y-182712D01*
X287Y-182744D01*
X217Y-182783D01*
X116Y-182829D01*
X-1Y-182884D01*
X-134Y-182946D01*
X-289Y-183001D01*
X-461Y-183047D01*
X-468D01*
X-484Y-183055D01*
X-507D01*
X-538Y-183063D01*
X-585Y-183071D01*
X-640Y-183079D01*
X-764Y-183102D01*
X-920Y-183125D01*
X-1092Y-183141D01*
X-1286Y-183149D01*
X-1497Y-183157D01*
X-1660D01*
X-1738Y-183149D01*
X-1824D01*
X-2011Y-183133D01*
X-2050D01*
X-2104Y-183125D01*
X-2167Y-183118D01*
X-2237D01*
X-2322Y-183110D01*
X-2494Y-183086D01*
X-2502D01*
X-2533Y-183079D01*
X-2579D01*
X-2634Y-183071D01*
X-2704Y-183063D01*
X-2782Y-183047D01*
X-2938Y-183024D01*
X-2946D01*
X-2969Y-183016D01*
X-3008Y-183009D01*
X-3063Y-183001D01*
X-3179Y-182970D01*
X-3304Y-182938D01*
Y-182089D01*
X-3296D01*
X-3288Y-182097D01*
X-3242Y-182113D01*
X-3164Y-182136D01*
X-3063Y-182167D01*
X-2938Y-182206D01*
X-2798Y-182237D01*
X-2642Y-182276D01*
X-2478Y-182307D01*
X-2455D01*
X-2431Y-182315D01*
X-2400Y-182323D01*
X-2354D01*
X-2299Y-182331D01*
X-2245Y-182339D01*
X-2174Y-182346D01*
X-2019Y-182362D01*
X-1847Y-182370D01*
X-1645Y-182385D01*
X-1286D01*
X-1185Y-182378D01*
X-1076Y-182370D01*
X-951Y-182362D01*
X-835Y-182346D01*
X-718Y-182323D01*
X-702D01*
X-663Y-182307D01*
X-609Y-182292D01*
X-538Y-182269D01*
X-461Y-182245D01*
X-383Y-182214D01*
X-305Y-182175D01*
X-227Y-182128D01*
X-219Y-182121D01*
X-196Y-182105D01*
X-165Y-182074D01*
X-126Y-182035D01*
X-79Y-181988D01*
X-32Y-181933D01*
X7Y-181879D01*
X46Y-181809D01*
X53Y-181801D01*
X61Y-181778D01*
X77Y-181739D01*
X93Y-181684D01*
X108Y-181622D01*
X124Y-181552D01*
X139Y-181466D01*
Y-181380D01*
Y-181365D01*
Y-181334D01*
X131Y-181287D01*
X124Y-181225D01*
X100Y-181155D01*
X77Y-181084D01*
X38Y-181007D01*
X-9Y-180936D01*
X-17Y-180929D01*
X-32Y-180905D01*
X-71Y-180866D01*
X-110Y-180827D01*
X-165Y-180773D01*
X-235Y-180718D01*
X-305Y-180664D01*
X-390Y-180609D01*
X-398Y-180601D01*
X-429Y-180586D01*
X-484Y-180555D01*
X-546Y-180524D01*
X-624Y-180477D01*
X-718Y-180438D01*
X-819Y-180391D01*
X-928Y-180344D01*
X-944Y-180337D01*
X-983Y-180321D01*
X-1037Y-180298D01*
X-1123Y-180266D01*
X-1216Y-180227D01*
X-1318Y-180189D01*
X-1434Y-180142D01*
X-1551Y-180095D01*
X-1567Y-180087D01*
X-1606Y-180072D01*
X-1668Y-180048D01*
X-1746Y-180009D01*
X-1839Y-179971D01*
X-1941Y-179924D01*
X-2167Y-179815D01*
X-2182Y-179807D01*
X-2221Y-179791D01*
X-2276Y-179760D01*
X-2346Y-179713D01*
X-2431Y-179667D01*
X-2525Y-179604D01*
X-2704Y-179464D01*
X-2712Y-179456D01*
X-2743Y-179425D01*
X-2782Y-179386D01*
X-2837Y-179324D01*
X-2899Y-179254D01*
X-2961Y-179168D01*
X-3023Y-179082D01*
X-3086Y-178981D01*
X-3094Y-178965D01*
X-3109Y-178934D01*
X-3133Y-178872D01*
X-3156Y-178794D01*
X-3179Y-178701D01*
X-3203Y-178584D01*
X-3218Y-178459D01*
X-3226Y-178327D01*
Y-178319D01*
Y-178311D01*
Y-178272D01*
X-3218Y-178202D01*
X-3210Y-178116D01*
X-3195Y-178023D01*
X-3171Y-177906D01*
X-3140Y-177789D01*
X-3094Y-177672D01*
X-3086Y-177657D01*
X-3070Y-177618D01*
X-3031Y-177556D01*
X-2985Y-177485D01*
X-2930Y-177392D01*
X-2852Y-177298D01*
X-2767Y-177205D01*
X-2665Y-177111D01*
X-2650Y-177104D01*
X-2611Y-177073D01*
X-2548Y-177026D01*
X-2463Y-176963D01*
X-2354Y-176901D01*
X-2221Y-176839D01*
X-2081Y-176769D01*
X-1917Y-176706D01*
X-1910D01*
X-1894Y-176699D01*
X-1871Y-176691D01*
X-1832Y-176683D01*
X-1793Y-176667D01*
X-1738Y-176660D01*
X-1676Y-176644D01*
X-1606Y-176628D01*
X-1450Y-176597D01*
X-1263Y-176574D01*
X-1060Y-176558D01*
X-835Y-176551D01*
X-679D01*
X-616Y-176558D01*
D02*
G37*
G36*
X111154Y-176068D02*
X111225D01*
X111295Y-176075D01*
X111466Y-176091D01*
X111653Y-176107D01*
X111871Y-176138D01*
X112097Y-176177D01*
Y-176917D01*
X112089D01*
X112066Y-176909D01*
X112035Y-176901D01*
X111980Y-176893D01*
X111926Y-176886D01*
X111856Y-176870D01*
X111778Y-176862D01*
X111700Y-176847D01*
X111513Y-176823D01*
X111318Y-176800D01*
X111123Y-176784D01*
X110936Y-176777D01*
X110890D01*
X110827Y-176784D01*
X110757Y-176792D01*
X110671Y-176815D01*
X110570Y-176839D01*
X110469Y-176878D01*
X110360Y-176925D01*
X110251Y-176995D01*
X110150Y-177073D01*
X110048Y-177174D01*
X109963Y-177291D01*
X109892Y-177431D01*
X109830Y-177587D01*
X109799Y-177781D01*
X109783Y-177992D01*
Y-178849D01*
X111941D01*
Y-179565D01*
X109783D01*
Y-183071D01*
X108911D01*
Y-179565D01*
X107322D01*
Y-178849D01*
X108911D01*
Y-178039D01*
Y-178031D01*
Y-178015D01*
Y-177992D01*
X108919Y-177953D01*
Y-177906D01*
X108926Y-177859D01*
X108942Y-177727D01*
X108973Y-177579D01*
X109020Y-177415D01*
X109082Y-177236D01*
X109168Y-177049D01*
X109277Y-176862D01*
X109409Y-176683D01*
X109487Y-176597D01*
X109573Y-176520D01*
X109674Y-176442D01*
X109776Y-176372D01*
X109885Y-176301D01*
X110009Y-176239D01*
X110142Y-176192D01*
X110282Y-176146D01*
X110438Y-176107D01*
X110601Y-176083D01*
X110773Y-176068D01*
X110960Y-176060D01*
X111100D01*
X111154Y-176068D01*
D02*
G37*
G36*
X-133919D02*
X-133833Y-176083D01*
X-133740Y-176114D01*
X-133732D01*
X-133716Y-176122D01*
X-133693Y-176138D01*
X-133670Y-176153D01*
X-133599Y-176200D01*
X-133529Y-176262D01*
X-133522Y-176270D01*
X-133514Y-176278D01*
X-133475Y-176325D01*
X-133428Y-176395D01*
X-133381Y-176480D01*
Y-176488D01*
X-133374Y-176504D01*
X-133366Y-176527D01*
X-133350Y-176558D01*
X-133335Y-176636D01*
X-133327Y-176738D01*
Y-176745D01*
Y-176761D01*
Y-176792D01*
X-133335Y-176823D01*
X-133350Y-176909D01*
X-133381Y-177003D01*
Y-177010D01*
X-133389Y-177018D01*
X-133420Y-177073D01*
X-133467Y-177143D01*
X-133529Y-177213D01*
X-133545Y-177228D01*
X-133584Y-177267D01*
X-133654Y-177314D01*
X-133740Y-177361D01*
X-133747D01*
X-133763Y-177369D01*
X-133786Y-177376D01*
X-133818Y-177384D01*
X-133903Y-177400D01*
X-134005Y-177408D01*
X-134059D01*
X-134090Y-177400D01*
X-134176Y-177384D01*
X-134269Y-177361D01*
X-134277D01*
X-134293Y-177353D01*
X-134316Y-177337D01*
X-134340Y-177322D01*
X-134417Y-177275D01*
X-134488Y-177213D01*
Y-177205D01*
X-134503Y-177197D01*
X-134534Y-177150D01*
X-134581Y-177088D01*
X-134628Y-177003D01*
Y-176995D01*
X-134636Y-176979D01*
X-134643Y-176956D01*
X-134651Y-176925D01*
X-134667Y-176839D01*
X-134675Y-176738D01*
Y-176730D01*
Y-176714D01*
Y-176683D01*
X-134667Y-176652D01*
X-134651Y-176566D01*
X-134628Y-176480D01*
Y-176473D01*
X-134620Y-176457D01*
X-134604Y-176434D01*
X-134589Y-176403D01*
X-134542Y-176332D01*
X-134488Y-176262D01*
X-134480Y-176255D01*
X-134472Y-176247D01*
X-134425Y-176208D01*
X-134355Y-176161D01*
X-134269Y-176114D01*
X-134262D01*
X-134246Y-176107D01*
X-134223Y-176099D01*
X-134192Y-176083D01*
X-134106Y-176068D01*
X-134005Y-176060D01*
X-133950D01*
X-133919Y-176068D01*
D02*
G37*
G36*
X99080Y-176558D02*
X99212Y-176566D01*
X99244D01*
X99282Y-176574D01*
X99337D01*
X99392Y-176582D01*
X99462Y-176590D01*
X99602Y-176613D01*
X99610D01*
X99633Y-176621D01*
X99672D01*
X99727Y-176628D01*
X99781Y-176636D01*
X99843Y-176652D01*
X99984Y-176675D01*
X99991D01*
X100015Y-176683D01*
X100054D01*
X100101Y-176691D01*
X100217Y-176714D01*
X100342Y-176738D01*
Y-177524D01*
X100334D01*
X100326Y-177517D01*
X100303D01*
X100280Y-177509D01*
X100202Y-177485D01*
X100101Y-177470D01*
X99991Y-177439D01*
X99859Y-177415D01*
X99719Y-177392D01*
X99578Y-177369D01*
X99563D01*
X99516Y-177361D01*
X99438Y-177345D01*
X99345Y-177337D01*
X99236Y-177322D01*
X99111Y-177314D01*
X98846Y-177306D01*
X98722D01*
X98659Y-177314D01*
X98589Y-177322D01*
X98426Y-177337D01*
X98247Y-177369D01*
X98059Y-177415D01*
X97888Y-177478D01*
X97810Y-177517D01*
X97740Y-177563D01*
X97724Y-177571D01*
X97686Y-177610D01*
X97631Y-177665D01*
X97569Y-177743D01*
X97499Y-177836D01*
X97444Y-177953D01*
X97405Y-178085D01*
X97397Y-178155D01*
X97390Y-178233D01*
Y-178241D01*
Y-178280D01*
X97397Y-178327D01*
X97405Y-178389D01*
X97421Y-178459D01*
X97452Y-178537D01*
X97483Y-178615D01*
X97530Y-178685D01*
X97538Y-178693D01*
X97553Y-178716D01*
X97592Y-178755D01*
X97631Y-178794D01*
X97686Y-178849D01*
X97756Y-178903D01*
X97826Y-178965D01*
X97912Y-179020D01*
X97919Y-179028D01*
X97950Y-179043D01*
X98005Y-179075D01*
X98067Y-179106D01*
X98145Y-179153D01*
X98239Y-179199D01*
X98340Y-179246D01*
X98449Y-179293D01*
X98465Y-179300D01*
X98504Y-179316D01*
X98558Y-179340D01*
X98644Y-179371D01*
X98729Y-179402D01*
X98839Y-179448D01*
X99064Y-179542D01*
X99080Y-179550D01*
X99119Y-179565D01*
X99181Y-179589D01*
X99259Y-179620D01*
X99360Y-179667D01*
X99462Y-179713D01*
X99688Y-179822D01*
X99703Y-179830D01*
X99742Y-179846D01*
X99797Y-179877D01*
X99867Y-179924D01*
X99953Y-179978D01*
X100046Y-180033D01*
X100132Y-180103D01*
X100225Y-180181D01*
X100233Y-180189D01*
X100264Y-180220D01*
X100311Y-180259D01*
X100358Y-180313D01*
X100420Y-180391D01*
X100482Y-180469D01*
X100545Y-180562D01*
X100607Y-180664D01*
X100615Y-180679D01*
X100630Y-180710D01*
X100654Y-180773D01*
X100685Y-180851D01*
X100708Y-180952D01*
X100732Y-181061D01*
X100747Y-181193D01*
X100755Y-181334D01*
Y-181342D01*
Y-181357D01*
Y-181380D01*
Y-181412D01*
X100747Y-181497D01*
X100732Y-181606D01*
X100708Y-181731D01*
X100669Y-181863D01*
X100622Y-182004D01*
X100560Y-182136D01*
X100552Y-182152D01*
X100529Y-182191D01*
X100482Y-182253D01*
X100428Y-182339D01*
X100350Y-182424D01*
X100264Y-182518D01*
X100155Y-182619D01*
X100038Y-182705D01*
X100023Y-182712D01*
X99984Y-182744D01*
X99914Y-182783D01*
X99812Y-182829D01*
X99695Y-182884D01*
X99563Y-182946D01*
X99407Y-183001D01*
X99236Y-183047D01*
X99228D01*
X99212Y-183055D01*
X99189D01*
X99158Y-183063D01*
X99111Y-183071D01*
X99057Y-183079D01*
X98932Y-183102D01*
X98776Y-183125D01*
X98605Y-183141D01*
X98410Y-183149D01*
X98200Y-183157D01*
X98036D01*
X97958Y-183149D01*
X97873D01*
X97686Y-183133D01*
X97647D01*
X97592Y-183125D01*
X97530Y-183118D01*
X97460D01*
X97374Y-183110D01*
X97203Y-183086D01*
X97195D01*
X97164Y-183079D01*
X97117D01*
X97062Y-183071D01*
X96992Y-183063D01*
X96914Y-183047D01*
X96759Y-183024D01*
X96751D01*
X96727Y-183016D01*
X96688Y-183009D01*
X96634Y-183001D01*
X96517Y-182970D01*
X96392Y-182938D01*
Y-182089D01*
X96400D01*
X96408Y-182097D01*
X96455Y-182113D01*
X96533Y-182136D01*
X96634Y-182167D01*
X96759Y-182206D01*
X96899Y-182237D01*
X97055Y-182276D01*
X97218Y-182307D01*
X97241D01*
X97265Y-182315D01*
X97296Y-182323D01*
X97343D01*
X97397Y-182331D01*
X97452Y-182339D01*
X97522Y-182346D01*
X97678Y-182362D01*
X97849Y-182370D01*
X98052Y-182385D01*
X98410D01*
X98511Y-182378D01*
X98620Y-182370D01*
X98745Y-182362D01*
X98862Y-182346D01*
X98979Y-182323D01*
X98994D01*
X99033Y-182307D01*
X99088Y-182292D01*
X99158Y-182269D01*
X99236Y-182245D01*
X99314Y-182214D01*
X99392Y-182175D01*
X99470Y-182128D01*
X99477Y-182121D01*
X99501Y-182105D01*
X99532Y-182074D01*
X99571Y-182035D01*
X99617Y-181988D01*
X99664Y-181933D01*
X99703Y-181879D01*
X99742Y-181809D01*
X99750Y-181801D01*
X99758Y-181778D01*
X99773Y-181739D01*
X99789Y-181684D01*
X99805Y-181622D01*
X99820Y-181552D01*
X99836Y-181466D01*
Y-181380D01*
Y-181365D01*
Y-181334D01*
X99828Y-181287D01*
X99820Y-181225D01*
X99797Y-181155D01*
X99773Y-181084D01*
X99734Y-181007D01*
X99688Y-180936D01*
X99680Y-180929D01*
X99664Y-180905D01*
X99625Y-180866D01*
X99586Y-180827D01*
X99532Y-180773D01*
X99462Y-180718D01*
X99392Y-180664D01*
X99306Y-180609D01*
X99298Y-180601D01*
X99267Y-180586D01*
X99212Y-180555D01*
X99150Y-180524D01*
X99072Y-180477D01*
X98979Y-180438D01*
X98877Y-180391D01*
X98768Y-180344D01*
X98753Y-180337D01*
X98714Y-180321D01*
X98659Y-180298D01*
X98574Y-180266D01*
X98480Y-180227D01*
X98379Y-180189D01*
X98262Y-180142D01*
X98145Y-180095D01*
X98130Y-180087D01*
X98091Y-180072D01*
X98028Y-180048D01*
X97950Y-180009D01*
X97857Y-179971D01*
X97756Y-179924D01*
X97530Y-179815D01*
X97514Y-179807D01*
X97475Y-179791D01*
X97421Y-179760D01*
X97351Y-179713D01*
X97265Y-179667D01*
X97171Y-179604D01*
X96992Y-179464D01*
X96984Y-179456D01*
X96953Y-179425D01*
X96914Y-179386D01*
X96860Y-179324D01*
X96798Y-179254D01*
X96735Y-179168D01*
X96673Y-179082D01*
X96611Y-178981D01*
X96603Y-178965D01*
X96587Y-178934D01*
X96564Y-178872D01*
X96540Y-178794D01*
X96517Y-178701D01*
X96494Y-178584D01*
X96478Y-178459D01*
X96470Y-178327D01*
Y-178319D01*
Y-178311D01*
Y-178272D01*
X96478Y-178202D01*
X96486Y-178116D01*
X96501Y-178023D01*
X96525Y-177906D01*
X96556Y-177789D01*
X96603Y-177672D01*
X96611Y-177657D01*
X96626Y-177618D01*
X96665Y-177556D01*
X96712Y-177485D01*
X96766Y-177392D01*
X96844Y-177298D01*
X96930Y-177205D01*
X97031Y-177111D01*
X97047Y-177104D01*
X97086Y-177073D01*
X97148Y-177026D01*
X97234Y-176963D01*
X97343Y-176901D01*
X97475Y-176839D01*
X97615Y-176769D01*
X97779Y-176706D01*
X97787D01*
X97802Y-176699D01*
X97826Y-176691D01*
X97865Y-176683D01*
X97904Y-176667D01*
X97958Y-176660D01*
X98021Y-176644D01*
X98091Y-176628D01*
X98247Y-176597D01*
X98433Y-176574D01*
X98636Y-176558D01*
X98862Y-176551D01*
X99018D01*
X99080Y-176558D01*
D02*
G37*
G36*
X-16412Y-149826D02*
X-16152D01*
X-15867Y-149852D01*
X-15581Y-149878D01*
X-14906Y-149956D01*
X-14178Y-150060D01*
X-13425Y-150216D01*
X-12723Y-150424D01*
X-12697D01*
X-12645Y-150450D01*
X-12541Y-150502D01*
X-12411Y-150528D01*
X-12256Y-150606D01*
X-12074Y-150684D01*
X-11658Y-150891D01*
X-11164Y-151151D01*
X-10645Y-151489D01*
X-10151Y-151879D01*
X-9657Y-152320D01*
X-9631Y-152346D01*
X-9606Y-152372D01*
X-9528Y-152450D01*
X-9450Y-152554D01*
X-9346Y-152684D01*
X-9242Y-152814D01*
X-8956Y-153204D01*
X-8644Y-153671D01*
X-8332Y-154217D01*
X-8047Y-154867D01*
X-7787Y-155568D01*
Y-155594D01*
X-7761Y-155646D01*
X-7735Y-155776D01*
X-7683Y-155906D01*
X-7631Y-156114D01*
X-7579Y-156347D01*
X-7527Y-156607D01*
X-7475Y-156893D01*
X-7423Y-157231D01*
X-7371Y-157594D01*
X-7319Y-157958D01*
X-7267Y-158374D01*
X-7189Y-159283D01*
X-7163Y-160270D01*
Y-160296D01*
Y-160374D01*
Y-160504D01*
Y-160686D01*
X-7189Y-160920D01*
Y-161180D01*
X-7215Y-161465D01*
X-7241Y-161777D01*
X-7319Y-162479D01*
X-7423Y-163232D01*
X-7579Y-164037D01*
X-7787Y-164817D01*
Y-164843D01*
X-7813Y-164895D01*
X-7865Y-165025D01*
X-7891Y-165155D01*
X-7969Y-165336D01*
X-8047Y-165544D01*
X-8255Y-166012D01*
X-8540Y-166558D01*
X-8852Y-167129D01*
X-9242Y-167701D01*
X-9709Y-168272D01*
X-9736Y-168298D01*
X-9761Y-168324D01*
X-9839Y-168402D01*
X-9943Y-168506D01*
X-10073Y-168636D01*
X-10229Y-168766D01*
X-10619Y-169078D01*
X-11086Y-169441D01*
X-11658Y-169805D01*
X-12333Y-170169D01*
X-13061Y-170480D01*
X-13087D01*
X-13165Y-170506D01*
X-13269Y-170558D01*
X-13425Y-170610D01*
X-13607Y-170662D01*
X-13840Y-170714D01*
X-14126Y-170792D01*
X-14438Y-170870D01*
X-14776Y-170948D01*
X-15139Y-171000D01*
X-15555Y-171078D01*
X-15971Y-171130D01*
X-16438Y-171182D01*
X-16906Y-171234D01*
X-17945Y-171260D01*
X-23375D01*
Y-149800D01*
X-16620D01*
X-16412Y-149826D01*
D02*
G37*
G36*
X-52083D02*
X-51771D01*
X-51433Y-149878D01*
X-51044Y-149904D01*
X-50628Y-149956D01*
X-49719Y-150112D01*
X-48809Y-150346D01*
X-48368Y-150502D01*
X-47952Y-150658D01*
X-47562Y-150865D01*
X-47199Y-151099D01*
X-47173Y-151125D01*
X-47121Y-151151D01*
X-47017Y-151229D01*
X-46913Y-151333D01*
X-46783Y-151463D01*
X-46627Y-151645D01*
X-46445Y-151827D01*
X-46263Y-152061D01*
X-46108Y-152320D01*
X-45926Y-152606D01*
X-45770Y-152918D01*
X-45640Y-153256D01*
X-45536Y-153645D01*
X-45432Y-154061D01*
X-45380Y-154503D01*
X-45354Y-154970D01*
Y-154996D01*
Y-155100D01*
Y-155256D01*
X-45380Y-155464D01*
X-45406Y-155698D01*
X-45432Y-155984D01*
X-45562Y-156555D01*
Y-156581D01*
X-45588Y-156685D01*
X-45640Y-156815D01*
X-45692Y-157023D01*
X-45770Y-157231D01*
X-45874Y-157465D01*
X-46133Y-157958D01*
X-46159Y-157984D01*
X-46211Y-158062D01*
X-46289Y-158192D01*
X-46393Y-158322D01*
X-46549Y-158504D01*
X-46705Y-158686D01*
X-47121Y-159075D01*
X-47147Y-159101D01*
X-47225Y-159153D01*
X-47355Y-159257D01*
X-47510Y-159361D01*
X-47718Y-159491D01*
X-47952Y-159621D01*
X-48238Y-159751D01*
X-48524Y-159855D01*
X-48498D01*
X-48394Y-159881D01*
X-48238Y-159907D01*
X-48030Y-159959D01*
X-47796Y-160037D01*
X-47536Y-160140D01*
X-46991Y-160374D01*
X-46965Y-160400D01*
X-46861Y-160452D01*
X-46731Y-160530D01*
X-46549Y-160634D01*
X-46341Y-160790D01*
X-46133Y-160972D01*
X-45692Y-161387D01*
X-45666Y-161413D01*
X-45588Y-161491D01*
X-45510Y-161621D01*
X-45380Y-161777D01*
X-45250Y-162011D01*
X-45094Y-162245D01*
X-44964Y-162505D01*
X-44834Y-162816D01*
X-44808Y-162842D01*
X-44783Y-162972D01*
X-44730Y-163128D01*
X-44653Y-163362D01*
X-44601Y-163648D01*
X-44549Y-163960D01*
X-44523Y-164297D01*
X-44497Y-164687D01*
Y-164713D01*
Y-164843D01*
X-44523Y-164999D01*
Y-165233D01*
X-44575Y-165492D01*
X-44601Y-165804D01*
X-44679Y-166168D01*
X-44783Y-166532D01*
X-44886Y-166947D01*
X-45042Y-167337D01*
X-45224Y-167753D01*
X-45432Y-168168D01*
X-45692Y-168558D01*
X-45978Y-168948D01*
X-46315Y-169285D01*
X-46705Y-169623D01*
X-46731Y-169649D01*
X-46809Y-169701D01*
X-46939Y-169779D01*
X-47121Y-169883D01*
X-47355Y-170013D01*
X-47614Y-170143D01*
X-47952Y-170299D01*
X-48316Y-170429D01*
X-48757Y-170584D01*
X-49225Y-170740D01*
X-49745Y-170870D01*
X-50316Y-171000D01*
X-50940Y-171104D01*
X-51615Y-171182D01*
X-52317Y-171234D01*
X-53070Y-171260D01*
X-59591D01*
Y-149800D01*
X-52317D01*
X-52083Y-149826D01*
D02*
G37*
G36*
X-89650D02*
X-89208D01*
X-88949Y-149852D01*
X-88377Y-149904D01*
X-87753Y-150008D01*
X-87130Y-150112D01*
X-86506Y-150268D01*
X-86480D01*
X-86428Y-150294D01*
X-86351Y-150320D01*
X-86247Y-150346D01*
X-85935Y-150450D01*
X-85571Y-150606D01*
X-85129Y-150788D01*
X-84688Y-151021D01*
X-84220Y-151281D01*
X-83804Y-151593D01*
X-83753Y-151619D01*
X-83623Y-151749D01*
X-83441Y-151931D01*
X-83181Y-152190D01*
X-82921Y-152476D01*
X-82635Y-152840D01*
X-82376Y-153256D01*
X-82142Y-153723D01*
Y-153749D01*
X-82116Y-153775D01*
X-82090Y-153853D01*
X-82064Y-153957D01*
X-81960Y-154217D01*
X-81856Y-154555D01*
X-81752Y-154996D01*
X-81648Y-155490D01*
X-81596Y-156061D01*
X-81570Y-156659D01*
Y-156685D01*
Y-156737D01*
Y-156815D01*
Y-156945D01*
X-81596Y-157075D01*
Y-157257D01*
X-81648Y-157672D01*
X-81700Y-158140D01*
X-81804Y-158660D01*
X-81960Y-159205D01*
X-82142Y-159751D01*
Y-159777D01*
X-82168Y-159803D01*
X-82194Y-159881D01*
X-82246Y-159985D01*
X-82376Y-160244D01*
X-82557Y-160582D01*
X-82791Y-160972D01*
X-83077Y-161387D01*
X-83415Y-161803D01*
X-83804Y-162219D01*
X-83856Y-162271D01*
X-84012Y-162375D01*
X-84246Y-162557D01*
X-84558Y-162790D01*
X-84948Y-163050D01*
X-85415Y-163310D01*
X-85935Y-163570D01*
X-86532Y-163804D01*
X-86558D01*
X-86610Y-163830D01*
X-86688Y-163856D01*
X-86818Y-163882D01*
X-86974Y-163934D01*
X-87156Y-163985D01*
X-87390Y-164037D01*
X-87624Y-164089D01*
X-88195Y-164193D01*
X-88845Y-164297D01*
X-89572Y-164349D01*
X-90351Y-164375D01*
X-92378D01*
Y-171260D01*
X-96457D01*
Y-149800D01*
X-89832D01*
X-89650Y-149826D01*
D02*
G37*
G36*
X79714Y-149541D02*
X80207Y-149566D01*
X80441D01*
X80623Y-149592D01*
X80805Y-149618D01*
X81013D01*
X81480Y-149696D01*
X81506D01*
X81584Y-149722D01*
X81714D01*
X81870Y-149748D01*
X82052Y-149774D01*
X82260Y-149826D01*
X82727Y-149930D01*
X82753D01*
X82831Y-149956D01*
X82961Y-149982D01*
X83143Y-150034D01*
X83351Y-150086D01*
X83585Y-150138D01*
X84078Y-150294D01*
Y-154295D01*
X84052D01*
X84026Y-154269D01*
X83948Y-154243D01*
X83845Y-154191D01*
X83559Y-154061D01*
X83221Y-153931D01*
X82805Y-153775D01*
X82364Y-153619D01*
X81896Y-153489D01*
X81402Y-153360D01*
X81376D01*
X81350Y-153334D01*
X81195Y-153308D01*
X80935Y-153256D01*
X80649Y-153204D01*
X80285Y-153152D01*
X79896Y-153126D01*
X79506Y-153074D01*
X78856D01*
X78571Y-153100D01*
X78207Y-153152D01*
X77791Y-153204D01*
X77376Y-153308D01*
X76908Y-153463D01*
X76492Y-153645D01*
X76440Y-153671D01*
X76310Y-153749D01*
X76103Y-153879D01*
X75869Y-154035D01*
X75583Y-154269D01*
X75271Y-154529D01*
X74985Y-154841D01*
X74699Y-155178D01*
X74674Y-155230D01*
X74596Y-155360D01*
X74466Y-155568D01*
X74310Y-155854D01*
X74154Y-156191D01*
X73998Y-156581D01*
X73816Y-157049D01*
X73686Y-157542D01*
Y-157568D01*
Y-157594D01*
X73660Y-157672D01*
X73634Y-157776D01*
X73582Y-158062D01*
X73530Y-158426D01*
X73479Y-158867D01*
X73427Y-159387D01*
X73400Y-159959D01*
X73375Y-160556D01*
Y-160582D01*
Y-160634D01*
Y-160712D01*
Y-160842D01*
Y-160998D01*
X73400Y-161180D01*
X73427Y-161595D01*
X73453Y-162063D01*
X73505Y-162583D01*
X73582Y-163128D01*
X73686Y-163648D01*
Y-163674D01*
X73712Y-163700D01*
Y-163778D01*
X73738Y-163882D01*
X73842Y-164141D01*
X73946Y-164453D01*
X74102Y-164817D01*
X74258Y-165207D01*
X74492Y-165596D01*
X74726Y-165986D01*
X74752Y-166038D01*
X74855Y-166142D01*
X75011Y-166298D01*
X75219Y-166506D01*
X75479Y-166739D01*
X75791Y-166973D01*
X76154Y-167207D01*
X76544Y-167415D01*
X76596Y-167441D01*
X76752Y-167493D01*
X76960Y-167571D01*
X77272Y-167649D01*
X77661Y-167753D01*
X78103Y-167831D01*
X78623Y-167882D01*
X79168Y-167908D01*
X79376D01*
X79506Y-167882D01*
X79688D01*
X79870Y-167857D01*
X80311Y-167805D01*
X80337D01*
X80415Y-167779D01*
X80545Y-167753D01*
X80727Y-167727D01*
X80909Y-167701D01*
X81143Y-167649D01*
X81610Y-167545D01*
X81636D01*
X81714Y-167519D01*
X81844Y-167467D01*
X82026Y-167415D01*
X82208Y-167363D01*
X82416Y-167285D01*
X82883Y-167129D01*
X82909D01*
X82987Y-167077D01*
X83117Y-167051D01*
X83273Y-166973D01*
X83663Y-166817D01*
X84078Y-166635D01*
Y-170403D01*
X84052D01*
X84026Y-170429D01*
X83948Y-170455D01*
X83819Y-170506D01*
X83559Y-170610D01*
X83195Y-170740D01*
X82753Y-170870D01*
X82286Y-171026D01*
X81792Y-171156D01*
X81273Y-171260D01*
X81221D01*
X81143Y-171286D01*
X81039Y-171312D01*
X80779Y-171338D01*
X80441Y-171390D01*
X80026Y-171442D01*
X79558Y-171494D01*
X79038Y-171520D01*
X78519Y-171546D01*
X78129D01*
X77921Y-171520D01*
X77687D01*
X77427Y-171494D01*
X77142Y-171468D01*
X76492Y-171390D01*
X75817Y-171260D01*
X75115Y-171104D01*
X74414Y-170870D01*
X74388D01*
X74336Y-170844D01*
X74232Y-170792D01*
X74128Y-170740D01*
X73972Y-170662D01*
X73790Y-170584D01*
X73375Y-170377D01*
X72881Y-170091D01*
X72387Y-169753D01*
X71894Y-169337D01*
X71400Y-168870D01*
X71374Y-168844D01*
X71348Y-168818D01*
X71296Y-168740D01*
X71192Y-168636D01*
X71088Y-168506D01*
X70984Y-168324D01*
X70725Y-167934D01*
X70413Y-167467D01*
X70101Y-166895D01*
X69815Y-166246D01*
X69555Y-165518D01*
Y-165492D01*
X69529Y-165414D01*
X69503Y-165310D01*
X69452Y-165155D01*
X69400Y-164973D01*
X69348Y-164739D01*
X69296Y-164479D01*
X69244Y-164193D01*
X69192Y-163856D01*
X69140Y-163492D01*
X69088Y-163128D01*
X69036Y-162712D01*
X68958Y-161829D01*
X68932Y-160868D01*
Y-160842D01*
Y-160738D01*
Y-160608D01*
Y-160400D01*
X68958Y-160166D01*
Y-159907D01*
X68984Y-159595D01*
X69010Y-159257D01*
X69088Y-158504D01*
X69218Y-157698D01*
X69374Y-156867D01*
X69608Y-156061D01*
Y-156036D01*
X69634Y-155958D01*
X69685Y-155854D01*
X69737Y-155698D01*
X69815Y-155516D01*
X69893Y-155308D01*
X70127Y-154815D01*
X70387Y-154269D01*
X70725Y-153671D01*
X71140Y-153074D01*
X71582Y-152502D01*
X71608Y-152476D01*
X71634Y-152450D01*
X71712Y-152372D01*
X71816Y-152269D01*
X72076Y-152009D01*
X72439Y-151671D01*
X72907Y-151333D01*
X73427Y-150944D01*
X74024Y-150606D01*
X74674Y-150294D01*
X74699D01*
X74752Y-150268D01*
X74855Y-150216D01*
X75011Y-150164D01*
X75167Y-150112D01*
X75375Y-150034D01*
X75609Y-149982D01*
X75895Y-149904D01*
X76180Y-149826D01*
X76492Y-149748D01*
X77194Y-149644D01*
X77973Y-149541D01*
X78804Y-149515D01*
X79480D01*
X79714Y-149541D01*
D02*
G37*
G36*
X-68061D02*
X-67567Y-149566D01*
X-67333D01*
X-67151Y-149592D01*
X-66969Y-149618D01*
X-66761D01*
X-66294Y-149696D01*
X-66268D01*
X-66190Y-149722D01*
X-66060D01*
X-65904Y-149748D01*
X-65722Y-149774D01*
X-65514Y-149826D01*
X-65047Y-149930D01*
X-65021D01*
X-64943Y-149956D01*
X-64813Y-149982D01*
X-64631Y-150034D01*
X-64423Y-150086D01*
X-64189Y-150138D01*
X-63696Y-150294D01*
Y-154295D01*
X-63722D01*
X-63748Y-154269D01*
X-63826Y-154243D01*
X-63930Y-154191D01*
X-64215Y-154061D01*
X-64553Y-153931D01*
X-64969Y-153775D01*
X-65411Y-153619D01*
X-65878Y-153489D01*
X-66372Y-153360D01*
X-66398D01*
X-66424Y-153334D01*
X-66580Y-153308D01*
X-66839Y-153256D01*
X-67125Y-153204D01*
X-67489Y-153152D01*
X-67879Y-153126D01*
X-68268Y-153074D01*
X-68918D01*
X-69204Y-153100D01*
X-69567Y-153152D01*
X-69983Y-153204D01*
X-70399Y-153308D01*
X-70866Y-153463D01*
X-71282Y-153645D01*
X-71334Y-153671D01*
X-71464Y-153749D01*
X-71672Y-153879D01*
X-71906Y-154035D01*
X-72191Y-154269D01*
X-72503Y-154529D01*
X-72789Y-154841D01*
X-73075Y-155178D01*
X-73101Y-155230D01*
X-73179Y-155360D01*
X-73308Y-155568D01*
X-73464Y-155854D01*
X-73620Y-156191D01*
X-73776Y-156581D01*
X-73958Y-157049D01*
X-74088Y-157542D01*
Y-157568D01*
Y-157594D01*
X-74114Y-157672D01*
X-74140Y-157776D01*
X-74192Y-158062D01*
X-74244Y-158426D01*
X-74296Y-158867D01*
X-74348Y-159387D01*
X-74374Y-159959D01*
X-74400Y-160556D01*
Y-160582D01*
Y-160634D01*
Y-160712D01*
Y-160842D01*
Y-160998D01*
X-74374Y-161180D01*
X-74348Y-161595D01*
X-74322Y-162063D01*
X-74270Y-162583D01*
X-74192Y-163128D01*
X-74088Y-163648D01*
Y-163674D01*
X-74062Y-163700D01*
Y-163778D01*
X-74036Y-163882D01*
X-73932Y-164141D01*
X-73828Y-164453D01*
X-73672Y-164817D01*
X-73516Y-165207D01*
X-73282Y-165596D01*
X-73049Y-165986D01*
X-73023Y-166038D01*
X-72919Y-166142D01*
X-72763Y-166298D01*
X-72555Y-166506D01*
X-72295Y-166739D01*
X-71983Y-166973D01*
X-71620Y-167207D01*
X-71230Y-167415D01*
X-71178Y-167441D01*
X-71022Y-167493D01*
X-70814Y-167571D01*
X-70503Y-167649D01*
X-70113Y-167753D01*
X-69671Y-167831D01*
X-69152Y-167882D01*
X-68606Y-167908D01*
X-68398D01*
X-68268Y-167882D01*
X-68086D01*
X-67905Y-167857D01*
X-67463Y-167805D01*
X-67437D01*
X-67359Y-167779D01*
X-67229Y-167753D01*
X-67047Y-167727D01*
X-66865Y-167701D01*
X-66632Y-167649D01*
X-66164Y-167545D01*
X-66138D01*
X-66060Y-167519D01*
X-65930Y-167467D01*
X-65748Y-167415D01*
X-65566Y-167363D01*
X-65359Y-167285D01*
X-64891Y-167129D01*
X-64865D01*
X-64787Y-167077D01*
X-64657Y-167051D01*
X-64501Y-166973D01*
X-64112Y-166817D01*
X-63696Y-166635D01*
Y-170403D01*
X-63722D01*
X-63748Y-170429D01*
X-63826Y-170455D01*
X-63956Y-170506D01*
X-64215Y-170610D01*
X-64579Y-170740D01*
X-65021Y-170870D01*
X-65488Y-171026D01*
X-65982Y-171156D01*
X-66502Y-171260D01*
X-66554D01*
X-66632Y-171286D01*
X-66736Y-171312D01*
X-66995Y-171338D01*
X-67333Y-171390D01*
X-67749Y-171442D01*
X-68216Y-171494D01*
X-68736Y-171520D01*
X-69256Y-171546D01*
X-69645D01*
X-69853Y-171520D01*
X-70087D01*
X-70347Y-171494D01*
X-70633Y-171468D01*
X-71282Y-171390D01*
X-71958Y-171260D01*
X-72659Y-171104D01*
X-73361Y-170870D01*
X-73387D01*
X-73438Y-170844D01*
X-73542Y-170792D01*
X-73646Y-170740D01*
X-73802Y-170662D01*
X-73984Y-170584D01*
X-74400Y-170377D01*
X-74893Y-170091D01*
X-75387Y-169753D01*
X-75880Y-169337D01*
X-76374Y-168870D01*
X-76400Y-168844D01*
X-76426Y-168818D01*
X-76478Y-168740D01*
X-76582Y-168636D01*
X-76686Y-168506D01*
X-76790Y-168324D01*
X-77050Y-167934D01*
X-77361Y-167467D01*
X-77673Y-166895D01*
X-77959Y-166246D01*
X-78219Y-165518D01*
Y-165492D01*
X-78245Y-165414D01*
X-78271Y-165310D01*
X-78323Y-165155D01*
X-78375Y-164973D01*
X-78427Y-164739D01*
X-78478Y-164479D01*
X-78531Y-164193D01*
X-78582Y-163856D01*
X-78634Y-163492D01*
X-78686Y-163128D01*
X-78738Y-162712D01*
X-78816Y-161829D01*
X-78842Y-160868D01*
Y-160842D01*
Y-160738D01*
Y-160608D01*
Y-160400D01*
X-78816Y-160166D01*
Y-159907D01*
X-78790Y-159595D01*
X-78764Y-159257D01*
X-78686Y-158504D01*
X-78557Y-157698D01*
X-78401Y-156867D01*
X-78167Y-156061D01*
Y-156036D01*
X-78141Y-155958D01*
X-78089Y-155854D01*
X-78037Y-155698D01*
X-77959Y-155516D01*
X-77881Y-155308D01*
X-77647Y-154815D01*
X-77387Y-154269D01*
X-77050Y-153671D01*
X-76634Y-153074D01*
X-76192Y-152502D01*
X-76166Y-152476D01*
X-76140Y-152450D01*
X-76062Y-152372D01*
X-75959Y-152269D01*
X-75699Y-152009D01*
X-75335Y-151671D01*
X-74867Y-151333D01*
X-74348Y-150944D01*
X-73750Y-150606D01*
X-73101Y-150294D01*
X-73075D01*
X-73023Y-150268D01*
X-72919Y-150216D01*
X-72763Y-150164D01*
X-72607Y-150112D01*
X-72399Y-150034D01*
X-72165Y-149982D01*
X-71880Y-149904D01*
X-71594Y-149826D01*
X-71282Y-149748D01*
X-70581Y-149644D01*
X-69801Y-149541D01*
X-68970Y-149515D01*
X-68294D01*
X-68061Y-149541D01*
D02*
G37*
G36*
X56274Y-183071D02*
X55503D01*
X55472Y-182136D01*
Y-182144D01*
X55456Y-182159D01*
X55433Y-182183D01*
X55409Y-182222D01*
X55339Y-182315D01*
X55238Y-182424D01*
X55121Y-182557D01*
X54989Y-182681D01*
X54848Y-182806D01*
X54693Y-182907D01*
X54685D01*
X54677Y-182915D01*
X54654Y-182931D01*
X54623Y-182946D01*
X54537Y-182985D01*
X54420Y-183032D01*
X54287Y-183079D01*
X54132Y-183118D01*
X53968Y-183149D01*
X53789Y-183157D01*
X53719D01*
X53633Y-183149D01*
X53532Y-183133D01*
X53415Y-183118D01*
X53290Y-183086D01*
X53158Y-183040D01*
X53033Y-182985D01*
X53018Y-182977D01*
X52979Y-182954D01*
X52924Y-182915D01*
X52846Y-182853D01*
X52761Y-182783D01*
X52675Y-182697D01*
X52582Y-182596D01*
X52496Y-182487D01*
X52488Y-182471D01*
X52465Y-182424D01*
X52426Y-182362D01*
X52379Y-182269D01*
X52324Y-182152D01*
X52270Y-182019D01*
X52223Y-181871D01*
X52176Y-181708D01*
Y-181700D01*
X52169Y-181684D01*
Y-181661D01*
X52161Y-181630D01*
X52153Y-181583D01*
X52145Y-181536D01*
X52130Y-181412D01*
X52106Y-181264D01*
X52091Y-181092D01*
X52083Y-180905D01*
X52075Y-180703D01*
Y-180695D01*
Y-180672D01*
Y-180640D01*
Y-180594D01*
X52083Y-180539D01*
Y-180477D01*
X52091Y-180407D01*
X52099Y-180329D01*
X52114Y-180157D01*
X52145Y-179971D01*
X52192Y-179776D01*
X52246Y-179589D01*
Y-179581D01*
X52254Y-179565D01*
X52262Y-179542D01*
X52278Y-179503D01*
X52317Y-179417D01*
X52371Y-179300D01*
X52441Y-179168D01*
X52519Y-179036D01*
X52620Y-178895D01*
X52729Y-178763D01*
X52737Y-178755D01*
X52745Y-178747D01*
X52784Y-178709D01*
X52854Y-178646D01*
X52948Y-178568D01*
X53057Y-178490D01*
X53189Y-178405D01*
X53329Y-178319D01*
X53493Y-178249D01*
X53501D01*
X53516Y-178241D01*
X53540Y-178233D01*
X53571Y-178218D01*
X53618Y-178210D01*
X53664Y-178194D01*
X53789Y-178155D01*
X53937Y-178124D01*
X54108Y-178101D01*
X54287Y-178077D01*
X54490Y-178070D01*
X54638D01*
X54708Y-178077D01*
X54786Y-178085D01*
X54950Y-178101D01*
X54957D01*
X54989Y-178109D01*
X55035Y-178116D01*
X55098Y-178124D01*
X55168Y-178140D01*
X55246Y-178155D01*
X55409Y-178194D01*
Y-176114D01*
X56274D01*
Y-183071D01*
D02*
G37*
G36*
X5784Y38991D02*
X9578Y38236D01*
X13279Y37113D01*
X16853Y35633D01*
X20265Y33810D01*
X23481Y31661D01*
X26471Y29206D01*
X29206Y26471D01*
X31661Y23481D01*
X33810Y20265D01*
X35633Y16853D01*
X37113Y13279D01*
X38236Y9578D01*
X38991Y5784D01*
X39370Y1934D01*
Y0D01*
Y-1934D01*
X38991Y-5784D01*
X38236Y-9578D01*
X37113Y-13279D01*
X35633Y-16853D01*
X33810Y-20265D01*
X31661Y-23481D01*
X29206Y-26471D01*
X26471Y-29206D01*
X23481Y-31661D01*
X20265Y-33810D01*
X16853Y-35633D01*
X13279Y-37113D01*
X9578Y-38236D01*
X5784Y-38991D01*
X1934Y-39370D01*
X-1934D01*
X-5784Y-38991D01*
X-9578Y-38236D01*
X-13279Y-37113D01*
X-16853Y-35633D01*
X-20265Y-33810D01*
X-23481Y-31661D01*
X-26471Y-29206D01*
X-29206Y-26471D01*
X-31661Y-23481D01*
X-33810Y-20265D01*
X-35633Y-16853D01*
X-37113Y-13279D01*
X-38236Y-9578D01*
X-38991Y-5784D01*
X-39370Y-1934D01*
Y0D01*
Y1934D01*
X-38991Y5784D01*
X-38236Y9578D01*
X-37113Y13279D01*
X-35633Y16853D01*
X-33810Y20265D01*
X-31661Y23481D01*
X-29206Y26471D01*
X-26471Y29206D01*
X-23481Y31661D01*
X-20265Y33810D01*
X-16853Y35633D01*
X-13279Y37113D01*
X-9578Y38236D01*
X-5784Y38991D01*
X-1934Y39370D01*
X1934D01*
X5784Y38991D01*
D02*
G37*
G36*
X41211Y-149463D02*
X41445D01*
X41939Y-149515D01*
X42069D01*
X42199Y-149541D01*
X42380D01*
X42588Y-149566D01*
X42822Y-149592D01*
X43316Y-149671D01*
X43342D01*
X43446Y-149696D01*
X43576D01*
X43757Y-149722D01*
X43939Y-149748D01*
X44173Y-149800D01*
X44641Y-149878D01*
X44667D01*
X44745Y-149904D01*
X44875D01*
X45030Y-149956D01*
X45394Y-150008D01*
X45810Y-150112D01*
Y-153801D01*
X45784D01*
X45706Y-153775D01*
X45602Y-153723D01*
X45472Y-153697D01*
X45290Y-153645D01*
X45082Y-153593D01*
X44641Y-153463D01*
X44615D01*
X44537Y-153438D01*
X44407Y-153412D01*
X44251Y-153360D01*
X44043Y-153308D01*
X43835Y-153256D01*
X43342Y-153178D01*
X43316D01*
X43238Y-153152D01*
X43108Y-153126D01*
X42926Y-153100D01*
X42744Y-153074D01*
X42510Y-153022D01*
X42017Y-152970D01*
X41991D01*
X41913Y-152944D01*
X41783D01*
X41601Y-152918D01*
X41419D01*
X41185Y-152892D01*
X40380D01*
X40120Y-152918D01*
X39834Y-152944D01*
X39523Y-152970D01*
X39211Y-153022D01*
X38925Y-153074D01*
X38899D01*
X38795Y-153100D01*
X38665Y-153152D01*
X38509Y-153204D01*
X38094Y-153360D01*
X37704Y-153568D01*
X37678D01*
X37626Y-153619D01*
X37548Y-153671D01*
X37444Y-153775D01*
X37210Y-154009D01*
X37029Y-154321D01*
Y-154347D01*
X37003Y-154399D01*
X36977Y-154477D01*
X36925Y-154607D01*
X36847Y-154918D01*
X36821Y-155308D01*
Y-155334D01*
Y-155412D01*
X36847Y-155542D01*
X36873Y-155698D01*
X36925Y-155880D01*
X37003Y-156088D01*
X37106Y-156295D01*
X37262Y-156477D01*
X37288Y-156503D01*
X37340Y-156555D01*
X37444Y-156633D01*
X37574Y-156763D01*
X37756Y-156893D01*
X37964Y-157023D01*
X38198Y-157179D01*
X38458Y-157335D01*
X38483Y-157360D01*
X38587Y-157413D01*
X38743Y-157465D01*
X38951Y-157568D01*
X39211Y-157672D01*
X39497Y-157802D01*
X39808Y-157932D01*
X40146Y-158062D01*
X40198Y-158088D01*
X40302Y-158114D01*
X40510Y-158192D01*
X40744Y-158270D01*
X41056Y-158400D01*
X41367Y-158504D01*
X42095Y-158789D01*
X42147Y-158815D01*
X42276Y-158841D01*
X42458Y-158919D01*
X42718Y-159023D01*
X43004Y-159153D01*
X43316Y-159309D01*
X44017Y-159647D01*
X44069Y-159673D01*
X44173Y-159725D01*
X44355Y-159829D01*
X44589Y-159985D01*
X44848Y-160166D01*
X45134Y-160374D01*
X45446Y-160608D01*
X45732Y-160868D01*
X45758Y-160894D01*
X45862Y-160998D01*
X45992Y-161128D01*
X46174Y-161336D01*
X46355Y-161569D01*
X46563Y-161855D01*
X46745Y-162193D01*
X46927Y-162531D01*
X46953Y-162583D01*
X47005Y-162712D01*
X47083Y-162894D01*
X47161Y-163180D01*
X47239Y-163492D01*
X47317Y-163882D01*
X47369Y-164323D01*
X47395Y-164791D01*
Y-164817D01*
Y-164869D01*
Y-164973D01*
Y-165077D01*
X47369Y-165233D01*
Y-165414D01*
X47317Y-165830D01*
X47239Y-166324D01*
X47109Y-166817D01*
X46953Y-167363D01*
X46745Y-167857D01*
Y-167882D01*
X46719Y-167908D01*
X46615Y-168064D01*
X46485Y-168324D01*
X46277Y-168610D01*
X46018Y-168948D01*
X45706Y-169311D01*
X45342Y-169675D01*
X44927Y-170013D01*
X44875Y-170039D01*
X44719Y-170143D01*
X44485Y-170299D01*
X44147Y-170480D01*
X43731Y-170688D01*
X43264Y-170896D01*
X42718Y-171078D01*
X42147Y-171260D01*
X42121D01*
X42069Y-171286D01*
X41991D01*
X41861Y-171312D01*
X41705Y-171338D01*
X41549Y-171390D01*
X41341Y-171416D01*
X41107Y-171442D01*
X40588Y-171520D01*
X39990Y-171598D01*
X39315Y-171624D01*
X38613Y-171650D01*
X37990D01*
X37574Y-171624D01*
X37080Y-171598D01*
X36509Y-171572D01*
X35937Y-171520D01*
X35340Y-171442D01*
X35262D01*
X35184Y-171416D01*
X35080D01*
X34924Y-171390D01*
X34768Y-171364D01*
X34379Y-171286D01*
X33911Y-171208D01*
X33391Y-171078D01*
X32820Y-170948D01*
X32248Y-170792D01*
Y-166791D01*
X32274D01*
X32378Y-166843D01*
X32534Y-166895D01*
X32716Y-166973D01*
X32950Y-167051D01*
X33235Y-167129D01*
X33807Y-167311D01*
X33833D01*
X33963Y-167337D01*
X34119Y-167389D01*
X34327Y-167441D01*
X34586Y-167493D01*
X34872Y-167571D01*
X35470Y-167701D01*
X35496D01*
X35626Y-167727D01*
X35781Y-167753D01*
X35989Y-167805D01*
X36223Y-167857D01*
X36509Y-167908D01*
X37106Y-167986D01*
X37236D01*
X37418Y-168012D01*
X37626D01*
X37860Y-168038D01*
X38120D01*
X38691Y-168064D01*
X39107D01*
X39367Y-168038D01*
X39678Y-168012D01*
X40016Y-167986D01*
X40354Y-167934D01*
X40666Y-167882D01*
X40692D01*
X40796Y-167857D01*
X40951Y-167805D01*
X41133Y-167727D01*
X41549Y-167571D01*
X41757Y-167467D01*
X41965Y-167337D01*
X41991Y-167311D01*
X42043Y-167285D01*
X42147Y-167207D01*
X42250Y-167103D01*
X42510Y-166843D01*
X42614Y-166687D01*
X42718Y-166532D01*
Y-166506D01*
X42744Y-166454D01*
X42796Y-166350D01*
X42848Y-166220D01*
X42874Y-166064D01*
X42926Y-165882D01*
X42952Y-165466D01*
Y-165440D01*
Y-165336D01*
X42926Y-165181D01*
X42900Y-164999D01*
X42848Y-164817D01*
X42744Y-164583D01*
X42640Y-164375D01*
X42484Y-164167D01*
X42458Y-164141D01*
X42406Y-164063D01*
X42303Y-163960D01*
X42173Y-163830D01*
X41991Y-163700D01*
X41783Y-163518D01*
X41549Y-163362D01*
X41289Y-163206D01*
X41263Y-163180D01*
X41159Y-163128D01*
X41004Y-163050D01*
X40796Y-162946D01*
X40562Y-162842D01*
X40276Y-162712D01*
X39938Y-162609D01*
X39601Y-162479D01*
X39549Y-162453D01*
X39445Y-162427D01*
X39263Y-162349D01*
X39003Y-162271D01*
X38717Y-162167D01*
X38405Y-162037D01*
X37678Y-161777D01*
X37626Y-161751D01*
X37522Y-161699D01*
X37314Y-161621D01*
X37080Y-161517D01*
X36795Y-161387D01*
X36457Y-161258D01*
X35756Y-160920D01*
X35704Y-160894D01*
X35600Y-160842D01*
X35418Y-160738D01*
X35184Y-160582D01*
X34924Y-160400D01*
X34638Y-160218D01*
X34353Y-159985D01*
X34067Y-159725D01*
X34041Y-159699D01*
X33937Y-159595D01*
X33807Y-159439D01*
X33651Y-159257D01*
X33469Y-158997D01*
X33261Y-158712D01*
X33080Y-158400D01*
X32898Y-158036D01*
X32872Y-157984D01*
X32820Y-157854D01*
X32768Y-157646D01*
X32690Y-157360D01*
X32586Y-157023D01*
X32534Y-156633D01*
X32482Y-156166D01*
X32456Y-155672D01*
Y-155646D01*
Y-155620D01*
Y-155464D01*
X32482Y-155204D01*
X32508Y-154892D01*
X32560Y-154529D01*
X32638Y-154113D01*
X32742Y-153697D01*
X32898Y-153282D01*
Y-153256D01*
X32924Y-153230D01*
X32976Y-153100D01*
X33106Y-152866D01*
X33261Y-152606D01*
X33469Y-152294D01*
X33703Y-151957D01*
X34015Y-151619D01*
X34353Y-151307D01*
X34405Y-151281D01*
X34534Y-151177D01*
X34742Y-151021D01*
X35028Y-150814D01*
X35392Y-150606D01*
X35833Y-150372D01*
X36327Y-150164D01*
X36873Y-149956D01*
X36899D01*
X36951Y-149930D01*
X37029Y-149904D01*
X37158Y-149878D01*
X37314Y-149826D01*
X37470Y-149800D01*
X37678Y-149748D01*
X37938Y-149696D01*
X38483Y-149592D01*
X39107Y-149515D01*
X39834Y-149463D01*
X40614Y-149437D01*
X41004D01*
X41211Y-149463D01*
D02*
G37*
G36*
X22739D02*
X22973D01*
X23467Y-149515D01*
X23597D01*
X23727Y-149541D01*
X23909D01*
X24116Y-149566D01*
X24350Y-149592D01*
X24844Y-149671D01*
X24870D01*
X24974Y-149696D01*
X25104D01*
X25286Y-149722D01*
X25467Y-149748D01*
X25701Y-149800D01*
X26169Y-149878D01*
X26195D01*
X26273Y-149904D01*
X26403D01*
X26559Y-149956D01*
X26922Y-150008D01*
X27338Y-150112D01*
Y-153801D01*
X27312D01*
X27234Y-153775D01*
X27130Y-153723D01*
X27000Y-153697D01*
X26818Y-153645D01*
X26611Y-153593D01*
X26169Y-153463D01*
X26143D01*
X26065Y-153438D01*
X25935Y-153412D01*
X25779Y-153360D01*
X25571Y-153308D01*
X25363Y-153256D01*
X24870Y-153178D01*
X24844D01*
X24766Y-153152D01*
X24636Y-153126D01*
X24454Y-153100D01*
X24272Y-153074D01*
X24039Y-153022D01*
X23545Y-152970D01*
X23519D01*
X23441Y-152944D01*
X23311D01*
X23129Y-152918D01*
X22947D01*
X22714Y-152892D01*
X21908D01*
X21648Y-152918D01*
X21363Y-152944D01*
X21051Y-152970D01*
X20739Y-153022D01*
X20453Y-153074D01*
X20427D01*
X20323Y-153100D01*
X20193Y-153152D01*
X20038Y-153204D01*
X19622Y-153360D01*
X19232Y-153568D01*
X19206D01*
X19154Y-153619D01*
X19076Y-153671D01*
X18972Y-153775D01*
X18739Y-154009D01*
X18557Y-154321D01*
Y-154347D01*
X18531Y-154399D01*
X18505Y-154477D01*
X18453Y-154607D01*
X18375Y-154918D01*
X18349Y-155308D01*
Y-155334D01*
Y-155412D01*
X18375Y-155542D01*
X18401Y-155698D01*
X18453Y-155880D01*
X18531Y-156088D01*
X18635Y-156295D01*
X18791Y-156477D01*
X18817Y-156503D01*
X18868Y-156555D01*
X18972Y-156633D01*
X19102Y-156763D01*
X19284Y-156893D01*
X19492Y-157023D01*
X19726Y-157179D01*
X19986Y-157335D01*
X20012Y-157360D01*
X20116Y-157413D01*
X20271Y-157465D01*
X20479Y-157568D01*
X20739Y-157672D01*
X21025Y-157802D01*
X21337Y-157932D01*
X21674Y-158062D01*
X21726Y-158088D01*
X21830Y-158114D01*
X22038Y-158192D01*
X22272Y-158270D01*
X22584Y-158400D01*
X22895Y-158504D01*
X23623Y-158789D01*
X23675Y-158815D01*
X23805Y-158841D01*
X23987Y-158919D01*
X24246Y-159023D01*
X24532Y-159153D01*
X24844Y-159309D01*
X25545Y-159647D01*
X25597Y-159673D01*
X25701Y-159725D01*
X25883Y-159829D01*
X26117Y-159985D01*
X26377Y-160166D01*
X26662Y-160374D01*
X26974Y-160608D01*
X27260Y-160868D01*
X27286Y-160894D01*
X27390Y-160998D01*
X27520Y-161128D01*
X27702Y-161336D01*
X27884Y-161569D01*
X28091Y-161855D01*
X28273Y-162193D01*
X28455Y-162531D01*
X28481Y-162583D01*
X28533Y-162712D01*
X28611Y-162894D01*
X28689Y-163180D01*
X28767Y-163492D01*
X28845Y-163882D01*
X28897Y-164323D01*
X28923Y-164791D01*
Y-164817D01*
Y-164869D01*
Y-164973D01*
Y-165077D01*
X28897Y-165233D01*
Y-165414D01*
X28845Y-165830D01*
X28767Y-166324D01*
X28637Y-166817D01*
X28481Y-167363D01*
X28273Y-167857D01*
Y-167882D01*
X28247Y-167908D01*
X28143Y-168064D01*
X28014Y-168324D01*
X27806Y-168610D01*
X27546Y-168948D01*
X27234Y-169311D01*
X26870Y-169675D01*
X26455Y-170013D01*
X26403Y-170039D01*
X26247Y-170143D01*
X26013Y-170299D01*
X25675Y-170480D01*
X25260Y-170688D01*
X24792Y-170896D01*
X24246Y-171078D01*
X23675Y-171260D01*
X23649D01*
X23597Y-171286D01*
X23519D01*
X23389Y-171312D01*
X23233Y-171338D01*
X23077Y-171390D01*
X22870Y-171416D01*
X22636Y-171442D01*
X22116Y-171520D01*
X21519Y-171598D01*
X20843Y-171624D01*
X20142Y-171650D01*
X19518D01*
X19102Y-171624D01*
X18609Y-171598D01*
X18037Y-171572D01*
X17466Y-171520D01*
X16868Y-171442D01*
X16790D01*
X16712Y-171416D01*
X16608D01*
X16452Y-171390D01*
X16296Y-171364D01*
X15907Y-171286D01*
X15439Y-171208D01*
X14920Y-171078D01*
X14348Y-170948D01*
X13776Y-170792D01*
Y-166791D01*
X13802D01*
X13906Y-166843D01*
X14062Y-166895D01*
X14244Y-166973D01*
X14478Y-167051D01*
X14764Y-167129D01*
X15335Y-167311D01*
X15361D01*
X15491Y-167337D01*
X15647Y-167389D01*
X15855Y-167441D01*
X16115Y-167493D01*
X16400Y-167571D01*
X16998Y-167701D01*
X17024D01*
X17154Y-167727D01*
X17310Y-167753D01*
X17518Y-167805D01*
X17751Y-167857D01*
X18037Y-167908D01*
X18635Y-167986D01*
X18765D01*
X18947Y-168012D01*
X19154D01*
X19388Y-168038D01*
X19648D01*
X20220Y-168064D01*
X20635D01*
X20895Y-168038D01*
X21207Y-168012D01*
X21544Y-167986D01*
X21882Y-167934D01*
X22194Y-167882D01*
X22220D01*
X22324Y-167857D01*
X22480Y-167805D01*
X22662Y-167727D01*
X23077Y-167571D01*
X23285Y-167467D01*
X23493Y-167337D01*
X23519Y-167311D01*
X23571Y-167285D01*
X23675Y-167207D01*
X23779Y-167103D01*
X24039Y-166843D01*
X24142Y-166687D01*
X24246Y-166532D01*
Y-166506D01*
X24272Y-166454D01*
X24324Y-166350D01*
X24376Y-166220D01*
X24402Y-166064D01*
X24454Y-165882D01*
X24480Y-165466D01*
Y-165440D01*
Y-165336D01*
X24454Y-165181D01*
X24428Y-164999D01*
X24376Y-164817D01*
X24272Y-164583D01*
X24169Y-164375D01*
X24013Y-164167D01*
X23987Y-164141D01*
X23935Y-164063D01*
X23831Y-163960D01*
X23701Y-163830D01*
X23519Y-163700D01*
X23311Y-163518D01*
X23077Y-163362D01*
X22817Y-163206D01*
X22792Y-163180D01*
X22688Y-163128D01*
X22532Y-163050D01*
X22324Y-162946D01*
X22090Y-162842D01*
X21804Y-162712D01*
X21466Y-162609D01*
X21129Y-162479D01*
X21077Y-162453D01*
X20973Y-162427D01*
X20791Y-162349D01*
X20531Y-162271D01*
X20245Y-162167D01*
X19934Y-162037D01*
X19206Y-161777D01*
X19154Y-161751D01*
X19050Y-161699D01*
X18843Y-161621D01*
X18609Y-161517D01*
X18323Y-161387D01*
X17985Y-161258D01*
X17284Y-160920D01*
X17232Y-160894D01*
X17128Y-160842D01*
X16946Y-160738D01*
X16712Y-160582D01*
X16452Y-160400D01*
X16167Y-160218D01*
X15881Y-159985D01*
X15595Y-159725D01*
X15569Y-159699D01*
X15465Y-159595D01*
X15335Y-159439D01*
X15179Y-159257D01*
X14998Y-158997D01*
X14790Y-158712D01*
X14608Y-158400D01*
X14426Y-158036D01*
X14400Y-157984D01*
X14348Y-157854D01*
X14296Y-157646D01*
X14218Y-157360D01*
X14114Y-157023D01*
X14062Y-156633D01*
X14010Y-156166D01*
X13984Y-155672D01*
Y-155646D01*
Y-155620D01*
Y-155464D01*
X14010Y-155204D01*
X14036Y-154892D01*
X14088Y-154529D01*
X14166Y-154113D01*
X14270Y-153697D01*
X14426Y-153282D01*
Y-153256D01*
X14452Y-153230D01*
X14504Y-153100D01*
X14634Y-152866D01*
X14790Y-152606D01*
X14998Y-152294D01*
X15231Y-151957D01*
X15543Y-151619D01*
X15881Y-151307D01*
X15933Y-151281D01*
X16063Y-151177D01*
X16271Y-151021D01*
X16556Y-150814D01*
X16920Y-150606D01*
X17362Y-150372D01*
X17855Y-150164D01*
X18401Y-149956D01*
X18427D01*
X18479Y-149930D01*
X18557Y-149904D01*
X18687Y-149878D01*
X18843Y-149826D01*
X18998Y-149800D01*
X19206Y-149748D01*
X19466Y-149696D01*
X20012Y-149592D01*
X20635Y-149515D01*
X21363Y-149463D01*
X22142Y-149437D01*
X22532D01*
X22739Y-149463D01*
D02*
G37*
G36*
X49637Y-178046D02*
X49707Y-178054D01*
X49777Y-178062D01*
X49855Y-178077D01*
X49948Y-178101D01*
X50135Y-178163D01*
X50229Y-178202D01*
X50330Y-178249D01*
X50424Y-178303D01*
X50509Y-178374D01*
X50595Y-178451D01*
X50673Y-178537D01*
X50681Y-178545D01*
X50688Y-178560D01*
X50712Y-178592D01*
X50735Y-178631D01*
X50766Y-178685D01*
X50798Y-178747D01*
X50836Y-178825D01*
X50868Y-178911D01*
X50907Y-179005D01*
X50938Y-179114D01*
X50969Y-179238D01*
X51000Y-179371D01*
X51024Y-179519D01*
X51039Y-179674D01*
X51047Y-179838D01*
Y-180017D01*
X50182D01*
Y-180009D01*
Y-179986D01*
Y-179955D01*
Y-179908D01*
X50174Y-179861D01*
Y-179799D01*
X50159Y-179659D01*
X50135Y-179503D01*
X50104Y-179347D01*
X50058Y-179199D01*
X50026Y-179137D01*
X49987Y-179075D01*
X49980Y-179059D01*
X49948Y-179028D01*
X49902Y-178981D01*
X49839Y-178927D01*
X49754Y-178872D01*
X49652Y-178825D01*
X49528Y-178794D01*
X49388Y-178779D01*
X49325D01*
X49279Y-178786D01*
X49224Y-178794D01*
X49169Y-178802D01*
X49037Y-178841D01*
X49029D01*
X49006Y-178849D01*
X48975Y-178864D01*
X48928Y-178888D01*
X48873Y-178919D01*
X48811Y-178950D01*
X48679Y-179043D01*
X48671Y-179051D01*
X48647Y-179067D01*
X48609Y-179098D01*
X48562Y-179137D01*
X48507Y-179184D01*
X48437Y-179246D01*
X48367Y-179316D01*
X48289Y-179394D01*
X48281Y-179402D01*
X48258Y-179433D01*
X48211Y-179480D01*
X48157Y-179534D01*
X48094Y-179612D01*
X48017Y-179698D01*
X47939Y-179791D01*
X47853Y-179900D01*
Y-183071D01*
X46988D01*
Y-178132D01*
X47767D01*
X47791Y-179043D01*
X47798Y-179036D01*
X47814Y-179020D01*
X47837Y-178989D01*
X47868Y-178958D01*
X47954Y-178864D01*
X48063Y-178747D01*
X48188Y-178623D01*
X48336Y-178498D01*
X48492Y-178381D01*
X48647Y-178280D01*
X48655D01*
X48671Y-178272D01*
X48687Y-178257D01*
X48725Y-178241D01*
X48803Y-178202D01*
X48920Y-178155D01*
X49045Y-178116D01*
X49193Y-178077D01*
X49349Y-178046D01*
X49512Y-178039D01*
X49582D01*
X49637Y-178046D01*
D02*
G37*
G36*
X-11592D02*
X-11530Y-178054D01*
X-11452Y-178062D01*
X-11374Y-178077D01*
X-11289Y-178093D01*
X-11102Y-178148D01*
X-11000Y-178187D01*
X-10907Y-178226D01*
X-10813Y-178280D01*
X-10728Y-178342D01*
X-10642Y-178412D01*
X-10564Y-178490D01*
X-10556Y-178498D01*
X-10549Y-178514D01*
X-10525Y-178537D01*
X-10502Y-178576D01*
X-10471Y-178623D01*
X-10440Y-178677D01*
X-10401Y-178747D01*
X-10362Y-178825D01*
X-10331Y-178919D01*
X-10292Y-179020D01*
X-10261Y-179129D01*
X-10229Y-179254D01*
X-10206Y-179386D01*
X-10183Y-179526D01*
X-10175Y-179682D01*
X-10167Y-179846D01*
Y-183071D01*
X-11024D01*
Y-179916D01*
Y-179908D01*
Y-179893D01*
Y-179861D01*
Y-179822D01*
X-11032Y-179776D01*
Y-179721D01*
X-11047Y-179589D01*
X-11078Y-179456D01*
X-11117Y-179308D01*
X-11172Y-179176D01*
X-11242Y-179059D01*
X-11250Y-179043D01*
X-11281Y-179012D01*
X-11336Y-178973D01*
X-11406Y-178919D01*
X-11499Y-178864D01*
X-11608Y-178825D01*
X-11741Y-178794D01*
X-11889Y-178779D01*
X-11943D01*
X-11982Y-178786D01*
X-12083Y-178794D01*
X-12200Y-178825D01*
X-12208D01*
X-12224Y-178833D01*
X-12255Y-178849D01*
X-12294Y-178864D01*
X-12395Y-178911D01*
X-12512Y-178989D01*
X-12519Y-178997D01*
X-12543Y-179012D01*
X-12574Y-179036D01*
X-12613Y-179075D01*
X-12668Y-179121D01*
X-12730Y-179176D01*
X-12792Y-179238D01*
X-12862Y-179308D01*
X-12870Y-179316D01*
X-12893Y-179340D01*
X-12932Y-179386D01*
X-12987Y-179441D01*
X-13049Y-179511D01*
X-13119Y-179596D01*
X-13197Y-179690D01*
X-13283Y-179799D01*
Y-183071D01*
X-14140D01*
Y-178132D01*
X-13384D01*
X-13345Y-178934D01*
X-13338Y-178927D01*
X-13306Y-178888D01*
X-13267Y-178841D01*
X-13213Y-178786D01*
X-13143Y-178716D01*
X-13073Y-178646D01*
X-13002Y-178576D01*
X-12925Y-178506D01*
X-12917Y-178498D01*
X-12893Y-178475D01*
X-12847Y-178444D01*
X-12800Y-178405D01*
X-12738Y-178366D01*
X-12675Y-178319D01*
X-12535Y-178233D01*
X-12527Y-178226D01*
X-12504Y-178218D01*
X-12465Y-178194D01*
X-12410Y-178171D01*
X-12356Y-178148D01*
X-12286Y-178124D01*
X-12138Y-178085D01*
X-12130D01*
X-12099Y-178077D01*
X-12060Y-178070D01*
X-12005Y-178062D01*
X-11943Y-178054D01*
X-11873Y-178046D01*
X-11717Y-178039D01*
X-11647D01*
X-11592Y-178046D01*
D02*
G37*
G36*
X-111445D02*
X-111351D01*
X-111242Y-178054D01*
X-111118Y-178062D01*
X-110993Y-178077D01*
X-110977D01*
X-110931Y-178085D01*
X-110861Y-178093D01*
X-110767Y-178101D01*
X-110650Y-178116D01*
X-110526Y-178140D01*
X-110385Y-178155D01*
X-110245Y-178187D01*
Y-178950D01*
X-110253D01*
X-110261Y-178942D01*
X-110284D01*
X-110315Y-178934D01*
X-110393Y-178919D01*
X-110494Y-178895D01*
X-110611Y-178872D01*
X-110744Y-178849D01*
X-111016Y-178810D01*
X-111032D01*
X-111079Y-178802D01*
X-111149Y-178794D01*
X-111234Y-178779D01*
X-111328Y-178771D01*
X-111437Y-178763D01*
X-111546Y-178755D01*
X-111756D01*
X-111834Y-178763D01*
X-111920Y-178771D01*
X-112006Y-178779D01*
X-112099Y-178794D01*
X-112185Y-178810D01*
X-112193D01*
X-112224Y-178817D01*
X-112263Y-178825D01*
X-112309Y-178841D01*
X-112426Y-178888D01*
X-112543Y-178942D01*
X-112551D01*
X-112566Y-178958D01*
X-112613Y-178997D01*
X-112683Y-179067D01*
X-112738Y-179145D01*
Y-179153D01*
X-112746Y-179168D01*
X-112753Y-179192D01*
X-112761Y-179223D01*
X-112785Y-179300D01*
X-112792Y-179394D01*
Y-179402D01*
Y-179417D01*
Y-179441D01*
X-112785Y-179472D01*
X-112769Y-179550D01*
X-112746Y-179636D01*
Y-179643D01*
X-112738Y-179651D01*
X-112699Y-179698D01*
X-112637Y-179760D01*
X-112598Y-179799D01*
X-112551Y-179838D01*
X-112543Y-179846D01*
X-112528Y-179854D01*
X-112496Y-179877D01*
X-112450Y-179900D01*
X-112395Y-179931D01*
X-112325Y-179963D01*
X-112247Y-180002D01*
X-112161Y-180041D01*
X-112146Y-180048D01*
X-112115Y-180056D01*
X-112060Y-180079D01*
X-111982Y-180103D01*
X-111889Y-180142D01*
X-111772Y-180173D01*
X-111647Y-180212D01*
X-111499Y-180259D01*
X-111492D01*
X-111476Y-180266D01*
X-111460Y-180274D01*
X-111429Y-180282D01*
X-111344Y-180305D01*
X-111242Y-180344D01*
X-111125Y-180383D01*
X-111009Y-180430D01*
X-110884Y-180477D01*
X-110767Y-180531D01*
X-110751Y-180539D01*
X-110713Y-180555D01*
X-110658Y-180586D01*
X-110588Y-180625D01*
X-110510Y-180672D01*
X-110432Y-180718D01*
X-110354Y-180781D01*
X-110276Y-180843D01*
X-110268Y-180851D01*
X-110245Y-180874D01*
X-110214Y-180905D01*
X-110167Y-180952D01*
X-110120Y-181014D01*
X-110082Y-181077D01*
X-110035Y-181155D01*
X-110004Y-181232D01*
X-109996Y-181240D01*
X-109988Y-181271D01*
X-109973Y-181318D01*
X-109957Y-181373D01*
X-109941Y-181450D01*
X-109933Y-181528D01*
X-109918Y-181622D01*
Y-181723D01*
Y-181731D01*
Y-181770D01*
X-109926Y-181817D01*
Y-181879D01*
X-109941Y-181957D01*
X-109957Y-182035D01*
X-109980Y-182121D01*
X-110011Y-182198D01*
Y-182206D01*
X-110027Y-182229D01*
X-110050Y-182269D01*
X-110074Y-182323D01*
X-110152Y-182440D01*
X-110253Y-182564D01*
X-110261Y-182572D01*
X-110276Y-182588D01*
X-110307Y-182619D01*
X-110354Y-182658D01*
X-110401Y-182697D01*
X-110463Y-182744D01*
X-110603Y-182837D01*
X-110611Y-182845D01*
X-110635Y-182853D01*
X-110681Y-182876D01*
X-110736Y-182899D01*
X-110798Y-182931D01*
X-110876Y-182962D01*
X-111040Y-183016D01*
X-111047D01*
X-111079Y-183024D01*
X-111125Y-183040D01*
X-111180Y-183055D01*
X-111250Y-183071D01*
X-111336Y-183086D01*
X-111507Y-183118D01*
X-111515D01*
X-111546Y-183125D01*
X-111593Y-183133D01*
X-111655D01*
X-111725Y-183141D01*
X-111811Y-183149D01*
X-111982Y-183157D01*
X-112161D01*
X-112286Y-183149D01*
X-112426D01*
X-112582Y-183133D01*
X-112909Y-183110D01*
X-112925D01*
X-112948Y-183102D01*
X-112979D01*
X-113065Y-183094D01*
X-113166Y-183079D01*
X-113291Y-183055D01*
X-113431Y-183032D01*
X-113579Y-183001D01*
X-113727Y-182970D01*
Y-182183D01*
X-113719D01*
X-113704Y-182191D01*
X-113688D01*
X-113657Y-182206D01*
X-113571Y-182222D01*
X-113462Y-182253D01*
X-113330Y-182284D01*
X-113182Y-182315D01*
X-113026Y-182346D01*
X-112870Y-182370D01*
X-112847D01*
X-112831Y-182378D01*
X-112800D01*
X-112715Y-182385D01*
X-112606Y-182401D01*
X-112473Y-182409D01*
X-112325Y-182424D01*
X-112169Y-182432D01*
X-111912D01*
X-111858Y-182424D01*
X-111803D01*
X-111671Y-182409D01*
X-111523Y-182393D01*
X-111367Y-182362D01*
X-111227Y-182323D01*
X-111102Y-182269D01*
X-111086Y-182261D01*
X-111055Y-182237D01*
X-111009Y-182198D01*
X-110954Y-182144D01*
X-110899Y-182081D01*
X-110853Y-181996D01*
X-110822Y-181902D01*
X-110806Y-181793D01*
Y-181786D01*
Y-181770D01*
Y-181747D01*
X-110814Y-181715D01*
X-110829Y-181638D01*
X-110861Y-181560D01*
Y-181552D01*
X-110868Y-181544D01*
X-110899Y-181490D01*
X-110954Y-181427D01*
X-111032Y-181357D01*
X-111040Y-181349D01*
X-111055Y-181342D01*
X-111086Y-181318D01*
X-111125Y-181295D01*
X-111180Y-181264D01*
X-111242Y-181232D01*
X-111320Y-181193D01*
X-111414Y-181155D01*
X-111421Y-181147D01*
X-111460Y-181139D01*
X-111515Y-181116D01*
X-111601Y-181084D01*
X-111694Y-181045D01*
X-111819Y-181007D01*
X-111959Y-180960D01*
X-112115Y-180913D01*
X-112130Y-180905D01*
X-112169Y-180897D01*
X-112239Y-180874D01*
X-112317Y-180851D01*
X-112411Y-180820D01*
X-112520Y-180781D01*
X-112738Y-180695D01*
X-112753Y-180687D01*
X-112785Y-180672D01*
X-112839Y-180648D01*
X-112901Y-180609D01*
X-112979Y-180570D01*
X-113065Y-180516D01*
X-113229Y-180399D01*
X-113236Y-180391D01*
X-113260Y-180368D01*
X-113299Y-180329D01*
X-113346Y-180282D01*
X-113392Y-180220D01*
X-113447Y-180150D01*
X-113501Y-180079D01*
X-113548Y-179994D01*
X-113556Y-179986D01*
X-113564Y-179955D01*
X-113587Y-179900D01*
X-113603Y-179838D01*
X-113626Y-179760D01*
X-113649Y-179667D01*
X-113657Y-179558D01*
X-113665Y-179448D01*
Y-179441D01*
Y-179410D01*
X-113657Y-179371D01*
X-113649Y-179316D01*
X-113642Y-179246D01*
X-113626Y-179168D01*
X-113603Y-179082D01*
X-113571Y-178997D01*
X-113564Y-178989D01*
X-113556Y-178958D01*
X-113532Y-178903D01*
X-113494Y-178849D01*
X-113447Y-178779D01*
X-113392Y-178701D01*
X-113322Y-178615D01*
X-113244Y-178537D01*
X-113236Y-178529D01*
X-113198Y-178498D01*
X-113151Y-178459D01*
X-113081Y-178412D01*
X-112987Y-178358D01*
X-112886Y-178303D01*
X-112761Y-178241D01*
X-112621Y-178187D01*
X-112613D01*
X-112606Y-178179D01*
X-112582Y-178171D01*
X-112551Y-178163D01*
X-112512Y-178155D01*
X-112465Y-178140D01*
X-112348Y-178109D01*
X-112208Y-178085D01*
X-112037Y-178062D01*
X-111842Y-178046D01*
X-111632Y-178039D01*
X-111523D01*
X-111445Y-178046D01*
D02*
G37*
G36*
X39923Y-183071D02*
X39050D01*
Y-180119D01*
X36339D01*
Y-183071D01*
X35467D01*
Y-176636D01*
X36339D01*
Y-179363D01*
X39050D01*
Y-176636D01*
X39923D01*
Y-183071D01*
D02*
G37*
G36*
X21803Y-178070D02*
X21912Y-178077D01*
X22037Y-178085D01*
X22286Y-178124D01*
X22302D01*
X22341Y-178132D01*
X22411Y-178148D01*
X22497Y-178163D01*
X22590Y-178187D01*
X22699Y-178218D01*
X22933Y-178296D01*
Y-179114D01*
X22917Y-179106D01*
X22878Y-179090D01*
X22808Y-179059D01*
X22730Y-179020D01*
X22629Y-178981D01*
X22512Y-178942D01*
X22395Y-178903D01*
X22271Y-178872D01*
X22255D01*
X22216Y-178857D01*
X22146Y-178849D01*
X22060Y-178833D01*
X21959Y-178817D01*
X21850Y-178810D01*
X21725Y-178794D01*
X21538D01*
X21468Y-178802D01*
X21390Y-178810D01*
X21289Y-178825D01*
X21188Y-178849D01*
X21071Y-178880D01*
X20962Y-178927D01*
X20946Y-178934D01*
X20915Y-178950D01*
X20861Y-178981D01*
X20790Y-179020D01*
X20713Y-179067D01*
X20627Y-179129D01*
X20533Y-179199D01*
X20448Y-179285D01*
X20440Y-179293D01*
X20409Y-179324D01*
X20370Y-179378D01*
X20323Y-179441D01*
X20269Y-179526D01*
X20214Y-179628D01*
X20159Y-179737D01*
X20105Y-179861D01*
X20097Y-179877D01*
X20089Y-179924D01*
X20066Y-179986D01*
X20043Y-180079D01*
X20019Y-180196D01*
X20004Y-180321D01*
X19988Y-180469D01*
X19980Y-180625D01*
Y-180633D01*
Y-180664D01*
Y-180710D01*
X19988Y-180773D01*
X19996Y-180843D01*
X20004Y-180929D01*
X20019Y-181030D01*
X20035Y-181131D01*
X20082Y-181342D01*
X20159Y-181567D01*
X20214Y-181676D01*
X20269Y-181778D01*
X20331Y-181879D01*
X20409Y-181965D01*
X20417Y-181973D01*
X20432Y-181980D01*
X20456Y-182004D01*
X20487Y-182035D01*
X20533Y-182066D01*
X20588Y-182105D01*
X20650Y-182144D01*
X20720Y-182183D01*
X20806Y-182229D01*
X20892Y-182269D01*
X20993Y-182307D01*
X21102Y-182339D01*
X21219Y-182370D01*
X21344Y-182393D01*
X21476Y-182401D01*
X21616Y-182409D01*
X21679D01*
X21741Y-182401D01*
X21834D01*
X21936Y-182393D01*
X22052Y-182378D01*
X22294Y-182331D01*
X22309Y-182323D01*
X22348Y-182315D01*
X22411Y-182300D01*
X22497Y-182269D01*
X22598Y-182237D01*
X22699Y-182198D01*
X22933Y-182097D01*
Y-182892D01*
X22917Y-182899D01*
X22878Y-182915D01*
X22808Y-182938D01*
X22722Y-182962D01*
X22613Y-182993D01*
X22497Y-183024D01*
X22372Y-183055D01*
X22239Y-183079D01*
X22224D01*
X22177Y-183086D01*
X22107Y-183094D01*
X22021Y-183110D01*
X21912Y-183118D01*
X21788Y-183133D01*
X21655Y-183141D01*
X21460D01*
X21406Y-183133D01*
X21320D01*
X21227Y-183118D01*
X21110Y-183110D01*
X20985Y-183086D01*
X20853Y-183063D01*
X20713Y-183032D01*
X20565Y-182985D01*
X20417Y-182938D01*
X20261Y-182876D01*
X20113Y-182806D01*
X19973Y-182720D01*
X19840Y-182619D01*
X19715Y-182510D01*
X19708Y-182502D01*
X19692Y-182479D01*
X19661Y-182440D01*
X19614Y-182393D01*
X19568Y-182323D01*
X19513Y-182245D01*
X19458Y-182152D01*
X19404Y-182035D01*
X19342Y-181918D01*
X19287Y-181778D01*
X19232Y-181622D01*
X19186Y-181458D01*
X19147Y-181279D01*
X19116Y-181084D01*
X19092Y-180874D01*
X19084Y-180656D01*
Y-180648D01*
Y-180633D01*
Y-180601D01*
Y-180555D01*
X19092Y-180508D01*
Y-180446D01*
X19108Y-180305D01*
X19131Y-180142D01*
X19162Y-179963D01*
X19201Y-179776D01*
X19264Y-179596D01*
Y-179589D01*
X19271Y-179573D01*
X19279Y-179550D01*
X19295Y-179519D01*
X19342Y-179425D01*
X19396Y-179316D01*
X19466Y-179184D01*
X19552Y-179051D01*
X19653Y-178911D01*
X19770Y-178779D01*
X19778Y-178771D01*
X19786Y-178763D01*
X19832Y-178724D01*
X19902Y-178662D01*
X19996Y-178584D01*
X20113Y-178498D01*
X20245Y-178412D01*
X20393Y-178327D01*
X20557Y-178249D01*
X20565D01*
X20580Y-178241D01*
X20604Y-178233D01*
X20635Y-178218D01*
X20681Y-178202D01*
X20728Y-178187D01*
X20853Y-178155D01*
X21009Y-178124D01*
X21180Y-178093D01*
X21367Y-178070D01*
X21569Y-178062D01*
X21710D01*
X21803Y-178070D01*
D02*
G37*
G36*
X16405Y-178046D02*
X16475Y-178054D01*
X16545Y-178062D01*
X16623Y-178077D01*
X16716Y-178101D01*
X16903Y-178163D01*
X16997Y-178202D01*
X17098Y-178249D01*
X17191Y-178303D01*
X17277Y-178374D01*
X17363Y-178451D01*
X17441Y-178537D01*
X17449Y-178545D01*
X17456Y-178560D01*
X17480Y-178592D01*
X17503Y-178631D01*
X17534Y-178685D01*
X17565Y-178747D01*
X17604Y-178825D01*
X17636Y-178911D01*
X17674Y-179005D01*
X17706Y-179114D01*
X17737Y-179238D01*
X17768Y-179371D01*
X17791Y-179519D01*
X17807Y-179674D01*
X17815Y-179838D01*
Y-180017D01*
X16950D01*
Y-180009D01*
Y-179986D01*
Y-179955D01*
Y-179908D01*
X16942Y-179861D01*
Y-179799D01*
X16927Y-179659D01*
X16903Y-179503D01*
X16872Y-179347D01*
X16825Y-179199D01*
X16794Y-179137D01*
X16755Y-179075D01*
X16748Y-179059D01*
X16716Y-179028D01*
X16670Y-178981D01*
X16607Y-178927D01*
X16522Y-178872D01*
X16420Y-178825D01*
X16296Y-178794D01*
X16155Y-178779D01*
X16093D01*
X16046Y-178786D01*
X15992Y-178794D01*
X15937Y-178802D01*
X15805Y-178841D01*
X15797D01*
X15774Y-178849D01*
X15743Y-178864D01*
X15696Y-178888D01*
X15641Y-178919D01*
X15579Y-178950D01*
X15447Y-179043D01*
X15439Y-179051D01*
X15415Y-179067D01*
X15376Y-179098D01*
X15330Y-179137D01*
X15275Y-179184D01*
X15205Y-179246D01*
X15135Y-179316D01*
X15057Y-179394D01*
X15049Y-179402D01*
X15026Y-179433D01*
X14979Y-179480D01*
X14925Y-179534D01*
X14862Y-179612D01*
X14784Y-179698D01*
X14706Y-179791D01*
X14621Y-179900D01*
Y-183071D01*
X13756D01*
Y-178132D01*
X14535D01*
X14559Y-179043D01*
X14566Y-179036D01*
X14582Y-179020D01*
X14605Y-178989D01*
X14636Y-178958D01*
X14722Y-178864D01*
X14831Y-178747D01*
X14956Y-178623D01*
X15104Y-178498D01*
X15260Y-178381D01*
X15415Y-178280D01*
X15423D01*
X15439Y-178272D01*
X15454Y-178257D01*
X15493Y-178241D01*
X15571Y-178202D01*
X15688Y-178155D01*
X15813Y-178116D01*
X15961Y-178077D01*
X16116Y-178046D01*
X16280Y-178039D01*
X16350D01*
X16405Y-178046D01*
D02*
G37*
%LPC*%
G36*
X-51025Y-177252D02*
X-51072D01*
X-51127Y-177260D01*
X-51197D01*
X-51275Y-177275D01*
X-51360Y-177291D01*
X-51454Y-177314D01*
X-51540Y-177345D01*
X-51547Y-177353D01*
X-51579Y-177361D01*
X-51625Y-177384D01*
X-51680Y-177415D01*
X-51742Y-177454D01*
X-51812Y-177501D01*
X-51875Y-177556D01*
X-51945Y-177618D01*
X-51952Y-177626D01*
X-51968Y-177649D01*
X-51999Y-177688D01*
X-52038Y-177735D01*
X-52077Y-177797D01*
X-52124Y-177867D01*
X-52171Y-177953D01*
X-52210Y-178046D01*
Y-178054D01*
X-52225Y-178093D01*
X-52241Y-178148D01*
X-52256Y-178218D01*
X-52272Y-178303D01*
X-52288Y-178405D01*
X-52295Y-178514D01*
X-52303Y-178631D01*
Y-178646D01*
Y-178685D01*
X-52295Y-178740D01*
Y-178810D01*
X-52288Y-178895D01*
X-52272Y-178989D01*
X-52233Y-179168D01*
Y-179176D01*
X-52217Y-179207D01*
X-52202Y-179254D01*
X-52178Y-179308D01*
X-52147Y-179371D01*
X-52108Y-179441D01*
X-52015Y-179573D01*
X-52007Y-179581D01*
X-51991Y-179596D01*
X-51952Y-179628D01*
X-51914Y-179667D01*
X-51859Y-179706D01*
X-51789Y-179745D01*
X-51719Y-179783D01*
X-51633Y-179822D01*
X-51625D01*
X-51586Y-179838D01*
X-51540Y-179846D01*
X-51470Y-179861D01*
X-51392Y-179877D01*
X-51290Y-179893D01*
X-51181Y-179900D01*
X-51064Y-179908D01*
X-50994D01*
X-50948Y-179900D01*
X-50893D01*
X-50831Y-179893D01*
X-50691Y-179877D01*
X-50683D01*
X-50659Y-179869D01*
X-50620Y-179861D01*
X-50574Y-179854D01*
X-50511Y-179838D01*
X-50449Y-179822D01*
X-50317Y-179783D01*
X-50309D01*
X-50286Y-179776D01*
X-50247Y-179760D01*
X-50200Y-179745D01*
X-50091Y-179698D01*
X-49966Y-179643D01*
X-49958D01*
X-49935Y-179628D01*
X-49904Y-179612D01*
X-49865Y-179589D01*
X-49764Y-179534D01*
X-49654Y-179472D01*
Y-179464D01*
Y-179441D01*
Y-179410D01*
Y-179363D01*
Y-179316D01*
X-49662Y-179246D01*
X-49670Y-179106D01*
X-49678Y-178934D01*
X-49693Y-178763D01*
X-49725Y-178584D01*
X-49756Y-178420D01*
Y-178412D01*
X-49764Y-178405D01*
Y-178381D01*
X-49771Y-178350D01*
X-49795Y-178272D01*
X-49826Y-178171D01*
X-49865Y-178062D01*
X-49911Y-177953D01*
X-49966Y-177836D01*
X-50028Y-177735D01*
X-50036Y-177719D01*
X-50060Y-177688D01*
X-50099Y-177641D01*
X-50145Y-177587D01*
X-50208Y-177524D01*
X-50278Y-177462D01*
X-50363Y-177408D01*
X-50457Y-177361D01*
X-50465Y-177353D01*
X-50504Y-177345D01*
X-50550Y-177330D01*
X-50620Y-177306D01*
X-50706Y-177283D01*
X-50800Y-177267D01*
X-50909Y-177260D01*
X-51025Y-177252D01*
D02*
G37*
G36*
X44332Y-180820D02*
X43124D01*
X43047Y-180827D01*
X42961Y-180835D01*
X42867Y-180851D01*
X42774Y-180866D01*
X42680Y-180890D01*
X42673D01*
X42641Y-180897D01*
X42603Y-180913D01*
X42548Y-180936D01*
X42431Y-180991D01*
X42307Y-181069D01*
X42299Y-181077D01*
X42283Y-181092D01*
X42260Y-181116D01*
X42221Y-181147D01*
X42151Y-181232D01*
X42088Y-181349D01*
Y-181357D01*
X42081Y-181380D01*
X42065Y-181412D01*
X42057Y-181458D01*
X42042Y-181513D01*
X42026Y-181575D01*
X42018Y-181723D01*
Y-181731D01*
Y-181747D01*
Y-181778D01*
X42026Y-181809D01*
X42034Y-181895D01*
X42057Y-181996D01*
Y-182004D01*
X42065Y-182019D01*
X42081Y-182043D01*
X42096Y-182074D01*
X42135Y-182152D01*
X42197Y-182229D01*
X42205D01*
X42213Y-182245D01*
X42236Y-182261D01*
X42268Y-182284D01*
X42345Y-182331D01*
X42454Y-182385D01*
X42462D01*
X42486Y-182393D01*
X42517Y-182401D01*
X42564Y-182409D01*
X42618Y-182424D01*
X42688Y-182432D01*
X42766Y-182440D01*
X42898D01*
X42961Y-182432D01*
X43039Y-182416D01*
X43140Y-182393D01*
X43257Y-182362D01*
X43382Y-182323D01*
X43522Y-182261D01*
X43529D01*
X43537Y-182253D01*
X43561Y-182245D01*
X43592Y-182229D01*
X43662Y-182183D01*
X43763Y-182121D01*
X43888Y-182043D01*
X44028Y-181949D01*
X44176Y-181832D01*
X44332Y-181700D01*
Y-180820D01*
D02*
G37*
G36*
X66487D02*
X65279D01*
X65201Y-180827D01*
X65116Y-180835D01*
X65022Y-180851D01*
X64929Y-180866D01*
X64835Y-180890D01*
X64827D01*
X64796Y-180897D01*
X64757Y-180913D01*
X64703Y-180936D01*
X64586Y-180991D01*
X64461Y-181069D01*
X64453Y-181077D01*
X64438Y-181092D01*
X64415Y-181116D01*
X64376Y-181147D01*
X64305Y-181232D01*
X64243Y-181349D01*
Y-181357D01*
X64235Y-181380D01*
X64220Y-181412D01*
X64212Y-181458D01*
X64196Y-181513D01*
X64181Y-181575D01*
X64173Y-181723D01*
Y-181731D01*
Y-181747D01*
Y-181778D01*
X64181Y-181809D01*
X64189Y-181895D01*
X64212Y-181996D01*
Y-182004D01*
X64220Y-182019D01*
X64235Y-182043D01*
X64251Y-182074D01*
X64290Y-182152D01*
X64352Y-182229D01*
X64360D01*
X64368Y-182245D01*
X64391Y-182261D01*
X64422Y-182284D01*
X64500Y-182331D01*
X64609Y-182385D01*
X64617D01*
X64640Y-182393D01*
X64672Y-182401D01*
X64718Y-182409D01*
X64773Y-182424D01*
X64843Y-182432D01*
X64921Y-182440D01*
X65053D01*
X65116Y-182432D01*
X65193Y-182416D01*
X65295Y-182393D01*
X65412Y-182362D01*
X65536Y-182323D01*
X65676Y-182261D01*
X65684D01*
X65692Y-182253D01*
X65715Y-182245D01*
X65747Y-182229D01*
X65817Y-182183D01*
X65918Y-182121D01*
X66043Y-182043D01*
X66183Y-181949D01*
X66331Y-181832D01*
X66487Y-181700D01*
Y-180820D01*
D02*
G37*
G36*
X-94135D02*
X-95343D01*
X-95421Y-180827D01*
X-95506Y-180835D01*
X-95600Y-180851D01*
X-95693Y-180866D01*
X-95787Y-180890D01*
X-95795D01*
X-95826Y-180897D01*
X-95865Y-180913D01*
X-95919Y-180936D01*
X-96036Y-180991D01*
X-96161Y-181069D01*
X-96169Y-181077D01*
X-96184Y-181092D01*
X-96207Y-181116D01*
X-96246Y-181147D01*
X-96317Y-181232D01*
X-96379Y-181349D01*
Y-181357D01*
X-96387Y-181380D01*
X-96402Y-181412D01*
X-96410Y-181458D01*
X-96426Y-181513D01*
X-96441Y-181575D01*
X-96449Y-181723D01*
Y-181731D01*
Y-181747D01*
Y-181778D01*
X-96441Y-181809D01*
X-96433Y-181895D01*
X-96410Y-181996D01*
Y-182004D01*
X-96402Y-182019D01*
X-96387Y-182043D01*
X-96371Y-182074D01*
X-96332Y-182152D01*
X-96270Y-182229D01*
X-96262D01*
X-96254Y-182245D01*
X-96231Y-182261D01*
X-96200Y-182284D01*
X-96122Y-182331D01*
X-96013Y-182385D01*
X-96005D01*
X-95982Y-182393D01*
X-95951Y-182401D01*
X-95904Y-182409D01*
X-95849Y-182424D01*
X-95779Y-182432D01*
X-95701Y-182440D01*
X-95569D01*
X-95506Y-182432D01*
X-95429Y-182416D01*
X-95327Y-182393D01*
X-95210Y-182362D01*
X-95086Y-182323D01*
X-94946Y-182261D01*
X-94938D01*
X-94930Y-182253D01*
X-94907Y-182245D01*
X-94875Y-182229D01*
X-94805Y-182183D01*
X-94704Y-182121D01*
X-94579Y-182043D01*
X-94439Y-181949D01*
X-94291Y-181832D01*
X-94135Y-181700D01*
Y-180820D01*
D02*
G37*
G36*
X86702Y-179978D02*
X86694Y-179986D01*
X86671Y-180002D01*
X86639Y-180025D01*
X86600Y-180048D01*
X86499Y-180126D01*
X86390Y-180220D01*
X86382Y-180227D01*
X86367Y-180243D01*
X86343Y-180266D01*
X86304Y-180298D01*
X86226Y-180391D01*
X86149Y-180500D01*
X86141Y-180508D01*
X86133Y-180524D01*
X86117Y-180562D01*
X86094Y-180601D01*
X86063Y-180648D01*
X86040Y-180710D01*
X85993Y-180835D01*
Y-180843D01*
X85985Y-180866D01*
X85977Y-180905D01*
X85969Y-180952D01*
X85954Y-181014D01*
X85946Y-181084D01*
X85938Y-181240D01*
Y-181248D01*
Y-181287D01*
X85946Y-181334D01*
Y-181396D01*
X85954Y-181466D01*
X85969Y-181552D01*
X86016Y-181715D01*
X86024Y-181723D01*
X86032Y-181754D01*
X86055Y-181793D01*
X86079Y-181840D01*
X86156Y-181965D01*
X86258Y-182089D01*
X86265Y-182097D01*
X86289Y-182113D01*
X86320Y-182144D01*
X86367Y-182175D01*
X86421Y-182214D01*
X86484Y-182253D01*
X86554Y-182292D01*
X86632Y-182331D01*
X86639D01*
X86671Y-182346D01*
X86717Y-182354D01*
X86780Y-182370D01*
X86857Y-182385D01*
X86943Y-182393D01*
X87037Y-182409D01*
X87200D01*
X87247Y-182401D01*
X87301Y-182393D01*
X87372Y-182385D01*
X87442Y-182370D01*
X87520Y-182346D01*
X87699Y-182292D01*
X87792Y-182253D01*
X87886Y-182214D01*
X87987Y-182159D01*
X88081Y-182097D01*
X88174Y-182027D01*
X88267Y-181941D01*
X86702Y-179978D01*
D02*
G37*
G36*
X87294Y-176987D02*
X87224D01*
X87177Y-176995D01*
X87068Y-177018D01*
X86943Y-177057D01*
X86935D01*
X86920Y-177065D01*
X86889Y-177080D01*
X86857Y-177104D01*
X86780Y-177158D01*
X86694Y-177236D01*
X86686Y-177244D01*
X86678Y-177252D01*
X86663Y-177275D01*
X86639Y-177306D01*
X86585Y-177392D01*
X86538Y-177501D01*
Y-177509D01*
X86530Y-177524D01*
X86523Y-177556D01*
X86515Y-177594D01*
X86507Y-177649D01*
X86499Y-177704D01*
X86491Y-177828D01*
Y-177836D01*
Y-177875D01*
X86499Y-177922D01*
X86507Y-177992D01*
X86515Y-178062D01*
X86530Y-178148D01*
X86554Y-178233D01*
X86585Y-178319D01*
X86593Y-178327D01*
X86600Y-178358D01*
X86632Y-178405D01*
X86663Y-178467D01*
X86709Y-178545D01*
X86756Y-178631D01*
X86826Y-178724D01*
X86896Y-178825D01*
X87037Y-178997D01*
X87044Y-178989D01*
X87076Y-178973D01*
X87115Y-178950D01*
X87169Y-178927D01*
X87224Y-178888D01*
X87294Y-178849D01*
X87434Y-178763D01*
X87442Y-178755D01*
X87465Y-178740D01*
X87504Y-178716D01*
X87543Y-178685D01*
X87652Y-178599D01*
X87761Y-178498D01*
X87769Y-178490D01*
X87784Y-178475D01*
X87808Y-178444D01*
X87839Y-178405D01*
X87878Y-178358D01*
X87909Y-178303D01*
X87979Y-178179D01*
X87987Y-178171D01*
X87995Y-178148D01*
X88010Y-178109D01*
X88026Y-178062D01*
X88042Y-178000D01*
X88049Y-177929D01*
X88065Y-177859D01*
Y-177774D01*
Y-177766D01*
Y-177758D01*
Y-177711D01*
X88057Y-177649D01*
X88042Y-177563D01*
X88010Y-177470D01*
X87979Y-177376D01*
X87925Y-177283D01*
X87855Y-177197D01*
X87847Y-177189D01*
X87816Y-177166D01*
X87769Y-177127D01*
X87707Y-177088D01*
X87629Y-177057D01*
X87527Y-177018D01*
X87418Y-176995D01*
X87294Y-176987D01*
D02*
G37*
G36*
X127412Y-180820D02*
X126205D01*
X126127Y-180827D01*
X126041Y-180835D01*
X125948Y-180851D01*
X125854Y-180866D01*
X125761Y-180890D01*
X125753D01*
X125722Y-180897D01*
X125683Y-180913D01*
X125628Y-180936D01*
X125512Y-180991D01*
X125387Y-181069D01*
X125379Y-181077D01*
X125363Y-181092D01*
X125340Y-181116D01*
X125301Y-181147D01*
X125231Y-181232D01*
X125169Y-181349D01*
Y-181357D01*
X125161Y-181380D01*
X125145Y-181412D01*
X125137Y-181458D01*
X125122Y-181513D01*
X125106Y-181575D01*
X125099Y-181723D01*
Y-181731D01*
Y-181747D01*
Y-181778D01*
X125106Y-181809D01*
X125114Y-181895D01*
X125137Y-181996D01*
Y-182004D01*
X125145Y-182019D01*
X125161Y-182043D01*
X125177Y-182074D01*
X125215Y-182152D01*
X125278Y-182229D01*
X125285D01*
X125293Y-182245D01*
X125317Y-182261D01*
X125348Y-182284D01*
X125426Y-182331D01*
X125535Y-182385D01*
X125543D01*
X125566Y-182393D01*
X125597Y-182401D01*
X125644Y-182409D01*
X125698Y-182424D01*
X125768Y-182432D01*
X125846Y-182440D01*
X125979D01*
X126041Y-182432D01*
X126119Y-182416D01*
X126220Y-182393D01*
X126337Y-182362D01*
X126462Y-182323D01*
X126602Y-182261D01*
X126610D01*
X126618Y-182253D01*
X126641Y-182245D01*
X126672Y-182229D01*
X126742Y-182183D01*
X126844Y-182121D01*
X126968Y-182043D01*
X127108Y-181949D01*
X127256Y-181832D01*
X127412Y-181700D01*
Y-180820D01*
D02*
G37*
G36*
X26625Y-178724D02*
X26579D01*
X26524Y-178732D01*
X26454Y-178740D01*
X26376Y-178747D01*
X26290Y-178771D01*
X26197Y-178794D01*
X26111Y-178833D01*
X26103Y-178841D01*
X26072Y-178857D01*
X26025Y-178880D01*
X25971Y-178911D01*
X25908Y-178958D01*
X25838Y-179012D01*
X25776Y-179075D01*
X25706Y-179145D01*
X25698Y-179153D01*
X25683Y-179176D01*
X25651Y-179223D01*
X25613Y-179277D01*
X25574Y-179347D01*
X25527Y-179425D01*
X25480Y-179511D01*
X25441Y-179612D01*
X25433Y-179628D01*
X25425Y-179659D01*
X25410Y-179713D01*
X25387Y-179791D01*
X25363Y-179877D01*
X25348Y-179978D01*
X25332Y-180095D01*
X25317Y-180212D01*
X27918D01*
Y-180196D01*
Y-180157D01*
Y-180095D01*
X27911Y-180017D01*
X27903Y-179924D01*
X27895Y-179822D01*
X27872Y-179713D01*
X27848Y-179612D01*
Y-179596D01*
X27833Y-179565D01*
X27817Y-179519D01*
X27786Y-179448D01*
X27755Y-179378D01*
X27716Y-179300D01*
X27661Y-179223D01*
X27607Y-179145D01*
X27599Y-179137D01*
X27576Y-179114D01*
X27544Y-179075D01*
X27498Y-179036D01*
X27435Y-178981D01*
X27365Y-178934D01*
X27280Y-178888D01*
X27194Y-178841D01*
X27186Y-178833D01*
X27155Y-178825D01*
X27100Y-178802D01*
X27030Y-178779D01*
X26952Y-178763D01*
X26851Y-178740D01*
X26742Y-178732D01*
X26625Y-178724D01*
D02*
G37*
G36*
X76473D02*
X76427D01*
X76372Y-178732D01*
X76302Y-178740D01*
X76224Y-178747D01*
X76138Y-178771D01*
X76045Y-178794D01*
X75959Y-178833D01*
X75951Y-178841D01*
X75920Y-178857D01*
X75874Y-178880D01*
X75819Y-178911D01*
X75757Y-178958D01*
X75687Y-179012D01*
X75624Y-179075D01*
X75554Y-179145D01*
X75546Y-179153D01*
X75531Y-179176D01*
X75500Y-179223D01*
X75461Y-179277D01*
X75422Y-179347D01*
X75375Y-179425D01*
X75328Y-179511D01*
X75289Y-179612D01*
X75282Y-179628D01*
X75274Y-179659D01*
X75258Y-179713D01*
X75235Y-179791D01*
X75211Y-179877D01*
X75196Y-179978D01*
X75180Y-180095D01*
X75165Y-180212D01*
X77767D01*
Y-180196D01*
Y-180157D01*
Y-180095D01*
X77759Y-180017D01*
X77751Y-179924D01*
X77743Y-179822D01*
X77720Y-179713D01*
X77696Y-179612D01*
Y-179596D01*
X77681Y-179565D01*
X77665Y-179519D01*
X77634Y-179448D01*
X77603Y-179378D01*
X77564Y-179300D01*
X77509Y-179223D01*
X77455Y-179145D01*
X77447Y-179137D01*
X77424Y-179114D01*
X77393Y-179075D01*
X77346Y-179036D01*
X77284Y-178981D01*
X77214Y-178934D01*
X77128Y-178888D01*
X77042Y-178841D01*
X77034Y-178833D01*
X77003Y-178825D01*
X76949Y-178802D01*
X76878Y-178779D01*
X76801Y-178763D01*
X76699Y-178740D01*
X76590Y-178732D01*
X76473Y-178724D01*
D02*
G37*
G36*
X104151Y-178771D02*
X104089D01*
X104019Y-178779D01*
X103925Y-178786D01*
X103824Y-178810D01*
X103715Y-178833D01*
X103598Y-178872D01*
X103489Y-178927D01*
X103474Y-178934D01*
X103442Y-178950D01*
X103396Y-178989D01*
X103333Y-179028D01*
X103255Y-179090D01*
X103185Y-179153D01*
X103107Y-179238D01*
X103037Y-179324D01*
X103030Y-179332D01*
X103006Y-179371D01*
X102983Y-179417D01*
X102944Y-179488D01*
X102905Y-179573D01*
X102858Y-179674D01*
X102819Y-179783D01*
X102788Y-179908D01*
Y-179924D01*
X102772Y-179963D01*
X102765Y-180033D01*
X102749Y-180119D01*
X102734Y-180220D01*
X102726Y-180337D01*
X102710Y-180469D01*
Y-180601D01*
Y-180609D01*
Y-180625D01*
Y-180648D01*
Y-180679D01*
X102718Y-180765D01*
X102726Y-180874D01*
X102734Y-180999D01*
X102749Y-181131D01*
X102772Y-181271D01*
X102804Y-181404D01*
X102811Y-181419D01*
X102819Y-181458D01*
X102843Y-181521D01*
X102882Y-181606D01*
X102920Y-181692D01*
X102967Y-181793D01*
X103030Y-181887D01*
X103092Y-181980D01*
X103100Y-181988D01*
X103123Y-182019D01*
X103170Y-182058D01*
X103224Y-182105D01*
X103287Y-182159D01*
X103365Y-182222D01*
X103458Y-182276D01*
X103551Y-182323D01*
X103567Y-182331D01*
X103598Y-182339D01*
X103653Y-182354D01*
X103723Y-182378D01*
X103816Y-182401D01*
X103918Y-182416D01*
X104027Y-182424D01*
X104151Y-182432D01*
X104214D01*
X104284Y-182424D01*
X104377Y-182416D01*
X104479Y-182393D01*
X104587Y-182370D01*
X104697Y-182331D01*
X104806Y-182284D01*
X104821Y-182276D01*
X104852Y-182253D01*
X104907Y-182222D01*
X104969Y-182175D01*
X105039Y-182121D01*
X105117Y-182050D01*
X105187Y-181973D01*
X105257Y-181887D01*
X105265Y-181879D01*
X105289Y-181840D01*
X105320Y-181793D01*
X105359Y-181723D01*
X105398Y-181638D01*
X105444Y-181536D01*
X105483Y-181427D01*
X105515Y-181302D01*
Y-181295D01*
X105522Y-181287D01*
X105530Y-181248D01*
X105546Y-181178D01*
X105561Y-181092D01*
X105577Y-180983D01*
X105585Y-180866D01*
X105600Y-180734D01*
Y-180601D01*
Y-180594D01*
Y-180578D01*
Y-180555D01*
Y-180524D01*
X105592Y-180438D01*
X105585Y-180329D01*
X105577Y-180212D01*
X105561Y-180072D01*
X105530Y-179939D01*
X105499Y-179807D01*
Y-179799D01*
X105491Y-179791D01*
X105483Y-179752D01*
X105460Y-179690D01*
X105421Y-179604D01*
X105382Y-179519D01*
X105335Y-179425D01*
X105273Y-179324D01*
X105203Y-179238D01*
X105195Y-179230D01*
X105172Y-179199D01*
X105133Y-179160D01*
X105078Y-179106D01*
X105008Y-179051D01*
X104930Y-178989D01*
X104845Y-178934D01*
X104743Y-178888D01*
X104728Y-178880D01*
X104697Y-178872D01*
X104642Y-178849D01*
X104572Y-178825D01*
X104486Y-178810D01*
X104385Y-178786D01*
X104268Y-178779D01*
X104151Y-178771D01*
D02*
G37*
G36*
X4455D02*
X4392D01*
X4322Y-178779D01*
X4229Y-178786D01*
X4128Y-178810D01*
X4019Y-178833D01*
X3902Y-178872D01*
X3793Y-178927D01*
X3777Y-178934D01*
X3746Y-178950D01*
X3699Y-178989D01*
X3637Y-179028D01*
X3559Y-179090D01*
X3489Y-179153D01*
X3411Y-179238D01*
X3341Y-179324D01*
X3333Y-179332D01*
X3310Y-179371D01*
X3286Y-179417D01*
X3247Y-179488D01*
X3209Y-179573D01*
X3162Y-179674D01*
X3123Y-179783D01*
X3092Y-179908D01*
Y-179924D01*
X3076Y-179963D01*
X3068Y-180033D01*
X3053Y-180119D01*
X3037Y-180220D01*
X3029Y-180337D01*
X3014Y-180469D01*
Y-180601D01*
Y-180609D01*
Y-180625D01*
Y-180648D01*
Y-180679D01*
X3022Y-180765D01*
X3029Y-180874D01*
X3037Y-180999D01*
X3053Y-181131D01*
X3076Y-181271D01*
X3107Y-181404D01*
X3115Y-181419D01*
X3123Y-181458D01*
X3146Y-181521D01*
X3185Y-181606D01*
X3224Y-181692D01*
X3271Y-181793D01*
X3333Y-181887D01*
X3395Y-181980D01*
X3403Y-181988D01*
X3427Y-182019D01*
X3473Y-182058D01*
X3528Y-182105D01*
X3590Y-182159D01*
X3668Y-182222D01*
X3762Y-182276D01*
X3855Y-182323D01*
X3871Y-182331D01*
X3902Y-182339D01*
X3956Y-182354D01*
X4026Y-182378D01*
X4120Y-182401D01*
X4221Y-182416D01*
X4330Y-182424D01*
X4455Y-182432D01*
X4517D01*
X4587Y-182424D01*
X4681Y-182416D01*
X4782Y-182393D01*
X4891Y-182370D01*
X5000Y-182331D01*
X5109Y-182284D01*
X5125Y-182276D01*
X5156Y-182253D01*
X5210Y-182222D01*
X5273Y-182175D01*
X5343Y-182121D01*
X5421Y-182050D01*
X5491Y-181973D01*
X5561Y-181887D01*
X5569Y-181879D01*
X5592Y-181840D01*
X5623Y-181793D01*
X5662Y-181723D01*
X5701Y-181638D01*
X5748Y-181536D01*
X5787Y-181427D01*
X5818Y-181302D01*
Y-181295D01*
X5826Y-181287D01*
X5834Y-181248D01*
X5849Y-181178D01*
X5865Y-181092D01*
X5880Y-180983D01*
X5888Y-180866D01*
X5904Y-180734D01*
Y-180601D01*
Y-180594D01*
Y-180578D01*
Y-180555D01*
Y-180524D01*
X5896Y-180438D01*
X5888Y-180329D01*
X5880Y-180212D01*
X5865Y-180072D01*
X5834Y-179939D01*
X5802Y-179807D01*
Y-179799D01*
X5795Y-179791D01*
X5787Y-179752D01*
X5764Y-179690D01*
X5725Y-179604D01*
X5686Y-179519D01*
X5639Y-179425D01*
X5577Y-179324D01*
X5506Y-179238D01*
X5499Y-179230D01*
X5475Y-179199D01*
X5436Y-179160D01*
X5382Y-179106D01*
X5312Y-179051D01*
X5234Y-178989D01*
X5148Y-178934D01*
X5047Y-178888D01*
X5031Y-178880D01*
X5000Y-178872D01*
X4946Y-178849D01*
X4876Y-178825D01*
X4790Y-178810D01*
X4689Y-178786D01*
X4572Y-178779D01*
X4455Y-178771D01*
D02*
G37*
G36*
X-61908Y-177283D02*
X-62056D01*
X-62119Y-177291D01*
X-62204Y-177306D01*
X-62298Y-177322D01*
X-62399Y-177353D01*
X-62508Y-177392D01*
X-62617Y-177446D01*
X-62633Y-177454D01*
X-62664Y-177478D01*
X-62710Y-177517D01*
X-62781Y-177571D01*
X-62851Y-177641D01*
X-62929Y-177719D01*
X-63007Y-177820D01*
X-63084Y-177937D01*
X-63092Y-177953D01*
X-63116Y-177992D01*
X-63147Y-178062D01*
X-63194Y-178155D01*
X-63240Y-178272D01*
X-63287Y-178405D01*
X-63334Y-178560D01*
X-63373Y-178732D01*
Y-178740D01*
X-63380Y-178755D01*
Y-178779D01*
X-63388Y-178817D01*
X-63396Y-178864D01*
X-63404Y-178911D01*
X-63412Y-178973D01*
X-63419Y-179043D01*
X-63443Y-179207D01*
X-63458Y-179394D01*
X-63466Y-179604D01*
X-63474Y-179830D01*
Y-179838D01*
Y-179854D01*
Y-179885D01*
Y-179924D01*
Y-180025D01*
Y-180142D01*
Y-180150D01*
Y-180165D01*
Y-180196D01*
Y-180235D01*
X-63466Y-180329D01*
X-63458Y-180430D01*
X-60732Y-178412D01*
Y-178405D01*
X-60747Y-178374D01*
X-60763Y-178319D01*
X-60786Y-178264D01*
X-60810Y-178194D01*
X-60849Y-178116D01*
X-60927Y-177961D01*
X-60934Y-177953D01*
X-60942Y-177922D01*
X-60966Y-177883D01*
X-60997Y-177836D01*
X-61082Y-177719D01*
X-61191Y-177602D01*
X-61199Y-177594D01*
X-61215Y-177579D01*
X-61254Y-177548D01*
X-61293Y-177517D01*
X-61347Y-177478D01*
X-61410Y-177439D01*
X-61550Y-177369D01*
X-61558Y-177361D01*
X-61589Y-177353D01*
X-61628Y-177337D01*
X-61682Y-177322D01*
X-61752Y-177306D01*
X-61822Y-177298D01*
X-61908Y-177283D01*
D02*
G37*
G36*
X-60576Y-179230D02*
X-63295Y-181256D01*
Y-181264D01*
X-63279Y-181302D01*
X-63264Y-181349D01*
X-63248Y-181412D01*
X-63217Y-181482D01*
X-63186Y-181567D01*
X-63116Y-181731D01*
X-63108Y-181739D01*
X-63092Y-181770D01*
X-63069Y-181809D01*
X-63038Y-181856D01*
X-62944Y-181980D01*
X-62835Y-182105D01*
X-62827Y-182113D01*
X-62804Y-182128D01*
X-62773Y-182159D01*
X-62726Y-182191D01*
X-62672Y-182229D01*
X-62609Y-182269D01*
X-62469Y-182339D01*
X-62461D01*
X-62430Y-182354D01*
X-62391Y-182362D01*
X-62337Y-182378D01*
X-62266Y-182393D01*
X-62189Y-182409D01*
X-62095Y-182416D01*
X-62002Y-182424D01*
X-61947D01*
X-61885Y-182416D01*
X-61807Y-182401D01*
X-61713Y-182385D01*
X-61612Y-182362D01*
X-61503Y-182323D01*
X-61402Y-182269D01*
X-61386Y-182261D01*
X-61355Y-182237D01*
X-61300Y-182198D01*
X-61238Y-182144D01*
X-61160Y-182081D01*
X-61082Y-181996D01*
X-61005Y-181895D01*
X-60934Y-181786D01*
X-60927Y-181770D01*
X-60903Y-181731D01*
X-60864Y-181661D01*
X-60825Y-181567D01*
X-60779Y-181450D01*
X-60724Y-181318D01*
X-60677Y-181162D01*
X-60638Y-180991D01*
Y-180983D01*
X-60631Y-180968D01*
Y-180944D01*
X-60623Y-180905D01*
X-60615Y-180859D01*
X-60607Y-180804D01*
X-60592Y-180742D01*
X-60584Y-180672D01*
X-60561Y-180516D01*
X-60545Y-180329D01*
X-60537Y-180119D01*
X-60529Y-179893D01*
Y-179885D01*
Y-179861D01*
Y-179830D01*
Y-179783D01*
X-60537Y-179682D01*
X-60545Y-179558D01*
Y-179550D01*
Y-179526D01*
X-60553Y-179495D01*
Y-179456D01*
X-60561Y-179347D01*
X-60576Y-179230D01*
D02*
G37*
G36*
X-28777Y-177322D02*
X-28847D01*
X-28925Y-177330D01*
X-29027Y-177345D01*
X-29136Y-177369D01*
X-29260Y-177408D01*
X-29385Y-177454D01*
X-29502Y-177524D01*
X-29517Y-177532D01*
X-29548Y-177563D01*
X-29611Y-177610D01*
X-29681Y-177665D01*
X-29759Y-177743D01*
X-29844Y-177836D01*
X-29930Y-177945D01*
X-30008Y-178070D01*
X-30016Y-178085D01*
X-30039Y-178132D01*
X-30078Y-178202D01*
X-30117Y-178296D01*
X-30164Y-178412D01*
X-30211Y-178545D01*
X-30257Y-178701D01*
X-30296Y-178864D01*
Y-178872D01*
Y-178888D01*
X-30304Y-178911D01*
X-30312Y-178942D01*
X-30320Y-178989D01*
X-30327Y-179036D01*
X-30343Y-179160D01*
X-30359Y-179300D01*
X-30374Y-179472D01*
X-30382Y-179651D01*
X-30390Y-179838D01*
Y-179846D01*
Y-179861D01*
Y-179893D01*
Y-179931D01*
Y-179986D01*
X-30382Y-180048D01*
Y-180181D01*
X-30366Y-180344D01*
X-30351Y-180524D01*
X-30335Y-180703D01*
X-30304Y-180882D01*
Y-180890D01*
X-30296Y-180905D01*
Y-180929D01*
X-30288Y-180960D01*
X-30265Y-181045D01*
X-30234Y-181155D01*
X-30195Y-181287D01*
X-30141Y-181419D01*
X-30086Y-181560D01*
X-30016Y-181692D01*
X-30008Y-181708D01*
X-29977Y-181747D01*
X-29938Y-181809D01*
X-29884Y-181879D01*
X-29806Y-181965D01*
X-29720Y-182050D01*
X-29626Y-182136D01*
X-29517Y-182214D01*
X-29502Y-182222D01*
X-29463Y-182245D01*
X-29393Y-182269D01*
X-29307Y-182300D01*
X-29198Y-182339D01*
X-29073Y-182362D01*
X-28933Y-182385D01*
X-28777Y-182393D01*
X-28707D01*
X-28629Y-182385D01*
X-28528Y-182370D01*
X-28411Y-182346D01*
X-28286Y-182307D01*
X-28162Y-182261D01*
X-28045Y-182198D01*
X-28029Y-182191D01*
X-27990Y-182159D01*
X-27936Y-182113D01*
X-27866Y-182058D01*
X-27788Y-181980D01*
X-27702Y-181887D01*
X-27617Y-181778D01*
X-27539Y-181661D01*
Y-181653D01*
X-27531Y-181645D01*
X-27507Y-181599D01*
X-27469Y-181528D01*
X-27422Y-181435D01*
X-27375Y-181310D01*
X-27328Y-181178D01*
X-27282Y-181022D01*
X-27243Y-180859D01*
Y-180851D01*
X-27235Y-180835D01*
Y-180812D01*
X-27227Y-180781D01*
X-27219Y-180734D01*
X-27211Y-180687D01*
X-27188Y-180562D01*
X-27172Y-180422D01*
X-27157Y-180251D01*
X-27149Y-180072D01*
X-27141Y-179885D01*
Y-179877D01*
Y-179861D01*
Y-179830D01*
Y-179791D01*
Y-179737D01*
X-27149Y-179682D01*
Y-179542D01*
X-27165Y-179378D01*
X-27180Y-179207D01*
X-27204Y-179028D01*
X-27235Y-178849D01*
Y-178841D01*
Y-178825D01*
X-27243Y-178802D01*
X-27250Y-178771D01*
X-27274Y-178677D01*
X-27305Y-178568D01*
X-27344Y-178444D01*
X-27391Y-178303D01*
X-27453Y-178171D01*
X-27523Y-178039D01*
Y-178031D01*
X-27531Y-178023D01*
X-27554Y-177984D01*
X-27601Y-177922D01*
X-27656Y-177844D01*
X-27733Y-177758D01*
X-27819Y-177672D01*
X-27920Y-177587D01*
X-28029Y-177509D01*
X-28045Y-177501D01*
X-28084Y-177478D01*
X-28146Y-177446D01*
X-28240Y-177415D01*
X-28349Y-177384D01*
X-28473Y-177353D01*
X-28614Y-177330D01*
X-28777Y-177322D01*
D02*
G37*
G36*
X-17684Y-178724D02*
X-17731D01*
X-17786Y-178732D01*
X-17856Y-178740D01*
X-17934Y-178747D01*
X-18019Y-178771D01*
X-18113Y-178794D01*
X-18199Y-178833D01*
X-18206Y-178841D01*
X-18237Y-178857D01*
X-18284Y-178880D01*
X-18339Y-178911D01*
X-18401Y-178958D01*
X-18471Y-179012D01*
X-18533Y-179075D01*
X-18604Y-179145D01*
X-18611Y-179153D01*
X-18627Y-179176D01*
X-18658Y-179223D01*
X-18697Y-179277D01*
X-18736Y-179347D01*
X-18783Y-179425D01*
X-18829Y-179511D01*
X-18868Y-179612D01*
X-18876Y-179628D01*
X-18884Y-179659D01*
X-18900Y-179713D01*
X-18923Y-179791D01*
X-18946Y-179877D01*
X-18962Y-179978D01*
X-18978Y-180095D01*
X-18993Y-180212D01*
X-16391D01*
Y-180196D01*
Y-180157D01*
Y-180095D01*
X-16399Y-180017D01*
X-16407Y-179924D01*
X-16414Y-179822D01*
X-16438Y-179713D01*
X-16461Y-179612D01*
Y-179596D01*
X-16477Y-179565D01*
X-16492Y-179519D01*
X-16524Y-179448D01*
X-16555Y-179378D01*
X-16594Y-179300D01*
X-16648Y-179223D01*
X-16703Y-179145D01*
X-16711Y-179137D01*
X-16734Y-179114D01*
X-16765Y-179075D01*
X-16812Y-179036D01*
X-16874Y-178981D01*
X-16944Y-178934D01*
X-17030Y-178888D01*
X-17116Y-178841D01*
X-17123Y-178833D01*
X-17155Y-178825D01*
X-17209Y-178802D01*
X-17279Y-178779D01*
X-17357Y-178763D01*
X-17458Y-178740D01*
X-17568Y-178732D01*
X-17684Y-178724D01*
D02*
G37*
G36*
X137399D02*
X137352D01*
X137298Y-178732D01*
X137228Y-178740D01*
X137150Y-178747D01*
X137064Y-178771D01*
X136971Y-178794D01*
X136885Y-178833D01*
X136877Y-178841D01*
X136846Y-178857D01*
X136799Y-178880D01*
X136745Y-178911D01*
X136682Y-178958D01*
X136612Y-179012D01*
X136550Y-179075D01*
X136480Y-179145D01*
X136472Y-179153D01*
X136456Y-179176D01*
X136425Y-179223D01*
X136386Y-179277D01*
X136347Y-179347D01*
X136301Y-179425D01*
X136254Y-179511D01*
X136215Y-179612D01*
X136207Y-179628D01*
X136199Y-179659D01*
X136184Y-179713D01*
X136160Y-179791D01*
X136137Y-179877D01*
X136121Y-179978D01*
X136106Y-180095D01*
X136090Y-180212D01*
X138692D01*
Y-180196D01*
Y-180157D01*
Y-180095D01*
X138684Y-180017D01*
X138677Y-179924D01*
X138669Y-179822D01*
X138645Y-179713D01*
X138622Y-179612D01*
Y-179596D01*
X138606Y-179565D01*
X138591Y-179519D01*
X138560Y-179448D01*
X138529Y-179378D01*
X138490Y-179300D01*
X138435Y-179223D01*
X138381Y-179145D01*
X138373Y-179137D01*
X138349Y-179114D01*
X138318Y-179075D01*
X138271Y-179036D01*
X138209Y-178981D01*
X138139Y-178934D01*
X138053Y-178888D01*
X137968Y-178841D01*
X137960Y-178833D01*
X137929Y-178825D01*
X137874Y-178802D01*
X137804Y-178779D01*
X137726Y-178763D01*
X137625Y-178740D01*
X137516Y-178732D01*
X137399Y-178724D01*
D02*
G37*
G36*
X-116290Y-180820D02*
X-117498D01*
X-117576Y-180827D01*
X-117661Y-180835D01*
X-117755Y-180851D01*
X-117848Y-180866D01*
X-117942Y-180890D01*
X-117949D01*
X-117981Y-180897D01*
X-118019Y-180913D01*
X-118074Y-180936D01*
X-118191Y-180991D01*
X-118315Y-181069D01*
X-118323Y-181077D01*
X-118339Y-181092D01*
X-118362Y-181116D01*
X-118401Y-181147D01*
X-118471Y-181232D01*
X-118534Y-181349D01*
Y-181357D01*
X-118542Y-181380D01*
X-118557Y-181412D01*
X-118565Y-181458D01*
X-118580Y-181513D01*
X-118596Y-181575D01*
X-118604Y-181723D01*
Y-181731D01*
Y-181747D01*
Y-181778D01*
X-118596Y-181809D01*
X-118588Y-181895D01*
X-118565Y-181996D01*
Y-182004D01*
X-118557Y-182019D01*
X-118542Y-182043D01*
X-118526Y-182074D01*
X-118487Y-182152D01*
X-118425Y-182229D01*
X-118417D01*
X-118409Y-182245D01*
X-118386Y-182261D01*
X-118354Y-182284D01*
X-118277Y-182331D01*
X-118167Y-182385D01*
X-118160D01*
X-118136Y-182393D01*
X-118105Y-182401D01*
X-118059Y-182409D01*
X-118004Y-182424D01*
X-117934Y-182432D01*
X-117856Y-182440D01*
X-117724D01*
X-117661Y-182432D01*
X-117583Y-182416D01*
X-117482Y-182393D01*
X-117365Y-182362D01*
X-117241Y-182323D01*
X-117100Y-182261D01*
X-117093D01*
X-117085Y-182253D01*
X-117061Y-182245D01*
X-117030Y-182229D01*
X-116960Y-182183D01*
X-116859Y-182121D01*
X-116734Y-182043D01*
X-116594Y-181949D01*
X-116446Y-181832D01*
X-116290Y-181700D01*
Y-180820D01*
D02*
G37*
G36*
X1618Y-153178D02*
X-149D01*
Y-159231D01*
X1826D01*
X2059Y-159205D01*
X2319Y-159179D01*
X2605Y-159153D01*
X3177Y-159049D01*
X3203D01*
X3306Y-158997D01*
X3462Y-158971D01*
X3644Y-158893D01*
X4060Y-158712D01*
X4502Y-158452D01*
X4528Y-158426D01*
X4580Y-158374D01*
X4683Y-158296D01*
X4813Y-158192D01*
X4943Y-158036D01*
X5073Y-157880D01*
X5333Y-157490D01*
X5359Y-157465D01*
X5385Y-157387D01*
X5437Y-157257D01*
X5489Y-157101D01*
X5541Y-156893D01*
X5593Y-156659D01*
X5645Y-156425D01*
Y-156140D01*
Y-156114D01*
Y-156061D01*
Y-155984D01*
X5619Y-155880D01*
X5593Y-155620D01*
X5515Y-155282D01*
X5411Y-154892D01*
X5229Y-154529D01*
X4969Y-154165D01*
X4631Y-153879D01*
X4580Y-153853D01*
X4450Y-153775D01*
X4216Y-153645D01*
X3878Y-153516D01*
X3462Y-153412D01*
X2943Y-153282D01*
X2319Y-153204D01*
X1618Y-153178D01*
D02*
G37*
G36*
X-22880Y-178786D02*
X-22943D01*
X-22982Y-178794D01*
X-23036Y-178802D01*
X-23091Y-178810D01*
X-23215Y-178841D01*
X-23223D01*
X-23246Y-178849D01*
X-23278Y-178864D01*
X-23316Y-178880D01*
X-23371Y-178911D01*
X-23426Y-178942D01*
X-23558Y-179020D01*
X-23566Y-179028D01*
X-23589Y-179043D01*
X-23628Y-179067D01*
X-23675Y-179106D01*
X-23729Y-179153D01*
X-23792Y-179207D01*
X-23862Y-179269D01*
X-23940Y-179340D01*
X-23947Y-179347D01*
X-23971Y-179371D01*
X-24010Y-179417D01*
X-24064Y-179472D01*
X-24127Y-179542D01*
X-24197Y-179628D01*
X-24275Y-179721D01*
X-24360Y-179830D01*
Y-182229D01*
X-24353Y-182237D01*
X-24321Y-182245D01*
X-24275Y-182261D01*
X-24212Y-182284D01*
X-24134Y-182315D01*
X-24057Y-182339D01*
X-23870Y-182385D01*
X-23854D01*
X-23823Y-182393D01*
X-23776Y-182401D01*
X-23706Y-182409D01*
X-23628Y-182424D01*
X-23542Y-182432D01*
X-23355Y-182440D01*
X-23285D01*
X-23239Y-182432D01*
X-23184Y-182424D01*
X-23114Y-182416D01*
X-22958Y-182378D01*
X-22787Y-182323D01*
X-22693Y-182284D01*
X-22600Y-182245D01*
X-22514Y-182191D01*
X-22428Y-182128D01*
X-22343Y-182058D01*
X-22265Y-181973D01*
X-22257Y-181965D01*
X-22249Y-181949D01*
X-22226Y-181926D01*
X-22203Y-181887D01*
X-22171Y-181832D01*
X-22140Y-181778D01*
X-22101Y-181700D01*
X-22062Y-181622D01*
X-22031Y-181528D01*
X-21992Y-181419D01*
X-21961Y-181302D01*
X-21930Y-181178D01*
X-21906Y-181038D01*
X-21883Y-180890D01*
X-21875Y-180726D01*
X-21868Y-180555D01*
Y-180547D01*
Y-180539D01*
Y-180492D01*
Y-180414D01*
X-21875Y-180321D01*
X-21883Y-180212D01*
X-21891Y-180087D01*
X-21930Y-179846D01*
Y-179830D01*
X-21938Y-179791D01*
X-21953Y-179729D01*
X-21969Y-179651D01*
X-22000Y-179565D01*
X-22031Y-179472D01*
X-22062Y-179378D01*
X-22109Y-179285D01*
X-22117Y-179277D01*
X-22132Y-179246D01*
X-22156Y-179207D01*
X-22195Y-179153D01*
X-22242Y-179090D01*
X-22296Y-179028D01*
X-22358Y-178973D01*
X-22428Y-178919D01*
X-22436Y-178911D01*
X-22460Y-178895D01*
X-22499Y-178880D01*
X-22553Y-178849D01*
X-22623Y-178825D01*
X-22701Y-178810D01*
X-22787Y-178794D01*
X-22880Y-178786D01*
D02*
G37*
G36*
X-17296Y-153178D02*
X-19348D01*
Y-167882D01*
X-17296D01*
X-17088Y-167857D01*
X-16854Y-167831D01*
X-16568Y-167779D01*
X-16256Y-167727D01*
X-15893Y-167649D01*
X-15165Y-167441D01*
X-14802Y-167311D01*
X-14412Y-167129D01*
X-14048Y-166921D01*
X-13710Y-166687D01*
X-13373Y-166428D01*
X-13061Y-166116D01*
X-13035Y-166090D01*
X-12983Y-166038D01*
X-12905Y-165934D01*
X-12827Y-165778D01*
X-12697Y-165596D01*
X-12567Y-165362D01*
X-12437Y-165077D01*
X-12281Y-164765D01*
X-12126Y-164375D01*
X-11996Y-163985D01*
X-11866Y-163518D01*
X-11736Y-163024D01*
X-11658Y-162453D01*
X-11580Y-161855D01*
X-11528Y-161232D01*
X-11502Y-160530D01*
Y-160504D01*
Y-160452D01*
Y-160348D01*
Y-160244D01*
Y-160088D01*
X-11528Y-159907D01*
Y-159491D01*
X-11580Y-158997D01*
X-11632Y-158478D01*
X-11684Y-157958D01*
X-11788Y-157439D01*
Y-157413D01*
Y-157387D01*
X-11814Y-157309D01*
X-11840Y-157205D01*
X-11918Y-156945D01*
X-12022Y-156633D01*
X-12152Y-156269D01*
X-12308Y-155880D01*
X-12515Y-155490D01*
X-12749Y-155126D01*
X-12775Y-155074D01*
X-12879Y-154970D01*
X-13009Y-154788D01*
X-13217Y-154581D01*
X-13477Y-154347D01*
X-13762Y-154113D01*
X-14126Y-153879D01*
X-14516Y-153671D01*
X-14568Y-153645D01*
X-14724Y-153593D01*
X-14957Y-153516D01*
X-15269Y-153412D01*
X-15685Y-153334D01*
X-16152Y-153256D01*
X-16698Y-153204D01*
X-17296Y-153178D01*
D02*
G37*
G36*
X-52810Y-152996D02*
X-55590D01*
Y-158686D01*
X-53018D01*
X-52836Y-158660D01*
X-52602D01*
X-52343Y-158634D01*
X-52057Y-158582D01*
X-51771Y-158530D01*
X-51511Y-158452D01*
X-51485D01*
X-51381Y-158400D01*
X-51278Y-158348D01*
X-51096Y-158270D01*
X-50732Y-158088D01*
X-50550Y-157958D01*
X-50394Y-157802D01*
X-50368Y-157776D01*
X-50316Y-157724D01*
X-50238Y-157646D01*
X-50160Y-157516D01*
X-49953Y-157231D01*
X-49771Y-156841D01*
Y-156815D01*
X-49745Y-156737D01*
X-49693Y-156633D01*
X-49667Y-156477D01*
X-49615Y-156321D01*
X-49589Y-156114D01*
X-49563Y-155672D01*
Y-155646D01*
Y-155568D01*
Y-155464D01*
X-49589Y-155308D01*
X-49641Y-154970D01*
X-49771Y-154581D01*
Y-154555D01*
X-49797Y-154503D01*
X-49849Y-154399D01*
X-49926Y-154295D01*
X-50134Y-154009D01*
X-50420Y-153749D01*
X-50446Y-153723D01*
X-50498Y-153697D01*
X-50576Y-153619D01*
X-50706Y-153542D01*
X-50862Y-153463D01*
X-51044Y-153360D01*
X-51278Y-153282D01*
X-51511Y-153204D01*
X-51537D01*
X-51641Y-153178D01*
X-51771Y-153126D01*
X-51979Y-153100D01*
X-52213Y-153048D01*
X-52499Y-153022D01*
X-52810Y-152996D01*
D02*
G37*
G36*
X-52706Y-161777D02*
X-55590D01*
Y-167960D01*
X-52628D01*
X-52421Y-167934D01*
X-52187D01*
X-51927Y-167908D01*
X-51641Y-167857D01*
X-51070Y-167727D01*
X-51044D01*
X-50940Y-167675D01*
X-50810Y-167623D01*
X-50654Y-167545D01*
X-50238Y-167337D01*
X-49849Y-167051D01*
X-49823Y-167025D01*
X-49771Y-166973D01*
X-49667Y-166869D01*
X-49563Y-166765D01*
X-49459Y-166609D01*
X-49329Y-166428D01*
X-49095Y-166038D01*
Y-166012D01*
X-49043Y-165934D01*
X-49017Y-165804D01*
X-48965Y-165648D01*
X-48913Y-165466D01*
X-48887Y-165259D01*
X-48835Y-164765D01*
Y-164739D01*
Y-164713D01*
Y-164635D01*
X-48861Y-164531D01*
X-48887Y-164271D01*
X-48965Y-163960D01*
X-49095Y-163622D01*
X-49277Y-163258D01*
X-49537Y-162894D01*
X-49900Y-162583D01*
X-49953Y-162557D01*
X-50108Y-162453D01*
X-50342Y-162323D01*
X-50680Y-162167D01*
X-51148Y-162037D01*
X-51693Y-161907D01*
X-52343Y-161803D01*
X-52706Y-161777D01*
D02*
G37*
G36*
X-89858Y-153152D02*
X-92378D01*
Y-161024D01*
X-89962D01*
X-89780Y-160998D01*
X-89520D01*
X-89234Y-160946D01*
X-88923Y-160894D01*
X-88611Y-160842D01*
X-88299Y-160738D01*
X-88273Y-160712D01*
X-88169Y-160686D01*
X-88013Y-160608D01*
X-87831Y-160530D01*
X-87390Y-160270D01*
X-86948Y-159933D01*
X-86922Y-159907D01*
X-86870Y-159829D01*
X-86766Y-159725D01*
X-86636Y-159569D01*
X-86506Y-159387D01*
X-86376Y-159153D01*
X-86247Y-158893D01*
X-86117Y-158634D01*
X-86091Y-158608D01*
X-86065Y-158504D01*
X-86013Y-158348D01*
X-85961Y-158114D01*
X-85909Y-157880D01*
X-85857Y-157568D01*
X-85805Y-157257D01*
Y-156919D01*
Y-156867D01*
Y-156763D01*
X-85831Y-156607D01*
Y-156399D01*
X-85883Y-156166D01*
X-85935Y-155906D01*
X-85987Y-155646D01*
X-86091Y-155386D01*
Y-155360D01*
X-86143Y-155256D01*
X-86195Y-155126D01*
X-86299Y-154970D01*
X-86402Y-154788D01*
X-86558Y-154581D01*
X-86714Y-154373D01*
X-86922Y-154191D01*
X-86948Y-154165D01*
X-87026Y-154113D01*
X-87130Y-154009D01*
X-87286Y-153905D01*
X-87494Y-153801D01*
X-87727Y-153671D01*
X-88013Y-153542D01*
X-88299Y-153438D01*
X-88325Y-153412D01*
X-88455Y-153386D01*
X-88611Y-153334D01*
X-88845Y-153282D01*
X-89156Y-153230D01*
X-89494Y-153204D01*
X-89858Y-153152D01*
D02*
G37*
G36*
X54428Y-178779D02*
X54358D01*
X54311Y-178786D01*
X54256Y-178794D01*
X54186Y-178802D01*
X54030Y-178833D01*
X53851Y-178888D01*
X53766Y-178927D01*
X53672Y-178973D01*
X53586Y-179028D01*
X53493Y-179082D01*
X53415Y-179160D01*
X53337Y-179238D01*
X53329Y-179246D01*
X53321Y-179262D01*
X53298Y-179285D01*
X53275Y-179324D01*
X53244Y-179371D01*
X53212Y-179433D01*
X53181Y-179503D01*
X53142Y-179581D01*
X53103Y-179674D01*
X53072Y-179783D01*
X53041Y-179893D01*
X53010Y-180025D01*
X52987Y-180165D01*
X52963Y-180313D01*
X52955Y-180477D01*
X52948Y-180648D01*
Y-180656D01*
Y-180687D01*
Y-180734D01*
X52955Y-180796D01*
Y-180866D01*
X52963Y-180952D01*
X52971Y-181053D01*
X52979Y-181155D01*
X53010Y-181365D01*
X53057Y-181591D01*
X53119Y-181801D01*
X53158Y-181902D01*
X53205Y-181988D01*
Y-181996D01*
X53220Y-182004D01*
X53251Y-182058D01*
X53314Y-182128D01*
X53399Y-182206D01*
X53501Y-182284D01*
X53633Y-182354D01*
X53781Y-182409D01*
X53867Y-182416D01*
X53952Y-182424D01*
X53968D01*
X54007Y-182416D01*
X54077Y-182409D01*
X54163Y-182385D01*
X54264Y-182354D01*
X54381Y-182300D01*
X54506Y-182229D01*
X54638Y-182136D01*
X54646D01*
X54654Y-182121D01*
X54700Y-182081D01*
X54778Y-182011D01*
X54872Y-181918D01*
X54989Y-181801D01*
X55121Y-181653D01*
X55261Y-181482D01*
X55409Y-181279D01*
Y-178981D01*
X55401Y-178973D01*
X55370Y-178965D01*
X55324Y-178950D01*
X55269Y-178927D01*
X55199Y-178903D01*
X55113Y-178880D01*
X55028Y-178857D01*
X54934Y-178833D01*
X54926D01*
X54887Y-178825D01*
X54841Y-178817D01*
X54778Y-178802D01*
X54700Y-178794D01*
X54615Y-178786D01*
X54428Y-178779D01*
D02*
G37*
%LPD*%
M02*
