G04 #@! TF.GenerationSoftware,KiCad,Pcbnew,5.0.2-bee76a0~70~ubuntu18.04.1*
G04 #@! TF.CreationDate,2019-04-27T16:39:52+02:00*
G04 #@! TF.ProjectId,pcbtc,70636274-632e-46b6-9963-61645f706362,rev?*
G04 #@! TF.SameCoordinates,Original*
G04 #@! TF.FileFunction,Soldermask,Top*
G04 #@! TF.FilePolarity,Negative*
%FSLAX46Y46*%
G04 Gerber Fmt 4.6, Leading zero omitted, Abs format (unit mm)*
G04 Created by KiCad (PCBNEW 5.0.2-bee76a0~70~ubuntu18.04.1) date Sa 27 Apr 2019 16:39:52 CEST*
%MOMM*%
%LPD*%
G01*
G04 APERTURE LIST*
%ADD10C,0.150000*%
%ADD11C,0.100000*%
G04 APERTURE END LIST*
D10*
G36*
X121654800Y-113050000D02*
X121654800Y-114550000D01*
X120154800Y-114550000D01*
X120154800Y-115550000D01*
X122654800Y-115550000D01*
X122654800Y-113050000D01*
X121654800Y-113050000D01*
G37*
X121654800Y-113050000D02*
X121654800Y-114550000D01*
X120154800Y-114550000D01*
X120154800Y-115550000D01*
X122654800Y-115550000D01*
X122654800Y-113050000D01*
X121654800Y-113050000D01*
G36*
X103654800Y-114550000D02*
X102154800Y-114550000D01*
X102154800Y-113050000D01*
X101154800Y-113050000D01*
X101154800Y-115550000D01*
X103654800Y-115550000D01*
X103654800Y-114550000D01*
G37*
X103654800Y-114550000D02*
X102154800Y-114550000D01*
X102154800Y-113050000D01*
X101154800Y-113050000D01*
X101154800Y-115550000D01*
X103654800Y-115550000D01*
X103654800Y-114550000D01*
G36*
X102154800Y-96550000D02*
X102154800Y-95050000D01*
X103654800Y-95050000D01*
X103654800Y-94050000D01*
X101154800Y-94050000D01*
X101154800Y-96550000D01*
X102154800Y-96550000D01*
G37*
X102154800Y-96550000D02*
X102154800Y-95050000D01*
X103654800Y-95050000D01*
X103654800Y-94050000D01*
X101154800Y-94050000D01*
X101154800Y-96550000D01*
X102154800Y-96550000D01*
G36*
X120154800Y-95050000D02*
X121654800Y-95050000D01*
X121654800Y-96550000D01*
X122654800Y-96550000D01*
X122654800Y-94050000D01*
X120154800Y-94050000D01*
X120154800Y-95050000D01*
G37*
X120154800Y-95050000D02*
X121654800Y-95050000D01*
X121654800Y-96550000D01*
X122654800Y-96550000D01*
X122654800Y-94050000D01*
X120154800Y-94050000D01*
X120154800Y-95050000D01*
G36*
X113654800Y-95066000D02*
X118154800Y-95050001D01*
X118154800Y-94050000D01*
X113654800Y-94050000D01*
X113654800Y-95066000D01*
G37*
X113654800Y-95066000D02*
X118154800Y-95050001D01*
X118154800Y-94050000D01*
X113654800Y-94050000D01*
X113654800Y-95066000D01*
G36*
X105654800Y-95066000D02*
X110154800Y-95050001D01*
X110154800Y-94050000D01*
X105654800Y-94050000D01*
X105654800Y-95066000D01*
G37*
X105654800Y-95066000D02*
X110154800Y-95050001D01*
X110154800Y-94050000D01*
X105654800Y-94050000D01*
X105654800Y-95066000D01*
G36*
X113654800Y-115566000D02*
X118154800Y-115550001D01*
X118154800Y-114550000D01*
X113654800Y-114550000D01*
X113654800Y-115566000D01*
G37*
X113654800Y-115566000D02*
X118154800Y-115550001D01*
X118154800Y-114550000D01*
X113654800Y-114550000D01*
X113654800Y-115566000D01*
G36*
X105654800Y-115566000D02*
X110154800Y-115550001D01*
X110154800Y-114550000D01*
X105654800Y-114550000D01*
X105654800Y-115566000D01*
G37*
X105654800Y-115566000D02*
X110154800Y-115550001D01*
X110154800Y-114550000D01*
X105654800Y-114550000D01*
X105654800Y-115566000D01*
G36*
X121638800Y-106550000D02*
X121654800Y-111050000D01*
X122654800Y-111050000D01*
X122654800Y-106550000D01*
X121638800Y-106550000D01*
G37*
X121638800Y-106550000D02*
X121654800Y-111050000D01*
X122654800Y-111050000D01*
X122654800Y-106550000D01*
X121638800Y-106550000D01*
G36*
X101138800Y-106550000D02*
X101154800Y-111050000D01*
X102154800Y-111050000D01*
X102154800Y-106550000D01*
X101138800Y-106550000D01*
G37*
X101138800Y-106550000D02*
X101154800Y-111050000D01*
X102154800Y-111050000D01*
X102154800Y-106550000D01*
X101138800Y-106550000D01*
G36*
X121638800Y-98050000D02*
X121654800Y-102550000D01*
X122654800Y-102550000D01*
X122654800Y-98050000D01*
X121638800Y-98050000D01*
G37*
X121638800Y-98050000D02*
X121654800Y-102550000D01*
X122654800Y-102550000D01*
X122654800Y-98050000D01*
X121638800Y-98050000D01*
G36*
X101138800Y-98050000D02*
X101154800Y-102550000D01*
X102154800Y-102550000D01*
X102154800Y-98050000D01*
X101138800Y-98050000D01*
G37*
X101138800Y-98050000D02*
X101154800Y-102550000D01*
X102154800Y-102550000D01*
X102154800Y-98050000D01*
X101138800Y-98050000D01*
D11*
G36*
X112381591Y-126732085D02*
X112415569Y-126742393D01*
X112446887Y-126759133D01*
X112474339Y-126781661D01*
X112496867Y-126809113D01*
X112513607Y-126840431D01*
X112523915Y-126874409D01*
X112528000Y-126915890D01*
X112528000Y-127592110D01*
X112523915Y-127633591D01*
X112513607Y-127667569D01*
X112496867Y-127698887D01*
X112474339Y-127726339D01*
X112446887Y-127748867D01*
X112415569Y-127765607D01*
X112381591Y-127775915D01*
X112340110Y-127780000D01*
X111738890Y-127780000D01*
X111697409Y-127775915D01*
X111663431Y-127765607D01*
X111632113Y-127748867D01*
X111604661Y-127726339D01*
X111582133Y-127698887D01*
X111565393Y-127667569D01*
X111555085Y-127633591D01*
X111551000Y-127592110D01*
X111551000Y-126915890D01*
X111555085Y-126874409D01*
X111565393Y-126840431D01*
X111582133Y-126809113D01*
X111604661Y-126781661D01*
X111632113Y-126759133D01*
X111663431Y-126742393D01*
X111697409Y-126732085D01*
X111738890Y-126728000D01*
X112340110Y-126728000D01*
X112381591Y-126732085D01*
X112381591Y-126732085D01*
G37*
G36*
X115378591Y-126732085D02*
X115412569Y-126742393D01*
X115443887Y-126759133D01*
X115471339Y-126781661D01*
X115493867Y-126809113D01*
X115510607Y-126840431D01*
X115520915Y-126874409D01*
X115525000Y-126915890D01*
X115525000Y-127592110D01*
X115520915Y-127633591D01*
X115510607Y-127667569D01*
X115493867Y-127698887D01*
X115471339Y-127726339D01*
X115443887Y-127748867D01*
X115412569Y-127765607D01*
X115378591Y-127775915D01*
X115337110Y-127780000D01*
X114735890Y-127780000D01*
X114694409Y-127775915D01*
X114660431Y-127765607D01*
X114629113Y-127748867D01*
X114601661Y-127726339D01*
X114579133Y-127698887D01*
X114562393Y-127667569D01*
X114552085Y-127633591D01*
X114548000Y-127592110D01*
X114548000Y-126915890D01*
X114552085Y-126874409D01*
X114562393Y-126840431D01*
X114579133Y-126809113D01*
X114601661Y-126781661D01*
X114629113Y-126759133D01*
X114660431Y-126742393D01*
X114694409Y-126732085D01*
X114735890Y-126728000D01*
X115337110Y-126728000D01*
X115378591Y-126732085D01*
X115378591Y-126732085D01*
G37*
G36*
X116953591Y-126732085D02*
X116987569Y-126742393D01*
X117018887Y-126759133D01*
X117046339Y-126781661D01*
X117068867Y-126809113D01*
X117085607Y-126840431D01*
X117095915Y-126874409D01*
X117100000Y-126915890D01*
X117100000Y-127592110D01*
X117095915Y-127633591D01*
X117085607Y-127667569D01*
X117068867Y-127698887D01*
X117046339Y-127726339D01*
X117018887Y-127748867D01*
X116987569Y-127765607D01*
X116953591Y-127775915D01*
X116912110Y-127780000D01*
X116310890Y-127780000D01*
X116269409Y-127775915D01*
X116235431Y-127765607D01*
X116204113Y-127748867D01*
X116176661Y-127726339D01*
X116154133Y-127698887D01*
X116137393Y-127667569D01*
X116127085Y-127633591D01*
X116123000Y-127592110D01*
X116123000Y-126915890D01*
X116127085Y-126874409D01*
X116137393Y-126840431D01*
X116154133Y-126809113D01*
X116176661Y-126781661D01*
X116204113Y-126759133D01*
X116235431Y-126742393D01*
X116269409Y-126732085D01*
X116310890Y-126728000D01*
X116912110Y-126728000D01*
X116953591Y-126732085D01*
X116953591Y-126732085D01*
G37*
G36*
X110806591Y-126732085D02*
X110840569Y-126742393D01*
X110871887Y-126759133D01*
X110899339Y-126781661D01*
X110921867Y-126809113D01*
X110938607Y-126840431D01*
X110948915Y-126874409D01*
X110953000Y-126915890D01*
X110953000Y-127592110D01*
X110948915Y-127633591D01*
X110938607Y-127667569D01*
X110921867Y-127698887D01*
X110899339Y-127726339D01*
X110871887Y-127748867D01*
X110840569Y-127765607D01*
X110806591Y-127775915D01*
X110765110Y-127780000D01*
X110163890Y-127780000D01*
X110122409Y-127775915D01*
X110088431Y-127765607D01*
X110057113Y-127748867D01*
X110029661Y-127726339D01*
X110007133Y-127698887D01*
X109990393Y-127667569D01*
X109980085Y-127633591D01*
X109976000Y-127592110D01*
X109976000Y-126915890D01*
X109980085Y-126874409D01*
X109990393Y-126840431D01*
X110007133Y-126809113D01*
X110029661Y-126781661D01*
X110057113Y-126759133D01*
X110088431Y-126742393D01*
X110122409Y-126732085D01*
X110163890Y-126728000D01*
X110765110Y-126728000D01*
X110806591Y-126732085D01*
X110806591Y-126732085D01*
G37*
G36*
X110634239Y-116811467D02*
X110948282Y-116873934D01*
X111539926Y-117119001D01*
X111829523Y-117312504D01*
X112072395Y-117474786D01*
X112525214Y-117927605D01*
X112525216Y-117927608D01*
X112880999Y-118460074D01*
X113002724Y-118753944D01*
X113126066Y-119051719D01*
X113251000Y-119679803D01*
X113251000Y-120320197D01*
X113188533Y-120634239D01*
X113126066Y-120948282D01*
X112880999Y-121539926D01*
X112633265Y-121910685D01*
X112525214Y-122072395D01*
X112072395Y-122525214D01*
X112072392Y-122525216D01*
X111539926Y-122880999D01*
X110948282Y-123126066D01*
X110634239Y-123188533D01*
X110320197Y-123251000D01*
X109679803Y-123251000D01*
X109365761Y-123188533D01*
X109051718Y-123126066D01*
X108460074Y-122880999D01*
X107927608Y-122525216D01*
X107927605Y-122525214D01*
X107474786Y-122072395D01*
X107366735Y-121910685D01*
X107119001Y-121539926D01*
X106873934Y-120948282D01*
X106811467Y-120634239D01*
X106749000Y-120320197D01*
X106749000Y-119679803D01*
X106873934Y-119051719D01*
X106997276Y-118753944D01*
X107119001Y-118460074D01*
X107474784Y-117927608D01*
X107474786Y-117927605D01*
X107927605Y-117474786D01*
X108170477Y-117312504D01*
X108460074Y-117119001D01*
X109051718Y-116873934D01*
X109365761Y-116811467D01*
X109679803Y-116749000D01*
X110320197Y-116749000D01*
X110634239Y-116811467D01*
X110634239Y-116811467D01*
G37*
G36*
X190634239Y-116811467D02*
X190948282Y-116873934D01*
X191539926Y-117119001D01*
X191829523Y-117312504D01*
X192072395Y-117474786D01*
X192525214Y-117927605D01*
X192525216Y-117927608D01*
X192880999Y-118460074D01*
X193002724Y-118753944D01*
X193126066Y-119051719D01*
X193251000Y-119679803D01*
X193251000Y-120320197D01*
X193188533Y-120634239D01*
X193126066Y-120948282D01*
X192880999Y-121539926D01*
X192633265Y-121910685D01*
X192525214Y-122072395D01*
X192072395Y-122525214D01*
X192072392Y-122525216D01*
X191539926Y-122880999D01*
X190948282Y-123126066D01*
X190634239Y-123188533D01*
X190320197Y-123251000D01*
X189679803Y-123251000D01*
X189365761Y-123188533D01*
X189051718Y-123126066D01*
X188460074Y-122880999D01*
X187927608Y-122525216D01*
X187927605Y-122525214D01*
X187474786Y-122072395D01*
X187366735Y-121910685D01*
X187119001Y-121539926D01*
X186873934Y-120948282D01*
X186811467Y-120634239D01*
X186749000Y-120320197D01*
X186749000Y-119679803D01*
X186873934Y-119051719D01*
X186997276Y-118753944D01*
X187119001Y-118460074D01*
X187474784Y-117927608D01*
X187474786Y-117927605D01*
X187927605Y-117474786D01*
X188170477Y-117312504D01*
X188460074Y-117119001D01*
X189051718Y-116873934D01*
X189365761Y-116811467D01*
X189679803Y-116749000D01*
X190320197Y-116749000D01*
X190634239Y-116811467D01*
X190634239Y-116811467D01*
G37*
G36*
X110901891Y-111989085D02*
X110935869Y-111999393D01*
X110967187Y-112016133D01*
X110994639Y-112038661D01*
X111017167Y-112066113D01*
X111033907Y-112097431D01*
X111044215Y-112131409D01*
X111048300Y-112172890D01*
X111048300Y-112774110D01*
X111044215Y-112815591D01*
X111033907Y-112849569D01*
X111017167Y-112880887D01*
X110994639Y-112908339D01*
X110967187Y-112930867D01*
X110935869Y-112947607D01*
X110901891Y-112957915D01*
X110860410Y-112962000D01*
X110184190Y-112962000D01*
X110142709Y-112957915D01*
X110108731Y-112947607D01*
X110077413Y-112930867D01*
X110049961Y-112908339D01*
X110027433Y-112880887D01*
X110010693Y-112849569D01*
X110000385Y-112815591D01*
X109996300Y-112774110D01*
X109996300Y-112172890D01*
X110000385Y-112131409D01*
X110010693Y-112097431D01*
X110027433Y-112066113D01*
X110049961Y-112038661D01*
X110077413Y-112016133D01*
X110108731Y-111999393D01*
X110142709Y-111989085D01*
X110184190Y-111985000D01*
X110860410Y-111985000D01*
X110901891Y-111989085D01*
X110901891Y-111989085D01*
G37*
G36*
X112298891Y-111989085D02*
X112332869Y-111999393D01*
X112364187Y-112016133D01*
X112391639Y-112038661D01*
X112414167Y-112066113D01*
X112430907Y-112097431D01*
X112441215Y-112131409D01*
X112445300Y-112172890D01*
X112445300Y-112774110D01*
X112441215Y-112815591D01*
X112430907Y-112849569D01*
X112414167Y-112880887D01*
X112391639Y-112908339D01*
X112364187Y-112930867D01*
X112332869Y-112947607D01*
X112298891Y-112957915D01*
X112257410Y-112962000D01*
X111581190Y-112962000D01*
X111539709Y-112957915D01*
X111505731Y-112947607D01*
X111474413Y-112930867D01*
X111446961Y-112908339D01*
X111424433Y-112880887D01*
X111407693Y-112849569D01*
X111397385Y-112815591D01*
X111393300Y-112774110D01*
X111393300Y-112172890D01*
X111397385Y-112131409D01*
X111407693Y-112097431D01*
X111424433Y-112066113D01*
X111446961Y-112038661D01*
X111474413Y-112016133D01*
X111505731Y-111999393D01*
X111539709Y-111989085D01*
X111581190Y-111985000D01*
X112257410Y-111985000D01*
X112298891Y-111989085D01*
X112298891Y-111989085D01*
G37*
G36*
X113695891Y-111989085D02*
X113729869Y-111999393D01*
X113761187Y-112016133D01*
X113788639Y-112038661D01*
X113811167Y-112066113D01*
X113827907Y-112097431D01*
X113838215Y-112131409D01*
X113842300Y-112172890D01*
X113842300Y-112774110D01*
X113838215Y-112815591D01*
X113827907Y-112849569D01*
X113811167Y-112880887D01*
X113788639Y-112908339D01*
X113761187Y-112930867D01*
X113729869Y-112947607D01*
X113695891Y-112957915D01*
X113654410Y-112962000D01*
X112978190Y-112962000D01*
X112936709Y-112957915D01*
X112902731Y-112947607D01*
X112871413Y-112930867D01*
X112843961Y-112908339D01*
X112821433Y-112880887D01*
X112804693Y-112849569D01*
X112794385Y-112815591D01*
X112790300Y-112774110D01*
X112790300Y-112172890D01*
X112794385Y-112131409D01*
X112804693Y-112097431D01*
X112821433Y-112066113D01*
X112843961Y-112038661D01*
X112871413Y-112016133D01*
X112902731Y-111999393D01*
X112936709Y-111989085D01*
X112978190Y-111985000D01*
X113654410Y-111985000D01*
X113695891Y-111989085D01*
X113695891Y-111989085D01*
G37*
G36*
X115092891Y-111989085D02*
X115126869Y-111999393D01*
X115158187Y-112016133D01*
X115185639Y-112038661D01*
X115208167Y-112066113D01*
X115224907Y-112097431D01*
X115235215Y-112131409D01*
X115239300Y-112172890D01*
X115239300Y-112774110D01*
X115235215Y-112815591D01*
X115224907Y-112849569D01*
X115208167Y-112880887D01*
X115185639Y-112908339D01*
X115158187Y-112930867D01*
X115126869Y-112947607D01*
X115092891Y-112957915D01*
X115051410Y-112962000D01*
X114375190Y-112962000D01*
X114333709Y-112957915D01*
X114299731Y-112947607D01*
X114268413Y-112930867D01*
X114240961Y-112908339D01*
X114218433Y-112880887D01*
X114201693Y-112849569D01*
X114191385Y-112815591D01*
X114187300Y-112774110D01*
X114187300Y-112172890D01*
X114191385Y-112131409D01*
X114201693Y-112097431D01*
X114218433Y-112066113D01*
X114240961Y-112038661D01*
X114268413Y-112016133D01*
X114299731Y-111999393D01*
X114333709Y-111989085D01*
X114375190Y-111985000D01*
X115051410Y-111985000D01*
X115092891Y-111989085D01*
X115092891Y-111989085D01*
G37*
G36*
X117886891Y-111989085D02*
X117920869Y-111999393D01*
X117952187Y-112016133D01*
X117979639Y-112038661D01*
X118002167Y-112066113D01*
X118018907Y-112097431D01*
X118029215Y-112131409D01*
X118033300Y-112172890D01*
X118033300Y-112774110D01*
X118029215Y-112815591D01*
X118018907Y-112849569D01*
X118002167Y-112880887D01*
X117979639Y-112908339D01*
X117952187Y-112930867D01*
X117920869Y-112947607D01*
X117886891Y-112957915D01*
X117845410Y-112962000D01*
X117169190Y-112962000D01*
X117127709Y-112957915D01*
X117093731Y-112947607D01*
X117062413Y-112930867D01*
X117034961Y-112908339D01*
X117012433Y-112880887D01*
X116995693Y-112849569D01*
X116985385Y-112815591D01*
X116981300Y-112774110D01*
X116981300Y-112172890D01*
X116985385Y-112131409D01*
X116995693Y-112097431D01*
X117012433Y-112066113D01*
X117034961Y-112038661D01*
X117062413Y-112016133D01*
X117093731Y-111999393D01*
X117127709Y-111989085D01*
X117169190Y-111985000D01*
X117845410Y-111985000D01*
X117886891Y-111989085D01*
X117886891Y-111989085D01*
G37*
G36*
X116489891Y-111989085D02*
X116523869Y-111999393D01*
X116555187Y-112016133D01*
X116582639Y-112038661D01*
X116605167Y-112066113D01*
X116621907Y-112097431D01*
X116632215Y-112131409D01*
X116636300Y-112172890D01*
X116636300Y-112774110D01*
X116632215Y-112815591D01*
X116621907Y-112849569D01*
X116605167Y-112880887D01*
X116582639Y-112908339D01*
X116555187Y-112930867D01*
X116523869Y-112947607D01*
X116489891Y-112957915D01*
X116448410Y-112962000D01*
X115772190Y-112962000D01*
X115730709Y-112957915D01*
X115696731Y-112947607D01*
X115665413Y-112930867D01*
X115637961Y-112908339D01*
X115615433Y-112880887D01*
X115598693Y-112849569D01*
X115588385Y-112815591D01*
X115584300Y-112774110D01*
X115584300Y-112172890D01*
X115588385Y-112131409D01*
X115598693Y-112097431D01*
X115615433Y-112066113D01*
X115637961Y-112038661D01*
X115665413Y-112016133D01*
X115696731Y-111999393D01*
X115730709Y-111989085D01*
X115772190Y-111985000D01*
X116448410Y-111985000D01*
X116489891Y-111989085D01*
X116489891Y-111989085D01*
G37*
G36*
X116489891Y-110414085D02*
X116523869Y-110424393D01*
X116555187Y-110441133D01*
X116582639Y-110463661D01*
X116605167Y-110491113D01*
X116621907Y-110522431D01*
X116632215Y-110556409D01*
X116636300Y-110597890D01*
X116636300Y-111199110D01*
X116632215Y-111240591D01*
X116621907Y-111274569D01*
X116605167Y-111305887D01*
X116582639Y-111333339D01*
X116555187Y-111355867D01*
X116523869Y-111372607D01*
X116489891Y-111382915D01*
X116448410Y-111387000D01*
X115772190Y-111387000D01*
X115730709Y-111382915D01*
X115696731Y-111372607D01*
X115665413Y-111355867D01*
X115637961Y-111333339D01*
X115615433Y-111305887D01*
X115598693Y-111274569D01*
X115588385Y-111240591D01*
X115584300Y-111199110D01*
X115584300Y-110597890D01*
X115588385Y-110556409D01*
X115598693Y-110522431D01*
X115615433Y-110491113D01*
X115637961Y-110463661D01*
X115665413Y-110441133D01*
X115696731Y-110424393D01*
X115730709Y-110414085D01*
X115772190Y-110410000D01*
X116448410Y-110410000D01*
X116489891Y-110414085D01*
X116489891Y-110414085D01*
G37*
G36*
X115092891Y-110414085D02*
X115126869Y-110424393D01*
X115158187Y-110441133D01*
X115185639Y-110463661D01*
X115208167Y-110491113D01*
X115224907Y-110522431D01*
X115235215Y-110556409D01*
X115239300Y-110597890D01*
X115239300Y-111199110D01*
X115235215Y-111240591D01*
X115224907Y-111274569D01*
X115208167Y-111305887D01*
X115185639Y-111333339D01*
X115158187Y-111355867D01*
X115126869Y-111372607D01*
X115092891Y-111382915D01*
X115051410Y-111387000D01*
X114375190Y-111387000D01*
X114333709Y-111382915D01*
X114299731Y-111372607D01*
X114268413Y-111355867D01*
X114240961Y-111333339D01*
X114218433Y-111305887D01*
X114201693Y-111274569D01*
X114191385Y-111240591D01*
X114187300Y-111199110D01*
X114187300Y-110597890D01*
X114191385Y-110556409D01*
X114201693Y-110522431D01*
X114218433Y-110491113D01*
X114240961Y-110463661D01*
X114268413Y-110441133D01*
X114299731Y-110424393D01*
X114333709Y-110414085D01*
X114375190Y-110410000D01*
X115051410Y-110410000D01*
X115092891Y-110414085D01*
X115092891Y-110414085D01*
G37*
G36*
X113695891Y-110414085D02*
X113729869Y-110424393D01*
X113761187Y-110441133D01*
X113788639Y-110463661D01*
X113811167Y-110491113D01*
X113827907Y-110522431D01*
X113838215Y-110556409D01*
X113842300Y-110597890D01*
X113842300Y-111199110D01*
X113838215Y-111240591D01*
X113827907Y-111274569D01*
X113811167Y-111305887D01*
X113788639Y-111333339D01*
X113761187Y-111355867D01*
X113729869Y-111372607D01*
X113695891Y-111382915D01*
X113654410Y-111387000D01*
X112978190Y-111387000D01*
X112936709Y-111382915D01*
X112902731Y-111372607D01*
X112871413Y-111355867D01*
X112843961Y-111333339D01*
X112821433Y-111305887D01*
X112804693Y-111274569D01*
X112794385Y-111240591D01*
X112790300Y-111199110D01*
X112790300Y-110597890D01*
X112794385Y-110556409D01*
X112804693Y-110522431D01*
X112821433Y-110491113D01*
X112843961Y-110463661D01*
X112871413Y-110441133D01*
X112902731Y-110424393D01*
X112936709Y-110414085D01*
X112978190Y-110410000D01*
X113654410Y-110410000D01*
X113695891Y-110414085D01*
X113695891Y-110414085D01*
G37*
G36*
X117886891Y-110414085D02*
X117920869Y-110424393D01*
X117952187Y-110441133D01*
X117979639Y-110463661D01*
X118002167Y-110491113D01*
X118018907Y-110522431D01*
X118029215Y-110556409D01*
X118033300Y-110597890D01*
X118033300Y-111199110D01*
X118029215Y-111240591D01*
X118018907Y-111274569D01*
X118002167Y-111305887D01*
X117979639Y-111333339D01*
X117952187Y-111355867D01*
X117920869Y-111372607D01*
X117886891Y-111382915D01*
X117845410Y-111387000D01*
X117169190Y-111387000D01*
X117127709Y-111382915D01*
X117093731Y-111372607D01*
X117062413Y-111355867D01*
X117034961Y-111333339D01*
X117012433Y-111305887D01*
X116995693Y-111274569D01*
X116985385Y-111240591D01*
X116981300Y-111199110D01*
X116981300Y-110597890D01*
X116985385Y-110556409D01*
X116995693Y-110522431D01*
X117012433Y-110491113D01*
X117034961Y-110463661D01*
X117062413Y-110441133D01*
X117093731Y-110424393D01*
X117127709Y-110414085D01*
X117169190Y-110410000D01*
X117845410Y-110410000D01*
X117886891Y-110414085D01*
X117886891Y-110414085D01*
G37*
G36*
X110901891Y-110414085D02*
X110935869Y-110424393D01*
X110967187Y-110441133D01*
X110994639Y-110463661D01*
X111017167Y-110491113D01*
X111033907Y-110522431D01*
X111044215Y-110556409D01*
X111048300Y-110597890D01*
X111048300Y-111199110D01*
X111044215Y-111240591D01*
X111033907Y-111274569D01*
X111017167Y-111305887D01*
X110994639Y-111333339D01*
X110967187Y-111355867D01*
X110935869Y-111372607D01*
X110901891Y-111382915D01*
X110860410Y-111387000D01*
X110184190Y-111387000D01*
X110142709Y-111382915D01*
X110108731Y-111372607D01*
X110077413Y-111355867D01*
X110049961Y-111333339D01*
X110027433Y-111305887D01*
X110010693Y-111274569D01*
X110000385Y-111240591D01*
X109996300Y-111199110D01*
X109996300Y-110597890D01*
X110000385Y-110556409D01*
X110010693Y-110522431D01*
X110027433Y-110491113D01*
X110049961Y-110463661D01*
X110077413Y-110441133D01*
X110108731Y-110424393D01*
X110142709Y-110414085D01*
X110184190Y-110410000D01*
X110860410Y-110410000D01*
X110901891Y-110414085D01*
X110901891Y-110414085D01*
G37*
G36*
X112298891Y-110414085D02*
X112332869Y-110424393D01*
X112364187Y-110441133D01*
X112391639Y-110463661D01*
X112414167Y-110491113D01*
X112430907Y-110522431D01*
X112441215Y-110556409D01*
X112445300Y-110597890D01*
X112445300Y-111199110D01*
X112441215Y-111240591D01*
X112430907Y-111274569D01*
X112414167Y-111305887D01*
X112391639Y-111333339D01*
X112364187Y-111355867D01*
X112332869Y-111372607D01*
X112298891Y-111382915D01*
X112257410Y-111387000D01*
X111581190Y-111387000D01*
X111539709Y-111382915D01*
X111505731Y-111372607D01*
X111474413Y-111355867D01*
X111446961Y-111333339D01*
X111424433Y-111305887D01*
X111407693Y-111274569D01*
X111397385Y-111240591D01*
X111393300Y-111199110D01*
X111393300Y-110597890D01*
X111397385Y-110556409D01*
X111407693Y-110522431D01*
X111424433Y-110491113D01*
X111446961Y-110463661D01*
X111474413Y-110441133D01*
X111505731Y-110424393D01*
X111539709Y-110414085D01*
X111581190Y-110410000D01*
X112257410Y-110410000D01*
X112298891Y-110414085D01*
X112298891Y-110414085D01*
G37*
G36*
X107778391Y-109767085D02*
X107812369Y-109777393D01*
X107843687Y-109794133D01*
X107871139Y-109816661D01*
X107893667Y-109844113D01*
X107910407Y-109875431D01*
X107920715Y-109909409D01*
X107924800Y-109950890D01*
X107924800Y-110627110D01*
X107920715Y-110668591D01*
X107910407Y-110702569D01*
X107893667Y-110733887D01*
X107871139Y-110761339D01*
X107843687Y-110783867D01*
X107812369Y-110800607D01*
X107778391Y-110810915D01*
X107736910Y-110815000D01*
X107135690Y-110815000D01*
X107094209Y-110810915D01*
X107060231Y-110800607D01*
X107028913Y-110783867D01*
X107001461Y-110761339D01*
X106978933Y-110733887D01*
X106962193Y-110702569D01*
X106951885Y-110668591D01*
X106947800Y-110627110D01*
X106947800Y-109950890D01*
X106951885Y-109909409D01*
X106962193Y-109875431D01*
X106978933Y-109844113D01*
X107001461Y-109816661D01*
X107028913Y-109794133D01*
X107060231Y-109777393D01*
X107094209Y-109767085D01*
X107135690Y-109763000D01*
X107736910Y-109763000D01*
X107778391Y-109767085D01*
X107778391Y-109767085D01*
G37*
G36*
X106203391Y-109767085D02*
X106237369Y-109777393D01*
X106268687Y-109794133D01*
X106296139Y-109816661D01*
X106318667Y-109844113D01*
X106335407Y-109875431D01*
X106345715Y-109909409D01*
X106349800Y-109950890D01*
X106349800Y-110627110D01*
X106345715Y-110668591D01*
X106335407Y-110702569D01*
X106318667Y-110733887D01*
X106296139Y-110761339D01*
X106268687Y-110783867D01*
X106237369Y-110800607D01*
X106203391Y-110810915D01*
X106161910Y-110815000D01*
X105560690Y-110815000D01*
X105519209Y-110810915D01*
X105485231Y-110800607D01*
X105453913Y-110783867D01*
X105426461Y-110761339D01*
X105403933Y-110733887D01*
X105387193Y-110702569D01*
X105376885Y-110668591D01*
X105372800Y-110627110D01*
X105372800Y-109950890D01*
X105376885Y-109909409D01*
X105387193Y-109875431D01*
X105403933Y-109844113D01*
X105426461Y-109816661D01*
X105453913Y-109794133D01*
X105485231Y-109777393D01*
X105519209Y-109767085D01*
X105560690Y-109763000D01*
X106161910Y-109763000D01*
X106203391Y-109767085D01*
X106203391Y-109767085D01*
G37*
G36*
X117879991Y-108964285D02*
X117913969Y-108974593D01*
X117945287Y-108991333D01*
X117972739Y-109013861D01*
X117995267Y-109041313D01*
X118012007Y-109072631D01*
X118022315Y-109106609D01*
X118026400Y-109148090D01*
X118026400Y-109749310D01*
X118022315Y-109790791D01*
X118012007Y-109824769D01*
X117995267Y-109856087D01*
X117972739Y-109883539D01*
X117945287Y-109906067D01*
X117913969Y-109922807D01*
X117879991Y-109933115D01*
X117838510Y-109937200D01*
X117162290Y-109937200D01*
X117120809Y-109933115D01*
X117086831Y-109922807D01*
X117055513Y-109906067D01*
X117028061Y-109883539D01*
X117005533Y-109856087D01*
X116988793Y-109824769D01*
X116978485Y-109790791D01*
X116974400Y-109749310D01*
X116974400Y-109148090D01*
X116978485Y-109106609D01*
X116988793Y-109072631D01*
X117005533Y-109041313D01*
X117028061Y-109013861D01*
X117055513Y-108991333D01*
X117086831Y-108974593D01*
X117120809Y-108964285D01*
X117162290Y-108960200D01*
X117838510Y-108960200D01*
X117879991Y-108964285D01*
X117879991Y-108964285D01*
G37*
G36*
X108054657Y-100776083D02*
X108059328Y-100777500D01*
X108063630Y-100779800D01*
X108070005Y-100785031D01*
X108090380Y-100798644D01*
X108113019Y-100808020D01*
X108137053Y-100812800D01*
X108161557Y-100812799D01*
X108185591Y-100808017D01*
X108208229Y-100798639D01*
X108228595Y-100785031D01*
X108234970Y-100779800D01*
X108239272Y-100777500D01*
X108243943Y-100776083D01*
X108254941Y-100775000D01*
X108543659Y-100775000D01*
X108554657Y-100776083D01*
X108559328Y-100777500D01*
X108563630Y-100779800D01*
X108570005Y-100785031D01*
X108590380Y-100798644D01*
X108613019Y-100808020D01*
X108637053Y-100812800D01*
X108661557Y-100812799D01*
X108685591Y-100808017D01*
X108708229Y-100798639D01*
X108728595Y-100785031D01*
X108734970Y-100779800D01*
X108739272Y-100777500D01*
X108743943Y-100776083D01*
X108754941Y-100775000D01*
X109043659Y-100775000D01*
X109054657Y-100776083D01*
X109059328Y-100777500D01*
X109063630Y-100779800D01*
X109070005Y-100785031D01*
X109090380Y-100798644D01*
X109113019Y-100808020D01*
X109137053Y-100812800D01*
X109161557Y-100812799D01*
X109185591Y-100808017D01*
X109208229Y-100798639D01*
X109228595Y-100785031D01*
X109234970Y-100779800D01*
X109239272Y-100777500D01*
X109243943Y-100776083D01*
X109254941Y-100775000D01*
X109543659Y-100775000D01*
X109554657Y-100776083D01*
X109559328Y-100777500D01*
X109563630Y-100779800D01*
X109570005Y-100785031D01*
X109590380Y-100798644D01*
X109613019Y-100808020D01*
X109637053Y-100812800D01*
X109661557Y-100812799D01*
X109685591Y-100808017D01*
X109708229Y-100798639D01*
X109728595Y-100785031D01*
X109734970Y-100779800D01*
X109739272Y-100777500D01*
X109743943Y-100776083D01*
X109754941Y-100775000D01*
X110043659Y-100775000D01*
X110054657Y-100776083D01*
X110059328Y-100777500D01*
X110063630Y-100779800D01*
X110070005Y-100785031D01*
X110090380Y-100798644D01*
X110113019Y-100808020D01*
X110137053Y-100812800D01*
X110161557Y-100812799D01*
X110185591Y-100808017D01*
X110208229Y-100798639D01*
X110228595Y-100785031D01*
X110234970Y-100779800D01*
X110239272Y-100777500D01*
X110243943Y-100776083D01*
X110254941Y-100775000D01*
X110543659Y-100775000D01*
X110554657Y-100776083D01*
X110559328Y-100777500D01*
X110563630Y-100779800D01*
X110570005Y-100785031D01*
X110590380Y-100798644D01*
X110613019Y-100808020D01*
X110637053Y-100812800D01*
X110661557Y-100812799D01*
X110685591Y-100808017D01*
X110708229Y-100798639D01*
X110728595Y-100785031D01*
X110734970Y-100779800D01*
X110739272Y-100777500D01*
X110743943Y-100776083D01*
X110754941Y-100775000D01*
X111043659Y-100775000D01*
X111054657Y-100776083D01*
X111059328Y-100777500D01*
X111063630Y-100779800D01*
X111070005Y-100785031D01*
X111090380Y-100798644D01*
X111113019Y-100808020D01*
X111137053Y-100812800D01*
X111161557Y-100812799D01*
X111185591Y-100808017D01*
X111208229Y-100798639D01*
X111228595Y-100785031D01*
X111234970Y-100779800D01*
X111239272Y-100777500D01*
X111243943Y-100776083D01*
X111254941Y-100775000D01*
X111543659Y-100775000D01*
X111554657Y-100776083D01*
X111559328Y-100777500D01*
X111563630Y-100779800D01*
X111570005Y-100785031D01*
X111590380Y-100798644D01*
X111613019Y-100808020D01*
X111637053Y-100812800D01*
X111661557Y-100812799D01*
X111685591Y-100808017D01*
X111708229Y-100798639D01*
X111728595Y-100785031D01*
X111734970Y-100779800D01*
X111739272Y-100777500D01*
X111743943Y-100776083D01*
X111754941Y-100775000D01*
X112043659Y-100775000D01*
X112054657Y-100776083D01*
X112059328Y-100777500D01*
X112063630Y-100779800D01*
X112070005Y-100785031D01*
X112090380Y-100798644D01*
X112113019Y-100808020D01*
X112137053Y-100812800D01*
X112161557Y-100812799D01*
X112185591Y-100808017D01*
X112208229Y-100798639D01*
X112228595Y-100785031D01*
X112234970Y-100779800D01*
X112239272Y-100777500D01*
X112243943Y-100776083D01*
X112254941Y-100775000D01*
X112543659Y-100775000D01*
X112554657Y-100776083D01*
X112559328Y-100777500D01*
X112563630Y-100779800D01*
X112570005Y-100785031D01*
X112590380Y-100798644D01*
X112613019Y-100808020D01*
X112637053Y-100812800D01*
X112661557Y-100812799D01*
X112685591Y-100808017D01*
X112708229Y-100798639D01*
X112728595Y-100785031D01*
X112734970Y-100779800D01*
X112739272Y-100777500D01*
X112743943Y-100776083D01*
X112754941Y-100775000D01*
X113043659Y-100775000D01*
X113054657Y-100776083D01*
X113059328Y-100777500D01*
X113063630Y-100779800D01*
X113070005Y-100785031D01*
X113090380Y-100798644D01*
X113113019Y-100808020D01*
X113137053Y-100812800D01*
X113161557Y-100812799D01*
X113185591Y-100808017D01*
X113208229Y-100798639D01*
X113228595Y-100785031D01*
X113234970Y-100779800D01*
X113239272Y-100777500D01*
X113243943Y-100776083D01*
X113254941Y-100775000D01*
X113543659Y-100775000D01*
X113554657Y-100776083D01*
X113559328Y-100777500D01*
X113563630Y-100779800D01*
X113567404Y-100782896D01*
X113570500Y-100786670D01*
X113572800Y-100790972D01*
X113574217Y-100795643D01*
X113575300Y-100806641D01*
X113575300Y-101650000D01*
X113577702Y-101674386D01*
X113584815Y-101697835D01*
X113596366Y-101719446D01*
X113611912Y-101738388D01*
X113630854Y-101753934D01*
X113652465Y-101765485D01*
X113675914Y-101772598D01*
X113700300Y-101775000D01*
X114543659Y-101775000D01*
X114554657Y-101776083D01*
X114559328Y-101777500D01*
X114563630Y-101779800D01*
X114567404Y-101782896D01*
X114570500Y-101786670D01*
X114572800Y-101790972D01*
X114574217Y-101795643D01*
X114575300Y-101806641D01*
X114575300Y-102095359D01*
X114574217Y-102106357D01*
X114572800Y-102111028D01*
X114570500Y-102115330D01*
X114565269Y-102121705D01*
X114551656Y-102142080D01*
X114542280Y-102164719D01*
X114537500Y-102188753D01*
X114537501Y-102213257D01*
X114542283Y-102237291D01*
X114551661Y-102259929D01*
X114565269Y-102280295D01*
X114570500Y-102286670D01*
X114572800Y-102290972D01*
X114574217Y-102295643D01*
X114575300Y-102306641D01*
X114575300Y-102595359D01*
X114574217Y-102606357D01*
X114572800Y-102611028D01*
X114570500Y-102615330D01*
X114565269Y-102621705D01*
X114551656Y-102642080D01*
X114542280Y-102664719D01*
X114537500Y-102688753D01*
X114537501Y-102713257D01*
X114542283Y-102737291D01*
X114551661Y-102759929D01*
X114565269Y-102780295D01*
X114570500Y-102786670D01*
X114572800Y-102790972D01*
X114574217Y-102795643D01*
X114575300Y-102806641D01*
X114575300Y-103095359D01*
X114574217Y-103106357D01*
X114572800Y-103111028D01*
X114570500Y-103115330D01*
X114565269Y-103121705D01*
X114551656Y-103142080D01*
X114542280Y-103164719D01*
X114537500Y-103188753D01*
X114537501Y-103213257D01*
X114542283Y-103237291D01*
X114551661Y-103259929D01*
X114565269Y-103280295D01*
X114570500Y-103286670D01*
X114572800Y-103290972D01*
X114574217Y-103295643D01*
X114575300Y-103306641D01*
X114575300Y-103595359D01*
X114574217Y-103606357D01*
X114572800Y-103611028D01*
X114570500Y-103615330D01*
X114565269Y-103621705D01*
X114551656Y-103642080D01*
X114542280Y-103664719D01*
X114537500Y-103688753D01*
X114537501Y-103713257D01*
X114542283Y-103737291D01*
X114551661Y-103759929D01*
X114565269Y-103780295D01*
X114570500Y-103786670D01*
X114572800Y-103790972D01*
X114574217Y-103795643D01*
X114575300Y-103806641D01*
X114575300Y-104095359D01*
X114574217Y-104106357D01*
X114572800Y-104111028D01*
X114570500Y-104115330D01*
X114565269Y-104121705D01*
X114551656Y-104142080D01*
X114542280Y-104164719D01*
X114537500Y-104188753D01*
X114537501Y-104213257D01*
X114542283Y-104237291D01*
X114551661Y-104259929D01*
X114565269Y-104280295D01*
X114570500Y-104286670D01*
X114572800Y-104290972D01*
X114574217Y-104295643D01*
X114575300Y-104306641D01*
X114575300Y-104595359D01*
X114574217Y-104606357D01*
X114572800Y-104611028D01*
X114570500Y-104615330D01*
X114565269Y-104621705D01*
X114551656Y-104642080D01*
X114542280Y-104664719D01*
X114537500Y-104688753D01*
X114537501Y-104713257D01*
X114542283Y-104737291D01*
X114551661Y-104759929D01*
X114565269Y-104780295D01*
X114570500Y-104786670D01*
X114572800Y-104790972D01*
X114574217Y-104795643D01*
X114575300Y-104806641D01*
X114575300Y-105095359D01*
X114574217Y-105106357D01*
X114572800Y-105111028D01*
X114570500Y-105115330D01*
X114565269Y-105121705D01*
X114551656Y-105142080D01*
X114542280Y-105164719D01*
X114537500Y-105188753D01*
X114537501Y-105213257D01*
X114542283Y-105237291D01*
X114551661Y-105259929D01*
X114565269Y-105280295D01*
X114570500Y-105286670D01*
X114572800Y-105290972D01*
X114574217Y-105295643D01*
X114575300Y-105306641D01*
X114575300Y-105595359D01*
X114574217Y-105606357D01*
X114572800Y-105611028D01*
X114570500Y-105615330D01*
X114565269Y-105621705D01*
X114551656Y-105642080D01*
X114542280Y-105664719D01*
X114537500Y-105688753D01*
X114537501Y-105713257D01*
X114542283Y-105737291D01*
X114551661Y-105759929D01*
X114565269Y-105780295D01*
X114570500Y-105786670D01*
X114572800Y-105790972D01*
X114574217Y-105795643D01*
X114575300Y-105806641D01*
X114575300Y-106095359D01*
X114574217Y-106106357D01*
X114572800Y-106111028D01*
X114570500Y-106115330D01*
X114565269Y-106121705D01*
X114551656Y-106142080D01*
X114542280Y-106164719D01*
X114537500Y-106188753D01*
X114537501Y-106213257D01*
X114542283Y-106237291D01*
X114551661Y-106259929D01*
X114565269Y-106280295D01*
X114570500Y-106286670D01*
X114572800Y-106290972D01*
X114574217Y-106295643D01*
X114575300Y-106306641D01*
X114575300Y-106595359D01*
X114574217Y-106606357D01*
X114572800Y-106611028D01*
X114570500Y-106615330D01*
X114565269Y-106621705D01*
X114551656Y-106642080D01*
X114542280Y-106664719D01*
X114537500Y-106688753D01*
X114537501Y-106713257D01*
X114542283Y-106737291D01*
X114551661Y-106759929D01*
X114565269Y-106780295D01*
X114570500Y-106786670D01*
X114572800Y-106790972D01*
X114574217Y-106795643D01*
X114575300Y-106806641D01*
X114575300Y-107095359D01*
X114574217Y-107106357D01*
X114572800Y-107111028D01*
X114570500Y-107115330D01*
X114565269Y-107121705D01*
X114551656Y-107142080D01*
X114542280Y-107164719D01*
X114537500Y-107188753D01*
X114537501Y-107213257D01*
X114542283Y-107237291D01*
X114551661Y-107259929D01*
X114565269Y-107280295D01*
X114570500Y-107286670D01*
X114572800Y-107290972D01*
X114574217Y-107295643D01*
X114575300Y-107306641D01*
X114575300Y-107595359D01*
X114574217Y-107606357D01*
X114572800Y-107611028D01*
X114570500Y-107615330D01*
X114567404Y-107619104D01*
X114563630Y-107622200D01*
X114559328Y-107624500D01*
X114554657Y-107625917D01*
X114543659Y-107627000D01*
X113700300Y-107627000D01*
X113675914Y-107629402D01*
X113652465Y-107636515D01*
X113630854Y-107648066D01*
X113611912Y-107663612D01*
X113596366Y-107682554D01*
X113584815Y-107704165D01*
X113577702Y-107727614D01*
X113575300Y-107752000D01*
X113575300Y-108595359D01*
X113574217Y-108606357D01*
X113572800Y-108611028D01*
X113570500Y-108615330D01*
X113567404Y-108619104D01*
X113563630Y-108622200D01*
X113559328Y-108624500D01*
X113554657Y-108625917D01*
X113543659Y-108627000D01*
X113254941Y-108627000D01*
X113243943Y-108625917D01*
X113239272Y-108624500D01*
X113234970Y-108622200D01*
X113228595Y-108616969D01*
X113208220Y-108603356D01*
X113185581Y-108593980D01*
X113161547Y-108589200D01*
X113137043Y-108589201D01*
X113113009Y-108593983D01*
X113090371Y-108603361D01*
X113070005Y-108616969D01*
X113063630Y-108622200D01*
X113059328Y-108624500D01*
X113054657Y-108625917D01*
X113043659Y-108627000D01*
X112754941Y-108627000D01*
X112743943Y-108625917D01*
X112739272Y-108624500D01*
X112734970Y-108622200D01*
X112728595Y-108616969D01*
X112708220Y-108603356D01*
X112685581Y-108593980D01*
X112661547Y-108589200D01*
X112637043Y-108589201D01*
X112613009Y-108593983D01*
X112590371Y-108603361D01*
X112570005Y-108616969D01*
X112563630Y-108622200D01*
X112559328Y-108624500D01*
X112554657Y-108625917D01*
X112543659Y-108627000D01*
X112254941Y-108627000D01*
X112243943Y-108625917D01*
X112239272Y-108624500D01*
X112234970Y-108622200D01*
X112228595Y-108616969D01*
X112208220Y-108603356D01*
X112185581Y-108593980D01*
X112161547Y-108589200D01*
X112137043Y-108589201D01*
X112113009Y-108593983D01*
X112090371Y-108603361D01*
X112070005Y-108616969D01*
X112063630Y-108622200D01*
X112059328Y-108624500D01*
X112054657Y-108625917D01*
X112043659Y-108627000D01*
X111754941Y-108627000D01*
X111743943Y-108625917D01*
X111739272Y-108624500D01*
X111734970Y-108622200D01*
X111728595Y-108616969D01*
X111708220Y-108603356D01*
X111685581Y-108593980D01*
X111661547Y-108589200D01*
X111637043Y-108589201D01*
X111613009Y-108593983D01*
X111590371Y-108603361D01*
X111570005Y-108616969D01*
X111563630Y-108622200D01*
X111559328Y-108624500D01*
X111554657Y-108625917D01*
X111543659Y-108627000D01*
X111254941Y-108627000D01*
X111243943Y-108625917D01*
X111239272Y-108624500D01*
X111234970Y-108622200D01*
X111228595Y-108616969D01*
X111208220Y-108603356D01*
X111185581Y-108593980D01*
X111161547Y-108589200D01*
X111137043Y-108589201D01*
X111113009Y-108593983D01*
X111090371Y-108603361D01*
X111070005Y-108616969D01*
X111063630Y-108622200D01*
X111059328Y-108624500D01*
X111054657Y-108625917D01*
X111043659Y-108627000D01*
X110754941Y-108627000D01*
X110743943Y-108625917D01*
X110739272Y-108624500D01*
X110734970Y-108622200D01*
X110728595Y-108616969D01*
X110708220Y-108603356D01*
X110685581Y-108593980D01*
X110661547Y-108589200D01*
X110637043Y-108589201D01*
X110613009Y-108593983D01*
X110590371Y-108603361D01*
X110570005Y-108616969D01*
X110563630Y-108622200D01*
X110559328Y-108624500D01*
X110554657Y-108625917D01*
X110543659Y-108627000D01*
X110254941Y-108627000D01*
X110243943Y-108625917D01*
X110239272Y-108624500D01*
X110234970Y-108622200D01*
X110228595Y-108616969D01*
X110208220Y-108603356D01*
X110185581Y-108593980D01*
X110161547Y-108589200D01*
X110137043Y-108589201D01*
X110113009Y-108593983D01*
X110090371Y-108603361D01*
X110070005Y-108616969D01*
X110063630Y-108622200D01*
X110059328Y-108624500D01*
X110054657Y-108625917D01*
X110043659Y-108627000D01*
X109754941Y-108627000D01*
X109743943Y-108625917D01*
X109739272Y-108624500D01*
X109734970Y-108622200D01*
X109728595Y-108616969D01*
X109708220Y-108603356D01*
X109685581Y-108593980D01*
X109661547Y-108589200D01*
X109637043Y-108589201D01*
X109613009Y-108593983D01*
X109590371Y-108603361D01*
X109570005Y-108616969D01*
X109563630Y-108622200D01*
X109559328Y-108624500D01*
X109554657Y-108625917D01*
X109543659Y-108627000D01*
X109254941Y-108627000D01*
X109243943Y-108625917D01*
X109239272Y-108624500D01*
X109234970Y-108622200D01*
X109228595Y-108616969D01*
X109208220Y-108603356D01*
X109185581Y-108593980D01*
X109161547Y-108589200D01*
X109137043Y-108589201D01*
X109113009Y-108593983D01*
X109090371Y-108603361D01*
X109070005Y-108616969D01*
X109063630Y-108622200D01*
X109059328Y-108624500D01*
X109054657Y-108625917D01*
X109043659Y-108627000D01*
X108754941Y-108627000D01*
X108743943Y-108625917D01*
X108739272Y-108624500D01*
X108734970Y-108622200D01*
X108728595Y-108616969D01*
X108708220Y-108603356D01*
X108685581Y-108593980D01*
X108661547Y-108589200D01*
X108637043Y-108589201D01*
X108613009Y-108593983D01*
X108590371Y-108603361D01*
X108570005Y-108616969D01*
X108563630Y-108622200D01*
X108559328Y-108624500D01*
X108554657Y-108625917D01*
X108543659Y-108627000D01*
X108254941Y-108627000D01*
X108243943Y-108625917D01*
X108239272Y-108624500D01*
X108234970Y-108622200D01*
X108228595Y-108616969D01*
X108208220Y-108603356D01*
X108185581Y-108593980D01*
X108161547Y-108589200D01*
X108137043Y-108589201D01*
X108113009Y-108593983D01*
X108090371Y-108603361D01*
X108070005Y-108616969D01*
X108063630Y-108622200D01*
X108059328Y-108624500D01*
X108054657Y-108625917D01*
X108043659Y-108627000D01*
X107754941Y-108627000D01*
X107743943Y-108625917D01*
X107739272Y-108624500D01*
X107734970Y-108622200D01*
X107731196Y-108619104D01*
X107728100Y-108615330D01*
X107725800Y-108611028D01*
X107724383Y-108606357D01*
X107723300Y-108595359D01*
X107723300Y-107752000D01*
X107720898Y-107727614D01*
X107713785Y-107704165D01*
X107702234Y-107682554D01*
X107686688Y-107663612D01*
X107667746Y-107648066D01*
X107646135Y-107636515D01*
X107622686Y-107629402D01*
X107598300Y-107627000D01*
X106754941Y-107627000D01*
X106743943Y-107625917D01*
X106739272Y-107624500D01*
X106734970Y-107622200D01*
X106731196Y-107619104D01*
X106728100Y-107615330D01*
X106725800Y-107611028D01*
X106724383Y-107606357D01*
X106723300Y-107595359D01*
X106723300Y-107306641D01*
X106724383Y-107295643D01*
X106725800Y-107290972D01*
X106728100Y-107286670D01*
X106733331Y-107280295D01*
X106746944Y-107259920D01*
X106756320Y-107237281D01*
X106761100Y-107213247D01*
X106761099Y-107188743D01*
X106756317Y-107164709D01*
X106746939Y-107142071D01*
X106733331Y-107121705D01*
X106728100Y-107115330D01*
X106725800Y-107111028D01*
X106724383Y-107106357D01*
X106723300Y-107095359D01*
X106723300Y-106806641D01*
X106724383Y-106795643D01*
X106725800Y-106790972D01*
X106728100Y-106786670D01*
X106733331Y-106780295D01*
X106746944Y-106759920D01*
X106756320Y-106737281D01*
X106761100Y-106713247D01*
X106761099Y-106688743D01*
X106756317Y-106664709D01*
X106746939Y-106642071D01*
X106733331Y-106621705D01*
X106728100Y-106615330D01*
X106725800Y-106611028D01*
X106724383Y-106606357D01*
X106723300Y-106595359D01*
X106723300Y-106306641D01*
X106724383Y-106295643D01*
X106725800Y-106290972D01*
X106728100Y-106286670D01*
X106733331Y-106280295D01*
X106746944Y-106259920D01*
X106756320Y-106237281D01*
X106761100Y-106213247D01*
X106761099Y-106188743D01*
X106756317Y-106164709D01*
X106746939Y-106142071D01*
X106733331Y-106121705D01*
X106728100Y-106115330D01*
X106725800Y-106111028D01*
X106724383Y-106106357D01*
X106723300Y-106095359D01*
X106723300Y-105806641D01*
X106724383Y-105795643D01*
X106725800Y-105790972D01*
X106728100Y-105786670D01*
X106733331Y-105780295D01*
X106746944Y-105759920D01*
X106756320Y-105737281D01*
X106761100Y-105713247D01*
X106761099Y-105688743D01*
X106756317Y-105664709D01*
X106746939Y-105642071D01*
X106733331Y-105621705D01*
X106728100Y-105615330D01*
X106725800Y-105611028D01*
X106724383Y-105606357D01*
X106723300Y-105595359D01*
X106723300Y-105306641D01*
X106724383Y-105295643D01*
X106725800Y-105290972D01*
X106728100Y-105286670D01*
X106733331Y-105280295D01*
X106746944Y-105259920D01*
X106756320Y-105237281D01*
X106761100Y-105213247D01*
X106761099Y-105188743D01*
X106756317Y-105164709D01*
X106746939Y-105142071D01*
X106733331Y-105121705D01*
X106728100Y-105115330D01*
X106725800Y-105111028D01*
X106724383Y-105106357D01*
X106723300Y-105095359D01*
X106723300Y-104806641D01*
X106724383Y-104795643D01*
X106725800Y-104790972D01*
X106728100Y-104786670D01*
X106733331Y-104780295D01*
X106746944Y-104759920D01*
X106756320Y-104737281D01*
X106761100Y-104713247D01*
X106761099Y-104688743D01*
X106756317Y-104664709D01*
X106746939Y-104642071D01*
X106733331Y-104621705D01*
X106728100Y-104615330D01*
X106725800Y-104611028D01*
X106724383Y-104606357D01*
X106723300Y-104595359D01*
X106723300Y-104306641D01*
X106724383Y-104295643D01*
X106725800Y-104290972D01*
X106728100Y-104286670D01*
X106733331Y-104280295D01*
X106746944Y-104259920D01*
X106756320Y-104237281D01*
X106761100Y-104213247D01*
X106761099Y-104188743D01*
X106756317Y-104164709D01*
X106746939Y-104142071D01*
X106733331Y-104121705D01*
X106728100Y-104115330D01*
X106725800Y-104111028D01*
X106724383Y-104106357D01*
X106723300Y-104095359D01*
X106723300Y-103806641D01*
X106724383Y-103795643D01*
X106725800Y-103790972D01*
X106728100Y-103786670D01*
X106733331Y-103780295D01*
X106746944Y-103759920D01*
X106756320Y-103737281D01*
X106761100Y-103713247D01*
X106761099Y-103688743D01*
X106756317Y-103664709D01*
X106746939Y-103642071D01*
X106733331Y-103621705D01*
X106728100Y-103615330D01*
X106725800Y-103611028D01*
X106724383Y-103606357D01*
X106723300Y-103595359D01*
X106723300Y-103306641D01*
X106724383Y-103295643D01*
X106725800Y-103290972D01*
X106728100Y-103286670D01*
X106733331Y-103280295D01*
X106746944Y-103259920D01*
X106756320Y-103237281D01*
X106761100Y-103213247D01*
X106761099Y-103188743D01*
X106756317Y-103164709D01*
X106746939Y-103142071D01*
X106733331Y-103121705D01*
X106728100Y-103115330D01*
X106725800Y-103111028D01*
X106724383Y-103106357D01*
X106723300Y-103095359D01*
X106723300Y-102806641D01*
X106724383Y-102795643D01*
X106725800Y-102790972D01*
X106728100Y-102786670D01*
X106733331Y-102780295D01*
X106746944Y-102759920D01*
X106756320Y-102737281D01*
X106761100Y-102713247D01*
X106761099Y-102688743D01*
X106756317Y-102664709D01*
X106746939Y-102642071D01*
X106733331Y-102621705D01*
X106728100Y-102615330D01*
X106725800Y-102611028D01*
X106724383Y-102606357D01*
X106723300Y-102595359D01*
X106723300Y-102306641D01*
X106724383Y-102295643D01*
X106725800Y-102290972D01*
X106728100Y-102286670D01*
X106733331Y-102280295D01*
X106746944Y-102259920D01*
X106756320Y-102237281D01*
X106761100Y-102213247D01*
X106761099Y-102188743D01*
X106756317Y-102164709D01*
X106746939Y-102142071D01*
X106733331Y-102121705D01*
X106728100Y-102115330D01*
X106725800Y-102111028D01*
X106724383Y-102106357D01*
X106723300Y-102095359D01*
X106723300Y-101806641D01*
X106724383Y-101795643D01*
X106725800Y-101790972D01*
X106728100Y-101786670D01*
X106731196Y-101782896D01*
X106734970Y-101779800D01*
X106739272Y-101777500D01*
X106743943Y-101776083D01*
X106754941Y-101775000D01*
X107598300Y-101775000D01*
X107622686Y-101772598D01*
X107646135Y-101765485D01*
X107667746Y-101753934D01*
X107686688Y-101738388D01*
X107702234Y-101719446D01*
X107713785Y-101697835D01*
X107720898Y-101674386D01*
X107723300Y-101650000D01*
X107723300Y-100806641D01*
X107724383Y-100795643D01*
X107725800Y-100790972D01*
X107728100Y-100786670D01*
X107731196Y-100782896D01*
X107734970Y-100779800D01*
X107739272Y-100777500D01*
X107743943Y-100776083D01*
X107754941Y-100775000D01*
X108043659Y-100775000D01*
X108054657Y-100776083D01*
X108054657Y-100776083D01*
G37*
G36*
X119347391Y-107480585D02*
X119381369Y-107490893D01*
X119412687Y-107507633D01*
X119440139Y-107530161D01*
X119462667Y-107557613D01*
X119479407Y-107588931D01*
X119489715Y-107622909D01*
X119493800Y-107664390D01*
X119493800Y-108265610D01*
X119489715Y-108307091D01*
X119479407Y-108341069D01*
X119462667Y-108372387D01*
X119440139Y-108399839D01*
X119412687Y-108422367D01*
X119381369Y-108439107D01*
X119347391Y-108449415D01*
X119305910Y-108453500D01*
X118629690Y-108453500D01*
X118588209Y-108449415D01*
X118554231Y-108439107D01*
X118522913Y-108422367D01*
X118495461Y-108399839D01*
X118472933Y-108372387D01*
X118456193Y-108341069D01*
X118445885Y-108307091D01*
X118441800Y-108265610D01*
X118441800Y-107664390D01*
X118445885Y-107622909D01*
X118456193Y-107588931D01*
X118472933Y-107557613D01*
X118495461Y-107530161D01*
X118522913Y-107507633D01*
X118554231Y-107490893D01*
X118588209Y-107480585D01*
X118629690Y-107476500D01*
X119305910Y-107476500D01*
X119347391Y-107480585D01*
X119347391Y-107480585D01*
G37*
G36*
X117879991Y-107389285D02*
X117913969Y-107399593D01*
X117945287Y-107416333D01*
X117972739Y-107438861D01*
X117995267Y-107466313D01*
X118012007Y-107497631D01*
X118022315Y-107531609D01*
X118026400Y-107573090D01*
X118026400Y-108174310D01*
X118022315Y-108215791D01*
X118012007Y-108249769D01*
X117995267Y-108281087D01*
X117972739Y-108308539D01*
X117945287Y-108331067D01*
X117913969Y-108347807D01*
X117879991Y-108358115D01*
X117838510Y-108362200D01*
X117162290Y-108362200D01*
X117120809Y-108358115D01*
X117086831Y-108347807D01*
X117055513Y-108331067D01*
X117028061Y-108308539D01*
X117005533Y-108281087D01*
X116988793Y-108249769D01*
X116978485Y-108215791D01*
X116974400Y-108174310D01*
X116974400Y-107573090D01*
X116978485Y-107531609D01*
X116988793Y-107497631D01*
X117005533Y-107466313D01*
X117028061Y-107438861D01*
X117055513Y-107416333D01*
X117086831Y-107399593D01*
X117120809Y-107389285D01*
X117162290Y-107385200D01*
X117838510Y-107385200D01*
X117879991Y-107389285D01*
X117879991Y-107389285D01*
G37*
G36*
X119347391Y-105905585D02*
X119381369Y-105915893D01*
X119412687Y-105932633D01*
X119440139Y-105955161D01*
X119462667Y-105982613D01*
X119479407Y-106013931D01*
X119489715Y-106047909D01*
X119493800Y-106089390D01*
X119493800Y-106690610D01*
X119489715Y-106732091D01*
X119479407Y-106766069D01*
X119462667Y-106797387D01*
X119440139Y-106824839D01*
X119412687Y-106847367D01*
X119381369Y-106864107D01*
X119347391Y-106874415D01*
X119305910Y-106878500D01*
X118629690Y-106878500D01*
X118588209Y-106874415D01*
X118554231Y-106864107D01*
X118522913Y-106847367D01*
X118495461Y-106824839D01*
X118472933Y-106797387D01*
X118456193Y-106766069D01*
X118445885Y-106732091D01*
X118441800Y-106690610D01*
X118441800Y-106089390D01*
X118445885Y-106047909D01*
X118456193Y-106013931D01*
X118472933Y-105982613D01*
X118495461Y-105955161D01*
X118522913Y-105932633D01*
X118554231Y-105915893D01*
X118588209Y-105905585D01*
X118629690Y-105901500D01*
X119305910Y-105901500D01*
X119347391Y-105905585D01*
X119347391Y-105905585D01*
G37*
G36*
X183625029Y-105190503D02*
X183779901Y-105254653D01*
X183919282Y-105347785D01*
X183919286Y-105347789D01*
X183926181Y-105352396D01*
X183932355Y-105357463D01*
X183953966Y-105369014D01*
X183977415Y-105376127D01*
X184001801Y-105378529D01*
X184026187Y-105376127D01*
X184049636Y-105369014D01*
X184071247Y-105357463D01*
X184077421Y-105352396D01*
X184084316Y-105347789D01*
X184084320Y-105347785D01*
X184223701Y-105254653D01*
X184378573Y-105190503D01*
X184542985Y-105157800D01*
X184710617Y-105157800D01*
X184875029Y-105190503D01*
X185029901Y-105254653D01*
X185169282Y-105347785D01*
X185287816Y-105466319D01*
X185380948Y-105605700D01*
X185445098Y-105760572D01*
X185477801Y-105924984D01*
X185477801Y-106092616D01*
X185445098Y-106257028D01*
X185380948Y-106411900D01*
X185287816Y-106551281D01*
X185169282Y-106669815D01*
X185029901Y-106762947D01*
X184875029Y-106827097D01*
X184710617Y-106859800D01*
X184542985Y-106859800D01*
X184378573Y-106827097D01*
X184223701Y-106762947D01*
X184084320Y-106669815D01*
X184084316Y-106669811D01*
X184077421Y-106665204D01*
X184071247Y-106660137D01*
X184049636Y-106648586D01*
X184026187Y-106641473D01*
X184001801Y-106639071D01*
X183977415Y-106641473D01*
X183953966Y-106648586D01*
X183932355Y-106660137D01*
X183926181Y-106665204D01*
X183919286Y-106669811D01*
X183919282Y-106669815D01*
X183779901Y-106762947D01*
X183625029Y-106827097D01*
X183460617Y-106859800D01*
X183292985Y-106859800D01*
X183128573Y-106827097D01*
X182973701Y-106762947D01*
X182834320Y-106669815D01*
X182715786Y-106551281D01*
X182622654Y-106411900D01*
X182558504Y-106257028D01*
X182525801Y-106092616D01*
X182525801Y-105924984D01*
X182558504Y-105760572D01*
X182622654Y-105605700D01*
X182715786Y-105466319D01*
X182834320Y-105347785D01*
X182973701Y-105254653D01*
X183128573Y-105190503D01*
X183292985Y-105157800D01*
X183460617Y-105157800D01*
X183625029Y-105190503D01*
X183625029Y-105190503D01*
G37*
G36*
X192375029Y-105190503D02*
X192529901Y-105254653D01*
X192669282Y-105347785D01*
X192669286Y-105347789D01*
X192676181Y-105352396D01*
X192682355Y-105357463D01*
X192703966Y-105369014D01*
X192727415Y-105376127D01*
X192751801Y-105378529D01*
X192776187Y-105376127D01*
X192799636Y-105369014D01*
X192821247Y-105357463D01*
X192827421Y-105352396D01*
X192834316Y-105347789D01*
X192834320Y-105347785D01*
X192973701Y-105254653D01*
X193128573Y-105190503D01*
X193292985Y-105157800D01*
X193460617Y-105157800D01*
X193625029Y-105190503D01*
X193779901Y-105254653D01*
X193919282Y-105347785D01*
X194037816Y-105466319D01*
X194130948Y-105605700D01*
X194195098Y-105760572D01*
X194227801Y-105924984D01*
X194227801Y-106092616D01*
X194195098Y-106257028D01*
X194130948Y-106411900D01*
X194037816Y-106551281D01*
X193919282Y-106669815D01*
X193779901Y-106762947D01*
X193625029Y-106827097D01*
X193460617Y-106859800D01*
X193292985Y-106859800D01*
X193128573Y-106827097D01*
X192973701Y-106762947D01*
X192834320Y-106669815D01*
X192834316Y-106669811D01*
X192827421Y-106665204D01*
X192821247Y-106660137D01*
X192799636Y-106648586D01*
X192776187Y-106641473D01*
X192751801Y-106639071D01*
X192727415Y-106641473D01*
X192703966Y-106648586D01*
X192682355Y-106660137D01*
X192676181Y-106665204D01*
X192669286Y-106669811D01*
X192669282Y-106669815D01*
X192529901Y-106762947D01*
X192375029Y-106827097D01*
X192210617Y-106859800D01*
X192042985Y-106859800D01*
X191878573Y-106827097D01*
X191723701Y-106762947D01*
X191584320Y-106669815D01*
X191465786Y-106551281D01*
X191372654Y-106411900D01*
X191308504Y-106257028D01*
X191275801Y-106092616D01*
X191275801Y-105924984D01*
X191308504Y-105760572D01*
X191372654Y-105605700D01*
X191465786Y-105466319D01*
X191584320Y-105347785D01*
X191723701Y-105254653D01*
X191878573Y-105190503D01*
X192042985Y-105157800D01*
X192210617Y-105157800D01*
X192375029Y-105190503D01*
X192375029Y-105190503D01*
G37*
G36*
X116058591Y-105703085D02*
X116092569Y-105713393D01*
X116123887Y-105730133D01*
X116151339Y-105752661D01*
X116173867Y-105780113D01*
X116190607Y-105811431D01*
X116200915Y-105845409D01*
X116205000Y-105886890D01*
X116205000Y-106563110D01*
X116200915Y-106604591D01*
X116190607Y-106638569D01*
X116173867Y-106669887D01*
X116151339Y-106697339D01*
X116123887Y-106719867D01*
X116092569Y-106736607D01*
X116058591Y-106746915D01*
X116017110Y-106751000D01*
X115415890Y-106751000D01*
X115374409Y-106746915D01*
X115340431Y-106736607D01*
X115309113Y-106719867D01*
X115281661Y-106697339D01*
X115259133Y-106669887D01*
X115242393Y-106638569D01*
X115232085Y-106604591D01*
X115228000Y-106563110D01*
X115228000Y-105886890D01*
X115232085Y-105845409D01*
X115242393Y-105811431D01*
X115259133Y-105780113D01*
X115281661Y-105752661D01*
X115309113Y-105730133D01*
X115340431Y-105713393D01*
X115374409Y-105703085D01*
X115415890Y-105699000D01*
X116017110Y-105699000D01*
X116058591Y-105703085D01*
X116058591Y-105703085D01*
G37*
G36*
X117633591Y-105703085D02*
X117667569Y-105713393D01*
X117698887Y-105730133D01*
X117726339Y-105752661D01*
X117748867Y-105780113D01*
X117765607Y-105811431D01*
X117775915Y-105845409D01*
X117780000Y-105886890D01*
X117780000Y-106563110D01*
X117775915Y-106604591D01*
X117765607Y-106638569D01*
X117748867Y-106669887D01*
X117726339Y-106697339D01*
X117698887Y-106719867D01*
X117667569Y-106736607D01*
X117633591Y-106746915D01*
X117592110Y-106751000D01*
X116990890Y-106751000D01*
X116949409Y-106746915D01*
X116915431Y-106736607D01*
X116884113Y-106719867D01*
X116856661Y-106697339D01*
X116834133Y-106669887D01*
X116817393Y-106638569D01*
X116807085Y-106604591D01*
X116803000Y-106563110D01*
X116803000Y-105886890D01*
X116807085Y-105845409D01*
X116817393Y-105811431D01*
X116834133Y-105780113D01*
X116856661Y-105752661D01*
X116884113Y-105730133D01*
X116915431Y-105713393D01*
X116949409Y-105703085D01*
X116990890Y-105699000D01*
X117592110Y-105699000D01*
X117633591Y-105703085D01*
X117633591Y-105703085D01*
G37*
G36*
X117633591Y-104306085D02*
X117667569Y-104316393D01*
X117698887Y-104333133D01*
X117726339Y-104355661D01*
X117748867Y-104383113D01*
X117765607Y-104414431D01*
X117775915Y-104448409D01*
X117780000Y-104489890D01*
X117780000Y-105166110D01*
X117775915Y-105207591D01*
X117765607Y-105241569D01*
X117748867Y-105272887D01*
X117726339Y-105300339D01*
X117698887Y-105322867D01*
X117667569Y-105339607D01*
X117633591Y-105349915D01*
X117592110Y-105354000D01*
X116990890Y-105354000D01*
X116949409Y-105349915D01*
X116915431Y-105339607D01*
X116884113Y-105322867D01*
X116856661Y-105300339D01*
X116834133Y-105272887D01*
X116817393Y-105241569D01*
X116807085Y-105207591D01*
X116803000Y-105166110D01*
X116803000Y-104489890D01*
X116807085Y-104448409D01*
X116817393Y-104414431D01*
X116834133Y-104383113D01*
X116856661Y-104355661D01*
X116884113Y-104333133D01*
X116915431Y-104316393D01*
X116949409Y-104306085D01*
X116990890Y-104302000D01*
X117592110Y-104302000D01*
X117633591Y-104306085D01*
X117633591Y-104306085D01*
G37*
G36*
X116058591Y-104306085D02*
X116092569Y-104316393D01*
X116123887Y-104333133D01*
X116151339Y-104355661D01*
X116173867Y-104383113D01*
X116190607Y-104414431D01*
X116200915Y-104448409D01*
X116205000Y-104489890D01*
X116205000Y-105166110D01*
X116200915Y-105207591D01*
X116190607Y-105241569D01*
X116173867Y-105272887D01*
X116151339Y-105300339D01*
X116123887Y-105322867D01*
X116092569Y-105339607D01*
X116058591Y-105349915D01*
X116017110Y-105354000D01*
X115415890Y-105354000D01*
X115374409Y-105349915D01*
X115340431Y-105339607D01*
X115309113Y-105322867D01*
X115281661Y-105300339D01*
X115259133Y-105272887D01*
X115242393Y-105241569D01*
X115232085Y-105207591D01*
X115228000Y-105166110D01*
X115228000Y-104489890D01*
X115232085Y-104448409D01*
X115242393Y-104414431D01*
X115259133Y-104383113D01*
X115281661Y-104355661D01*
X115309113Y-104333133D01*
X115340431Y-104316393D01*
X115374409Y-104306085D01*
X115415890Y-104302000D01*
X116017110Y-104302000D01*
X116058591Y-104306085D01*
X116058591Y-104306085D01*
G37*
G36*
X104608991Y-103414885D02*
X104642969Y-103425193D01*
X104674287Y-103441933D01*
X104701739Y-103464461D01*
X104724267Y-103491913D01*
X104741007Y-103523231D01*
X104751315Y-103557209D01*
X104755400Y-103598690D01*
X104755400Y-104274910D01*
X104751315Y-104316391D01*
X104741007Y-104350369D01*
X104724267Y-104381687D01*
X104701739Y-104409139D01*
X104674287Y-104431667D01*
X104642969Y-104448407D01*
X104608991Y-104458715D01*
X104567510Y-104462800D01*
X103966290Y-104462800D01*
X103924809Y-104458715D01*
X103890831Y-104448407D01*
X103859513Y-104431667D01*
X103832061Y-104409139D01*
X103809533Y-104381687D01*
X103792793Y-104350369D01*
X103782485Y-104316391D01*
X103778400Y-104274910D01*
X103778400Y-103598690D01*
X103782485Y-103557209D01*
X103792793Y-103523231D01*
X103809533Y-103491913D01*
X103832061Y-103464461D01*
X103859513Y-103441933D01*
X103890831Y-103425193D01*
X103924809Y-103414885D01*
X103966290Y-103410800D01*
X104567510Y-103410800D01*
X104608991Y-103414885D01*
X104608991Y-103414885D01*
G37*
G36*
X106183991Y-103414885D02*
X106217969Y-103425193D01*
X106249287Y-103441933D01*
X106276739Y-103464461D01*
X106299267Y-103491913D01*
X106316007Y-103523231D01*
X106326315Y-103557209D01*
X106330400Y-103598690D01*
X106330400Y-104274910D01*
X106326315Y-104316391D01*
X106316007Y-104350369D01*
X106299267Y-104381687D01*
X106276739Y-104409139D01*
X106249287Y-104431667D01*
X106217969Y-104448407D01*
X106183991Y-104458715D01*
X106142510Y-104462800D01*
X105541290Y-104462800D01*
X105499809Y-104458715D01*
X105465831Y-104448407D01*
X105434513Y-104431667D01*
X105407061Y-104409139D01*
X105384533Y-104381687D01*
X105367793Y-104350369D01*
X105357485Y-104316391D01*
X105353400Y-104274910D01*
X105353400Y-103598690D01*
X105357485Y-103557209D01*
X105367793Y-103523231D01*
X105384533Y-103491913D01*
X105407061Y-103464461D01*
X105434513Y-103441933D01*
X105465831Y-103425193D01*
X105499809Y-103414885D01*
X105541290Y-103410800D01*
X106142510Y-103410800D01*
X106183991Y-103414885D01*
X106183991Y-103414885D01*
G37*
G36*
X106183991Y-102094085D02*
X106217969Y-102104393D01*
X106249287Y-102121133D01*
X106276739Y-102143661D01*
X106299267Y-102171113D01*
X106316007Y-102202431D01*
X106326315Y-102236409D01*
X106330400Y-102277890D01*
X106330400Y-102954110D01*
X106326315Y-102995591D01*
X106316007Y-103029569D01*
X106299267Y-103060887D01*
X106276739Y-103088339D01*
X106249287Y-103110867D01*
X106217969Y-103127607D01*
X106183991Y-103137915D01*
X106142510Y-103142000D01*
X105541290Y-103142000D01*
X105499809Y-103137915D01*
X105465831Y-103127607D01*
X105434513Y-103110867D01*
X105407061Y-103088339D01*
X105384533Y-103060887D01*
X105367793Y-103029569D01*
X105357485Y-102995591D01*
X105353400Y-102954110D01*
X105353400Y-102277890D01*
X105357485Y-102236409D01*
X105367793Y-102202431D01*
X105384533Y-102171113D01*
X105407061Y-102143661D01*
X105434513Y-102121133D01*
X105465831Y-102104393D01*
X105499809Y-102094085D01*
X105541290Y-102090000D01*
X106142510Y-102090000D01*
X106183991Y-102094085D01*
X106183991Y-102094085D01*
G37*
G36*
X104608991Y-102094085D02*
X104642969Y-102104393D01*
X104674287Y-102121133D01*
X104701739Y-102143661D01*
X104724267Y-102171113D01*
X104741007Y-102202431D01*
X104751315Y-102236409D01*
X104755400Y-102277890D01*
X104755400Y-102954110D01*
X104751315Y-102995591D01*
X104741007Y-103029569D01*
X104724267Y-103060887D01*
X104701739Y-103088339D01*
X104674287Y-103110867D01*
X104642969Y-103127607D01*
X104608991Y-103137915D01*
X104567510Y-103142000D01*
X103966290Y-103142000D01*
X103924809Y-103137915D01*
X103890831Y-103127607D01*
X103859513Y-103110867D01*
X103832061Y-103088339D01*
X103809533Y-103060887D01*
X103792793Y-103029569D01*
X103782485Y-102995591D01*
X103778400Y-102954110D01*
X103778400Y-102277890D01*
X103782485Y-102236409D01*
X103792793Y-102202431D01*
X103809533Y-102171113D01*
X103832061Y-102143661D01*
X103859513Y-102121133D01*
X103890831Y-102104393D01*
X103924809Y-102094085D01*
X103966290Y-102090000D01*
X104567510Y-102090000D01*
X104608991Y-102094085D01*
X104608991Y-102094085D01*
G37*
G36*
X106183991Y-100773285D02*
X106217969Y-100783593D01*
X106249287Y-100800333D01*
X106276739Y-100822861D01*
X106299267Y-100850313D01*
X106316007Y-100881631D01*
X106326315Y-100915609D01*
X106330400Y-100957090D01*
X106330400Y-101633310D01*
X106326315Y-101674791D01*
X106316007Y-101708769D01*
X106299267Y-101740087D01*
X106276739Y-101767539D01*
X106249287Y-101790067D01*
X106217969Y-101806807D01*
X106183991Y-101817115D01*
X106142510Y-101821200D01*
X105541290Y-101821200D01*
X105499809Y-101817115D01*
X105465831Y-101806807D01*
X105434513Y-101790067D01*
X105407061Y-101767539D01*
X105384533Y-101740087D01*
X105367793Y-101708769D01*
X105357485Y-101674791D01*
X105353400Y-101633310D01*
X105353400Y-100957090D01*
X105357485Y-100915609D01*
X105367793Y-100881631D01*
X105384533Y-100850313D01*
X105407061Y-100822861D01*
X105434513Y-100800333D01*
X105465831Y-100783593D01*
X105499809Y-100773285D01*
X105541290Y-100769200D01*
X106142510Y-100769200D01*
X106183991Y-100773285D01*
X106183991Y-100773285D01*
G37*
G36*
X104608991Y-100773285D02*
X104642969Y-100783593D01*
X104674287Y-100800333D01*
X104701739Y-100822861D01*
X104724267Y-100850313D01*
X104741007Y-100881631D01*
X104751315Y-100915609D01*
X104755400Y-100957090D01*
X104755400Y-101633310D01*
X104751315Y-101674791D01*
X104741007Y-101708769D01*
X104724267Y-101740087D01*
X104701739Y-101767539D01*
X104674287Y-101790067D01*
X104642969Y-101806807D01*
X104608991Y-101817115D01*
X104567510Y-101821200D01*
X103966290Y-101821200D01*
X103924809Y-101817115D01*
X103890831Y-101806807D01*
X103859513Y-101790067D01*
X103832061Y-101767539D01*
X103809533Y-101740087D01*
X103792793Y-101708769D01*
X103782485Y-101674791D01*
X103778400Y-101633310D01*
X103778400Y-100957090D01*
X103782485Y-100915609D01*
X103792793Y-100881631D01*
X103809533Y-100850313D01*
X103832061Y-100822861D01*
X103859513Y-100800333D01*
X103890831Y-100783593D01*
X103924809Y-100773285D01*
X103966290Y-100769200D01*
X104567510Y-100769200D01*
X104608991Y-100773285D01*
X104608991Y-100773285D01*
G37*
G36*
X115659391Y-100678085D02*
X115693369Y-100688393D01*
X115724687Y-100705133D01*
X115752139Y-100727661D01*
X115774667Y-100755113D01*
X115791407Y-100786431D01*
X115801715Y-100820409D01*
X115805800Y-100861890D01*
X115805800Y-101538110D01*
X115801715Y-101579591D01*
X115791407Y-101613569D01*
X115774667Y-101644887D01*
X115752139Y-101672339D01*
X115724687Y-101694867D01*
X115693369Y-101711607D01*
X115659391Y-101721915D01*
X115617910Y-101726000D01*
X115016690Y-101726000D01*
X114975209Y-101721915D01*
X114941231Y-101711607D01*
X114909913Y-101694867D01*
X114882461Y-101672339D01*
X114859933Y-101644887D01*
X114843193Y-101613569D01*
X114832885Y-101579591D01*
X114828800Y-101538110D01*
X114828800Y-100861890D01*
X114832885Y-100820409D01*
X114843193Y-100786431D01*
X114859933Y-100755113D01*
X114882461Y-100727661D01*
X114909913Y-100705133D01*
X114941231Y-100688393D01*
X114975209Y-100678085D01*
X115016690Y-100674000D01*
X115617910Y-100674000D01*
X115659391Y-100678085D01*
X115659391Y-100678085D01*
G37*
G36*
X117234391Y-100678085D02*
X117268369Y-100688393D01*
X117299687Y-100705133D01*
X117327139Y-100727661D01*
X117349667Y-100755113D01*
X117366407Y-100786431D01*
X117376715Y-100820409D01*
X117380800Y-100861890D01*
X117380800Y-101538110D01*
X117376715Y-101579591D01*
X117366407Y-101613569D01*
X117349667Y-101644887D01*
X117327139Y-101672339D01*
X117299687Y-101694867D01*
X117268369Y-101711607D01*
X117234391Y-101721915D01*
X117192910Y-101726000D01*
X116591690Y-101726000D01*
X116550209Y-101721915D01*
X116516231Y-101711607D01*
X116484913Y-101694867D01*
X116457461Y-101672339D01*
X116434933Y-101644887D01*
X116418193Y-101613569D01*
X116407885Y-101579591D01*
X116403800Y-101538110D01*
X116403800Y-100861890D01*
X116407885Y-100820409D01*
X116418193Y-100786431D01*
X116434933Y-100755113D01*
X116457461Y-100727661D01*
X116484913Y-100705133D01*
X116516231Y-100688393D01*
X116550209Y-100678085D01*
X116591690Y-100674000D01*
X117192910Y-100674000D01*
X117234391Y-100678085D01*
X117234391Y-100678085D01*
G37*
G36*
X120103191Y-100671685D02*
X120137169Y-100681993D01*
X120168487Y-100698733D01*
X120195939Y-100721261D01*
X120218467Y-100748713D01*
X120235207Y-100780031D01*
X120245515Y-100814009D01*
X120249600Y-100855490D01*
X120249600Y-101531710D01*
X120245515Y-101573191D01*
X120235207Y-101607169D01*
X120218467Y-101638487D01*
X120195939Y-101665939D01*
X120168487Y-101688467D01*
X120137169Y-101705207D01*
X120103191Y-101715515D01*
X120061710Y-101719600D01*
X119460490Y-101719600D01*
X119419009Y-101715515D01*
X119385031Y-101705207D01*
X119353713Y-101688467D01*
X119326261Y-101665939D01*
X119303733Y-101638487D01*
X119286993Y-101607169D01*
X119276685Y-101573191D01*
X119272600Y-101531710D01*
X119272600Y-100855490D01*
X119276685Y-100814009D01*
X119286993Y-100780031D01*
X119303733Y-100748713D01*
X119326261Y-100721261D01*
X119353713Y-100698733D01*
X119385031Y-100681993D01*
X119419009Y-100671685D01*
X119460490Y-100667600D01*
X120061710Y-100667600D01*
X120103191Y-100671685D01*
X120103191Y-100671685D01*
G37*
G36*
X118528191Y-100671685D02*
X118562169Y-100681993D01*
X118593487Y-100698733D01*
X118620939Y-100721261D01*
X118643467Y-100748713D01*
X118660207Y-100780031D01*
X118670515Y-100814009D01*
X118674600Y-100855490D01*
X118674600Y-101531710D01*
X118670515Y-101573191D01*
X118660207Y-101607169D01*
X118643467Y-101638487D01*
X118620939Y-101665939D01*
X118593487Y-101688467D01*
X118562169Y-101705207D01*
X118528191Y-101715515D01*
X118486710Y-101719600D01*
X117885490Y-101719600D01*
X117844009Y-101715515D01*
X117810031Y-101705207D01*
X117778713Y-101688467D01*
X117751261Y-101665939D01*
X117728733Y-101638487D01*
X117711993Y-101607169D01*
X117701685Y-101573191D01*
X117697600Y-101531710D01*
X117697600Y-100855490D01*
X117701685Y-100814009D01*
X117711993Y-100780031D01*
X117728733Y-100748713D01*
X117751261Y-100721261D01*
X117778713Y-100698733D01*
X117810031Y-100681993D01*
X117844009Y-100671685D01*
X117885490Y-100667600D01*
X118486710Y-100667600D01*
X118528191Y-100671685D01*
X118528191Y-100671685D01*
G37*
G36*
X107030800Y-100381000D02*
X104378800Y-100381000D01*
X104378800Y-99219000D01*
X107030800Y-99219000D01*
X107030800Y-100381000D01*
X107030800Y-100381000D01*
G37*
G36*
X183625028Y-98490503D02*
X183779900Y-98554653D01*
X183919281Y-98647785D01*
X183919285Y-98647789D01*
X183926180Y-98652396D01*
X183932354Y-98657463D01*
X183953965Y-98669014D01*
X183977414Y-98676127D01*
X184001800Y-98678529D01*
X184026186Y-98676127D01*
X184049635Y-98669014D01*
X184071246Y-98657463D01*
X184077420Y-98652396D01*
X184084315Y-98647789D01*
X184084319Y-98647785D01*
X184223700Y-98554653D01*
X184378572Y-98490503D01*
X184542984Y-98457800D01*
X184710616Y-98457800D01*
X184875028Y-98490503D01*
X185029900Y-98554653D01*
X185169281Y-98647785D01*
X185287815Y-98766319D01*
X185380947Y-98905700D01*
X185445097Y-99060572D01*
X185477800Y-99224984D01*
X185477800Y-99392616D01*
X185445097Y-99557028D01*
X185380947Y-99711900D01*
X185287815Y-99851281D01*
X185169281Y-99969815D01*
X185029900Y-100062947D01*
X184875028Y-100127097D01*
X184710616Y-100159800D01*
X184542984Y-100159800D01*
X184378572Y-100127097D01*
X184223700Y-100062947D01*
X184084319Y-99969815D01*
X184084315Y-99969811D01*
X184077420Y-99965204D01*
X184071246Y-99960137D01*
X184049635Y-99948586D01*
X184026186Y-99941473D01*
X184001800Y-99939071D01*
X183977414Y-99941473D01*
X183953965Y-99948586D01*
X183932354Y-99960137D01*
X183926180Y-99965204D01*
X183919285Y-99969811D01*
X183919281Y-99969815D01*
X183779900Y-100062947D01*
X183625028Y-100127097D01*
X183460616Y-100159800D01*
X183292984Y-100159800D01*
X183128572Y-100127097D01*
X182973700Y-100062947D01*
X182834319Y-99969815D01*
X182715785Y-99851281D01*
X182622653Y-99711900D01*
X182558503Y-99557028D01*
X182525800Y-99392616D01*
X182525800Y-99224984D01*
X182558503Y-99060572D01*
X182622653Y-98905700D01*
X182715785Y-98766319D01*
X182834319Y-98647785D01*
X182973700Y-98554653D01*
X183128572Y-98490503D01*
X183292984Y-98457800D01*
X183460616Y-98457800D01*
X183625028Y-98490503D01*
X183625028Y-98490503D01*
G37*
G36*
X192375028Y-98490503D02*
X192529900Y-98554653D01*
X192669281Y-98647785D01*
X192669285Y-98647789D01*
X192676180Y-98652396D01*
X192682354Y-98657463D01*
X192703965Y-98669014D01*
X192727414Y-98676127D01*
X192751800Y-98678529D01*
X192776186Y-98676127D01*
X192799635Y-98669014D01*
X192821246Y-98657463D01*
X192827420Y-98652396D01*
X192834315Y-98647789D01*
X192834319Y-98647785D01*
X192973700Y-98554653D01*
X193128572Y-98490503D01*
X193292984Y-98457800D01*
X193460616Y-98457800D01*
X193625028Y-98490503D01*
X193779900Y-98554653D01*
X193919281Y-98647785D01*
X194037815Y-98766319D01*
X194130947Y-98905700D01*
X194195097Y-99060572D01*
X194227800Y-99224984D01*
X194227800Y-99392616D01*
X194195097Y-99557028D01*
X194130947Y-99711900D01*
X194037815Y-99851281D01*
X193919281Y-99969815D01*
X193779900Y-100062947D01*
X193625028Y-100127097D01*
X193460616Y-100159800D01*
X193292984Y-100159800D01*
X193128572Y-100127097D01*
X192973700Y-100062947D01*
X192834319Y-99969815D01*
X192834315Y-99969811D01*
X192827420Y-99965204D01*
X192821246Y-99960137D01*
X192799635Y-99948586D01*
X192776186Y-99941473D01*
X192751800Y-99939071D01*
X192727414Y-99941473D01*
X192703965Y-99948586D01*
X192682354Y-99960137D01*
X192676180Y-99965204D01*
X192669285Y-99969811D01*
X192669281Y-99969815D01*
X192529900Y-100062947D01*
X192375028Y-100127097D01*
X192210616Y-100159800D01*
X192042984Y-100159800D01*
X191878572Y-100127097D01*
X191723700Y-100062947D01*
X191584319Y-99969815D01*
X191465785Y-99851281D01*
X191372653Y-99711900D01*
X191308503Y-99557028D01*
X191275800Y-99392616D01*
X191275800Y-99224984D01*
X191308503Y-99060572D01*
X191372653Y-98905700D01*
X191465785Y-98766319D01*
X191584319Y-98647785D01*
X191723700Y-98554653D01*
X191878572Y-98490503D01*
X192042984Y-98457800D01*
X192210616Y-98457800D01*
X192375028Y-98490503D01*
X192375028Y-98490503D01*
G37*
G36*
X115066600Y-100030400D02*
X113904600Y-100030400D01*
X113904600Y-99278400D01*
X115066600Y-99278400D01*
X115066600Y-100030400D01*
X115066600Y-100030400D01*
G37*
G36*
X112866600Y-100030400D02*
X111704600Y-100030400D01*
X111704600Y-97378400D01*
X112866600Y-97378400D01*
X112866600Y-100030400D01*
X112866600Y-100030400D01*
G37*
G36*
X117305800Y-99994500D02*
X116143800Y-99994500D01*
X116143800Y-99242500D01*
X117305800Y-99242500D01*
X117305800Y-99994500D01*
X117305800Y-99994500D01*
G37*
G36*
X119505800Y-99994500D02*
X118343800Y-99994500D01*
X118343800Y-97342500D01*
X119505800Y-97342500D01*
X119505800Y-99994500D01*
X119505800Y-99994500D01*
G37*
G36*
X109899311Y-98880485D02*
X109933289Y-98890793D01*
X109964607Y-98907533D01*
X109992059Y-98930061D01*
X110014587Y-98957513D01*
X110031327Y-98988831D01*
X110041635Y-99022809D01*
X110045720Y-99064290D01*
X110045720Y-99665510D01*
X110041635Y-99706991D01*
X110031327Y-99740969D01*
X110014587Y-99772287D01*
X109992059Y-99799739D01*
X109964607Y-99822267D01*
X109933289Y-99839007D01*
X109899311Y-99849315D01*
X109857830Y-99853400D01*
X109181610Y-99853400D01*
X109140129Y-99849315D01*
X109106151Y-99839007D01*
X109074833Y-99822267D01*
X109047381Y-99799739D01*
X109024853Y-99772287D01*
X109008113Y-99740969D01*
X108997805Y-99706991D01*
X108993720Y-99665510D01*
X108993720Y-99064290D01*
X108997805Y-99022809D01*
X109008113Y-98988831D01*
X109024853Y-98957513D01*
X109047381Y-98930061D01*
X109074833Y-98907533D01*
X109106151Y-98890793D01*
X109140129Y-98880485D01*
X109181610Y-98876400D01*
X109857830Y-98876400D01*
X109899311Y-98880485D01*
X109899311Y-98880485D01*
G37*
G36*
X109899311Y-97305485D02*
X109933289Y-97315793D01*
X109964607Y-97332533D01*
X109992059Y-97355061D01*
X110014587Y-97382513D01*
X110031327Y-97413831D01*
X110041635Y-97447809D01*
X110045720Y-97489290D01*
X110045720Y-98090510D01*
X110041635Y-98131991D01*
X110031327Y-98165969D01*
X110014587Y-98197287D01*
X109992059Y-98224739D01*
X109964607Y-98247267D01*
X109933289Y-98264007D01*
X109899311Y-98274315D01*
X109857830Y-98278400D01*
X109181610Y-98278400D01*
X109140129Y-98274315D01*
X109106151Y-98264007D01*
X109074833Y-98247267D01*
X109047381Y-98224739D01*
X109024853Y-98197287D01*
X109008113Y-98165969D01*
X108997805Y-98131991D01*
X108993720Y-98090510D01*
X108993720Y-97489290D01*
X108997805Y-97447809D01*
X109008113Y-97413831D01*
X109024853Y-97382513D01*
X109047381Y-97355061D01*
X109074833Y-97332533D01*
X109106151Y-97315793D01*
X109140129Y-97305485D01*
X109181610Y-97301400D01*
X109857830Y-97301400D01*
X109899311Y-97305485D01*
X109899311Y-97305485D01*
G37*
G36*
X107030800Y-98181000D02*
X104378800Y-98181000D01*
X104378800Y-97019000D01*
X107030800Y-97019000D01*
X107030800Y-98181000D01*
X107030800Y-98181000D01*
G37*
G36*
X115066600Y-98130400D02*
X113904600Y-98130400D01*
X113904600Y-97378400D01*
X115066600Y-97378400D01*
X115066600Y-98130400D01*
X115066600Y-98130400D01*
G37*
G36*
X117305800Y-98094500D02*
X116143800Y-98094500D01*
X116143800Y-97342500D01*
X117305800Y-97342500D01*
X117305800Y-98094500D01*
X117305800Y-98094500D01*
G37*
G36*
X183625028Y-91690503D02*
X183779900Y-91754653D01*
X183919281Y-91847785D01*
X183919285Y-91847789D01*
X183926180Y-91852396D01*
X183932354Y-91857463D01*
X183953965Y-91869014D01*
X183977414Y-91876127D01*
X184001800Y-91878529D01*
X184026186Y-91876127D01*
X184049635Y-91869014D01*
X184071246Y-91857463D01*
X184077420Y-91852396D01*
X184084315Y-91847789D01*
X184084319Y-91847785D01*
X184223700Y-91754653D01*
X184378572Y-91690503D01*
X184542984Y-91657800D01*
X184710616Y-91657800D01*
X184875028Y-91690503D01*
X185029900Y-91754653D01*
X185169281Y-91847785D01*
X185287815Y-91966319D01*
X185380947Y-92105700D01*
X185445097Y-92260572D01*
X185477800Y-92424984D01*
X185477800Y-92592616D01*
X185445097Y-92757028D01*
X185380947Y-92911900D01*
X185287815Y-93051281D01*
X185169281Y-93169815D01*
X185029900Y-93262947D01*
X184875028Y-93327097D01*
X184710616Y-93359800D01*
X184542984Y-93359800D01*
X184378572Y-93327097D01*
X184223700Y-93262947D01*
X184084319Y-93169815D01*
X184084315Y-93169811D01*
X184077420Y-93165204D01*
X184071246Y-93160137D01*
X184049635Y-93148586D01*
X184026186Y-93141473D01*
X184001800Y-93139071D01*
X183977414Y-93141473D01*
X183953965Y-93148586D01*
X183932354Y-93160137D01*
X183926180Y-93165204D01*
X183919285Y-93169811D01*
X183919281Y-93169815D01*
X183779900Y-93262947D01*
X183625028Y-93327097D01*
X183460616Y-93359800D01*
X183292984Y-93359800D01*
X183128572Y-93327097D01*
X182973700Y-93262947D01*
X182834319Y-93169815D01*
X182715785Y-93051281D01*
X182622653Y-92911900D01*
X182558503Y-92757028D01*
X182525800Y-92592616D01*
X182525800Y-92424984D01*
X182558503Y-92260572D01*
X182622653Y-92105700D01*
X182715785Y-91966319D01*
X182834319Y-91847785D01*
X182973700Y-91754653D01*
X183128572Y-91690503D01*
X183292984Y-91657800D01*
X183460616Y-91657800D01*
X183625028Y-91690503D01*
X183625028Y-91690503D01*
G37*
G36*
X192375028Y-91690503D02*
X192529900Y-91754653D01*
X192669281Y-91847785D01*
X192669285Y-91847789D01*
X192676180Y-91852396D01*
X192682354Y-91857463D01*
X192703965Y-91869014D01*
X192727414Y-91876127D01*
X192751800Y-91878529D01*
X192776186Y-91876127D01*
X192799635Y-91869014D01*
X192821246Y-91857463D01*
X192827420Y-91852396D01*
X192834315Y-91847789D01*
X192834319Y-91847785D01*
X192973700Y-91754653D01*
X193128572Y-91690503D01*
X193292984Y-91657800D01*
X193460616Y-91657800D01*
X193625028Y-91690503D01*
X193779900Y-91754653D01*
X193919281Y-91847785D01*
X194037815Y-91966319D01*
X194130947Y-92105700D01*
X194195097Y-92260572D01*
X194227800Y-92424984D01*
X194227800Y-92592616D01*
X194195097Y-92757028D01*
X194130947Y-92911900D01*
X194037815Y-93051281D01*
X193919281Y-93169815D01*
X193779900Y-93262947D01*
X193625028Y-93327097D01*
X193460616Y-93359800D01*
X193292984Y-93359800D01*
X193128572Y-93327097D01*
X192973700Y-93262947D01*
X192834319Y-93169815D01*
X192834315Y-93169811D01*
X192827420Y-93165204D01*
X192821246Y-93160137D01*
X192799635Y-93148586D01*
X192776186Y-93141473D01*
X192751800Y-93139071D01*
X192727414Y-93141473D01*
X192703965Y-93148586D01*
X192682354Y-93160137D01*
X192676180Y-93165204D01*
X192669285Y-93169811D01*
X192669281Y-93169815D01*
X192529900Y-93262947D01*
X192375028Y-93327097D01*
X192210616Y-93359800D01*
X192042984Y-93359800D01*
X191878572Y-93327097D01*
X191723700Y-93262947D01*
X191584319Y-93169815D01*
X191465785Y-93051281D01*
X191372653Y-92911900D01*
X191308503Y-92757028D01*
X191275800Y-92592616D01*
X191275800Y-92424984D01*
X191308503Y-92260572D01*
X191372653Y-92105700D01*
X191465785Y-91966319D01*
X191584319Y-91847785D01*
X191723700Y-91754653D01*
X191878572Y-91690503D01*
X192042984Y-91657800D01*
X192210616Y-91657800D01*
X192375028Y-91690503D01*
X192375028Y-91690503D01*
G37*
G36*
X103658000Y-92551000D02*
X102506000Y-92551000D01*
X102506000Y-91049000D01*
X103658000Y-91049000D01*
X103658000Y-92551000D01*
X103658000Y-92551000D01*
G37*
G36*
X102218000Y-92551000D02*
X101066000Y-92551000D01*
X101066000Y-91049000D01*
X102218000Y-91049000D01*
X102218000Y-92551000D01*
X102218000Y-92551000D01*
G37*
G36*
X103327319Y-89604137D02*
X103378967Y-89614410D01*
X103451945Y-89644639D01*
X103517625Y-89688525D01*
X103573475Y-89744375D01*
X103573477Y-89744378D01*
X103617361Y-89810055D01*
X103647590Y-89883033D01*
X103663000Y-89960505D01*
X103663000Y-90039495D01*
X103647590Y-90116967D01*
X103617361Y-90189945D01*
X103573475Y-90255625D01*
X103517625Y-90311475D01*
X103517622Y-90311477D01*
X103451945Y-90355361D01*
X103378967Y-90385590D01*
X103327319Y-90395863D01*
X103301496Y-90401000D01*
X103222504Y-90401000D01*
X103196681Y-90395863D01*
X103145033Y-90385590D01*
X103072055Y-90355361D01*
X103006378Y-90311477D01*
X103006375Y-90311475D01*
X102950525Y-90255625D01*
X102906639Y-90189945D01*
X102876410Y-90116967D01*
X102861000Y-90039495D01*
X102861000Y-89960505D01*
X102876410Y-89883033D01*
X102906639Y-89810055D01*
X102950523Y-89744378D01*
X102950525Y-89744375D01*
X103006375Y-89688525D01*
X103072055Y-89644639D01*
X103145033Y-89614410D01*
X103196681Y-89604137D01*
X103222504Y-89599000D01*
X103301496Y-89599000D01*
X103327319Y-89604137D01*
X103327319Y-89604137D01*
G37*
G36*
X101527319Y-89604137D02*
X101578967Y-89614410D01*
X101651945Y-89644639D01*
X101717625Y-89688525D01*
X101773475Y-89744375D01*
X101773477Y-89744378D01*
X101817361Y-89810055D01*
X101847590Y-89883033D01*
X101863000Y-89960505D01*
X101863000Y-90039495D01*
X101847590Y-90116967D01*
X101817361Y-90189945D01*
X101773475Y-90255625D01*
X101717625Y-90311475D01*
X101717622Y-90311477D01*
X101651945Y-90355361D01*
X101578967Y-90385590D01*
X101527319Y-90395863D01*
X101501496Y-90401000D01*
X101422504Y-90401000D01*
X101396681Y-90395863D01*
X101345033Y-90385590D01*
X101272055Y-90355361D01*
X101206378Y-90311477D01*
X101206375Y-90311475D01*
X101150525Y-90255625D01*
X101106639Y-90189945D01*
X101076410Y-90116967D01*
X101061000Y-90039495D01*
X101061000Y-89960505D01*
X101076410Y-89883033D01*
X101106639Y-89810055D01*
X101150523Y-89744378D01*
X101150525Y-89744375D01*
X101206375Y-89688525D01*
X101272055Y-89644639D01*
X101345033Y-89614410D01*
X101396681Y-89604137D01*
X101422504Y-89599000D01*
X101501496Y-89599000D01*
X101527319Y-89604137D01*
X101527319Y-89604137D01*
G37*
G36*
X102218000Y-88951000D02*
X101066000Y-88951000D01*
X101066000Y-87449000D01*
X102218000Y-87449000D01*
X102218000Y-88951000D01*
X102218000Y-88951000D01*
G37*
G36*
X103658000Y-88951000D02*
X102506000Y-88951000D01*
X102506000Y-87449000D01*
X103658000Y-87449000D01*
X103658000Y-88951000D01*
X103658000Y-88951000D01*
G37*
G36*
X192889941Y-80816248D02*
X192889943Y-80816249D01*
X192889944Y-80816249D01*
X193445190Y-81046239D01*
X193445191Y-81046240D01*
X193944902Y-81380136D01*
X194369864Y-81805098D01*
X194369866Y-81805101D01*
X194703761Y-82304810D01*
X194933751Y-82860056D01*
X194933752Y-82860059D01*
X195051000Y-83449501D01*
X195051000Y-84050499D01*
X194934218Y-84637600D01*
X194933751Y-84639944D01*
X194703761Y-85195190D01*
X194703760Y-85195191D01*
X194369864Y-85694902D01*
X193944902Y-86119864D01*
X193944899Y-86119866D01*
X193445190Y-86453761D01*
X192889944Y-86683751D01*
X192889943Y-86683751D01*
X192889941Y-86683752D01*
X192300499Y-86801000D01*
X191699501Y-86801000D01*
X191110059Y-86683752D01*
X191110057Y-86683751D01*
X191110056Y-86683751D01*
X190554810Y-86453761D01*
X190055101Y-86119866D01*
X190055098Y-86119864D01*
X189630136Y-85694902D01*
X189296240Y-85195191D01*
X189296239Y-85195190D01*
X189066249Y-84639944D01*
X189065783Y-84637600D01*
X188949000Y-84050499D01*
X188949000Y-83449501D01*
X189066248Y-82860059D01*
X189066249Y-82860056D01*
X189296239Y-82304810D01*
X189630134Y-81805101D01*
X189630136Y-81805098D01*
X190055098Y-81380136D01*
X190554809Y-81046240D01*
X190554810Y-81046239D01*
X191110056Y-80816249D01*
X191110057Y-80816249D01*
X191110059Y-80816248D01*
X191699501Y-80699000D01*
X192300499Y-80699000D01*
X192889941Y-80816248D01*
X192889941Y-80816248D01*
G37*
G36*
X107820015Y-75146973D02*
X107923879Y-75178479D01*
X108019600Y-75229644D01*
X108103501Y-75298499D01*
X108172356Y-75382400D01*
X108223521Y-75478121D01*
X108255027Y-75581985D01*
X108265666Y-75690000D01*
X108255027Y-75798015D01*
X108223521Y-75901879D01*
X108172356Y-75997600D01*
X108103501Y-76081501D01*
X108019600Y-76150356D01*
X107923879Y-76201521D01*
X107881466Y-76214386D01*
X107858838Y-76223760D01*
X107838463Y-76237373D01*
X107821136Y-76254700D01*
X107807522Y-76275075D01*
X107798145Y-76297714D01*
X107793364Y-76321747D01*
X107793364Y-76346252D01*
X107798144Y-76370285D01*
X107807522Y-76392924D01*
X107821135Y-76413299D01*
X107838462Y-76430626D01*
X107858837Y-76444240D01*
X107881476Y-76453617D01*
X107905509Y-76458398D01*
X107917762Y-76459000D01*
X108853000Y-76459000D01*
X108853000Y-83561000D01*
X107917762Y-83561000D01*
X107893376Y-83563402D01*
X107869927Y-83570515D01*
X107848316Y-83582066D01*
X107829374Y-83597612D01*
X107813828Y-83616554D01*
X107802277Y-83638165D01*
X107795164Y-83661614D01*
X107792762Y-83686000D01*
X107795164Y-83710386D01*
X107802277Y-83733835D01*
X107813828Y-83755446D01*
X107829374Y-83774388D01*
X107848316Y-83789934D01*
X107869927Y-83801485D01*
X107881455Y-83805610D01*
X107923879Y-83818479D01*
X108019600Y-83869644D01*
X108103501Y-83938499D01*
X108172356Y-84022400D01*
X108223521Y-84118121D01*
X108255027Y-84221985D01*
X108265666Y-84330000D01*
X108255027Y-84438015D01*
X108223521Y-84541879D01*
X108172356Y-84637600D01*
X108103501Y-84721501D01*
X108019600Y-84790356D01*
X107923879Y-84841521D01*
X107820015Y-84873027D01*
X107739067Y-84881000D01*
X106584933Y-84881000D01*
X106503985Y-84873027D01*
X106400121Y-84841521D01*
X106304400Y-84790356D01*
X106220499Y-84721501D01*
X106151644Y-84637600D01*
X106100479Y-84541879D01*
X106068973Y-84438015D01*
X106058334Y-84330000D01*
X106068973Y-84221985D01*
X106100479Y-84118121D01*
X106151644Y-84022400D01*
X106220499Y-83938499D01*
X106304400Y-83869644D01*
X106400121Y-83818479D01*
X106503985Y-83786973D01*
X106584933Y-83779000D01*
X107176000Y-83779000D01*
X107200386Y-83776598D01*
X107223835Y-83769485D01*
X107245446Y-83757934D01*
X107264388Y-83742388D01*
X107279934Y-83723446D01*
X107291485Y-83701835D01*
X107298598Y-83678386D01*
X107301000Y-83654000D01*
X107301000Y-76366000D01*
X107298598Y-76341614D01*
X107291485Y-76318165D01*
X107279934Y-76296554D01*
X107264388Y-76277612D01*
X107245446Y-76262066D01*
X107223835Y-76250515D01*
X107200386Y-76243402D01*
X107176000Y-76241000D01*
X106584933Y-76241000D01*
X106503985Y-76233027D01*
X106400121Y-76201521D01*
X106304400Y-76150356D01*
X106220499Y-76081501D01*
X106151644Y-75997600D01*
X106100479Y-75901879D01*
X106068973Y-75798015D01*
X106058334Y-75690000D01*
X106068973Y-75581985D01*
X106100479Y-75478121D01*
X106151644Y-75382400D01*
X106220499Y-75298499D01*
X106304400Y-75229644D01*
X106400121Y-75178479D01*
X106503985Y-75146973D01*
X106584933Y-75139000D01*
X107739067Y-75139000D01*
X107820015Y-75146973D01*
X107820015Y-75146973D01*
G37*
G36*
X103390015Y-83786973D02*
X103493879Y-83818479D01*
X103589600Y-83869644D01*
X103673501Y-83938499D01*
X103742356Y-84022400D01*
X103793521Y-84118121D01*
X103825027Y-84221985D01*
X103835666Y-84330000D01*
X103825027Y-84438015D01*
X103793521Y-84541879D01*
X103742356Y-84637600D01*
X103673501Y-84721501D01*
X103589600Y-84790356D01*
X103493879Y-84841521D01*
X103390015Y-84873027D01*
X103309067Y-84881000D01*
X102654933Y-84881000D01*
X102573985Y-84873027D01*
X102470121Y-84841521D01*
X102374400Y-84790356D01*
X102290499Y-84721501D01*
X102221644Y-84637600D01*
X102170479Y-84541879D01*
X102138973Y-84438015D01*
X102128334Y-84330000D01*
X102138973Y-84221985D01*
X102170479Y-84118121D01*
X102221644Y-84022400D01*
X102290499Y-83938499D01*
X102374400Y-83869644D01*
X102470121Y-83818479D01*
X102573985Y-83786973D01*
X102654933Y-83779000D01*
X103309067Y-83779000D01*
X103390015Y-83786973D01*
X103390015Y-83786973D01*
G37*
G36*
X106741672Y-82538449D02*
X106741674Y-82538450D01*
X106741675Y-82538450D01*
X106810103Y-82566793D01*
X106871409Y-82607757D01*
X106871689Y-82607944D01*
X106924056Y-82660311D01*
X106924058Y-82660314D01*
X106965207Y-82721897D01*
X106993550Y-82790325D01*
X107008000Y-82862967D01*
X107008000Y-82937033D01*
X106993550Y-83009675D01*
X106965207Y-83078103D01*
X106924243Y-83139409D01*
X106924056Y-83139689D01*
X106871689Y-83192056D01*
X106871686Y-83192058D01*
X106810103Y-83233207D01*
X106741675Y-83261550D01*
X106741674Y-83261550D01*
X106741672Y-83261551D01*
X106669034Y-83276000D01*
X106594966Y-83276000D01*
X106522328Y-83261551D01*
X106522326Y-83261550D01*
X106522325Y-83261550D01*
X106453897Y-83233207D01*
X106392314Y-83192058D01*
X106392311Y-83192056D01*
X106339944Y-83139689D01*
X106339757Y-83139409D01*
X106298793Y-83078103D01*
X106270450Y-83009675D01*
X106256000Y-82937033D01*
X106256000Y-82862967D01*
X106270450Y-82790325D01*
X106298793Y-82721897D01*
X106339942Y-82660314D01*
X106339944Y-82660311D01*
X106392311Y-82607944D01*
X106392591Y-82607757D01*
X106453897Y-82566793D01*
X106522325Y-82538450D01*
X106522326Y-82538450D01*
X106522328Y-82538449D01*
X106594966Y-82524000D01*
X106669034Y-82524000D01*
X106741672Y-82538449D01*
X106741672Y-82538449D01*
G37*
G36*
X115428377Y-79471655D02*
X115462355Y-79481963D01*
X115493673Y-79498703D01*
X115525902Y-79525152D01*
X116004048Y-80003298D01*
X116030497Y-80035527D01*
X116047237Y-80066845D01*
X116057545Y-80100823D01*
X116061025Y-80136164D01*
X116057545Y-80171505D01*
X116047237Y-80205483D01*
X116030497Y-80236801D01*
X116004048Y-80269030D01*
X115578936Y-80694142D01*
X115546707Y-80720591D01*
X115515389Y-80737331D01*
X115481411Y-80747639D01*
X115446070Y-80751119D01*
X115410729Y-80747639D01*
X115376751Y-80737331D01*
X115345433Y-80720591D01*
X115313204Y-80694142D01*
X114835058Y-80215996D01*
X114808609Y-80183767D01*
X114791869Y-80152449D01*
X114781561Y-80118471D01*
X114778081Y-80083130D01*
X114781561Y-80047789D01*
X114791869Y-80013811D01*
X114808609Y-79982493D01*
X114835058Y-79950264D01*
X115260170Y-79525152D01*
X115292399Y-79498703D01*
X115323717Y-79481963D01*
X115357695Y-79471655D01*
X115393036Y-79468175D01*
X115428377Y-79471655D01*
X115428377Y-79471655D01*
G37*
G36*
X114441977Y-78498855D02*
X114475955Y-78509163D01*
X114507273Y-78525903D01*
X114539502Y-78552352D01*
X115017648Y-79030498D01*
X115044097Y-79062727D01*
X115060837Y-79094045D01*
X115071145Y-79128023D01*
X115074625Y-79163364D01*
X115071145Y-79198705D01*
X115060837Y-79232683D01*
X115044097Y-79264001D01*
X115017648Y-79296230D01*
X114592536Y-79721342D01*
X114560307Y-79747791D01*
X114528989Y-79764531D01*
X114495011Y-79774839D01*
X114459670Y-79778319D01*
X114424329Y-79774839D01*
X114390351Y-79764531D01*
X114359033Y-79747791D01*
X114326804Y-79721342D01*
X113848658Y-79243196D01*
X113822209Y-79210967D01*
X113805469Y-79179649D01*
X113795161Y-79145671D01*
X113791681Y-79110330D01*
X113795161Y-79074989D01*
X113805469Y-79041011D01*
X113822209Y-79009693D01*
X113848658Y-78977464D01*
X114273770Y-78552352D01*
X114305999Y-78525903D01*
X114337317Y-78509163D01*
X114371295Y-78498855D01*
X114406636Y-78495375D01*
X114441977Y-78498855D01*
X114441977Y-78498855D01*
G37*
G36*
X116542071Y-78357961D02*
X116576049Y-78368269D01*
X116607367Y-78385009D01*
X116639596Y-78411458D01*
X117117742Y-78889604D01*
X117144191Y-78921833D01*
X117160931Y-78953151D01*
X117171239Y-78987129D01*
X117174719Y-79022470D01*
X117171239Y-79057811D01*
X117160931Y-79091789D01*
X117144191Y-79123107D01*
X117117742Y-79155336D01*
X116692630Y-79580448D01*
X116660401Y-79606897D01*
X116629083Y-79623637D01*
X116595105Y-79633945D01*
X116559764Y-79637425D01*
X116524423Y-79633945D01*
X116490445Y-79623637D01*
X116459127Y-79606897D01*
X116426898Y-79580448D01*
X115948752Y-79102302D01*
X115922303Y-79070073D01*
X115905563Y-79038755D01*
X115895255Y-79004777D01*
X115891775Y-78969436D01*
X115895255Y-78934095D01*
X115905563Y-78900117D01*
X115922303Y-78868799D01*
X115948752Y-78836570D01*
X116373864Y-78411458D01*
X116406093Y-78385009D01*
X116437411Y-78368269D01*
X116471389Y-78357961D01*
X116506730Y-78354481D01*
X116542071Y-78357961D01*
X116542071Y-78357961D01*
G37*
G36*
X192889941Y-73316248D02*
X192889943Y-73316249D01*
X192889944Y-73316249D01*
X193445190Y-73546239D01*
X193883068Y-73838820D01*
X193944902Y-73880136D01*
X194369864Y-74305098D01*
X194369866Y-74305101D01*
X194703761Y-74804810D01*
X194921447Y-75330351D01*
X194933752Y-75360059D01*
X195051000Y-75949501D01*
X195051000Y-76550499D01*
X194936064Y-77128319D01*
X194933751Y-77139944D01*
X194703761Y-77695190D01*
X194423680Y-78114360D01*
X194369864Y-78194902D01*
X193944902Y-78619864D01*
X193938162Y-78624367D01*
X193445190Y-78953761D01*
X192889944Y-79183751D01*
X192889943Y-79183751D01*
X192889941Y-79183752D01*
X192300499Y-79301000D01*
X191699501Y-79301000D01*
X191110059Y-79183752D01*
X191110057Y-79183751D01*
X191110056Y-79183751D01*
X190554810Y-78953761D01*
X190061838Y-78624367D01*
X190055098Y-78619864D01*
X189630136Y-78194902D01*
X189576320Y-78114360D01*
X189296239Y-77695190D01*
X189066249Y-77139944D01*
X189063937Y-77128319D01*
X188949000Y-76550499D01*
X188949000Y-75949501D01*
X189066248Y-75360059D01*
X189078553Y-75330351D01*
X189296239Y-74804810D01*
X189630134Y-74305101D01*
X189630136Y-74305098D01*
X190055098Y-73880136D01*
X190116932Y-73838820D01*
X190554810Y-73546239D01*
X191110056Y-73316249D01*
X191110057Y-73316249D01*
X191110059Y-73316248D01*
X191699501Y-73199000D01*
X192300499Y-73199000D01*
X192889941Y-73316248D01*
X192889941Y-73316248D01*
G37*
G36*
X115555671Y-77385161D02*
X115589649Y-77395469D01*
X115620967Y-77412209D01*
X115653196Y-77438658D01*
X116131342Y-77916804D01*
X116157791Y-77949033D01*
X116174531Y-77980351D01*
X116184839Y-78014329D01*
X116188319Y-78049670D01*
X116184839Y-78085011D01*
X116174531Y-78118989D01*
X116157791Y-78150307D01*
X116131342Y-78182536D01*
X115706230Y-78607648D01*
X115674001Y-78634097D01*
X115642683Y-78650837D01*
X115608705Y-78661145D01*
X115573364Y-78664625D01*
X115538023Y-78661145D01*
X115504045Y-78650837D01*
X115472727Y-78634097D01*
X115440498Y-78607648D01*
X114962352Y-78129502D01*
X114935903Y-78097273D01*
X114919163Y-78065955D01*
X114908855Y-78031977D01*
X114905375Y-77996636D01*
X114908855Y-77961295D01*
X114919163Y-77927317D01*
X114935903Y-77895999D01*
X114962352Y-77863770D01*
X115387464Y-77438658D01*
X115419693Y-77412209D01*
X115451011Y-77395469D01*
X115484989Y-77385161D01*
X115520330Y-77381681D01*
X115555671Y-77385161D01*
X115555671Y-77385161D01*
G37*
G36*
X112405930Y-76091648D02*
X112442471Y-76102733D01*
X112476146Y-76120732D01*
X112510443Y-76148880D01*
X113181418Y-76819855D01*
X113209566Y-76854152D01*
X113227565Y-76887827D01*
X113238650Y-76924368D01*
X113242392Y-76962372D01*
X113238650Y-77000376D01*
X113227565Y-77036917D01*
X113209566Y-77070592D01*
X113181418Y-77104889D01*
X112156889Y-78129418D01*
X112122592Y-78157566D01*
X112088917Y-78175565D01*
X112052376Y-78186650D01*
X112014372Y-78190392D01*
X111976368Y-78186650D01*
X111939827Y-78175565D01*
X111906152Y-78157566D01*
X111871855Y-78129418D01*
X111200880Y-77458443D01*
X111172732Y-77424146D01*
X111154733Y-77390471D01*
X111143648Y-77353930D01*
X111139906Y-77315926D01*
X111143648Y-77277922D01*
X111154733Y-77241381D01*
X111172732Y-77207706D01*
X111200880Y-77173409D01*
X112225409Y-76148880D01*
X112259706Y-76120732D01*
X112293381Y-76102733D01*
X112329922Y-76091648D01*
X112367926Y-76087906D01*
X112405930Y-76091648D01*
X112405930Y-76091648D01*
G37*
G36*
X106741672Y-76758449D02*
X106741674Y-76758450D01*
X106741675Y-76758450D01*
X106810103Y-76786793D01*
X106859583Y-76819855D01*
X106871689Y-76827944D01*
X106924056Y-76880311D01*
X106924058Y-76880314D01*
X106965207Y-76941897D01*
X106989429Y-77000376D01*
X106993551Y-77010328D01*
X107008000Y-77082966D01*
X107008000Y-77157034D01*
X107004743Y-77173409D01*
X106993550Y-77229675D01*
X106965207Y-77298103D01*
X106927904Y-77353930D01*
X106924056Y-77359689D01*
X106871689Y-77412056D01*
X106871686Y-77412058D01*
X106810103Y-77453207D01*
X106741675Y-77481550D01*
X106741674Y-77481550D01*
X106741672Y-77481551D01*
X106669034Y-77496000D01*
X106594966Y-77496000D01*
X106522328Y-77481551D01*
X106522326Y-77481550D01*
X106522325Y-77481550D01*
X106453897Y-77453207D01*
X106392314Y-77412058D01*
X106392311Y-77412056D01*
X106339944Y-77359689D01*
X106336096Y-77353930D01*
X106298793Y-77298103D01*
X106270450Y-77229675D01*
X106259258Y-77173409D01*
X106256000Y-77157034D01*
X106256000Y-77082966D01*
X106270449Y-77010328D01*
X106274571Y-77000376D01*
X106298793Y-76941897D01*
X106339942Y-76880314D01*
X106339944Y-76880311D01*
X106392311Y-76827944D01*
X106404417Y-76819855D01*
X106453897Y-76786793D01*
X106522325Y-76758450D01*
X106522326Y-76758450D01*
X106522328Y-76758449D01*
X106594966Y-76744000D01*
X106669034Y-76744000D01*
X106741672Y-76758449D01*
X106741672Y-76758449D01*
G37*
G36*
X115271977Y-75848855D02*
X115305955Y-75859163D01*
X115337273Y-75875903D01*
X115369502Y-75902352D01*
X115847648Y-76380498D01*
X115874097Y-76412727D01*
X115890837Y-76444045D01*
X115901145Y-76478023D01*
X115904625Y-76513364D01*
X115901145Y-76548705D01*
X115890837Y-76582683D01*
X115874097Y-76614001D01*
X115847648Y-76646230D01*
X115422536Y-77071342D01*
X115390307Y-77097791D01*
X115358989Y-77114531D01*
X115325011Y-77124839D01*
X115289670Y-77128319D01*
X115254329Y-77124839D01*
X115220351Y-77114531D01*
X115189033Y-77097791D01*
X115156804Y-77071342D01*
X114678658Y-76593196D01*
X114652209Y-76560967D01*
X114635469Y-76529649D01*
X114625161Y-76495671D01*
X114621681Y-76460330D01*
X114625161Y-76424989D01*
X114635469Y-76391011D01*
X114652209Y-76359693D01*
X114678658Y-76327464D01*
X115103770Y-75902352D01*
X115135999Y-75875903D01*
X115167317Y-75859163D01*
X115201295Y-75848855D01*
X115236636Y-75845375D01*
X115271977Y-75848855D01*
X115271977Y-75848855D01*
G37*
G36*
X113581754Y-75239991D02*
X113607090Y-75247677D01*
X113630452Y-75260164D01*
X113655689Y-75280876D01*
X114276767Y-75901954D01*
X114297479Y-75927191D01*
X114309966Y-75950553D01*
X114317652Y-75975889D01*
X114320247Y-76002244D01*
X114317652Y-76028599D01*
X114309966Y-76053935D01*
X114297479Y-76077297D01*
X114276767Y-76102534D01*
X113938531Y-76440770D01*
X113913294Y-76461482D01*
X113889932Y-76473969D01*
X113864596Y-76481655D01*
X113838241Y-76484250D01*
X113811886Y-76481655D01*
X113786550Y-76473969D01*
X113763188Y-76461482D01*
X113737951Y-76440770D01*
X113116873Y-75819692D01*
X113096161Y-75794455D01*
X113083674Y-75771093D01*
X113075988Y-75745757D01*
X113073393Y-75719402D01*
X113075988Y-75693047D01*
X113083674Y-75667711D01*
X113096161Y-75644349D01*
X113116873Y-75619112D01*
X113455109Y-75280876D01*
X113480346Y-75260164D01*
X113503708Y-75247677D01*
X113529044Y-75239991D01*
X113555399Y-75237396D01*
X113581754Y-75239991D01*
X113581754Y-75239991D01*
G37*
G36*
X103390015Y-75146973D02*
X103493879Y-75178479D01*
X103589600Y-75229644D01*
X103673501Y-75298499D01*
X103742356Y-75382400D01*
X103793521Y-75478121D01*
X103825027Y-75581985D01*
X103835666Y-75690000D01*
X103825027Y-75798015D01*
X103793521Y-75901879D01*
X103742356Y-75997600D01*
X103673501Y-76081501D01*
X103589600Y-76150356D01*
X103493879Y-76201521D01*
X103390015Y-76233027D01*
X103309067Y-76241000D01*
X102654933Y-76241000D01*
X102573985Y-76233027D01*
X102470121Y-76201521D01*
X102374400Y-76150356D01*
X102290499Y-76081501D01*
X102221644Y-75997600D01*
X102170479Y-75901879D01*
X102138973Y-75798015D01*
X102128334Y-75690000D01*
X102138973Y-75581985D01*
X102170479Y-75478121D01*
X102221644Y-75382400D01*
X102290499Y-75298499D01*
X102374400Y-75229644D01*
X102470121Y-75178479D01*
X102573985Y-75146973D01*
X102654933Y-75139000D01*
X103309067Y-75139000D01*
X103390015Y-75146973D01*
X103390015Y-75146973D01*
G37*
G36*
X110426032Y-74111750D02*
X110462573Y-74122835D01*
X110496248Y-74140834D01*
X110530545Y-74168982D01*
X111201520Y-74839957D01*
X111229668Y-74874254D01*
X111247667Y-74907929D01*
X111258752Y-74944470D01*
X111262494Y-74982474D01*
X111258752Y-75020478D01*
X111247667Y-75057019D01*
X111229668Y-75090694D01*
X111201520Y-75124991D01*
X110176991Y-76149520D01*
X110142694Y-76177668D01*
X110109019Y-76195667D01*
X110072478Y-76206752D01*
X110034474Y-76210494D01*
X109996470Y-76206752D01*
X109959929Y-76195667D01*
X109926254Y-76177668D01*
X109891957Y-76149520D01*
X109220982Y-75478545D01*
X109192834Y-75444248D01*
X109174835Y-75410573D01*
X109163750Y-75374032D01*
X109160008Y-75336028D01*
X109163750Y-75298024D01*
X109174835Y-75261483D01*
X109192834Y-75227808D01*
X109220982Y-75193511D01*
X110245511Y-74168982D01*
X110279808Y-74140834D01*
X110313483Y-74122835D01*
X110350024Y-74111750D01*
X110388028Y-74108008D01*
X110426032Y-74111750D01*
X110426032Y-74111750D01*
G37*
G36*
X116385671Y-74735161D02*
X116419649Y-74745469D01*
X116450967Y-74762209D01*
X116483196Y-74788658D01*
X116961342Y-75266804D01*
X116987791Y-75299033D01*
X117004531Y-75330351D01*
X117014839Y-75364329D01*
X117018319Y-75399670D01*
X117014839Y-75435011D01*
X117004531Y-75468989D01*
X116987791Y-75500307D01*
X116961342Y-75532536D01*
X116536230Y-75957648D01*
X116504001Y-75984097D01*
X116472683Y-76000837D01*
X116438705Y-76011145D01*
X116403364Y-76014625D01*
X116368023Y-76011145D01*
X116334045Y-76000837D01*
X116302727Y-75984097D01*
X116270498Y-75957648D01*
X115792352Y-75479502D01*
X115765903Y-75447273D01*
X115749163Y-75415955D01*
X115738855Y-75381977D01*
X115735375Y-75346636D01*
X115738855Y-75311295D01*
X115749163Y-75277317D01*
X115765903Y-75245999D01*
X115792352Y-75213770D01*
X116217464Y-74788658D01*
X116249693Y-74762209D01*
X116281011Y-74745469D01*
X116314989Y-74735161D01*
X116350330Y-74731681D01*
X116385671Y-74735161D01*
X116385671Y-74735161D01*
G37*
G36*
X114925257Y-73896488D02*
X114950593Y-73904174D01*
X114973955Y-73916661D01*
X114999192Y-73937373D01*
X115620270Y-74558451D01*
X115640982Y-74583688D01*
X115653469Y-74607050D01*
X115661155Y-74632386D01*
X115663750Y-74658741D01*
X115661155Y-74685096D01*
X115653469Y-74710432D01*
X115640982Y-74733794D01*
X115620270Y-74759031D01*
X115282034Y-75097267D01*
X115256797Y-75117979D01*
X115233435Y-75130466D01*
X115208099Y-75138152D01*
X115181744Y-75140747D01*
X115155389Y-75138152D01*
X115130053Y-75130466D01*
X115106691Y-75117979D01*
X115081454Y-75097267D01*
X114460376Y-74476189D01*
X114439664Y-74450952D01*
X114427177Y-74427590D01*
X114419491Y-74402254D01*
X114416896Y-74375899D01*
X114419491Y-74349544D01*
X114427177Y-74324208D01*
X114439664Y-74300846D01*
X114460376Y-74275609D01*
X114798612Y-73937373D01*
X114823849Y-73916661D01*
X114847211Y-73904174D01*
X114872547Y-73896488D01*
X114898902Y-73893893D01*
X114925257Y-73896488D01*
X114925257Y-73896488D01*
G37*
G36*
X112174611Y-73832848D02*
X112199947Y-73840534D01*
X112223309Y-73853021D01*
X112248546Y-73873733D01*
X112869624Y-74494811D01*
X112890336Y-74520048D01*
X112902823Y-74543410D01*
X112910509Y-74568746D01*
X112913104Y-74595101D01*
X112910509Y-74621456D01*
X112902823Y-74646792D01*
X112890336Y-74670154D01*
X112869624Y-74695391D01*
X112531388Y-75033627D01*
X112506151Y-75054339D01*
X112482789Y-75066826D01*
X112457453Y-75074512D01*
X112431098Y-75077107D01*
X112404743Y-75074512D01*
X112379407Y-75066826D01*
X112356045Y-75054339D01*
X112330808Y-75033627D01*
X111709730Y-74412549D01*
X111689018Y-74387312D01*
X111676531Y-74363950D01*
X111668845Y-74338614D01*
X111666250Y-74312259D01*
X111668845Y-74285904D01*
X111676531Y-74260568D01*
X111689018Y-74237206D01*
X111709730Y-74211969D01*
X112047966Y-73873733D01*
X112073203Y-73853021D01*
X112096565Y-73840534D01*
X112121901Y-73832848D01*
X112148256Y-73830253D01*
X112174611Y-73832848D01*
X112174611Y-73832848D01*
G37*
G36*
X116917778Y-72776948D02*
X116954319Y-72788033D01*
X116987994Y-72806032D01*
X117022291Y-72834180D01*
X118046820Y-73858709D01*
X118074968Y-73893006D01*
X118092967Y-73926681D01*
X118104052Y-73963222D01*
X118107794Y-74001226D01*
X118104052Y-74039230D01*
X118092967Y-74075771D01*
X118074968Y-74109446D01*
X118046820Y-74143743D01*
X117375845Y-74814718D01*
X117341548Y-74842866D01*
X117307873Y-74860865D01*
X117271332Y-74871950D01*
X117233328Y-74875692D01*
X117195324Y-74871950D01*
X117158783Y-74860865D01*
X117125108Y-74842866D01*
X117090811Y-74814718D01*
X116066282Y-73790189D01*
X116038134Y-73755892D01*
X116020135Y-73722217D01*
X116009050Y-73685676D01*
X116005308Y-73647672D01*
X116009050Y-73609668D01*
X116020135Y-73573127D01*
X116038134Y-73539452D01*
X116066282Y-73505155D01*
X116737257Y-72834180D01*
X116771554Y-72806032D01*
X116805229Y-72788033D01*
X116841770Y-72776948D01*
X116879774Y-72773206D01*
X116917778Y-72776948D01*
X116917778Y-72776948D01*
G37*
G36*
X106107591Y-73519085D02*
X106141569Y-73529393D01*
X106172887Y-73546133D01*
X106200339Y-73568661D01*
X106222867Y-73596113D01*
X106239607Y-73627431D01*
X106249915Y-73661409D01*
X106254000Y-73702890D01*
X106254000Y-74379110D01*
X106249915Y-74420591D01*
X106239607Y-74454569D01*
X106222867Y-74485887D01*
X106200339Y-74513339D01*
X106172887Y-74535867D01*
X106141569Y-74552607D01*
X106107591Y-74562915D01*
X106066110Y-74567000D01*
X105464890Y-74567000D01*
X105423409Y-74562915D01*
X105389431Y-74552607D01*
X105358113Y-74535867D01*
X105330661Y-74513339D01*
X105308133Y-74485887D01*
X105291393Y-74454569D01*
X105281085Y-74420591D01*
X105277000Y-74379110D01*
X105277000Y-73702890D01*
X105281085Y-73661409D01*
X105291393Y-73627431D01*
X105308133Y-73596113D01*
X105330661Y-73568661D01*
X105358113Y-73546133D01*
X105389431Y-73529393D01*
X105423409Y-73519085D01*
X105464890Y-73515000D01*
X106066110Y-73515000D01*
X106107591Y-73519085D01*
X106107591Y-73519085D01*
G37*
G36*
X107682591Y-73519085D02*
X107716569Y-73529393D01*
X107747887Y-73546133D01*
X107775339Y-73568661D01*
X107797867Y-73596113D01*
X107814607Y-73627431D01*
X107824915Y-73661409D01*
X107829000Y-73702890D01*
X107829000Y-74379110D01*
X107824915Y-74420591D01*
X107814607Y-74454569D01*
X107797867Y-74485887D01*
X107775339Y-74513339D01*
X107747887Y-74535867D01*
X107716569Y-74552607D01*
X107682591Y-74562915D01*
X107641110Y-74567000D01*
X107039890Y-74567000D01*
X106998409Y-74562915D01*
X106964431Y-74552607D01*
X106933113Y-74535867D01*
X106905661Y-74513339D01*
X106883133Y-74485887D01*
X106866393Y-74454569D01*
X106856085Y-74420591D01*
X106852000Y-74379110D01*
X106852000Y-73702890D01*
X106856085Y-73661409D01*
X106866393Y-73627431D01*
X106883133Y-73596113D01*
X106905661Y-73568661D01*
X106933113Y-73546133D01*
X106964431Y-73529393D01*
X106998409Y-73519085D01*
X107039890Y-73515000D01*
X107641110Y-73515000D01*
X107682591Y-73519085D01*
X107682591Y-73519085D01*
G37*
G36*
X103186591Y-73519085D02*
X103220569Y-73529393D01*
X103251887Y-73546133D01*
X103279339Y-73568661D01*
X103301867Y-73596113D01*
X103318607Y-73627431D01*
X103328915Y-73661409D01*
X103333000Y-73702890D01*
X103333000Y-74379110D01*
X103328915Y-74420591D01*
X103318607Y-74454569D01*
X103301867Y-74485887D01*
X103279339Y-74513339D01*
X103251887Y-74535867D01*
X103220569Y-74552607D01*
X103186591Y-74562915D01*
X103145110Y-74567000D01*
X102543890Y-74567000D01*
X102502409Y-74562915D01*
X102468431Y-74552607D01*
X102437113Y-74535867D01*
X102409661Y-74513339D01*
X102387133Y-74485887D01*
X102370393Y-74454569D01*
X102360085Y-74420591D01*
X102356000Y-74379110D01*
X102356000Y-73702890D01*
X102360085Y-73661409D01*
X102370393Y-73627431D01*
X102387133Y-73596113D01*
X102409661Y-73568661D01*
X102437113Y-73546133D01*
X102468431Y-73529393D01*
X102502409Y-73519085D01*
X102543890Y-73515000D01*
X103145110Y-73515000D01*
X103186591Y-73519085D01*
X103186591Y-73519085D01*
G37*
G36*
X104761591Y-73519085D02*
X104795569Y-73529393D01*
X104826887Y-73546133D01*
X104854339Y-73568661D01*
X104876867Y-73596113D01*
X104893607Y-73627431D01*
X104903915Y-73661409D01*
X104908000Y-73702890D01*
X104908000Y-74379110D01*
X104903915Y-74420591D01*
X104893607Y-74454569D01*
X104876867Y-74485887D01*
X104854339Y-74513339D01*
X104826887Y-74535867D01*
X104795569Y-74552607D01*
X104761591Y-74562915D01*
X104720110Y-74567000D01*
X104118890Y-74567000D01*
X104077409Y-74562915D01*
X104043431Y-74552607D01*
X104012113Y-74535867D01*
X103984661Y-74513339D01*
X103962133Y-74485887D01*
X103945393Y-74454569D01*
X103935085Y-74420591D01*
X103931000Y-74379110D01*
X103931000Y-73702890D01*
X103935085Y-73661409D01*
X103945393Y-73627431D01*
X103962133Y-73596113D01*
X103984661Y-73568661D01*
X104012113Y-73546133D01*
X104043431Y-73529393D01*
X104077409Y-73519085D01*
X104118890Y-73515000D01*
X104720110Y-73515000D01*
X104761591Y-73519085D01*
X104761591Y-73519085D01*
G37*
G36*
X198968604Y-72728346D02*
X199005145Y-72739431D01*
X199038820Y-72757430D01*
X199068341Y-72781658D01*
X199092569Y-72811179D01*
X199110568Y-72844854D01*
X199121653Y-72881395D01*
X199126000Y-72925537D01*
X199126000Y-73874461D01*
X199121653Y-73918603D01*
X199110568Y-73955144D01*
X199092569Y-73988819D01*
X199068341Y-74018340D01*
X199038820Y-74042568D01*
X199005145Y-74060567D01*
X198968604Y-74071652D01*
X198924462Y-74075999D01*
X197475538Y-74075999D01*
X197431396Y-74071652D01*
X197394855Y-74060567D01*
X197361180Y-74042568D01*
X197331659Y-74018340D01*
X197307431Y-73988819D01*
X197289432Y-73955144D01*
X197278347Y-73918603D01*
X197274000Y-73874461D01*
X197274000Y-72925537D01*
X197278347Y-72881395D01*
X197289432Y-72844854D01*
X197307431Y-72811179D01*
X197331659Y-72781658D01*
X197361180Y-72757430D01*
X197394855Y-72739431D01*
X197431396Y-72728346D01*
X197475538Y-72723999D01*
X198924462Y-72723999D01*
X198968604Y-72728346D01*
X198968604Y-72728346D01*
G37*
G36*
X113511438Y-72474519D02*
X113530364Y-72480260D01*
X113547805Y-72489582D01*
X113567865Y-72506046D01*
X114237311Y-73175492D01*
X114253775Y-73195552D01*
X114263097Y-73212993D01*
X114268838Y-73231919D01*
X114270776Y-73251598D01*
X114268838Y-73271277D01*
X114263097Y-73290203D01*
X114253775Y-73307644D01*
X114237311Y-73327704D01*
X113560793Y-74004222D01*
X113540733Y-74020686D01*
X113523292Y-74030008D01*
X113504366Y-74035749D01*
X113484687Y-74037687D01*
X113465008Y-74035749D01*
X113446082Y-74030008D01*
X113428641Y-74020686D01*
X113408581Y-74004222D01*
X112739135Y-73334776D01*
X112722671Y-73314716D01*
X112713349Y-73297275D01*
X112707608Y-73278349D01*
X112705670Y-73258670D01*
X112707608Y-73238991D01*
X112713349Y-73220065D01*
X112722671Y-73202624D01*
X112739135Y-73182564D01*
X113415653Y-72506046D01*
X113435713Y-72489582D01*
X113453154Y-72480260D01*
X113472080Y-72474519D01*
X113491759Y-72472581D01*
X113511438Y-72474519D01*
X113511438Y-72474519D01*
G37*
G36*
X187277403Y-72078347D02*
X187313944Y-72089432D01*
X187347619Y-72107431D01*
X187377140Y-72131659D01*
X187401368Y-72161180D01*
X187419367Y-72194855D01*
X187430452Y-72231396D01*
X187434799Y-72275538D01*
X187434799Y-73724462D01*
X187430452Y-73768604D01*
X187419367Y-73805145D01*
X187401368Y-73838820D01*
X187377140Y-73868341D01*
X187347619Y-73892569D01*
X187313944Y-73910568D01*
X187277403Y-73921653D01*
X187233261Y-73926000D01*
X186284337Y-73926000D01*
X186240195Y-73921653D01*
X186203654Y-73910568D01*
X186169979Y-73892569D01*
X186140458Y-73868341D01*
X186116230Y-73838820D01*
X186098231Y-73805145D01*
X186087146Y-73768604D01*
X186082799Y-73724462D01*
X186082799Y-72275538D01*
X186087146Y-72231396D01*
X186098231Y-72194855D01*
X186116230Y-72161180D01*
X186140458Y-72131659D01*
X186169979Y-72107431D01*
X186203654Y-72089432D01*
X186240195Y-72078347D01*
X186284337Y-72074000D01*
X187233261Y-72074000D01*
X187277403Y-72078347D01*
X187277403Y-72078347D01*
G37*
G36*
X184477405Y-72078347D02*
X184513946Y-72089432D01*
X184547621Y-72107431D01*
X184577142Y-72131659D01*
X184601370Y-72161180D01*
X184619369Y-72194855D01*
X184630454Y-72231396D01*
X184634801Y-72275538D01*
X184634801Y-73724462D01*
X184630454Y-73768604D01*
X184619369Y-73805145D01*
X184601370Y-73838820D01*
X184577142Y-73868341D01*
X184547621Y-73892569D01*
X184513946Y-73910568D01*
X184477405Y-73921653D01*
X184433263Y-73926000D01*
X183484339Y-73926000D01*
X183440197Y-73921653D01*
X183403656Y-73910568D01*
X183369981Y-73892569D01*
X183340460Y-73868341D01*
X183316232Y-73838820D01*
X183298233Y-73805145D01*
X183287148Y-73768604D01*
X183282801Y-73724462D01*
X183282801Y-72275538D01*
X183287148Y-72231396D01*
X183298233Y-72194855D01*
X183316232Y-72161180D01*
X183340460Y-72131659D01*
X183369981Y-72107431D01*
X183403656Y-72089432D01*
X183440197Y-72078347D01*
X183484339Y-72074000D01*
X184433263Y-72074000D01*
X184477405Y-72078347D01*
X184477405Y-72078347D01*
G37*
G36*
X111608705Y-72278855D02*
X111642683Y-72289163D01*
X111674001Y-72305903D01*
X111706230Y-72332352D01*
X112131342Y-72757464D01*
X112157791Y-72789693D01*
X112174531Y-72821011D01*
X112184839Y-72854989D01*
X112188319Y-72890330D01*
X112184839Y-72925671D01*
X112174531Y-72959649D01*
X112157791Y-72990967D01*
X112131342Y-73023196D01*
X111653196Y-73501342D01*
X111620967Y-73527791D01*
X111589649Y-73544531D01*
X111555671Y-73554839D01*
X111520330Y-73558319D01*
X111484989Y-73554839D01*
X111451011Y-73544531D01*
X111419693Y-73527791D01*
X111387464Y-73501342D01*
X110962352Y-73076230D01*
X110935903Y-73044001D01*
X110919163Y-73012683D01*
X110908855Y-72978705D01*
X110905375Y-72943364D01*
X110908855Y-72908023D01*
X110919163Y-72874045D01*
X110935903Y-72842727D01*
X110962352Y-72810498D01*
X111440498Y-72332352D01*
X111472727Y-72305903D01*
X111504045Y-72289163D01*
X111538023Y-72278855D01*
X111573364Y-72275375D01*
X111608705Y-72278855D01*
X111608705Y-72278855D01*
G37*
G36*
X118897676Y-70797050D02*
X118934217Y-70808135D01*
X118967892Y-70826134D01*
X119002189Y-70854282D01*
X120026718Y-71878811D01*
X120054866Y-71913108D01*
X120072865Y-71946783D01*
X120083950Y-71983324D01*
X120087692Y-72021328D01*
X120083950Y-72059332D01*
X120072865Y-72095873D01*
X120054866Y-72129548D01*
X120026718Y-72163845D01*
X119355743Y-72834820D01*
X119321446Y-72862968D01*
X119287771Y-72880967D01*
X119251230Y-72892052D01*
X119213226Y-72895794D01*
X119175222Y-72892052D01*
X119138681Y-72880967D01*
X119105006Y-72862968D01*
X119070709Y-72834820D01*
X118046180Y-71810291D01*
X118018032Y-71775994D01*
X118000033Y-71742319D01*
X117988948Y-71705778D01*
X117985206Y-71667774D01*
X117988948Y-71629770D01*
X118000033Y-71593229D01*
X118018032Y-71559554D01*
X118046180Y-71525257D01*
X118717155Y-70854282D01*
X118751452Y-70826134D01*
X118785127Y-70808135D01*
X118821668Y-70797050D01*
X118859672Y-70793308D01*
X118897676Y-70797050D01*
X118897676Y-70797050D01*
G37*
G36*
X115717216Y-70647999D02*
X115753757Y-70659084D01*
X115787432Y-70677083D01*
X115821729Y-70705231D01*
X116492704Y-71376206D01*
X116520852Y-71410503D01*
X116538851Y-71444178D01*
X116549936Y-71480719D01*
X116553678Y-71518723D01*
X116549936Y-71556727D01*
X116538851Y-71593268D01*
X116520852Y-71626943D01*
X116492704Y-71661240D01*
X115468175Y-72685769D01*
X115433878Y-72713917D01*
X115400203Y-72731916D01*
X115363662Y-72743001D01*
X115325658Y-72746743D01*
X115287654Y-72743001D01*
X115251113Y-72731916D01*
X115217438Y-72713917D01*
X115183141Y-72685769D01*
X114512166Y-72014794D01*
X114484018Y-71980497D01*
X114466019Y-71946822D01*
X114454934Y-71910281D01*
X114451192Y-71872277D01*
X114454934Y-71834273D01*
X114466019Y-71797732D01*
X114484018Y-71764057D01*
X114512166Y-71729760D01*
X115536695Y-70705231D01*
X115570992Y-70677083D01*
X115604667Y-70659084D01*
X115641208Y-70647999D01*
X115679212Y-70644257D01*
X115717216Y-70647999D01*
X115717216Y-70647999D01*
G37*
G36*
X110495011Y-71165161D02*
X110528989Y-71175469D01*
X110560307Y-71192209D01*
X110592536Y-71218658D01*
X111017648Y-71643770D01*
X111044097Y-71675999D01*
X111060837Y-71707317D01*
X111071145Y-71741295D01*
X111074625Y-71776636D01*
X111071145Y-71811977D01*
X111060837Y-71845955D01*
X111044097Y-71877273D01*
X111017648Y-71909502D01*
X110539502Y-72387648D01*
X110507273Y-72414097D01*
X110475955Y-72430837D01*
X110441977Y-72441145D01*
X110406636Y-72444625D01*
X110371295Y-72441145D01*
X110337317Y-72430837D01*
X110305999Y-72414097D01*
X110273770Y-72387648D01*
X109848658Y-71962536D01*
X109822209Y-71930307D01*
X109805469Y-71898989D01*
X109795161Y-71865011D01*
X109791681Y-71829670D01*
X109795161Y-71794329D01*
X109805469Y-71760351D01*
X109822209Y-71729033D01*
X109848658Y-71696804D01*
X110326804Y-71218658D01*
X110359033Y-71192209D01*
X110390351Y-71175469D01*
X110424329Y-71165161D01*
X110459670Y-71161681D01*
X110495011Y-71165161D01*
X110495011Y-71165161D01*
G37*
G36*
X196518603Y-69478347D02*
X196555144Y-69489432D01*
X196588819Y-69507431D01*
X196618340Y-69531659D01*
X196642568Y-69561180D01*
X196660567Y-69594855D01*
X196671652Y-69631396D01*
X196675999Y-69675538D01*
X196675999Y-71124462D01*
X196671652Y-71168604D01*
X196660567Y-71205145D01*
X196642568Y-71238820D01*
X196618340Y-71268341D01*
X196588819Y-71292569D01*
X196555144Y-71310568D01*
X196518603Y-71321653D01*
X196474461Y-71326000D01*
X195525537Y-71326000D01*
X195481395Y-71321653D01*
X195444854Y-71310568D01*
X195411179Y-71292569D01*
X195381658Y-71268341D01*
X195357430Y-71238820D01*
X195339431Y-71205145D01*
X195328346Y-71168604D01*
X195323999Y-71124462D01*
X195323999Y-69675538D01*
X195328346Y-69631396D01*
X195339431Y-69594855D01*
X195357430Y-69561180D01*
X195381658Y-69531659D01*
X195411179Y-69507431D01*
X195444854Y-69489432D01*
X195481395Y-69478347D01*
X195525537Y-69474000D01*
X196474461Y-69474000D01*
X196518603Y-69478347D01*
X196518603Y-69478347D01*
G37*
G36*
X193718605Y-69478347D02*
X193755146Y-69489432D01*
X193788821Y-69507431D01*
X193818342Y-69531659D01*
X193842570Y-69561180D01*
X193860569Y-69594855D01*
X193871654Y-69631396D01*
X193876001Y-69675538D01*
X193876001Y-71124462D01*
X193871654Y-71168604D01*
X193860569Y-71205145D01*
X193842570Y-71238820D01*
X193818342Y-71268341D01*
X193788821Y-71292569D01*
X193755146Y-71310568D01*
X193718605Y-71321653D01*
X193674463Y-71326000D01*
X192725539Y-71326000D01*
X192681397Y-71321653D01*
X192644856Y-71310568D01*
X192611181Y-71292569D01*
X192581660Y-71268341D01*
X192557432Y-71238820D01*
X192539433Y-71205145D01*
X192528348Y-71168604D01*
X192524001Y-71124462D01*
X192524001Y-69675538D01*
X192528348Y-69631396D01*
X192539433Y-69594855D01*
X192557432Y-69561180D01*
X192581660Y-69531659D01*
X192611181Y-69507431D01*
X192644856Y-69489432D01*
X192681397Y-69478347D01*
X192725539Y-69474000D01*
X193674463Y-69474000D01*
X193718605Y-69478347D01*
X193718605Y-69478347D01*
G37*
G36*
X184477405Y-69478347D02*
X184513946Y-69489432D01*
X184547621Y-69507431D01*
X184577142Y-69531659D01*
X184601370Y-69561180D01*
X184619369Y-69594855D01*
X184630454Y-69631396D01*
X184634801Y-69675538D01*
X184634801Y-71124462D01*
X184630454Y-71168604D01*
X184619369Y-71205145D01*
X184601370Y-71238820D01*
X184577142Y-71268341D01*
X184547621Y-71292569D01*
X184513946Y-71310568D01*
X184477405Y-71321653D01*
X184433263Y-71326000D01*
X183484339Y-71326000D01*
X183440197Y-71321653D01*
X183403656Y-71310568D01*
X183369981Y-71292569D01*
X183340460Y-71268341D01*
X183316232Y-71238820D01*
X183298233Y-71205145D01*
X183287148Y-71168604D01*
X183282801Y-71124462D01*
X183282801Y-69675538D01*
X183287148Y-69631396D01*
X183298233Y-69594855D01*
X183316232Y-69561180D01*
X183340460Y-69531659D01*
X183369981Y-69507431D01*
X183403656Y-69489432D01*
X183440197Y-69478347D01*
X183484339Y-69474000D01*
X184433263Y-69474000D01*
X184477405Y-69478347D01*
X184477405Y-69478347D01*
G37*
G36*
X187277403Y-69478347D02*
X187313944Y-69489432D01*
X187347619Y-69507431D01*
X187377140Y-69531659D01*
X187401368Y-69561180D01*
X187419367Y-69594855D01*
X187430452Y-69631396D01*
X187434799Y-69675538D01*
X187434799Y-71124462D01*
X187430452Y-71168604D01*
X187419367Y-71205145D01*
X187401368Y-71238820D01*
X187377140Y-71268341D01*
X187347619Y-71292569D01*
X187313944Y-71310568D01*
X187277403Y-71321653D01*
X187233261Y-71326000D01*
X186284337Y-71326000D01*
X186240195Y-71321653D01*
X186203654Y-71310568D01*
X186169979Y-71292569D01*
X186140458Y-71268341D01*
X186116230Y-71238820D01*
X186098231Y-71205145D01*
X186087146Y-71168604D01*
X186082799Y-71124462D01*
X186082799Y-69675538D01*
X186087146Y-69631396D01*
X186098231Y-69594855D01*
X186116230Y-69561180D01*
X186140458Y-69531659D01*
X186169979Y-69507431D01*
X186203654Y-69489432D01*
X186240195Y-69478347D01*
X186284337Y-69474000D01*
X187233261Y-69474000D01*
X187277403Y-69478347D01*
X187277403Y-69478347D01*
G37*
G36*
X198968604Y-69928348D02*
X199005145Y-69939433D01*
X199038820Y-69957432D01*
X199068341Y-69981660D01*
X199092569Y-70011181D01*
X199110568Y-70044856D01*
X199121653Y-70081397D01*
X199126000Y-70125539D01*
X199126000Y-71074463D01*
X199121653Y-71118605D01*
X199110568Y-71155146D01*
X199092569Y-71188821D01*
X199068341Y-71218342D01*
X199038820Y-71242570D01*
X199005145Y-71260569D01*
X198968604Y-71271654D01*
X198924462Y-71276001D01*
X197475538Y-71276001D01*
X197431396Y-71271654D01*
X197394855Y-71260569D01*
X197361180Y-71242570D01*
X197331659Y-71218342D01*
X197307431Y-71188821D01*
X197289432Y-71155146D01*
X197278347Y-71118605D01*
X197274000Y-71074463D01*
X197274000Y-70125539D01*
X197278347Y-70081397D01*
X197289432Y-70044856D01*
X197307431Y-70011181D01*
X197331659Y-69981660D01*
X197361180Y-69957432D01*
X197394855Y-69939433D01*
X197431396Y-69928348D01*
X197475538Y-69924001D01*
X198924462Y-69924001D01*
X198968604Y-69928348D01*
X198968604Y-69928348D01*
G37*
G36*
X117336490Y-69028724D02*
X117373031Y-69039809D01*
X117406706Y-69057808D01*
X117441003Y-69085956D01*
X118111978Y-69756931D01*
X118140126Y-69791228D01*
X118158125Y-69824903D01*
X118169210Y-69861444D01*
X118172952Y-69899448D01*
X118169210Y-69937452D01*
X118158125Y-69973993D01*
X118140126Y-70007668D01*
X118111978Y-70041965D01*
X117087449Y-71066494D01*
X117053152Y-71094642D01*
X117019477Y-71112641D01*
X116982936Y-71123726D01*
X116944932Y-71127468D01*
X116906928Y-71123726D01*
X116870387Y-71112641D01*
X116836712Y-71094642D01*
X116802415Y-71066494D01*
X116131440Y-70395519D01*
X116103292Y-70361222D01*
X116085293Y-70327547D01*
X116074208Y-70291006D01*
X116070466Y-70253002D01*
X116074208Y-70214998D01*
X116085293Y-70178457D01*
X116103292Y-70144782D01*
X116131440Y-70110485D01*
X117155969Y-69085956D01*
X117190266Y-69057808D01*
X117223941Y-69039809D01*
X117260482Y-69028724D01*
X117298486Y-69024982D01*
X117336490Y-69028724D01*
X117336490Y-69028724D01*
G37*
G36*
X110631852Y-69935605D02*
X109711198Y-70856259D01*
X108083438Y-69228499D01*
X109004092Y-68307845D01*
X110631852Y-69935605D01*
X110631852Y-69935605D01*
G37*
G36*
X113737318Y-68668101D02*
X113773859Y-68679186D01*
X113807534Y-68697185D01*
X113841831Y-68725333D01*
X114512806Y-69396308D01*
X114540954Y-69430605D01*
X114558953Y-69464280D01*
X114570038Y-69500821D01*
X114573780Y-69538825D01*
X114570038Y-69576829D01*
X114558953Y-69613370D01*
X114540954Y-69647045D01*
X114512806Y-69681342D01*
X113488277Y-70705871D01*
X113453980Y-70734019D01*
X113420305Y-70752018D01*
X113383764Y-70763103D01*
X113345760Y-70766845D01*
X113307756Y-70763103D01*
X113271215Y-70752018D01*
X113237540Y-70734019D01*
X113203243Y-70705871D01*
X112532268Y-70034896D01*
X112504120Y-70000599D01*
X112486121Y-69966924D01*
X112475036Y-69930383D01*
X112471294Y-69892379D01*
X112475036Y-69854375D01*
X112486121Y-69817834D01*
X112504120Y-69784159D01*
X112532268Y-69749862D01*
X113556797Y-68725333D01*
X113591094Y-68697185D01*
X113624769Y-68679186D01*
X113661310Y-68668101D01*
X113699314Y-68664359D01*
X113737318Y-68668101D01*
X113737318Y-68668101D01*
G37*
G36*
X189168604Y-67928346D02*
X189205145Y-67939431D01*
X189238820Y-67957430D01*
X189268341Y-67981658D01*
X189292569Y-68011179D01*
X189310568Y-68044854D01*
X189321653Y-68081395D01*
X189326000Y-68125537D01*
X189326000Y-69074461D01*
X189321653Y-69118603D01*
X189310568Y-69155144D01*
X189292569Y-69188819D01*
X189268341Y-69218340D01*
X189238820Y-69242568D01*
X189205145Y-69260567D01*
X189168604Y-69271652D01*
X189124462Y-69275999D01*
X187675538Y-69275999D01*
X187631396Y-69271652D01*
X187594855Y-69260567D01*
X187561180Y-69242568D01*
X187531659Y-69218340D01*
X187507431Y-69188819D01*
X187489432Y-69155144D01*
X187478347Y-69118603D01*
X187474000Y-69074461D01*
X187474000Y-68125537D01*
X187478347Y-68081395D01*
X187489432Y-68044854D01*
X187507431Y-68011179D01*
X187531659Y-67981658D01*
X187561180Y-67957430D01*
X187594855Y-67939431D01*
X187631396Y-67928346D01*
X187675538Y-67923999D01*
X189124462Y-67923999D01*
X189168604Y-67928346D01*
X189168604Y-67928346D01*
G37*
G36*
X198968604Y-67928346D02*
X199005145Y-67939431D01*
X199038820Y-67957430D01*
X199068341Y-67981658D01*
X199092569Y-68011179D01*
X199110568Y-68044854D01*
X199121653Y-68081395D01*
X199126000Y-68125537D01*
X199126000Y-69074461D01*
X199121653Y-69118603D01*
X199110568Y-69155144D01*
X199092569Y-69188819D01*
X199068341Y-69218340D01*
X199038820Y-69242568D01*
X199005145Y-69260567D01*
X198968604Y-69271652D01*
X198924462Y-69275999D01*
X197475538Y-69275999D01*
X197431396Y-69271652D01*
X197394855Y-69260567D01*
X197361180Y-69242568D01*
X197331659Y-69218340D01*
X197307431Y-69188819D01*
X197289432Y-69155144D01*
X197278347Y-69118603D01*
X197274000Y-69074461D01*
X197274000Y-68125537D01*
X197278347Y-68081395D01*
X197289432Y-68044854D01*
X197307431Y-68011179D01*
X197331659Y-67981658D01*
X197361180Y-67957430D01*
X197394855Y-67939431D01*
X197431396Y-67928346D01*
X197475538Y-67923999D01*
X198924462Y-67923999D01*
X198968604Y-67928346D01*
X198968604Y-67928346D01*
G37*
G36*
X115356592Y-67048826D02*
X115393133Y-67059911D01*
X115426808Y-67077910D01*
X115461105Y-67106058D01*
X116132080Y-67777033D01*
X116160228Y-67811330D01*
X116178227Y-67845005D01*
X116189312Y-67881546D01*
X116193054Y-67919550D01*
X116189312Y-67957554D01*
X116178227Y-67994095D01*
X116160228Y-68027770D01*
X116132080Y-68062067D01*
X115107551Y-69086596D01*
X115073254Y-69114744D01*
X115039579Y-69132743D01*
X115003038Y-69143828D01*
X114965034Y-69147570D01*
X114927030Y-69143828D01*
X114890489Y-69132743D01*
X114856814Y-69114744D01*
X114822517Y-69086596D01*
X114151542Y-68415621D01*
X114123394Y-68381324D01*
X114105395Y-68347649D01*
X114094310Y-68311108D01*
X114090568Y-68273104D01*
X114094310Y-68235100D01*
X114105395Y-68198559D01*
X114123394Y-68164884D01*
X114151542Y-68130587D01*
X115176071Y-67106058D01*
X115210368Y-67077910D01*
X115244043Y-67059911D01*
X115280584Y-67048826D01*
X115318588Y-67045084D01*
X115356592Y-67048826D01*
X115356592Y-67048826D01*
G37*
G36*
X184216600Y-68753300D02*
X183166600Y-68753300D01*
X183166600Y-64503300D01*
X184216600Y-64503300D01*
X184216600Y-68753300D01*
X184216600Y-68753300D01*
G37*
G36*
X181491600Y-68753300D02*
X180791600Y-68753300D01*
X180791600Y-64503300D01*
X181491600Y-64503300D01*
X181491600Y-68753300D01*
X181491600Y-68753300D01*
G37*
G36*
X186591600Y-68753300D02*
X185891600Y-68753300D01*
X185891600Y-64503300D01*
X186591600Y-64503300D01*
X186591600Y-68753300D01*
X186591600Y-68753300D01*
G37*
G36*
X191223270Y-68728746D02*
X190523270Y-68728746D01*
X190523270Y-64478746D01*
X191223270Y-64478746D01*
X191223270Y-68728746D01*
X191223270Y-68728746D01*
G37*
G36*
X193948270Y-68728746D02*
X192898270Y-68728746D01*
X192898270Y-64478746D01*
X193948270Y-64478746D01*
X193948270Y-68728746D01*
X193948270Y-68728746D01*
G37*
G36*
X196323270Y-68728746D02*
X195623270Y-68728746D01*
X195623270Y-64478746D01*
X196323270Y-64478746D01*
X196323270Y-68728746D01*
X196323270Y-68728746D01*
G37*
G36*
X110900553Y-63727208D02*
X106727208Y-67900553D01*
X102129599Y-63302944D01*
X106302944Y-59129599D01*
X110900553Y-63727208D01*
X110900553Y-63727208D01*
G37*
G36*
X113856259Y-66711198D02*
X112935605Y-67631852D01*
X111307845Y-66004092D01*
X112228499Y-65083438D01*
X113856259Y-66711198D01*
X113856259Y-66711198D01*
G37*
G36*
X198968604Y-65128348D02*
X199005145Y-65139433D01*
X199038820Y-65157432D01*
X199068341Y-65181660D01*
X199092569Y-65211181D01*
X199110568Y-65244856D01*
X199121653Y-65281397D01*
X199126000Y-65325539D01*
X199126000Y-66274463D01*
X199121653Y-66318605D01*
X199110568Y-66355146D01*
X199092569Y-66388821D01*
X199068341Y-66418342D01*
X199038820Y-66442570D01*
X199005145Y-66460569D01*
X198968604Y-66471654D01*
X198924462Y-66476001D01*
X197475538Y-66476001D01*
X197431396Y-66471654D01*
X197394855Y-66460569D01*
X197361180Y-66442570D01*
X197331659Y-66418342D01*
X197307431Y-66388821D01*
X197289432Y-66355146D01*
X197278347Y-66318605D01*
X197274000Y-66274463D01*
X197274000Y-65325539D01*
X197278347Y-65281397D01*
X197289432Y-65244856D01*
X197307431Y-65211181D01*
X197331659Y-65181660D01*
X197361180Y-65157432D01*
X197394855Y-65139433D01*
X197431396Y-65128348D01*
X197475538Y-65124001D01*
X198924462Y-65124001D01*
X198968604Y-65128348D01*
X198968604Y-65128348D01*
G37*
G36*
X189168604Y-65128348D02*
X189205145Y-65139433D01*
X189238820Y-65157432D01*
X189268341Y-65181660D01*
X189292569Y-65211181D01*
X189310568Y-65244856D01*
X189321653Y-65281397D01*
X189326000Y-65325539D01*
X189326000Y-66274463D01*
X189321653Y-66318605D01*
X189310568Y-66355146D01*
X189292569Y-66388821D01*
X189268341Y-66418342D01*
X189238820Y-66442570D01*
X189205145Y-66460569D01*
X189168604Y-66471654D01*
X189124462Y-66476001D01*
X187675538Y-66476001D01*
X187631396Y-66471654D01*
X187594855Y-66460569D01*
X187561180Y-66442570D01*
X187531659Y-66418342D01*
X187507431Y-66388821D01*
X187489432Y-66355146D01*
X187478347Y-66318605D01*
X187474000Y-66274463D01*
X187474000Y-65325539D01*
X187478347Y-65281397D01*
X187489432Y-65244856D01*
X187507431Y-65211181D01*
X187531659Y-65181660D01*
X187561180Y-65157432D01*
X187594855Y-65139433D01*
X187631396Y-65128348D01*
X187675538Y-65124001D01*
X189124462Y-65124001D01*
X189168604Y-65128348D01*
X189168604Y-65128348D01*
G37*
G36*
X120432531Y-63817520D02*
X118296743Y-65953308D01*
X117150579Y-64807144D01*
X119286367Y-62671356D01*
X120432531Y-63817520D01*
X120432531Y-63817520D01*
G37*
G36*
X187829591Y-62703085D02*
X187863569Y-62713393D01*
X187894887Y-62730133D01*
X187922339Y-62752661D01*
X187951743Y-62788492D01*
X187953374Y-62790932D01*
X187970701Y-62808259D01*
X187991075Y-62821873D01*
X188013714Y-62831250D01*
X188037748Y-62836031D01*
X188062252Y-62836031D01*
X188086285Y-62831251D01*
X188108924Y-62821873D01*
X188129299Y-62808259D01*
X188146626Y-62790932D01*
X188148257Y-62788492D01*
X188177661Y-62752661D01*
X188205113Y-62730133D01*
X188236431Y-62713393D01*
X188270409Y-62703085D01*
X188311890Y-62699000D01*
X188988110Y-62699000D01*
X189029591Y-62703085D01*
X189063569Y-62713393D01*
X189094890Y-62730134D01*
X189095700Y-62730799D01*
X189116074Y-62744413D01*
X189138713Y-62753791D01*
X189162746Y-62758572D01*
X189187251Y-62758572D01*
X189211284Y-62753792D01*
X189233923Y-62744415D01*
X189254300Y-62730799D01*
X189255110Y-62730134D01*
X189286431Y-62713393D01*
X189320409Y-62703085D01*
X189361890Y-62699000D01*
X190038110Y-62699000D01*
X190079591Y-62703085D01*
X190113569Y-62713393D01*
X190144887Y-62730133D01*
X190172339Y-62752661D01*
X190194867Y-62780113D01*
X190211607Y-62811431D01*
X190221915Y-62845409D01*
X190226000Y-62886890D01*
X190226000Y-63488110D01*
X190221915Y-63529591D01*
X190211607Y-63563569D01*
X190194867Y-63594887D01*
X190172339Y-63622339D01*
X190144887Y-63644867D01*
X190113569Y-63661607D01*
X190079591Y-63671915D01*
X190038110Y-63676000D01*
X189361890Y-63676000D01*
X189320409Y-63671915D01*
X189286431Y-63661607D01*
X189255110Y-63644866D01*
X189254300Y-63644201D01*
X189233926Y-63630587D01*
X189211287Y-63621209D01*
X189187254Y-63616428D01*
X189162749Y-63616428D01*
X189138716Y-63621208D01*
X189116077Y-63630585D01*
X189095700Y-63644201D01*
X189094890Y-63644866D01*
X189063569Y-63661607D01*
X189029591Y-63671915D01*
X188988110Y-63676000D01*
X188311890Y-63676000D01*
X188270409Y-63671915D01*
X188236431Y-63661607D01*
X188205113Y-63644867D01*
X188177661Y-63622339D01*
X188148257Y-63586508D01*
X188146626Y-63584068D01*
X188129299Y-63566741D01*
X188108925Y-63553127D01*
X188086286Y-63543750D01*
X188062252Y-63538969D01*
X188037748Y-63538969D01*
X188013715Y-63543749D01*
X187991076Y-63553127D01*
X187970701Y-63566741D01*
X187953374Y-63584068D01*
X187951743Y-63586508D01*
X187922339Y-63622339D01*
X187894887Y-63644867D01*
X187863569Y-63661607D01*
X187829591Y-63671915D01*
X187788110Y-63676000D01*
X187111890Y-63676000D01*
X187070409Y-63671915D01*
X187036431Y-63661607D01*
X187005113Y-63644867D01*
X186977661Y-63622339D01*
X186955133Y-63594887D01*
X186938393Y-63563569D01*
X186928085Y-63529591D01*
X186924000Y-63488110D01*
X186924000Y-62886890D01*
X186928085Y-62845409D01*
X186938393Y-62811431D01*
X186955133Y-62780113D01*
X186977661Y-62752661D01*
X187005113Y-62730133D01*
X187036431Y-62713393D01*
X187070409Y-62703085D01*
X187111890Y-62699000D01*
X187788110Y-62699000D01*
X187829591Y-62703085D01*
X187829591Y-62703085D01*
G37*
G36*
X179279591Y-62703085D02*
X179313569Y-62713393D01*
X179344890Y-62730134D01*
X179345700Y-62730799D01*
X179366074Y-62744413D01*
X179388713Y-62753791D01*
X179412746Y-62758572D01*
X179437251Y-62758572D01*
X179461284Y-62753792D01*
X179483923Y-62744415D01*
X179504300Y-62730799D01*
X179505110Y-62730134D01*
X179536431Y-62713393D01*
X179570409Y-62703085D01*
X179611890Y-62699000D01*
X180288110Y-62699000D01*
X180329591Y-62703085D01*
X180363569Y-62713393D01*
X180394887Y-62730133D01*
X180422339Y-62752661D01*
X180444867Y-62780113D01*
X180461607Y-62811431D01*
X180471915Y-62845409D01*
X180476000Y-62886890D01*
X180476000Y-63488110D01*
X180471915Y-63529591D01*
X180461607Y-63563569D01*
X180444867Y-63594887D01*
X180422339Y-63622339D01*
X180394887Y-63644867D01*
X180363569Y-63661607D01*
X180329591Y-63671915D01*
X180288110Y-63676000D01*
X179611890Y-63676000D01*
X179570409Y-63671915D01*
X179536431Y-63661607D01*
X179505110Y-63644866D01*
X179504300Y-63644201D01*
X179483926Y-63630587D01*
X179461287Y-63621209D01*
X179437254Y-63616428D01*
X179412749Y-63616428D01*
X179388716Y-63621208D01*
X179366077Y-63630585D01*
X179345700Y-63644201D01*
X179344890Y-63644866D01*
X179313569Y-63661607D01*
X179279591Y-63671915D01*
X179238110Y-63676000D01*
X178561890Y-63676000D01*
X178520409Y-63671915D01*
X178486431Y-63661607D01*
X178455113Y-63644867D01*
X178427661Y-63622339D01*
X178405133Y-63594887D01*
X178388393Y-63563569D01*
X178378085Y-63529591D01*
X178374000Y-63488110D01*
X178374000Y-62886890D01*
X178378085Y-62845409D01*
X178388393Y-62811431D01*
X178405133Y-62780113D01*
X178427661Y-62752661D01*
X178455113Y-62730133D01*
X178486431Y-62713393D01*
X178520409Y-62703085D01*
X178561890Y-62699000D01*
X179238110Y-62699000D01*
X179279591Y-62703085D01*
X179279591Y-62703085D01*
G37*
G36*
X117781559Y-61166548D02*
X115645771Y-63302336D01*
X114499607Y-62156172D01*
X116635395Y-60020384D01*
X117781559Y-61166548D01*
X117781559Y-61166548D01*
G37*
G36*
X197737591Y-62126685D02*
X197771569Y-62136993D01*
X197802887Y-62153733D01*
X197830339Y-62176261D01*
X197852867Y-62203713D01*
X197869607Y-62235031D01*
X197879915Y-62269009D01*
X197884000Y-62310490D01*
X197884000Y-62911710D01*
X197879915Y-62953191D01*
X197869607Y-62987169D01*
X197852867Y-63018487D01*
X197830339Y-63045939D01*
X197802887Y-63068467D01*
X197771569Y-63085207D01*
X197737591Y-63095515D01*
X197696110Y-63099600D01*
X197019890Y-63099600D01*
X196978409Y-63095515D01*
X196944431Y-63085207D01*
X196913113Y-63068467D01*
X196885661Y-63045939D01*
X196863133Y-63018487D01*
X196846393Y-62987169D01*
X196836085Y-62953191D01*
X196832000Y-62911710D01*
X196832000Y-62310490D01*
X196836085Y-62269009D01*
X196846393Y-62235031D01*
X196863133Y-62203713D01*
X196885661Y-62176261D01*
X196913113Y-62153733D01*
X196944431Y-62136993D01*
X196978409Y-62126685D01*
X197019890Y-62122600D01*
X197696110Y-62122600D01*
X197737591Y-62126685D01*
X197737591Y-62126685D01*
G37*
G36*
X186591600Y-63048300D02*
X185891600Y-63048300D01*
X185891600Y-62548300D01*
X186591600Y-62548300D01*
X186591600Y-63048300D01*
X186591600Y-63048300D01*
G37*
G36*
X181491600Y-63048300D02*
X180791600Y-63048300D01*
X180791600Y-62548300D01*
X181491600Y-62548300D01*
X181491600Y-63048300D01*
X181491600Y-63048300D01*
G37*
G36*
X196323270Y-63023746D02*
X195623270Y-63023746D01*
X195623270Y-62523746D01*
X196323270Y-62523746D01*
X196323270Y-63023746D01*
X196323270Y-63023746D01*
G37*
G36*
X191223270Y-63023746D02*
X190523270Y-63023746D01*
X190523270Y-62523746D01*
X191223270Y-62523746D01*
X191223270Y-63023746D01*
X191223270Y-63023746D01*
G37*
G36*
X179279591Y-61128085D02*
X179313569Y-61138393D01*
X179344890Y-61155134D01*
X179345700Y-61155799D01*
X179366074Y-61169413D01*
X179388713Y-61178791D01*
X179412746Y-61183572D01*
X179437251Y-61183572D01*
X179461284Y-61178792D01*
X179483923Y-61169415D01*
X179504300Y-61155799D01*
X179505110Y-61155134D01*
X179536431Y-61138393D01*
X179570409Y-61128085D01*
X179611890Y-61124000D01*
X180288110Y-61124000D01*
X180329591Y-61128085D01*
X180363569Y-61138393D01*
X180394887Y-61155133D01*
X180422339Y-61177661D01*
X180444867Y-61205113D01*
X180461607Y-61236431D01*
X180471915Y-61270409D01*
X180476000Y-61311890D01*
X180476000Y-61913110D01*
X180471915Y-61954591D01*
X180461607Y-61988569D01*
X180444867Y-62019887D01*
X180422339Y-62047339D01*
X180394887Y-62069867D01*
X180363569Y-62086607D01*
X180329591Y-62096915D01*
X180288110Y-62101000D01*
X179611890Y-62101000D01*
X179570409Y-62096915D01*
X179536431Y-62086607D01*
X179505110Y-62069866D01*
X179504300Y-62069201D01*
X179483926Y-62055587D01*
X179461287Y-62046209D01*
X179437254Y-62041428D01*
X179412749Y-62041428D01*
X179388716Y-62046208D01*
X179366077Y-62055585D01*
X179345700Y-62069201D01*
X179344890Y-62069866D01*
X179313569Y-62086607D01*
X179279591Y-62096915D01*
X179238110Y-62101000D01*
X178561890Y-62101000D01*
X178520409Y-62096915D01*
X178486431Y-62086607D01*
X178455113Y-62069867D01*
X178427661Y-62047339D01*
X178405133Y-62019887D01*
X178388393Y-61988569D01*
X178378085Y-61954591D01*
X178374000Y-61913110D01*
X178374000Y-61311890D01*
X178378085Y-61270409D01*
X178388393Y-61236431D01*
X178405133Y-61205113D01*
X178427661Y-61177661D01*
X178455113Y-61155133D01*
X178486431Y-61138393D01*
X178520409Y-61128085D01*
X178561890Y-61124000D01*
X179238110Y-61124000D01*
X179279591Y-61128085D01*
X179279591Y-61128085D01*
G37*
G36*
X187829591Y-61128085D02*
X187863569Y-61138393D01*
X187894887Y-61155133D01*
X187922339Y-61177661D01*
X187951743Y-61213492D01*
X187953374Y-61215932D01*
X187970701Y-61233259D01*
X187991075Y-61246873D01*
X188013714Y-61256250D01*
X188037748Y-61261031D01*
X188062252Y-61261031D01*
X188086285Y-61256251D01*
X188108924Y-61246873D01*
X188129299Y-61233259D01*
X188146626Y-61215932D01*
X188148257Y-61213492D01*
X188177661Y-61177661D01*
X188205113Y-61155133D01*
X188236431Y-61138393D01*
X188270409Y-61128085D01*
X188311890Y-61124000D01*
X188988110Y-61124000D01*
X189029591Y-61128085D01*
X189063569Y-61138393D01*
X189094890Y-61155134D01*
X189095700Y-61155799D01*
X189116074Y-61169413D01*
X189138713Y-61178791D01*
X189162746Y-61183572D01*
X189187251Y-61183572D01*
X189211284Y-61178792D01*
X189233923Y-61169415D01*
X189254300Y-61155799D01*
X189255110Y-61155134D01*
X189286431Y-61138393D01*
X189320409Y-61128085D01*
X189361890Y-61124000D01*
X190038110Y-61124000D01*
X190079591Y-61128085D01*
X190113569Y-61138393D01*
X190144887Y-61155133D01*
X190172339Y-61177661D01*
X190194867Y-61205113D01*
X190211607Y-61236431D01*
X190221915Y-61270409D01*
X190226000Y-61311890D01*
X190226000Y-61913110D01*
X190221915Y-61954591D01*
X190211607Y-61988569D01*
X190194867Y-62019887D01*
X190172339Y-62047339D01*
X190144887Y-62069867D01*
X190113569Y-62086607D01*
X190079591Y-62096915D01*
X190038110Y-62101000D01*
X189361890Y-62101000D01*
X189320409Y-62096915D01*
X189286431Y-62086607D01*
X189255110Y-62069866D01*
X189254300Y-62069201D01*
X189233926Y-62055587D01*
X189211287Y-62046209D01*
X189187254Y-62041428D01*
X189162749Y-62041428D01*
X189138716Y-62046208D01*
X189116077Y-62055585D01*
X189095700Y-62069201D01*
X189094890Y-62069866D01*
X189063569Y-62086607D01*
X189029591Y-62096915D01*
X188988110Y-62101000D01*
X188311890Y-62101000D01*
X188270409Y-62096915D01*
X188236431Y-62086607D01*
X188205113Y-62069867D01*
X188177661Y-62047339D01*
X188148257Y-62011508D01*
X188146626Y-62009068D01*
X188129299Y-61991741D01*
X188108925Y-61978127D01*
X188086286Y-61968750D01*
X188062252Y-61963969D01*
X188037748Y-61963969D01*
X188013715Y-61968749D01*
X187991076Y-61978127D01*
X187970701Y-61991741D01*
X187953374Y-62009068D01*
X187951743Y-62011508D01*
X187922339Y-62047339D01*
X187894887Y-62069867D01*
X187863569Y-62086607D01*
X187829591Y-62096915D01*
X187788110Y-62101000D01*
X187111890Y-62101000D01*
X187070409Y-62096915D01*
X187036431Y-62086607D01*
X187005113Y-62069867D01*
X186977661Y-62047339D01*
X186955133Y-62019887D01*
X186938393Y-61988569D01*
X186928085Y-61954591D01*
X186924000Y-61913110D01*
X186924000Y-61311890D01*
X186928085Y-61270409D01*
X186938393Y-61236431D01*
X186955133Y-61205113D01*
X186977661Y-61177661D01*
X187005113Y-61155133D01*
X187036431Y-61138393D01*
X187070409Y-61128085D01*
X187111890Y-61124000D01*
X187788110Y-61124000D01*
X187829591Y-61128085D01*
X187829591Y-61128085D01*
G37*
G36*
X186591600Y-61848300D02*
X185891600Y-61848300D01*
X185891600Y-61348300D01*
X186591600Y-61348300D01*
X186591600Y-61848300D01*
X186591600Y-61848300D01*
G37*
G36*
X181491600Y-61848300D02*
X180791600Y-61848300D01*
X180791600Y-61348300D01*
X181491600Y-61348300D01*
X181491600Y-61848300D01*
X181491600Y-61848300D01*
G37*
G36*
X191223270Y-61823746D02*
X190523270Y-61823746D01*
X190523270Y-61323746D01*
X191223270Y-61323746D01*
X191223270Y-61823746D01*
X191223270Y-61823746D01*
G37*
G36*
X196323270Y-61823746D02*
X195623270Y-61823746D01*
X195623270Y-61323746D01*
X196323270Y-61323746D01*
X196323270Y-61823746D01*
X196323270Y-61823746D01*
G37*
G36*
X184841600Y-61648300D02*
X184341600Y-61648300D01*
X184341600Y-60948300D01*
X184841600Y-60948300D01*
X184841600Y-61648300D01*
X184841600Y-61648300D01*
G37*
G36*
X183041600Y-61648300D02*
X182541600Y-61648300D01*
X182541600Y-60948300D01*
X183041600Y-60948300D01*
X183041600Y-61648300D01*
X183041600Y-61648300D01*
G37*
G36*
X194573270Y-61623746D02*
X194073270Y-61623746D01*
X194073270Y-60923746D01*
X194573270Y-60923746D01*
X194573270Y-61623746D01*
X194573270Y-61623746D01*
G37*
G36*
X192773270Y-61623746D02*
X192273270Y-61623746D01*
X192273270Y-60923746D01*
X192773270Y-60923746D01*
X192773270Y-61623746D01*
X192773270Y-61623746D01*
G37*
G36*
X197737591Y-60551685D02*
X197771569Y-60561993D01*
X197802887Y-60578733D01*
X197830339Y-60601261D01*
X197852867Y-60628713D01*
X197869607Y-60660031D01*
X197879915Y-60694009D01*
X197884000Y-60735490D01*
X197884000Y-61336710D01*
X197879915Y-61378191D01*
X197869607Y-61412169D01*
X197852867Y-61443487D01*
X197830339Y-61470939D01*
X197802887Y-61493467D01*
X197771569Y-61510207D01*
X197737591Y-61520515D01*
X197696110Y-61524600D01*
X197019890Y-61524600D01*
X196978409Y-61520515D01*
X196944431Y-61510207D01*
X196913113Y-61493467D01*
X196885661Y-61470939D01*
X196863133Y-61443487D01*
X196846393Y-61412169D01*
X196836085Y-61378191D01*
X196832000Y-61336710D01*
X196832000Y-60735490D01*
X196836085Y-60694009D01*
X196846393Y-60660031D01*
X196863133Y-60628713D01*
X196885661Y-60601261D01*
X196913113Y-60578733D01*
X196944431Y-60561993D01*
X196978409Y-60551685D01*
X197019890Y-60547600D01*
X197696110Y-60547600D01*
X197737591Y-60551685D01*
X197737591Y-60551685D01*
G37*
G36*
X180074667Y-59197565D02*
X180113338Y-59209296D01*
X180148980Y-59228348D01*
X180180218Y-59253983D01*
X180205853Y-59285221D01*
X180224905Y-59320863D01*
X180236636Y-59359534D01*
X180241201Y-59405888D01*
X180241201Y-60482112D01*
X180236636Y-60528466D01*
X180224905Y-60567137D01*
X180205853Y-60602779D01*
X180180218Y-60634017D01*
X180148980Y-60659652D01*
X180113338Y-60678704D01*
X180074667Y-60690435D01*
X180028313Y-60695000D01*
X179377089Y-60695000D01*
X179330735Y-60690435D01*
X179292064Y-60678704D01*
X179256422Y-60659652D01*
X179225184Y-60634017D01*
X179199549Y-60602779D01*
X179180497Y-60567137D01*
X179168766Y-60528466D01*
X179164201Y-60482112D01*
X179164201Y-59405888D01*
X179168766Y-59359534D01*
X179180497Y-59320863D01*
X179199549Y-59285221D01*
X179225184Y-59253983D01*
X179256422Y-59228348D01*
X179292064Y-59209296D01*
X179330735Y-59197565D01*
X179377089Y-59193000D01*
X180028313Y-59193000D01*
X180074667Y-59197565D01*
X180074667Y-59197565D01*
G37*
G36*
X178199665Y-59197565D02*
X178238336Y-59209296D01*
X178273978Y-59228348D01*
X178305216Y-59253983D01*
X178330851Y-59285221D01*
X178349903Y-59320863D01*
X178361634Y-59359534D01*
X178366199Y-59405888D01*
X178366199Y-60482112D01*
X178361634Y-60528466D01*
X178349903Y-60567137D01*
X178330851Y-60602779D01*
X178305216Y-60634017D01*
X178273978Y-60659652D01*
X178238336Y-60678704D01*
X178199665Y-60690435D01*
X178153311Y-60695000D01*
X177502087Y-60695000D01*
X177455733Y-60690435D01*
X177417062Y-60678704D01*
X177381420Y-60659652D01*
X177350182Y-60634017D01*
X177324547Y-60602779D01*
X177305495Y-60567137D01*
X177293764Y-60528466D01*
X177289199Y-60482112D01*
X177289199Y-59405888D01*
X177293764Y-59359534D01*
X177305495Y-59320863D01*
X177324547Y-59285221D01*
X177350182Y-59253983D01*
X177381420Y-59228348D01*
X177417062Y-59209296D01*
X177455733Y-59197565D01*
X177502087Y-59193000D01*
X178153311Y-59193000D01*
X178199665Y-59197565D01*
X178199665Y-59197565D01*
G37*
G36*
X115130588Y-58515576D02*
X112994800Y-60651364D01*
X111848636Y-59505200D01*
X113984424Y-57369412D01*
X115130588Y-58515576D01*
X115130588Y-58515576D01*
G37*
G36*
X189909466Y-59053565D02*
X189948137Y-59065296D01*
X189983779Y-59084348D01*
X190015017Y-59109983D01*
X190040652Y-59141221D01*
X190059704Y-59176863D01*
X190071435Y-59215534D01*
X190076000Y-59261888D01*
X190076000Y-60338112D01*
X190071435Y-60384466D01*
X190059704Y-60423137D01*
X190040652Y-60458779D01*
X190015017Y-60490017D01*
X189983779Y-60515652D01*
X189948137Y-60534704D01*
X189909466Y-60546435D01*
X189863112Y-60551000D01*
X189211888Y-60551000D01*
X189165534Y-60546435D01*
X189126863Y-60534704D01*
X189091221Y-60515652D01*
X189059983Y-60490017D01*
X189034348Y-60458779D01*
X189015296Y-60423137D01*
X189003565Y-60384466D01*
X188999000Y-60338112D01*
X188999000Y-59261888D01*
X189003565Y-59215534D01*
X189015296Y-59176863D01*
X189034348Y-59141221D01*
X189059983Y-59109983D01*
X189091221Y-59084348D01*
X189126863Y-59065296D01*
X189165534Y-59053565D01*
X189211888Y-59049000D01*
X189863112Y-59049000D01*
X189909466Y-59053565D01*
X189909466Y-59053565D01*
G37*
G36*
X188034466Y-59053565D02*
X188073137Y-59065296D01*
X188108779Y-59084348D01*
X188140017Y-59109983D01*
X188165652Y-59141221D01*
X188184704Y-59176863D01*
X188196435Y-59215534D01*
X188201000Y-59261888D01*
X188201000Y-60338112D01*
X188196435Y-60384466D01*
X188184704Y-60423137D01*
X188165652Y-60458779D01*
X188140017Y-60490017D01*
X188108779Y-60515652D01*
X188073137Y-60534704D01*
X188034466Y-60546435D01*
X187988112Y-60551000D01*
X187336888Y-60551000D01*
X187290534Y-60546435D01*
X187251863Y-60534704D01*
X187216221Y-60515652D01*
X187184983Y-60490017D01*
X187159348Y-60458779D01*
X187140296Y-60423137D01*
X187128565Y-60384466D01*
X187124000Y-60338112D01*
X187124000Y-59261888D01*
X187128565Y-59215534D01*
X187140296Y-59176863D01*
X187159348Y-59141221D01*
X187184983Y-59109983D01*
X187216221Y-59084348D01*
X187251863Y-59065296D01*
X187290534Y-59053565D01*
X187336888Y-59049000D01*
X187988112Y-59049000D01*
X188034466Y-59053565D01*
X188034466Y-59053565D01*
G37*
G36*
X191567090Y-59278085D02*
X191601068Y-59288393D01*
X191632386Y-59305133D01*
X191659838Y-59327661D01*
X191682366Y-59355113D01*
X191699106Y-59386431D01*
X191709414Y-59420409D01*
X191713499Y-59461890D01*
X191713499Y-60138110D01*
X191709414Y-60179591D01*
X191699106Y-60213569D01*
X191682366Y-60244887D01*
X191659838Y-60272339D01*
X191632386Y-60294867D01*
X191601068Y-60311607D01*
X191567090Y-60321915D01*
X191525609Y-60326000D01*
X190924389Y-60326000D01*
X190882908Y-60321915D01*
X190848930Y-60311607D01*
X190817612Y-60294867D01*
X190790160Y-60272339D01*
X190767632Y-60244887D01*
X190750892Y-60213569D01*
X190740584Y-60179591D01*
X190736499Y-60138110D01*
X190736499Y-59461890D01*
X190740584Y-59420409D01*
X190750892Y-59386431D01*
X190767632Y-59355113D01*
X190790160Y-59327661D01*
X190817612Y-59305133D01*
X190848930Y-59288393D01*
X190882908Y-59278085D01*
X190924389Y-59274000D01*
X191525609Y-59274000D01*
X191567090Y-59278085D01*
X191567090Y-59278085D01*
G37*
G36*
X193142090Y-59278085D02*
X193176068Y-59288393D01*
X193207386Y-59305133D01*
X193234838Y-59327661D01*
X193257366Y-59355113D01*
X193274106Y-59386431D01*
X193284414Y-59420409D01*
X193288499Y-59461890D01*
X193288499Y-60138110D01*
X193284414Y-60179591D01*
X193274106Y-60213569D01*
X193257366Y-60244887D01*
X193234838Y-60272339D01*
X193207386Y-60294867D01*
X193176068Y-60311607D01*
X193142090Y-60321915D01*
X193100609Y-60326000D01*
X192499389Y-60326000D01*
X192457908Y-60321915D01*
X192423930Y-60311607D01*
X192392612Y-60294867D01*
X192365160Y-60272339D01*
X192342632Y-60244887D01*
X192325892Y-60213569D01*
X192315584Y-60179591D01*
X192311499Y-60138110D01*
X192311499Y-59461890D01*
X192315584Y-59420409D01*
X192325892Y-59386431D01*
X192342632Y-59355113D01*
X192365160Y-59327661D01*
X192392612Y-59305133D01*
X192423930Y-59288393D01*
X192457908Y-59278085D01*
X192499389Y-59274000D01*
X193100609Y-59274000D01*
X193142090Y-59278085D01*
X193142090Y-59278085D01*
G37*
G36*
X194554591Y-59278085D02*
X194588569Y-59288393D01*
X194619887Y-59305133D01*
X194647339Y-59327661D01*
X194669867Y-59355113D01*
X194686607Y-59386431D01*
X194696915Y-59420409D01*
X194701000Y-59461890D01*
X194701000Y-60138110D01*
X194696915Y-60179591D01*
X194686607Y-60213569D01*
X194669867Y-60244887D01*
X194647339Y-60272339D01*
X194619887Y-60294867D01*
X194588569Y-60311607D01*
X194554591Y-60321915D01*
X194513110Y-60326000D01*
X193911890Y-60326000D01*
X193870409Y-60321915D01*
X193836431Y-60311607D01*
X193805113Y-60294867D01*
X193777661Y-60272339D01*
X193755133Y-60244887D01*
X193738393Y-60213569D01*
X193728085Y-60179591D01*
X193724000Y-60138110D01*
X193724000Y-59461890D01*
X193728085Y-59420409D01*
X193738393Y-59386431D01*
X193755133Y-59355113D01*
X193777661Y-59327661D01*
X193805113Y-59305133D01*
X193836431Y-59288393D01*
X193870409Y-59278085D01*
X193911890Y-59274000D01*
X194513110Y-59274000D01*
X194554591Y-59278085D01*
X194554591Y-59278085D01*
G37*
G36*
X196129591Y-59278085D02*
X196163569Y-59288393D01*
X196194887Y-59305133D01*
X196222339Y-59327661D01*
X196244867Y-59355113D01*
X196261607Y-59386431D01*
X196271915Y-59420409D01*
X196276000Y-59461890D01*
X196276000Y-60138110D01*
X196271915Y-60179591D01*
X196261607Y-60213569D01*
X196244867Y-60244887D01*
X196222339Y-60272339D01*
X196194887Y-60294867D01*
X196163569Y-60311607D01*
X196129591Y-60321915D01*
X196088110Y-60326000D01*
X195486890Y-60326000D01*
X195445409Y-60321915D01*
X195411431Y-60311607D01*
X195380113Y-60294867D01*
X195352661Y-60272339D01*
X195330133Y-60244887D01*
X195313393Y-60213569D01*
X195303085Y-60179591D01*
X195299000Y-60138110D01*
X195299000Y-59461890D01*
X195303085Y-59420409D01*
X195313393Y-59386431D01*
X195330133Y-59355113D01*
X195352661Y-59327661D01*
X195380113Y-59305133D01*
X195411431Y-59288393D01*
X195445409Y-59278085D01*
X195486890Y-59274000D01*
X196088110Y-59274000D01*
X196129591Y-59278085D01*
X196129591Y-59278085D01*
G37*
G36*
X184754591Y-59278085D02*
X184788569Y-59288393D01*
X184819887Y-59305133D01*
X184847339Y-59327661D01*
X184869867Y-59355113D01*
X184886607Y-59386431D01*
X184896915Y-59420409D01*
X184901000Y-59461890D01*
X184901000Y-60138110D01*
X184896915Y-60179591D01*
X184886607Y-60213569D01*
X184869867Y-60244887D01*
X184847339Y-60272339D01*
X184819887Y-60294867D01*
X184788569Y-60311607D01*
X184754591Y-60321915D01*
X184713110Y-60326000D01*
X184111890Y-60326000D01*
X184070409Y-60321915D01*
X184036431Y-60311607D01*
X184005113Y-60294867D01*
X183977661Y-60272339D01*
X183955133Y-60244887D01*
X183938393Y-60213569D01*
X183928085Y-60179591D01*
X183924000Y-60138110D01*
X183924000Y-59461890D01*
X183928085Y-59420409D01*
X183938393Y-59386431D01*
X183955133Y-59355113D01*
X183977661Y-59327661D01*
X184005113Y-59305133D01*
X184036431Y-59288393D01*
X184070409Y-59278085D01*
X184111890Y-59274000D01*
X184713110Y-59274000D01*
X184754591Y-59278085D01*
X184754591Y-59278085D01*
G37*
G36*
X186329591Y-59278085D02*
X186363569Y-59288393D01*
X186394887Y-59305133D01*
X186422339Y-59327661D01*
X186444867Y-59355113D01*
X186461607Y-59386431D01*
X186471915Y-59420409D01*
X186476000Y-59461890D01*
X186476000Y-60138110D01*
X186471915Y-60179591D01*
X186461607Y-60213569D01*
X186444867Y-60244887D01*
X186422339Y-60272339D01*
X186394887Y-60294867D01*
X186363569Y-60311607D01*
X186329591Y-60321915D01*
X186288110Y-60326000D01*
X185686890Y-60326000D01*
X185645409Y-60321915D01*
X185611431Y-60311607D01*
X185580113Y-60294867D01*
X185552661Y-60272339D01*
X185530133Y-60244887D01*
X185513393Y-60213569D01*
X185503085Y-60179591D01*
X185499000Y-60138110D01*
X185499000Y-59461890D01*
X185503085Y-59420409D01*
X185513393Y-59386431D01*
X185530133Y-59355113D01*
X185552661Y-59327661D01*
X185580113Y-59305133D01*
X185611431Y-59288393D01*
X185645409Y-59278085D01*
X185686890Y-59274000D01*
X186288110Y-59274000D01*
X186329591Y-59278085D01*
X186329591Y-59278085D01*
G37*
G36*
X183329591Y-59278085D02*
X183363569Y-59288393D01*
X183394887Y-59305133D01*
X183422339Y-59327661D01*
X183444867Y-59355113D01*
X183461607Y-59386431D01*
X183471915Y-59420409D01*
X183476000Y-59461890D01*
X183476000Y-60138110D01*
X183471915Y-60179591D01*
X183461607Y-60213569D01*
X183444867Y-60244887D01*
X183422339Y-60272339D01*
X183394887Y-60294867D01*
X183363569Y-60311607D01*
X183329591Y-60321915D01*
X183288110Y-60326000D01*
X182686890Y-60326000D01*
X182645409Y-60321915D01*
X182611431Y-60311607D01*
X182580113Y-60294867D01*
X182552661Y-60272339D01*
X182530133Y-60244887D01*
X182513393Y-60213569D01*
X182503085Y-60179591D01*
X182499000Y-60138110D01*
X182499000Y-59461890D01*
X182503085Y-59420409D01*
X182513393Y-59386431D01*
X182530133Y-59355113D01*
X182552661Y-59327661D01*
X182580113Y-59305133D01*
X182611431Y-59288393D01*
X182645409Y-59278085D01*
X182686890Y-59274000D01*
X183288110Y-59274000D01*
X183329591Y-59278085D01*
X183329591Y-59278085D01*
G37*
G36*
X181754591Y-59278085D02*
X181788569Y-59288393D01*
X181819887Y-59305133D01*
X181847339Y-59327661D01*
X181869867Y-59355113D01*
X181886607Y-59386431D01*
X181896915Y-59420409D01*
X181901000Y-59461890D01*
X181901000Y-60138110D01*
X181896915Y-60179591D01*
X181886607Y-60213569D01*
X181869867Y-60244887D01*
X181847339Y-60272339D01*
X181819887Y-60294867D01*
X181788569Y-60311607D01*
X181754591Y-60321915D01*
X181713110Y-60326000D01*
X181111890Y-60326000D01*
X181070409Y-60321915D01*
X181036431Y-60311607D01*
X181005113Y-60294867D01*
X180977661Y-60272339D01*
X180955133Y-60244887D01*
X180938393Y-60213569D01*
X180928085Y-60179591D01*
X180924000Y-60138110D01*
X180924000Y-59461890D01*
X180928085Y-59420409D01*
X180938393Y-59386431D01*
X180955133Y-59355113D01*
X180977661Y-59327661D01*
X181005113Y-59305133D01*
X181036431Y-59288393D01*
X181070409Y-59278085D01*
X181111890Y-59274000D01*
X181713110Y-59274000D01*
X181754591Y-59278085D01*
X181754591Y-59278085D01*
G37*
G36*
X177672091Y-57085285D02*
X177706069Y-57095593D01*
X177737387Y-57112333D01*
X177764839Y-57134861D01*
X177787367Y-57162313D01*
X177804107Y-57193631D01*
X177814415Y-57227609D01*
X177818500Y-57269090D01*
X177818500Y-57945310D01*
X177814415Y-57986791D01*
X177804107Y-58020769D01*
X177787367Y-58052087D01*
X177764839Y-58079539D01*
X177737387Y-58102067D01*
X177706069Y-58118807D01*
X177672091Y-58129115D01*
X177630610Y-58133200D01*
X177029390Y-58133200D01*
X176987909Y-58129115D01*
X176953931Y-58118807D01*
X176922613Y-58102067D01*
X176895161Y-58079539D01*
X176872633Y-58052087D01*
X176855893Y-58020769D01*
X176845585Y-57986791D01*
X176841500Y-57945310D01*
X176841500Y-57269090D01*
X176845585Y-57227609D01*
X176855893Y-57193631D01*
X176872633Y-57162313D01*
X176895161Y-57134861D01*
X176922613Y-57112333D01*
X176953931Y-57095593D01*
X176987909Y-57085285D01*
X177029390Y-57081200D01*
X177630610Y-57081200D01*
X177672091Y-57085285D01*
X177672091Y-57085285D01*
G37*
G36*
X179247091Y-57085285D02*
X179281069Y-57095593D01*
X179312387Y-57112333D01*
X179339839Y-57134861D01*
X179362367Y-57162313D01*
X179379107Y-57193631D01*
X179389415Y-57227609D01*
X179393500Y-57269090D01*
X179393500Y-57945310D01*
X179389415Y-57986791D01*
X179379107Y-58020769D01*
X179362367Y-58052087D01*
X179339839Y-58079539D01*
X179312387Y-58102067D01*
X179281069Y-58118807D01*
X179247091Y-58129115D01*
X179205610Y-58133200D01*
X178604390Y-58133200D01*
X178562909Y-58129115D01*
X178528931Y-58118807D01*
X178497613Y-58102067D01*
X178470161Y-58079539D01*
X178447633Y-58052087D01*
X178430893Y-58020769D01*
X178420585Y-57986791D01*
X178416500Y-57945310D01*
X178416500Y-57269090D01*
X178420585Y-57227609D01*
X178430893Y-57193631D01*
X178447633Y-57162313D01*
X178470161Y-57134861D01*
X178497613Y-57112333D01*
X178528931Y-57095593D01*
X178562909Y-57085285D01*
X178604390Y-57081200D01*
X179205610Y-57081200D01*
X179247091Y-57085285D01*
X179247091Y-57085285D01*
G37*
G36*
X175058135Y-53360800D02*
X175089340Y-53370266D01*
X175118087Y-53385631D01*
X175143287Y-53406313D01*
X175163969Y-53431513D01*
X175179334Y-53460260D01*
X175188800Y-53491465D01*
X175192600Y-53530045D01*
X175192600Y-57885955D01*
X175188800Y-57924535D01*
X175179334Y-57955740D01*
X175163969Y-57984487D01*
X175143287Y-58009687D01*
X175118087Y-58030369D01*
X175089340Y-58045734D01*
X175058135Y-58055200D01*
X175019555Y-58059000D01*
X173163645Y-58059000D01*
X173125065Y-58055200D01*
X173093860Y-58045734D01*
X173065113Y-58030369D01*
X173039913Y-58009687D01*
X173019231Y-57984487D01*
X173003866Y-57955740D01*
X172994400Y-57924535D01*
X172990600Y-57885955D01*
X172990600Y-53530045D01*
X172994400Y-53491465D01*
X173003866Y-53460260D01*
X173019231Y-53431513D01*
X173039913Y-53406313D01*
X173065113Y-53385631D01*
X173093860Y-53370266D01*
X173125065Y-53360800D01*
X173163645Y-53357000D01*
X175019555Y-53357000D01*
X175058135Y-53360800D01*
X175058135Y-53360800D01*
G37*
G36*
X194768535Y-53360800D02*
X194799740Y-53370266D01*
X194828487Y-53385631D01*
X194853687Y-53406313D01*
X194874369Y-53431513D01*
X194889734Y-53460260D01*
X194899200Y-53491465D01*
X194903000Y-53530045D01*
X194903000Y-57885955D01*
X194899200Y-57924535D01*
X194889734Y-57955740D01*
X194874369Y-57984487D01*
X194853687Y-58009687D01*
X194828487Y-58030369D01*
X194799740Y-58045734D01*
X194768535Y-58055200D01*
X194729955Y-58059000D01*
X192874045Y-58059000D01*
X192835465Y-58055200D01*
X192804260Y-58045734D01*
X192775513Y-58030369D01*
X192750313Y-58009687D01*
X192729631Y-57984487D01*
X192714266Y-57955740D01*
X192704800Y-57924535D01*
X192701000Y-57885955D01*
X192701000Y-53530045D01*
X192704800Y-53491465D01*
X192714266Y-53460260D01*
X192729631Y-53431513D01*
X192750313Y-53406313D01*
X192775513Y-53385631D01*
X192804260Y-53370266D01*
X192835465Y-53360800D01*
X192874045Y-53357000D01*
X194729955Y-53357000D01*
X194768535Y-53360800D01*
X194768535Y-53360800D01*
G37*
G36*
X112479616Y-55864605D02*
X110343828Y-58000393D01*
X109197664Y-56854229D01*
X111333452Y-54718441D01*
X112479616Y-55864605D01*
X112479616Y-55864605D01*
G37*
G36*
X183358200Y-57988000D02*
X182196200Y-57988000D01*
X182196200Y-55336000D01*
X183358200Y-55336000D01*
X183358200Y-57988000D01*
X183358200Y-57988000D01*
G37*
G36*
X181158200Y-57988000D02*
X179996200Y-57988000D01*
X179996200Y-55336000D01*
X181158200Y-55336000D01*
X181158200Y-57988000D01*
X181158200Y-57988000D01*
G37*
G36*
X188158200Y-57988000D02*
X186996200Y-57988000D01*
X186996200Y-55336000D01*
X188158200Y-55336000D01*
X188158200Y-57988000D01*
X188158200Y-57988000D01*
G37*
G36*
X185958200Y-57988000D02*
X184796200Y-57988000D01*
X184796200Y-55336000D01*
X185958200Y-55336000D01*
X185958200Y-57988000D01*
X185958200Y-57988000D01*
G37*
G36*
X109828644Y-53213633D02*
X107692856Y-55349421D01*
X106546692Y-54203257D01*
X108682480Y-52067469D01*
X109828644Y-53213633D01*
X109828644Y-53213633D01*
G37*
G36*
X184377191Y-53947885D02*
X184411169Y-53958193D01*
X184442487Y-53974933D01*
X184469939Y-53997461D01*
X184492467Y-54024913D01*
X184509207Y-54056231D01*
X184519515Y-54090209D01*
X184523600Y-54131690D01*
X184523600Y-54732910D01*
X184519515Y-54774391D01*
X184509207Y-54808369D01*
X184492467Y-54839687D01*
X184469939Y-54867139D01*
X184442487Y-54889667D01*
X184411169Y-54906407D01*
X184377191Y-54916715D01*
X184335710Y-54920800D01*
X183659490Y-54920800D01*
X183618009Y-54916715D01*
X183584031Y-54906407D01*
X183552713Y-54889667D01*
X183525261Y-54867139D01*
X183502733Y-54839687D01*
X183485993Y-54808369D01*
X183475685Y-54774391D01*
X183471600Y-54732910D01*
X183471600Y-54131690D01*
X183475685Y-54090209D01*
X183485993Y-54056231D01*
X183502733Y-54024913D01*
X183525261Y-53997461D01*
X183552713Y-53974933D01*
X183584031Y-53958193D01*
X183618009Y-53947885D01*
X183659490Y-53943800D01*
X184335710Y-53943800D01*
X184377191Y-53947885D01*
X184377191Y-53947885D01*
G37*
G36*
X182703200Y-54613000D02*
X180251200Y-54613000D01*
X180251200Y-53411000D01*
X182703200Y-53411000D01*
X182703200Y-54613000D01*
X182703200Y-54613000D01*
G37*
G36*
X187703200Y-54613000D02*
X185251200Y-54613000D01*
X185251200Y-53411000D01*
X187703200Y-53411000D01*
X187703200Y-54613000D01*
X187703200Y-54613000D01*
G37*
G36*
X184377191Y-52372885D02*
X184411169Y-52383193D01*
X184442487Y-52399933D01*
X184469939Y-52422461D01*
X184492467Y-52449913D01*
X184509207Y-52481231D01*
X184519515Y-52515209D01*
X184523600Y-52556690D01*
X184523600Y-53157910D01*
X184519515Y-53199391D01*
X184509207Y-53233369D01*
X184492467Y-53264687D01*
X184469939Y-53292139D01*
X184442487Y-53314667D01*
X184411169Y-53331407D01*
X184377191Y-53341715D01*
X184335710Y-53345800D01*
X183659490Y-53345800D01*
X183618009Y-53341715D01*
X183584031Y-53331407D01*
X183552713Y-53314667D01*
X183525261Y-53292139D01*
X183502733Y-53264687D01*
X183485993Y-53233369D01*
X183475685Y-53199391D01*
X183471600Y-53157910D01*
X183471600Y-52556690D01*
X183475685Y-52515209D01*
X183485993Y-52481231D01*
X183502733Y-52449913D01*
X183525261Y-52422461D01*
X183552713Y-52399933D01*
X183584031Y-52383193D01*
X183618009Y-52372885D01*
X183659490Y-52368800D01*
X184335710Y-52368800D01*
X184377191Y-52372885D01*
X184377191Y-52372885D01*
G37*
G36*
X104953191Y-50506227D02*
X103113299Y-52346119D01*
X101768381Y-51001201D01*
X103608273Y-49161309D01*
X104953191Y-50506227D01*
X104953191Y-50506227D01*
G37*
G36*
X182703200Y-50313000D02*
X180251200Y-50313000D01*
X180251200Y-49111000D01*
X182703200Y-49111000D01*
X182703200Y-50313000D01*
X182703200Y-50313000D01*
G37*
G36*
X187703200Y-50313000D02*
X185251200Y-50313000D01*
X185251200Y-49111000D01*
X187703200Y-49111000D01*
X187703200Y-50313000D01*
X187703200Y-50313000D01*
G37*
G36*
X184480466Y-48917565D02*
X184519137Y-48929296D01*
X184554779Y-48948348D01*
X184586017Y-48973983D01*
X184611652Y-49005221D01*
X184630704Y-49040863D01*
X184642435Y-49079534D01*
X184647000Y-49125888D01*
X184647000Y-49777112D01*
X184642435Y-49823466D01*
X184630704Y-49862137D01*
X184611652Y-49897779D01*
X184586017Y-49929017D01*
X184554779Y-49954652D01*
X184519137Y-49973704D01*
X184480466Y-49985435D01*
X184434112Y-49990000D01*
X183357888Y-49990000D01*
X183311534Y-49985435D01*
X183272863Y-49973704D01*
X183237221Y-49954652D01*
X183205983Y-49929017D01*
X183180348Y-49897779D01*
X183161296Y-49862137D01*
X183149565Y-49823466D01*
X183145000Y-49777112D01*
X183145000Y-49125888D01*
X183149565Y-49079534D01*
X183161296Y-49040863D01*
X183180348Y-49005221D01*
X183205983Y-48973983D01*
X183237221Y-48948348D01*
X183272863Y-48929296D01*
X183311534Y-48917565D01*
X183357888Y-48913000D01*
X184434112Y-48913000D01*
X184480466Y-48917565D01*
X184480466Y-48917565D01*
G37*
G36*
X136453308Y-47796743D02*
X134317520Y-49932531D01*
X133171356Y-48786367D01*
X135307144Y-46650579D01*
X136453308Y-47796743D01*
X136453308Y-47796743D01*
G37*
G36*
X107781619Y-47677799D02*
X105941727Y-49517691D01*
X104596809Y-48172773D01*
X106436701Y-46332881D01*
X107781619Y-47677799D01*
X107781619Y-47677799D01*
G37*
G36*
X194768535Y-44560800D02*
X194799740Y-44570266D01*
X194828487Y-44585631D01*
X194853687Y-44606313D01*
X194874369Y-44631513D01*
X194889734Y-44660260D01*
X194899200Y-44691465D01*
X194903000Y-44730045D01*
X194903000Y-49085955D01*
X194899200Y-49124535D01*
X194889734Y-49155740D01*
X194874369Y-49184487D01*
X194853687Y-49209687D01*
X194828487Y-49230369D01*
X194799740Y-49245734D01*
X194768535Y-49255200D01*
X194729955Y-49259000D01*
X192874045Y-49259000D01*
X192835465Y-49255200D01*
X192804260Y-49245734D01*
X192775513Y-49230369D01*
X192750313Y-49209687D01*
X192729631Y-49184487D01*
X192714266Y-49155740D01*
X192704800Y-49124535D01*
X192701000Y-49085955D01*
X192701000Y-44730045D01*
X192704800Y-44691465D01*
X192714266Y-44660260D01*
X192729631Y-44631513D01*
X192750313Y-44606313D01*
X192775513Y-44585631D01*
X192804260Y-44570266D01*
X192835465Y-44560800D01*
X192874045Y-44557000D01*
X194729955Y-44557000D01*
X194768535Y-44560800D01*
X194768535Y-44560800D01*
G37*
G36*
X175058135Y-44560800D02*
X175089340Y-44570266D01*
X175118087Y-44585631D01*
X175143287Y-44606313D01*
X175163969Y-44631513D01*
X175179334Y-44660260D01*
X175188800Y-44691465D01*
X175192600Y-44730045D01*
X175192600Y-49085955D01*
X175188800Y-49124535D01*
X175179334Y-49155740D01*
X175163969Y-49184487D01*
X175143287Y-49209687D01*
X175118087Y-49230369D01*
X175089340Y-49245734D01*
X175058135Y-49255200D01*
X175019555Y-49259000D01*
X173163645Y-49259000D01*
X173125065Y-49255200D01*
X173093860Y-49245734D01*
X173065113Y-49230369D01*
X173039913Y-49209687D01*
X173019231Y-49184487D01*
X173003866Y-49155740D01*
X172994400Y-49124535D01*
X172990600Y-49085955D01*
X172990600Y-44730045D01*
X172994400Y-44691465D01*
X173003866Y-44660260D01*
X173019231Y-44631513D01*
X173039913Y-44606313D01*
X173065113Y-44585631D01*
X173093860Y-44570266D01*
X173125065Y-44560800D01*
X173163645Y-44557000D01*
X175019555Y-44557000D01*
X175058135Y-44560800D01*
X175058135Y-44560800D01*
G37*
G36*
X185990591Y-47788885D02*
X186024569Y-47799193D01*
X186055887Y-47815933D01*
X186083339Y-47838461D01*
X186105867Y-47865913D01*
X186122607Y-47897231D01*
X186132915Y-47931209D01*
X186137000Y-47972690D01*
X186137000Y-48648910D01*
X186132915Y-48690391D01*
X186122607Y-48724369D01*
X186105867Y-48755687D01*
X186083339Y-48783139D01*
X186055887Y-48805667D01*
X186024569Y-48822407D01*
X185990591Y-48832715D01*
X185949110Y-48836800D01*
X185347890Y-48836800D01*
X185306409Y-48832715D01*
X185272431Y-48822407D01*
X185241113Y-48805667D01*
X185213661Y-48783139D01*
X185191133Y-48755687D01*
X185174393Y-48724369D01*
X185164085Y-48690391D01*
X185160000Y-48648910D01*
X185160000Y-47972690D01*
X185164085Y-47931209D01*
X185174393Y-47897231D01*
X185191133Y-47865913D01*
X185213661Y-47838461D01*
X185241113Y-47815933D01*
X185272431Y-47799193D01*
X185306409Y-47788885D01*
X185347890Y-47784800D01*
X185949110Y-47784800D01*
X185990591Y-47788885D01*
X185990591Y-47788885D01*
G37*
G36*
X187565591Y-47788885D02*
X187599569Y-47799193D01*
X187630887Y-47815933D01*
X187658339Y-47838461D01*
X187680867Y-47865913D01*
X187697607Y-47897231D01*
X187707915Y-47931209D01*
X187712000Y-47972690D01*
X187712000Y-48648910D01*
X187707915Y-48690391D01*
X187697607Y-48724369D01*
X187680867Y-48755687D01*
X187658339Y-48783139D01*
X187630887Y-48805667D01*
X187599569Y-48822407D01*
X187565591Y-48832715D01*
X187524110Y-48836800D01*
X186922890Y-48836800D01*
X186881409Y-48832715D01*
X186847431Y-48822407D01*
X186816113Y-48805667D01*
X186788661Y-48783139D01*
X186766133Y-48755687D01*
X186749393Y-48724369D01*
X186739085Y-48690391D01*
X186735000Y-48648910D01*
X186735000Y-47972690D01*
X186739085Y-47931209D01*
X186749393Y-47897231D01*
X186766133Y-47865913D01*
X186788661Y-47838461D01*
X186816113Y-47815933D01*
X186847431Y-47799193D01*
X186881409Y-47788885D01*
X186922890Y-47784800D01*
X187524110Y-47784800D01*
X187565591Y-47788885D01*
X187565591Y-47788885D01*
G37*
G36*
X181012191Y-47738085D02*
X181046169Y-47748393D01*
X181077487Y-47765133D01*
X181104939Y-47787661D01*
X181127467Y-47815113D01*
X181144207Y-47846431D01*
X181154515Y-47880409D01*
X181158600Y-47921890D01*
X181158600Y-48598110D01*
X181154515Y-48639591D01*
X181144207Y-48673569D01*
X181127467Y-48704887D01*
X181104939Y-48732339D01*
X181077487Y-48754867D01*
X181046169Y-48771607D01*
X181012191Y-48781915D01*
X180970710Y-48786000D01*
X180369490Y-48786000D01*
X180328009Y-48781915D01*
X180294031Y-48771607D01*
X180262713Y-48754867D01*
X180235261Y-48732339D01*
X180212733Y-48704887D01*
X180195993Y-48673569D01*
X180185685Y-48639591D01*
X180181600Y-48598110D01*
X180181600Y-47921890D01*
X180185685Y-47880409D01*
X180195993Y-47846431D01*
X180212733Y-47815113D01*
X180235261Y-47787661D01*
X180262713Y-47765133D01*
X180294031Y-47748393D01*
X180328009Y-47738085D01*
X180369490Y-47734000D01*
X180970710Y-47734000D01*
X181012191Y-47738085D01*
X181012191Y-47738085D01*
G37*
G36*
X182587191Y-47738085D02*
X182621169Y-47748393D01*
X182652487Y-47765133D01*
X182679939Y-47787661D01*
X182702467Y-47815113D01*
X182719207Y-47846431D01*
X182729515Y-47880409D01*
X182733600Y-47921890D01*
X182733600Y-48598110D01*
X182729515Y-48639591D01*
X182719207Y-48673569D01*
X182702467Y-48704887D01*
X182679939Y-48732339D01*
X182652487Y-48754867D01*
X182621169Y-48771607D01*
X182587191Y-48781915D01*
X182545710Y-48786000D01*
X181944490Y-48786000D01*
X181903009Y-48781915D01*
X181869031Y-48771607D01*
X181837713Y-48754867D01*
X181810261Y-48732339D01*
X181787733Y-48704887D01*
X181770993Y-48673569D01*
X181760685Y-48639591D01*
X181756600Y-48598110D01*
X181756600Y-47921890D01*
X181760685Y-47880409D01*
X181770993Y-47846431D01*
X181787733Y-47815113D01*
X181810261Y-47787661D01*
X181837713Y-47765133D01*
X181869031Y-47748393D01*
X181903009Y-47738085D01*
X181944490Y-47734000D01*
X182545710Y-47734000D01*
X182587191Y-47738085D01*
X182587191Y-47738085D01*
G37*
G36*
X184732791Y-45819885D02*
X184766769Y-45830193D01*
X184798087Y-45846933D01*
X184825539Y-45869461D01*
X184848067Y-45896913D01*
X184864807Y-45928231D01*
X184875115Y-45962209D01*
X184879200Y-46003690D01*
X184879200Y-46604910D01*
X184875115Y-46646391D01*
X184864807Y-46680369D01*
X184848067Y-46711687D01*
X184825539Y-46739139D01*
X184798087Y-46761667D01*
X184766769Y-46778407D01*
X184732791Y-46788715D01*
X184691310Y-46792800D01*
X184488989Y-46792800D01*
X184464603Y-46795202D01*
X184441154Y-46802315D01*
X184419543Y-46813866D01*
X184400601Y-46829412D01*
X184385055Y-46848354D01*
X184373504Y-46869965D01*
X184366391Y-46893414D01*
X184363989Y-46917800D01*
X184366391Y-46942186D01*
X184373504Y-46965635D01*
X184385055Y-46987246D01*
X184400601Y-47006188D01*
X184419543Y-47021734D01*
X184441154Y-47033285D01*
X184464603Y-47040398D01*
X184476738Y-47042198D01*
X184480466Y-47042565D01*
X184519137Y-47054296D01*
X184554779Y-47073348D01*
X184586017Y-47098983D01*
X184611652Y-47130221D01*
X184630704Y-47165863D01*
X184642435Y-47204534D01*
X184647000Y-47250888D01*
X184647000Y-47902112D01*
X184642435Y-47948466D01*
X184630704Y-47987137D01*
X184611652Y-48022779D01*
X184586017Y-48054017D01*
X184554779Y-48079652D01*
X184519137Y-48098704D01*
X184480466Y-48110435D01*
X184434112Y-48115000D01*
X183357888Y-48115000D01*
X183311534Y-48110435D01*
X183272863Y-48098704D01*
X183237221Y-48079652D01*
X183205983Y-48054017D01*
X183180348Y-48022779D01*
X183161296Y-47987137D01*
X183149565Y-47948466D01*
X183145000Y-47902112D01*
X183145000Y-47250888D01*
X183149565Y-47204534D01*
X183161296Y-47165863D01*
X183180348Y-47130221D01*
X183205983Y-47098983D01*
X183237221Y-47073348D01*
X183272863Y-47054296D01*
X183311534Y-47042565D01*
X183357888Y-47038000D01*
X183960214Y-47038000D01*
X183984600Y-47035598D01*
X184008049Y-47028485D01*
X184029660Y-47016934D01*
X184048602Y-47001388D01*
X184064148Y-46982446D01*
X184075699Y-46960835D01*
X184082812Y-46937386D01*
X184085214Y-46913000D01*
X184082812Y-46888614D01*
X184075699Y-46865165D01*
X184064148Y-46843554D01*
X184048602Y-46824612D01*
X184029660Y-46809066D01*
X184008049Y-46797515D01*
X183984600Y-46790402D01*
X183973976Y-46788826D01*
X183939631Y-46778407D01*
X183908313Y-46761667D01*
X183880861Y-46739139D01*
X183858333Y-46711687D01*
X183841593Y-46680369D01*
X183831285Y-46646391D01*
X183827200Y-46604910D01*
X183827200Y-46003690D01*
X183831285Y-45962209D01*
X183841593Y-45928231D01*
X183858333Y-45896913D01*
X183880861Y-45869461D01*
X183908313Y-45846933D01*
X183939631Y-45830193D01*
X183973609Y-45819885D01*
X184015090Y-45815800D01*
X184691310Y-45815800D01*
X184732791Y-45819885D01*
X184732791Y-45819885D01*
G37*
G36*
X185990591Y-46417285D02*
X186024569Y-46427593D01*
X186055887Y-46444333D01*
X186083339Y-46466861D01*
X186105867Y-46494313D01*
X186122607Y-46525631D01*
X186132915Y-46559609D01*
X186137000Y-46601090D01*
X186137000Y-47277310D01*
X186132915Y-47318791D01*
X186122607Y-47352769D01*
X186105867Y-47384087D01*
X186083339Y-47411539D01*
X186055887Y-47434067D01*
X186024569Y-47450807D01*
X185990591Y-47461115D01*
X185949110Y-47465200D01*
X185347890Y-47465200D01*
X185306409Y-47461115D01*
X185272431Y-47450807D01*
X185241113Y-47434067D01*
X185213661Y-47411539D01*
X185191133Y-47384087D01*
X185174393Y-47352769D01*
X185164085Y-47318791D01*
X185160000Y-47277310D01*
X185160000Y-46601090D01*
X185164085Y-46559609D01*
X185174393Y-46525631D01*
X185191133Y-46494313D01*
X185213661Y-46466861D01*
X185241113Y-46444333D01*
X185272431Y-46427593D01*
X185306409Y-46417285D01*
X185347890Y-46413200D01*
X185949110Y-46413200D01*
X185990591Y-46417285D01*
X185990591Y-46417285D01*
G37*
G36*
X187565591Y-46417285D02*
X187599569Y-46427593D01*
X187630887Y-46444333D01*
X187658339Y-46466861D01*
X187680867Y-46494313D01*
X187697607Y-46525631D01*
X187707915Y-46559609D01*
X187712000Y-46601090D01*
X187712000Y-47277310D01*
X187707915Y-47318791D01*
X187697607Y-47352769D01*
X187680867Y-47384087D01*
X187658339Y-47411539D01*
X187630887Y-47434067D01*
X187599569Y-47450807D01*
X187565591Y-47461115D01*
X187524110Y-47465200D01*
X186922890Y-47465200D01*
X186881409Y-47461115D01*
X186847431Y-47450807D01*
X186816113Y-47434067D01*
X186788661Y-47411539D01*
X186766133Y-47384087D01*
X186749393Y-47352769D01*
X186739085Y-47318791D01*
X186735000Y-47277310D01*
X186735000Y-46601090D01*
X186739085Y-46559609D01*
X186749393Y-46525631D01*
X186766133Y-46494313D01*
X186788661Y-46466861D01*
X186816113Y-46444333D01*
X186847431Y-46427593D01*
X186881409Y-46417285D01*
X186922890Y-46413200D01*
X187524110Y-46413200D01*
X187565591Y-46417285D01*
X187565591Y-46417285D01*
G37*
G36*
X133802336Y-45145771D02*
X131666548Y-47281559D01*
X130520384Y-46135395D01*
X132656172Y-43999607D01*
X133802336Y-45145771D01*
X133802336Y-45145771D01*
G37*
G36*
X180920799Y-45021337D02*
X180935334Y-45025747D01*
X180948517Y-45031207D01*
X180972551Y-45035987D01*
X180997055Y-45035987D01*
X181021088Y-45031206D01*
X181043727Y-45021828D01*
X181045565Y-45020600D01*
X182276853Y-45020600D01*
X182288965Y-45027074D01*
X182312414Y-45034187D01*
X182336800Y-45036589D01*
X182361186Y-45034187D01*
X182379364Y-45027683D01*
X182379408Y-45027827D01*
X182400801Y-45021337D01*
X182416940Y-45019748D01*
X182954660Y-45019748D01*
X182972998Y-45021554D01*
X182985250Y-45022156D01*
X183003669Y-45022156D01*
X183025949Y-45024350D01*
X183110036Y-45041076D01*
X183131455Y-45047574D01*
X183210671Y-45080385D01*
X183230407Y-45090935D01*
X183301697Y-45138569D01*
X183319008Y-45152776D01*
X183379624Y-45213392D01*
X183393831Y-45230703D01*
X183441465Y-45301993D01*
X183452015Y-45321729D01*
X183484826Y-45400945D01*
X183491324Y-45422364D01*
X183508050Y-45506451D01*
X183510244Y-45528731D01*
X183510244Y-45547150D01*
X183510846Y-45559402D01*
X183512652Y-45577740D01*
X183512652Y-46065461D01*
X183510846Y-46083798D01*
X183510244Y-46096050D01*
X183510244Y-46114469D01*
X183508050Y-46136749D01*
X183491324Y-46220836D01*
X183484826Y-46242255D01*
X183452015Y-46321471D01*
X183441465Y-46341207D01*
X183393831Y-46412497D01*
X183379624Y-46429808D01*
X183319008Y-46490424D01*
X183301697Y-46504631D01*
X183230407Y-46552265D01*
X183210671Y-46562815D01*
X183131455Y-46595626D01*
X183110036Y-46602124D01*
X183025949Y-46618850D01*
X183003669Y-46621044D01*
X182985250Y-46621044D01*
X182972998Y-46621646D01*
X182954661Y-46623452D01*
X182416940Y-46623452D01*
X182400801Y-46621863D01*
X182386266Y-46617453D01*
X182373083Y-46611993D01*
X182349049Y-46607213D01*
X182324545Y-46607213D01*
X182300512Y-46611994D01*
X182277873Y-46621372D01*
X182276035Y-46622600D01*
X181044747Y-46622600D01*
X181032635Y-46616126D01*
X181009186Y-46609013D01*
X180984800Y-46606611D01*
X180960414Y-46609013D01*
X180942236Y-46615517D01*
X180942192Y-46615373D01*
X180920799Y-46621863D01*
X180904660Y-46623452D01*
X180366939Y-46623452D01*
X180348602Y-46621646D01*
X180336350Y-46621044D01*
X180317931Y-46621044D01*
X180295651Y-46618850D01*
X180211564Y-46602124D01*
X180190145Y-46595626D01*
X180110929Y-46562815D01*
X180091193Y-46552265D01*
X180019903Y-46504631D01*
X180002592Y-46490424D01*
X179941976Y-46429808D01*
X179927769Y-46412497D01*
X179880135Y-46341207D01*
X179869585Y-46321471D01*
X179836774Y-46242255D01*
X179830276Y-46220836D01*
X179813550Y-46136749D01*
X179811356Y-46114469D01*
X179811356Y-46096050D01*
X179810754Y-46083798D01*
X179808948Y-46065461D01*
X179808948Y-45577740D01*
X179810754Y-45559402D01*
X179811356Y-45547150D01*
X179811356Y-45528731D01*
X179813550Y-45506451D01*
X179830276Y-45422364D01*
X179836774Y-45400945D01*
X179869585Y-45321729D01*
X179880135Y-45301993D01*
X179927769Y-45230703D01*
X179941976Y-45213392D01*
X180002592Y-45152776D01*
X180019903Y-45138569D01*
X180091193Y-45090935D01*
X180110929Y-45080385D01*
X180190145Y-45047574D01*
X180211564Y-45041076D01*
X180295651Y-45024350D01*
X180317931Y-45022156D01*
X180336350Y-45022156D01*
X180348602Y-45021554D01*
X180366940Y-45019748D01*
X180904660Y-45019748D01*
X180920799Y-45021337D01*
X180920799Y-45021337D01*
G37*
G36*
X151574000Y-46315400D02*
X148972000Y-46315400D01*
X148972000Y-44413400D01*
X151574000Y-44413400D01*
X151574000Y-46315400D01*
X151574000Y-46315400D01*
G37*
G36*
X155574000Y-46315400D02*
X152972000Y-46315400D01*
X152972000Y-44413400D01*
X155574000Y-44413400D01*
X155574000Y-46315400D01*
X155574000Y-46315400D01*
G37*
G36*
X148017500Y-46290000D02*
X145415500Y-46290000D01*
X145415500Y-44388000D01*
X148017500Y-44388000D01*
X148017500Y-46290000D01*
X148017500Y-46290000D01*
G37*
G36*
X144017500Y-46290000D02*
X141415500Y-46290000D01*
X141415500Y-44388000D01*
X144017500Y-44388000D01*
X144017500Y-46290000D01*
X144017500Y-46290000D01*
G37*
G36*
X185990591Y-45045685D02*
X186024569Y-45055993D01*
X186055887Y-45072733D01*
X186083339Y-45095261D01*
X186105867Y-45122713D01*
X186122607Y-45154031D01*
X186132915Y-45188009D01*
X186137000Y-45229490D01*
X186137000Y-45905710D01*
X186132915Y-45947191D01*
X186122607Y-45981169D01*
X186105867Y-46012487D01*
X186083339Y-46039939D01*
X186055887Y-46062467D01*
X186024569Y-46079207D01*
X185990591Y-46089515D01*
X185949110Y-46093600D01*
X185347890Y-46093600D01*
X185306409Y-46089515D01*
X185272431Y-46079207D01*
X185241113Y-46062467D01*
X185213661Y-46039939D01*
X185191133Y-46012487D01*
X185174393Y-45981169D01*
X185164085Y-45947191D01*
X185160000Y-45905710D01*
X185160000Y-45229490D01*
X185164085Y-45188009D01*
X185174393Y-45154031D01*
X185191133Y-45122713D01*
X185213661Y-45095261D01*
X185241113Y-45072733D01*
X185272431Y-45055993D01*
X185306409Y-45045685D01*
X185347890Y-45041600D01*
X185949110Y-45041600D01*
X185990591Y-45045685D01*
X185990591Y-45045685D01*
G37*
G36*
X187565591Y-45045685D02*
X187599569Y-45055993D01*
X187630887Y-45072733D01*
X187658339Y-45095261D01*
X187680867Y-45122713D01*
X187697607Y-45154031D01*
X187707915Y-45188009D01*
X187712000Y-45229490D01*
X187712000Y-45905710D01*
X187707915Y-45947191D01*
X187697607Y-45981169D01*
X187680867Y-46012487D01*
X187658339Y-46039939D01*
X187630887Y-46062467D01*
X187599569Y-46079207D01*
X187565591Y-46089515D01*
X187524110Y-46093600D01*
X186922890Y-46093600D01*
X186881409Y-46089515D01*
X186847431Y-46079207D01*
X186816113Y-46062467D01*
X186788661Y-46039939D01*
X186766133Y-46012487D01*
X186749393Y-45981169D01*
X186739085Y-45947191D01*
X186735000Y-45905710D01*
X186735000Y-45229490D01*
X186739085Y-45188009D01*
X186749393Y-45154031D01*
X186766133Y-45122713D01*
X186788661Y-45095261D01*
X186816113Y-45072733D01*
X186847431Y-45055993D01*
X186881409Y-45045685D01*
X186922890Y-45041600D01*
X187524110Y-45041600D01*
X187565591Y-45045685D01*
X187565591Y-45045685D01*
G37*
G36*
X184732791Y-44244885D02*
X184766769Y-44255193D01*
X184798087Y-44271933D01*
X184825539Y-44294461D01*
X184848067Y-44321913D01*
X184864807Y-44353231D01*
X184875115Y-44387209D01*
X184879200Y-44428690D01*
X184879200Y-45029910D01*
X184875115Y-45071391D01*
X184864807Y-45105369D01*
X184848067Y-45136687D01*
X184825539Y-45164139D01*
X184798087Y-45186667D01*
X184766769Y-45203407D01*
X184732791Y-45213715D01*
X184691310Y-45217800D01*
X184015090Y-45217800D01*
X183973609Y-45213715D01*
X183939631Y-45203407D01*
X183908313Y-45186667D01*
X183880861Y-45164139D01*
X183858333Y-45136687D01*
X183841593Y-45105369D01*
X183831285Y-45071391D01*
X183827200Y-45029910D01*
X183827200Y-44428690D01*
X183831285Y-44387209D01*
X183841593Y-44353231D01*
X183858333Y-44321913D01*
X183880861Y-44294461D01*
X183908313Y-44271933D01*
X183939631Y-44255193D01*
X183973609Y-44244885D01*
X184015090Y-44240800D01*
X184691310Y-44240800D01*
X184732791Y-44244885D01*
X184732791Y-44244885D01*
G37*
G36*
X131151364Y-42494800D02*
X129015576Y-44630588D01*
X127869412Y-43484424D01*
X130005200Y-41348636D01*
X131151364Y-42494800D01*
X131151364Y-42494800D01*
G37*
G36*
X170726200Y-43777000D02*
X169024200Y-43777000D01*
X169024200Y-42075000D01*
X170726200Y-42075000D01*
X170726200Y-43777000D01*
X170726200Y-43777000D01*
G37*
G36*
X178346200Y-43777000D02*
X176644200Y-43777000D01*
X176644200Y-42075000D01*
X178346200Y-42075000D01*
X178346200Y-43777000D01*
X178346200Y-43777000D01*
G37*
G36*
X186518705Y-42458855D02*
X186552683Y-42469163D01*
X186584001Y-42485903D01*
X186616230Y-42512352D01*
X187041342Y-42937464D01*
X187067791Y-42969693D01*
X187084531Y-43001011D01*
X187094839Y-43034989D01*
X187098319Y-43070330D01*
X187094839Y-43105671D01*
X187084531Y-43139649D01*
X187067791Y-43170967D01*
X187041342Y-43203196D01*
X186563196Y-43681342D01*
X186530967Y-43707791D01*
X186499649Y-43724531D01*
X186465671Y-43734839D01*
X186430330Y-43738319D01*
X186394989Y-43734839D01*
X186361011Y-43724531D01*
X186329693Y-43707791D01*
X186297464Y-43681342D01*
X185872352Y-43256230D01*
X185845903Y-43224001D01*
X185829163Y-43192683D01*
X185818855Y-43158705D01*
X185815375Y-43123364D01*
X185818855Y-43088023D01*
X185829163Y-43054045D01*
X185845903Y-43022727D01*
X185872352Y-42990498D01*
X186350498Y-42512352D01*
X186382727Y-42485903D01*
X186414045Y-42469163D01*
X186448023Y-42458855D01*
X186483364Y-42455375D01*
X186518705Y-42458855D01*
X186518705Y-42458855D01*
G37*
G36*
X110621867Y-36809006D02*
X110948282Y-36873934D01*
X111539926Y-37119001D01*
X111998497Y-37425409D01*
X112072395Y-37474786D01*
X112525214Y-37927605D01*
X112525216Y-37927608D01*
X112880999Y-38460074D01*
X113040958Y-38846250D01*
X113126066Y-39051719D01*
X113251000Y-39679803D01*
X113251000Y-40320197D01*
X113214678Y-40502800D01*
X113126066Y-40948282D01*
X112880999Y-41539926D01*
X112556244Y-42025955D01*
X112525214Y-42072395D01*
X112072395Y-42525214D01*
X112072392Y-42525216D01*
X111539926Y-42880999D01*
X110948282Y-43126066D01*
X110758580Y-43163800D01*
X110320197Y-43251000D01*
X109679803Y-43251000D01*
X109241420Y-43163800D01*
X109051718Y-43126066D01*
X108460074Y-42880999D01*
X107927608Y-42525216D01*
X107927605Y-42525214D01*
X107474786Y-42072395D01*
X107443756Y-42025955D01*
X107119001Y-41539926D01*
X106873934Y-40948282D01*
X106785322Y-40502800D01*
X106749000Y-40320197D01*
X106749000Y-39679803D01*
X106873934Y-39051719D01*
X106959042Y-38846250D01*
X107119001Y-38460074D01*
X107474784Y-37927608D01*
X107474786Y-37927605D01*
X107927605Y-37474786D01*
X108001503Y-37425409D01*
X108460074Y-37119001D01*
X109051718Y-36873934D01*
X109378133Y-36809006D01*
X109679803Y-36749000D01*
X110320197Y-36749000D01*
X110621867Y-36809006D01*
X110621867Y-36809006D01*
G37*
G36*
X190621867Y-36809006D02*
X190948282Y-36873934D01*
X191539926Y-37119001D01*
X191998497Y-37425409D01*
X192072395Y-37474786D01*
X192525214Y-37927605D01*
X192525216Y-37927608D01*
X192880999Y-38460074D01*
X193040958Y-38846250D01*
X193126066Y-39051719D01*
X193251000Y-39679803D01*
X193251000Y-40320197D01*
X193214678Y-40502800D01*
X193126066Y-40948282D01*
X192880999Y-41539926D01*
X192556244Y-42025955D01*
X192525214Y-42072395D01*
X192072395Y-42525214D01*
X192072392Y-42525216D01*
X191539926Y-42880999D01*
X190948282Y-43126066D01*
X190758580Y-43163800D01*
X190320197Y-43251000D01*
X189679803Y-43251000D01*
X189241420Y-43163800D01*
X189051718Y-43126066D01*
X188460074Y-42880999D01*
X187927608Y-42525216D01*
X187927605Y-42525214D01*
X187474786Y-42072395D01*
X187443756Y-42025955D01*
X187119001Y-41539926D01*
X186873934Y-40948282D01*
X186785322Y-40502800D01*
X186749000Y-40320197D01*
X186749000Y-39679803D01*
X186873934Y-39051719D01*
X186959042Y-38846250D01*
X187119001Y-38460074D01*
X187474784Y-37927608D01*
X187474786Y-37927605D01*
X187927605Y-37474786D01*
X188001503Y-37425409D01*
X188460074Y-37119001D01*
X189051718Y-36873934D01*
X189378133Y-36809006D01*
X189679803Y-36749000D01*
X190320197Y-36749000D01*
X190621867Y-36809006D01*
X190621867Y-36809006D01*
G37*
G36*
X185405011Y-41345161D02*
X185438989Y-41355469D01*
X185470307Y-41372209D01*
X185502536Y-41398658D01*
X185927648Y-41823770D01*
X185954097Y-41855999D01*
X185970837Y-41887317D01*
X185981145Y-41921295D01*
X185984625Y-41956636D01*
X185981145Y-41991977D01*
X185970837Y-42025955D01*
X185954097Y-42057273D01*
X185927648Y-42089502D01*
X185449502Y-42567648D01*
X185417273Y-42594097D01*
X185385955Y-42610837D01*
X185351977Y-42621145D01*
X185316636Y-42624625D01*
X185281295Y-42621145D01*
X185247317Y-42610837D01*
X185215999Y-42594097D01*
X185183770Y-42567648D01*
X184758658Y-42142536D01*
X184732209Y-42110307D01*
X184715469Y-42078989D01*
X184705161Y-42045011D01*
X184701681Y-42009670D01*
X184705161Y-41974329D01*
X184715469Y-41940351D01*
X184732209Y-41909033D01*
X184758658Y-41876804D01*
X185236804Y-41398658D01*
X185269033Y-41372209D01*
X185300351Y-41355469D01*
X185334329Y-41345161D01*
X185369670Y-41341681D01*
X185405011Y-41345161D01*
X185405011Y-41345161D01*
G37*
G36*
X128500393Y-39843828D02*
X126364605Y-41979616D01*
X125218441Y-40833452D01*
X127354229Y-38697664D01*
X128500393Y-39843828D01*
X128500393Y-39843828D01*
G37*
G36*
X149097091Y-40727685D02*
X149131069Y-40737993D01*
X149162387Y-40754733D01*
X149189839Y-40777261D01*
X149212367Y-40804713D01*
X149229107Y-40836031D01*
X149239415Y-40870009D01*
X149243500Y-40911490D01*
X149243500Y-41587710D01*
X149239415Y-41629191D01*
X149229107Y-41663169D01*
X149212367Y-41694487D01*
X149189839Y-41721939D01*
X149162387Y-41744467D01*
X149131069Y-41761207D01*
X149097091Y-41771515D01*
X149055610Y-41775600D01*
X148454390Y-41775600D01*
X148412909Y-41771515D01*
X148378931Y-41761207D01*
X148347613Y-41744467D01*
X148320161Y-41721939D01*
X148297633Y-41694487D01*
X148280893Y-41663169D01*
X148270585Y-41629191D01*
X148266500Y-41587710D01*
X148266500Y-40911490D01*
X148270585Y-40870009D01*
X148280893Y-40836031D01*
X148297633Y-40804713D01*
X148320161Y-40777261D01*
X148347613Y-40754733D01*
X148378931Y-40737993D01*
X148412909Y-40727685D01*
X148454390Y-40723600D01*
X149055610Y-40723600D01*
X149097091Y-40727685D01*
X149097091Y-40727685D01*
G37*
G36*
X150672091Y-40727685D02*
X150706069Y-40737993D01*
X150737387Y-40754733D01*
X150764839Y-40777261D01*
X150787367Y-40804713D01*
X150804107Y-40836031D01*
X150814415Y-40870009D01*
X150818500Y-40911490D01*
X150818500Y-41587710D01*
X150814415Y-41629191D01*
X150804107Y-41663169D01*
X150787367Y-41694487D01*
X150764839Y-41721939D01*
X150737387Y-41744467D01*
X150706069Y-41761207D01*
X150672091Y-41771515D01*
X150630610Y-41775600D01*
X150029390Y-41775600D01*
X149987909Y-41771515D01*
X149953931Y-41761207D01*
X149922613Y-41744467D01*
X149895161Y-41721939D01*
X149872633Y-41694487D01*
X149855893Y-41663169D01*
X149845585Y-41629191D01*
X149841500Y-41587710D01*
X149841500Y-40911490D01*
X149845585Y-40870009D01*
X149855893Y-40836031D01*
X149872633Y-40804713D01*
X149895161Y-40777261D01*
X149922613Y-40754733D01*
X149953931Y-40737993D01*
X149987909Y-40727685D01*
X150029390Y-40723600D01*
X150630610Y-40723600D01*
X150672091Y-40727685D01*
X150672091Y-40727685D01*
G37*
G36*
X184865800Y-41254800D02*
X183703800Y-41254800D01*
X183703800Y-38602800D01*
X184865800Y-38602800D01*
X184865800Y-41254800D01*
X184865800Y-41254800D01*
G37*
G36*
X182665800Y-41254800D02*
X181503800Y-41254800D01*
X181503800Y-38602800D01*
X182665800Y-38602800D01*
X182665800Y-41254800D01*
X182665800Y-41254800D01*
G37*
G36*
X170726200Y-41237000D02*
X169024200Y-41237000D01*
X169024200Y-39535000D01*
X170726200Y-39535000D01*
X170726200Y-41237000D01*
X170726200Y-41237000D01*
G37*
G36*
X178346200Y-41237000D02*
X176644200Y-41237000D01*
X176644200Y-39535000D01*
X178346200Y-39535000D01*
X178346200Y-41237000D01*
X178346200Y-41237000D01*
G37*
G36*
X180922791Y-40181085D02*
X180956769Y-40191393D01*
X180988087Y-40208133D01*
X181015539Y-40230661D01*
X181038067Y-40258113D01*
X181054807Y-40289431D01*
X181065115Y-40323409D01*
X181069200Y-40364890D01*
X181069200Y-40966110D01*
X181065115Y-41007591D01*
X181054807Y-41041569D01*
X181038067Y-41072887D01*
X181015539Y-41100339D01*
X180988087Y-41122867D01*
X180956769Y-41139607D01*
X180922791Y-41149915D01*
X180881310Y-41154000D01*
X180205090Y-41154000D01*
X180163609Y-41149915D01*
X180129631Y-41139607D01*
X180098313Y-41122867D01*
X180070861Y-41100339D01*
X180048333Y-41072887D01*
X180031593Y-41041569D01*
X180021285Y-41007591D01*
X180017200Y-40966110D01*
X180017200Y-40364890D01*
X180021285Y-40323409D01*
X180031593Y-40289431D01*
X180048333Y-40258113D01*
X180070861Y-40230661D01*
X180098313Y-40208133D01*
X180129631Y-40191393D01*
X180163609Y-40181085D01*
X180205090Y-40177000D01*
X180881310Y-40177000D01*
X180922791Y-40181085D01*
X180922791Y-40181085D01*
G37*
G36*
X180922791Y-38606085D02*
X180956769Y-38616393D01*
X180988087Y-38633133D01*
X181015539Y-38655661D01*
X181038067Y-38683113D01*
X181054807Y-38714431D01*
X181065115Y-38748409D01*
X181069200Y-38789890D01*
X181069200Y-39391110D01*
X181065115Y-39432591D01*
X181054807Y-39466569D01*
X181038067Y-39497887D01*
X181015539Y-39525339D01*
X180988087Y-39547867D01*
X180956769Y-39564607D01*
X180922791Y-39574915D01*
X180881310Y-39579000D01*
X180205090Y-39579000D01*
X180163609Y-39574915D01*
X180129631Y-39564607D01*
X180098313Y-39547867D01*
X180070861Y-39525339D01*
X180048333Y-39497887D01*
X180031593Y-39466569D01*
X180021285Y-39432591D01*
X180017200Y-39391110D01*
X180017200Y-38789890D01*
X180021285Y-38748409D01*
X180031593Y-38714431D01*
X180048333Y-38683113D01*
X180070861Y-38655661D01*
X180098313Y-38633133D01*
X180129631Y-38616393D01*
X180163609Y-38606085D01*
X180205090Y-38602000D01*
X180881310Y-38602000D01*
X180922791Y-38606085D01*
X180922791Y-38606085D01*
G37*
G36*
X125849421Y-37192856D02*
X123713633Y-39328644D01*
X122567469Y-38182480D01*
X124703257Y-36046692D01*
X125849421Y-37192856D01*
X125849421Y-37192856D01*
G37*
G36*
X155209435Y-36373600D02*
X155240640Y-36383066D01*
X155269387Y-36398431D01*
X155294587Y-36419113D01*
X155315269Y-36444313D01*
X155330634Y-36473060D01*
X155340100Y-36504265D01*
X155343900Y-36542845D01*
X155343900Y-38398755D01*
X155340100Y-38437335D01*
X155330634Y-38468540D01*
X155315269Y-38497287D01*
X155294587Y-38522487D01*
X155269387Y-38543169D01*
X155240640Y-38558534D01*
X155209435Y-38568000D01*
X155170855Y-38571800D01*
X150814945Y-38571800D01*
X150776365Y-38568000D01*
X150745160Y-38558534D01*
X150716413Y-38543169D01*
X150691213Y-38522487D01*
X150670531Y-38497287D01*
X150655166Y-38468540D01*
X150645700Y-38437335D01*
X150641900Y-38398755D01*
X150641900Y-36542845D01*
X150645700Y-36504265D01*
X150655166Y-36473060D01*
X150670531Y-36444313D01*
X150691213Y-36419113D01*
X150716413Y-36398431D01*
X150745160Y-36383066D01*
X150776365Y-36373600D01*
X150814945Y-36369800D01*
X155170855Y-36369800D01*
X155209435Y-36373600D01*
X155209435Y-36373600D01*
G37*
G36*
X164009435Y-36373600D02*
X164040640Y-36383066D01*
X164069387Y-36398431D01*
X164094587Y-36419113D01*
X164115269Y-36444313D01*
X164130634Y-36473060D01*
X164140100Y-36504265D01*
X164143900Y-36542845D01*
X164143900Y-38398755D01*
X164140100Y-38437335D01*
X164130634Y-38468540D01*
X164115269Y-38497287D01*
X164094587Y-38522487D01*
X164069387Y-38543169D01*
X164040640Y-38558534D01*
X164009435Y-38568000D01*
X163970855Y-38571800D01*
X159614945Y-38571800D01*
X159576365Y-38568000D01*
X159545160Y-38558534D01*
X159516413Y-38543169D01*
X159491213Y-38522487D01*
X159470531Y-38497287D01*
X159455166Y-38468540D01*
X159445700Y-38437335D01*
X159441900Y-38398755D01*
X159441900Y-36542845D01*
X159445700Y-36504265D01*
X159455166Y-36473060D01*
X159470531Y-36444313D01*
X159491213Y-36419113D01*
X159516413Y-36398431D01*
X159545160Y-36383066D01*
X159576365Y-36373600D01*
X159614945Y-36369800D01*
X163970855Y-36369800D01*
X164009435Y-36373600D01*
X164009435Y-36373600D01*
G37*
G36*
X148372135Y-36347800D02*
X148403340Y-36357266D01*
X148432087Y-36372631D01*
X148457287Y-36393313D01*
X148477969Y-36418513D01*
X148493334Y-36447260D01*
X148502800Y-36478465D01*
X148506600Y-36517045D01*
X148506600Y-38372955D01*
X148502800Y-38411535D01*
X148493334Y-38442740D01*
X148477969Y-38471487D01*
X148457287Y-38496687D01*
X148432087Y-38517369D01*
X148403340Y-38532734D01*
X148372135Y-38542200D01*
X148333555Y-38546000D01*
X143977645Y-38546000D01*
X143939065Y-38542200D01*
X143907860Y-38532734D01*
X143879113Y-38517369D01*
X143853913Y-38496687D01*
X143833231Y-38471487D01*
X143817866Y-38442740D01*
X143808400Y-38411535D01*
X143804600Y-38372955D01*
X143804600Y-36517045D01*
X143808400Y-36478465D01*
X143817866Y-36447260D01*
X143833231Y-36418513D01*
X143853913Y-36393313D01*
X143879113Y-36372631D01*
X143907860Y-36357266D01*
X143939065Y-36347800D01*
X143977645Y-36344000D01*
X148333555Y-36344000D01*
X148372135Y-36347800D01*
X148372135Y-36347800D01*
G37*
G36*
X139572135Y-36347800D02*
X139603340Y-36357266D01*
X139632087Y-36372631D01*
X139657287Y-36393313D01*
X139677969Y-36418513D01*
X139693334Y-36447260D01*
X139702800Y-36478465D01*
X139706600Y-36517045D01*
X139706600Y-38372955D01*
X139702800Y-38411535D01*
X139693334Y-38442740D01*
X139677969Y-38471487D01*
X139657287Y-38496687D01*
X139632087Y-38517369D01*
X139603340Y-38532734D01*
X139572135Y-38542200D01*
X139533555Y-38546000D01*
X135177645Y-38546000D01*
X135139065Y-38542200D01*
X135107860Y-38532734D01*
X135079113Y-38517369D01*
X135053913Y-38496687D01*
X135033231Y-38471487D01*
X135017866Y-38442740D01*
X135008400Y-38411535D01*
X135004600Y-38372955D01*
X135004600Y-36517045D01*
X135008400Y-36478465D01*
X135017866Y-36447260D01*
X135033231Y-36418513D01*
X135053913Y-36393313D01*
X135079113Y-36372631D01*
X135107860Y-36357266D01*
X135139065Y-36347800D01*
X135177645Y-36344000D01*
X139533555Y-36344000D01*
X139572135Y-36347800D01*
X139572135Y-36347800D01*
G37*
G36*
X185789591Y-37283085D02*
X185823569Y-37293393D01*
X185854887Y-37310133D01*
X185882339Y-37332661D01*
X185904867Y-37360113D01*
X185921607Y-37391431D01*
X185931915Y-37425409D01*
X185936000Y-37466890D01*
X185936000Y-38068110D01*
X185931915Y-38109591D01*
X185921607Y-38143569D01*
X185904867Y-38174887D01*
X185882339Y-38202339D01*
X185854887Y-38224867D01*
X185823569Y-38241607D01*
X185789591Y-38251915D01*
X185748110Y-38256000D01*
X185071890Y-38256000D01*
X185030409Y-38251915D01*
X184996431Y-38241607D01*
X184965113Y-38224867D01*
X184937661Y-38202339D01*
X184915133Y-38174887D01*
X184898393Y-38143569D01*
X184888085Y-38109591D01*
X184884000Y-38068110D01*
X184884000Y-37466890D01*
X184888085Y-37425409D01*
X184898393Y-37391431D01*
X184915133Y-37360113D01*
X184937661Y-37332661D01*
X184965113Y-37310133D01*
X184996431Y-37293393D01*
X185030409Y-37283085D01*
X185071890Y-37279000D01*
X185748110Y-37279000D01*
X185789591Y-37283085D01*
X185789591Y-37283085D01*
G37*
G36*
X184365191Y-37128085D02*
X184399169Y-37138393D01*
X184430487Y-37155133D01*
X184457939Y-37177661D01*
X184480467Y-37205113D01*
X184497207Y-37236431D01*
X184507515Y-37270409D01*
X184511600Y-37311890D01*
X184511600Y-37988110D01*
X184507515Y-38029591D01*
X184497207Y-38063569D01*
X184480467Y-38094887D01*
X184457939Y-38122339D01*
X184430487Y-38144867D01*
X184399169Y-38161607D01*
X184365191Y-38171915D01*
X184323710Y-38176000D01*
X183722490Y-38176000D01*
X183681009Y-38171915D01*
X183647031Y-38161607D01*
X183615713Y-38144867D01*
X183588261Y-38122339D01*
X183565733Y-38094887D01*
X183548993Y-38063569D01*
X183538685Y-38029591D01*
X183534600Y-37988110D01*
X183534600Y-37311890D01*
X183538685Y-37270409D01*
X183548993Y-37236431D01*
X183565733Y-37205113D01*
X183588261Y-37177661D01*
X183615713Y-37155133D01*
X183647031Y-37138393D01*
X183681009Y-37128085D01*
X183722490Y-37124000D01*
X184323710Y-37124000D01*
X184365191Y-37128085D01*
X184365191Y-37128085D01*
G37*
G36*
X182790191Y-37128085D02*
X182824169Y-37138393D01*
X182855487Y-37155133D01*
X182882939Y-37177661D01*
X182905467Y-37205113D01*
X182922207Y-37236431D01*
X182932515Y-37270409D01*
X182936600Y-37311890D01*
X182936600Y-37988110D01*
X182932515Y-38029591D01*
X182922207Y-38063569D01*
X182905467Y-38094887D01*
X182882939Y-38122339D01*
X182855487Y-38144867D01*
X182824169Y-38161607D01*
X182790191Y-38171915D01*
X182748710Y-38176000D01*
X182147490Y-38176000D01*
X182106009Y-38171915D01*
X182072031Y-38161607D01*
X182040713Y-38144867D01*
X182013261Y-38122339D01*
X181990733Y-38094887D01*
X181973993Y-38063569D01*
X181963685Y-38029591D01*
X181959600Y-37988110D01*
X181959600Y-37311890D01*
X181963685Y-37270409D01*
X181973993Y-37236431D01*
X181990733Y-37205113D01*
X182013261Y-37177661D01*
X182040713Y-37155133D01*
X182072031Y-37138393D01*
X182106009Y-37128085D01*
X182147490Y-37124000D01*
X182748710Y-37124000D01*
X182790191Y-37128085D01*
X182790191Y-37128085D01*
G37*
G36*
X119314730Y-35692948D02*
X119351271Y-35704033D01*
X119384946Y-35722032D01*
X119419243Y-35750180D01*
X120090218Y-36421155D01*
X120118366Y-36455452D01*
X120136365Y-36489127D01*
X120147450Y-36525668D01*
X120151192Y-36563672D01*
X120147450Y-36601676D01*
X120136365Y-36638217D01*
X120118366Y-36671892D01*
X120090218Y-36706189D01*
X119065689Y-37730718D01*
X119031392Y-37758866D01*
X118997717Y-37776865D01*
X118961176Y-37787950D01*
X118923172Y-37791692D01*
X118885168Y-37787950D01*
X118848627Y-37776865D01*
X118814952Y-37758866D01*
X118780655Y-37730718D01*
X118109680Y-37059743D01*
X118081532Y-37025446D01*
X118063533Y-36991771D01*
X118052448Y-36955230D01*
X118048706Y-36917226D01*
X118052448Y-36879222D01*
X118063533Y-36842681D01*
X118081532Y-36809006D01*
X118109680Y-36774709D01*
X119134209Y-35750180D01*
X119168506Y-35722032D01*
X119202181Y-35704033D01*
X119238722Y-35692948D01*
X119276726Y-35689206D01*
X119314730Y-35692948D01*
X119314730Y-35692948D01*
G37*
G36*
X185789591Y-35708085D02*
X185823569Y-35718393D01*
X185854887Y-35735133D01*
X185882339Y-35757661D01*
X185904867Y-35785113D01*
X185921607Y-35816431D01*
X185931915Y-35850409D01*
X185936000Y-35891890D01*
X185936000Y-36493110D01*
X185931915Y-36534591D01*
X185921607Y-36568569D01*
X185904867Y-36599887D01*
X185882339Y-36627339D01*
X185854887Y-36649867D01*
X185823569Y-36666607D01*
X185789591Y-36676915D01*
X185748110Y-36681000D01*
X185071890Y-36681000D01*
X185030409Y-36676915D01*
X184996431Y-36666607D01*
X184965113Y-36649867D01*
X184937661Y-36627339D01*
X184915133Y-36599887D01*
X184898393Y-36568569D01*
X184888085Y-36534591D01*
X184884000Y-36493110D01*
X184884000Y-35891890D01*
X184888085Y-35850409D01*
X184898393Y-35816431D01*
X184915133Y-35785113D01*
X184937661Y-35757661D01*
X184965113Y-35735133D01*
X184996431Y-35718393D01*
X185030409Y-35708085D01*
X185071890Y-35704000D01*
X185748110Y-35704000D01*
X185789591Y-35708085D01*
X185789591Y-35708085D01*
G37*
G36*
X121219730Y-33851448D02*
X121256271Y-33862533D01*
X121289946Y-33880532D01*
X121324243Y-33908680D01*
X121995218Y-34579655D01*
X122023366Y-34613952D01*
X122041365Y-34647627D01*
X122052450Y-34684168D01*
X122056192Y-34722172D01*
X122052450Y-34760176D01*
X122041365Y-34796717D01*
X122023366Y-34830392D01*
X121995218Y-34864689D01*
X120970689Y-35889218D01*
X120936392Y-35917366D01*
X120902717Y-35935365D01*
X120866176Y-35946450D01*
X120828172Y-35950192D01*
X120790168Y-35946450D01*
X120753627Y-35935365D01*
X120719952Y-35917366D01*
X120685655Y-35889218D01*
X120014680Y-35218243D01*
X119986532Y-35183946D01*
X119968533Y-35150271D01*
X119957448Y-35113730D01*
X119953706Y-35075726D01*
X119957448Y-35037722D01*
X119968533Y-35001181D01*
X119986532Y-34967506D01*
X120014680Y-34933209D01*
X121039209Y-33908680D01*
X121073506Y-33880532D01*
X121107181Y-33862533D01*
X121143722Y-33851448D01*
X121181726Y-33847706D01*
X121219730Y-33851448D01*
X121219730Y-33851448D01*
G37*
G36*
X117334832Y-33713050D02*
X117371373Y-33724135D01*
X117405048Y-33742134D01*
X117439345Y-33770282D01*
X118110320Y-34441257D01*
X118138468Y-34475554D01*
X118156467Y-34509229D01*
X118167552Y-34545770D01*
X118171294Y-34583774D01*
X118167552Y-34621778D01*
X118156467Y-34658319D01*
X118138468Y-34691994D01*
X118110320Y-34726291D01*
X117085791Y-35750820D01*
X117051494Y-35778968D01*
X117017819Y-35796967D01*
X116981278Y-35808052D01*
X116943274Y-35811794D01*
X116905270Y-35808052D01*
X116868729Y-35796967D01*
X116835054Y-35778968D01*
X116800757Y-35750820D01*
X116129782Y-35079845D01*
X116101634Y-35045548D01*
X116083635Y-35011873D01*
X116072550Y-34975332D01*
X116068808Y-34937328D01*
X116072550Y-34899324D01*
X116083635Y-34862783D01*
X116101634Y-34829108D01*
X116129782Y-34794811D01*
X117154311Y-33770282D01*
X117188608Y-33742134D01*
X117222283Y-33724135D01*
X117258824Y-33713050D01*
X117296828Y-33709308D01*
X117334832Y-33713050D01*
X117334832Y-33713050D01*
G37*
G36*
X119239832Y-31871550D02*
X119276373Y-31882635D01*
X119310048Y-31900634D01*
X119344345Y-31928782D01*
X120015320Y-32599757D01*
X120043468Y-32634054D01*
X120061467Y-32667729D01*
X120072552Y-32704270D01*
X120076294Y-32742274D01*
X120072552Y-32780278D01*
X120061467Y-32816819D01*
X120043468Y-32850494D01*
X120015320Y-32884791D01*
X118990791Y-33909320D01*
X118956494Y-33937468D01*
X118922819Y-33955467D01*
X118886278Y-33966552D01*
X118848274Y-33970294D01*
X118810270Y-33966552D01*
X118773729Y-33955467D01*
X118740054Y-33937468D01*
X118705757Y-33909320D01*
X118034782Y-33238345D01*
X118006634Y-33204048D01*
X117988635Y-33170373D01*
X117977550Y-33133832D01*
X117973808Y-33095828D01*
X117977550Y-33057824D01*
X117988635Y-33021283D01*
X118006634Y-32987608D01*
X118034782Y-32953311D01*
X119059311Y-31928782D01*
X119093608Y-31900634D01*
X119127283Y-31882635D01*
X119163824Y-31871550D01*
X119201828Y-31867808D01*
X119239832Y-31871550D01*
X119239832Y-31871550D01*
G37*
M02*
