G04 #@! TF.GenerationSoftware,KiCad,Pcbnew,5.0.2-bee76a0~70~ubuntu18.04.1*
G04 #@! TF.CreationDate,2019-04-27T16:39:52+02:00*
G04 #@! TF.ProjectId,pcbtc,70636274-632e-46b6-9963-61645f706362,rev?*
G04 #@! TF.SameCoordinates,Original*
G04 #@! TF.FileFunction,Legend,Bot*
G04 #@! TF.FilePolarity,Positive*
%FSLAX46Y46*%
G04 Gerber Fmt 4.6, Leading zero omitted, Abs format (unit mm)*
G04 Created by KiCad (PCBNEW 5.0.2-bee76a0~70~ubuntu18.04.1) date Sa 27 Apr 2019 16:39:52 CEST*
%MOMM*%
%LPD*%
G01*
G04 APERTURE LIST*
%ADD10C,0.120000*%
%ADD11C,0.150000*%
G04 APERTURE END LIST*
D10*
G04 #@! TO.C,C33*
X185078307Y-69773519D02*
X184226860Y-68922072D01*
X186365242Y-68486584D02*
X185513795Y-67635137D01*
G04 #@! TO.C,C39*
X187984517Y-66867310D02*
X187133070Y-66015863D01*
X186697582Y-68154245D02*
X185846135Y-67302798D01*
G04 #@! TO.C,C34*
X181397936Y-64790000D02*
X182602064Y-64790000D01*
X181397936Y-66610000D02*
X182602064Y-66610000D01*
G04 #@! TO.C,C40*
X195402064Y-68990000D02*
X194197936Y-68990000D01*
X195402064Y-70810000D02*
X194197936Y-70810000D01*
G04 #@! TO.C,C41*
X195397063Y-68504138D02*
X194192935Y-68504138D01*
X195397063Y-66684138D02*
X194192935Y-66684138D01*
G04 #@! TO.C,C42*
X195397063Y-64394137D02*
X194192935Y-64394137D01*
X195397063Y-66214137D02*
X194192935Y-66214137D01*
G04 #@! TO.C,C33*
D11*
X187574263Y-70478781D02*
X187614669Y-70478781D01*
X187695481Y-70438375D01*
X187735887Y-70397969D01*
X187776293Y-70317157D01*
X187776293Y-70236345D01*
X187756090Y-70175735D01*
X187695481Y-70074720D01*
X187634872Y-70014111D01*
X187533856Y-69953502D01*
X187473247Y-69933299D01*
X187392435Y-69933299D01*
X187311623Y-69973705D01*
X187271217Y-70014111D01*
X187230811Y-70094923D01*
X187230811Y-70135329D01*
X187048983Y-70236345D02*
X186786344Y-70498984D01*
X187089389Y-70519187D01*
X187028780Y-70579796D01*
X187008577Y-70640406D01*
X187008577Y-70680812D01*
X187028780Y-70741421D01*
X187129795Y-70842436D01*
X187190405Y-70862639D01*
X187230811Y-70862639D01*
X187291420Y-70842436D01*
X187412638Y-70721218D01*
X187432841Y-70660609D01*
X187432841Y-70620203D01*
X186644922Y-70640406D02*
X186382283Y-70903045D01*
X186685328Y-70923248D01*
X186624719Y-70983857D01*
X186604516Y-71044467D01*
X186604516Y-71084873D01*
X186624719Y-71145482D01*
X186725734Y-71246497D01*
X186786344Y-71266700D01*
X186826750Y-71266700D01*
X186887359Y-71246497D01*
X187008577Y-71125279D01*
X187028780Y-71064670D01*
X187028780Y-71024264D01*
G04 #@! TO.C,C39*
X189224264Y-68828781D02*
X189264670Y-68828781D01*
X189345482Y-68788375D01*
X189385888Y-68747969D01*
X189426294Y-68667157D01*
X189426294Y-68586345D01*
X189406091Y-68525735D01*
X189345482Y-68424720D01*
X189284873Y-68364111D01*
X189183857Y-68303502D01*
X189123248Y-68283299D01*
X189042436Y-68283299D01*
X188961624Y-68323705D01*
X188921218Y-68364111D01*
X188880812Y-68444923D01*
X188880812Y-68485329D01*
X188698984Y-68586345D02*
X188436345Y-68848984D01*
X188739390Y-68869187D01*
X188678781Y-68929796D01*
X188658578Y-68990406D01*
X188658578Y-69030812D01*
X188678781Y-69091421D01*
X188779796Y-69192436D01*
X188840406Y-69212639D01*
X188880812Y-69212639D01*
X188941421Y-69192436D01*
X189062639Y-69071218D01*
X189082842Y-69010609D01*
X189082842Y-68970203D01*
X188658578Y-69475279D02*
X188577766Y-69556091D01*
X188517157Y-69576294D01*
X188476751Y-69576294D01*
X188375735Y-69556091D01*
X188274720Y-69495482D01*
X188113096Y-69333857D01*
X188092893Y-69273248D01*
X188092893Y-69232842D01*
X188113096Y-69172233D01*
X188193908Y-69091421D01*
X188254517Y-69071218D01*
X188294923Y-69071218D01*
X188355532Y-69091421D01*
X188456548Y-69192436D01*
X188476751Y-69253045D01*
X188476751Y-69293451D01*
X188456548Y-69354061D01*
X188375735Y-69434873D01*
X188315126Y-69455076D01*
X188274720Y-69455076D01*
X188214111Y-69434873D01*
G04 #@! TO.C,C34*
X181585714Y-67514285D02*
X181614285Y-67542857D01*
X181700000Y-67571428D01*
X181757142Y-67571428D01*
X181842857Y-67542857D01*
X181900000Y-67485714D01*
X181928571Y-67428571D01*
X181957142Y-67314285D01*
X181957142Y-67228571D01*
X181928571Y-67114285D01*
X181900000Y-67057142D01*
X181842857Y-67000000D01*
X181757142Y-66971428D01*
X181700000Y-66971428D01*
X181614285Y-67000000D01*
X181585714Y-67028571D01*
X181385714Y-66971428D02*
X181014285Y-66971428D01*
X181214285Y-67200000D01*
X181128571Y-67200000D01*
X181071428Y-67228571D01*
X181042857Y-67257142D01*
X181014285Y-67314285D01*
X181014285Y-67457142D01*
X181042857Y-67514285D01*
X181071428Y-67542857D01*
X181128571Y-67571428D01*
X181300000Y-67571428D01*
X181357142Y-67542857D01*
X181385714Y-67514285D01*
X180500000Y-67171428D02*
X180500000Y-67571428D01*
X180642857Y-66942857D02*
X180785714Y-67371428D01*
X180414285Y-67371428D01*
G04 #@! TO.C,C40*
X192085714Y-70114285D02*
X192114285Y-70142857D01*
X192200000Y-70171428D01*
X192257142Y-70171428D01*
X192342857Y-70142857D01*
X192400000Y-70085714D01*
X192428571Y-70028571D01*
X192457142Y-69914285D01*
X192457142Y-69828571D01*
X192428571Y-69714285D01*
X192400000Y-69657142D01*
X192342857Y-69600000D01*
X192257142Y-69571428D01*
X192200000Y-69571428D01*
X192114285Y-69600000D01*
X192085714Y-69628571D01*
X191571428Y-69771428D02*
X191571428Y-70171428D01*
X191714285Y-69542857D02*
X191857142Y-69971428D01*
X191485714Y-69971428D01*
X191142857Y-69571428D02*
X191085714Y-69571428D01*
X191028571Y-69600000D01*
X191000000Y-69628571D01*
X190971428Y-69685714D01*
X190942857Y-69800000D01*
X190942857Y-69942857D01*
X190971428Y-70057142D01*
X191000000Y-70114285D01*
X191028571Y-70142857D01*
X191085714Y-70171428D01*
X191142857Y-70171428D01*
X191200000Y-70142857D01*
X191228571Y-70114285D01*
X191257142Y-70057142D01*
X191285714Y-69942857D01*
X191285714Y-69800000D01*
X191257142Y-69685714D01*
X191228571Y-69628571D01*
X191200000Y-69600000D01*
X191142857Y-69571428D01*
G04 #@! TO.C,C41*
X192085714Y-67914285D02*
X192114285Y-67942857D01*
X192200000Y-67971428D01*
X192257142Y-67971428D01*
X192342857Y-67942857D01*
X192400000Y-67885714D01*
X192428571Y-67828571D01*
X192457142Y-67714285D01*
X192457142Y-67628571D01*
X192428571Y-67514285D01*
X192400000Y-67457142D01*
X192342857Y-67400000D01*
X192257142Y-67371428D01*
X192200000Y-67371428D01*
X192114285Y-67400000D01*
X192085714Y-67428571D01*
X191571428Y-67571428D02*
X191571428Y-67971428D01*
X191714285Y-67342857D02*
X191857142Y-67771428D01*
X191485714Y-67771428D01*
X190942857Y-67971428D02*
X191285714Y-67971428D01*
X191114285Y-67971428D02*
X191114285Y-67371428D01*
X191171428Y-67457142D01*
X191228571Y-67514285D01*
X191285714Y-67542857D01*
G04 #@! TO.C,C42*
X192135714Y-65564285D02*
X192164285Y-65592857D01*
X192250000Y-65621428D01*
X192307142Y-65621428D01*
X192392857Y-65592857D01*
X192450000Y-65535714D01*
X192478571Y-65478571D01*
X192507142Y-65364285D01*
X192507142Y-65278571D01*
X192478571Y-65164285D01*
X192450000Y-65107142D01*
X192392857Y-65050000D01*
X192307142Y-65021428D01*
X192250000Y-65021428D01*
X192164285Y-65050000D01*
X192135714Y-65078571D01*
X191621428Y-65221428D02*
X191621428Y-65621428D01*
X191764285Y-64992857D02*
X191907142Y-65421428D01*
X191535714Y-65421428D01*
X191335714Y-65078571D02*
X191307142Y-65050000D01*
X191250000Y-65021428D01*
X191107142Y-65021428D01*
X191050000Y-65050000D01*
X191021428Y-65078571D01*
X190992857Y-65135714D01*
X190992857Y-65192857D01*
X191021428Y-65278571D01*
X191364285Y-65621428D01*
X190992857Y-65621428D01*
G04 #@! TD*
M02*
