M48
;DRILL file {KiCad 5.0.2-bee76a0~70~ubuntu18.04.1} date Sa 27 Apr 2019 16:39:54 CEST
;FORMAT={-:-/ absolute / inch / decimal}
FMAT,2
INCH,TZ
T1C0.0157
T2C0.0197
T3C0.0236
T4C0.0315
T5C0.1260
T6C0.1772
%
G90
G05
T1
X4.012Y-3.666
X4.0157Y-1.8504
X4.0157Y-2.7559
X4.0157Y-3.1496
X4.0157Y-4.1339
X4.0157Y-4.4094
X4.0157Y-4.7244
X4.0472Y-3.7717
X4.0551Y-1.3386
X4.074Y-4.048
X4.0787Y-3.9724
X4.0866Y-3.9094
X4.0878Y-3.8271
X4.092Y-3.576
X4.0945Y-3.3858
X4.1102Y-4.1575
X4.122Y-4.4094
X4.1508Y-4.5843
X4.1641Y-3.877
X4.1693Y-4.9803
X4.1732Y-1.6969
X4.1752Y-4.1516
X4.1848Y-2.7974
X4.194Y-3.14
X4.2008Y-3.6142
X4.2017Y-3.1786
X4.2283Y-3.4134
X4.2319Y-3.9019
X4.246Y-3.862
X4.2463Y-4.2996
X4.2756Y-4.4055
X4.2788Y-4.0471
X4.2788Y-4.1171
X4.2788Y-4.1871
X4.2835Y-2.9213
X4.3031Y-3.6181
X4.308Y-4.996
X4.3228Y-2.8858
X4.3228Y-3.1142
X4.3228Y-3.2953
X4.3425Y-2.6378
X4.3588Y-4.0471
X4.3588Y-4.1171
X4.3588Y-4.1871
X4.3605Y-3.9252
X4.364Y-3.8
X4.376Y-3.028
X4.3761Y-3.8611
X4.3831Y-1.8846
X4.3858Y-2.6772
X4.3963Y-4.2971
X4.3976Y-2.7756
X4.406Y-3.002
X4.406Y-3.002
X4.4252Y-3.8898
X4.434Y-4.312
X4.437Y-2.5236
X4.4388Y-4.0471
X4.4388Y-4.1171
X4.4388Y-4.1871
X4.4495Y-3.8234
X4.4536Y-3.068
X4.468Y-3.15
X4.47Y-3.864
X4.4803Y-2.5709
X4.4881Y-4.5652
X4.4961Y-2.7835
X4.4961Y-3.0394
X4.498Y-3.978
X4.5085Y-3.186
X4.5118Y-1.4724
X4.5185Y-2.9697
X4.528Y-4.958
X4.5538Y-3.8946
X4.554Y-4.08
X4.5591Y-4.2953
X4.5599Y-1.7459
X4.563Y-2.5433
X4.563Y-2.7205
X4.5669Y-3.7913
X4.5787Y-2.6417
X4.5827Y-2.2047
X4.5866Y-4.8898
X4.622Y-1.9646
X4.6417Y-4.0394
X4.6457Y-3.626
X4.6513Y-3.8096
X4.6654Y-3.2165
X4.672Y-4.352
X4.685Y-3.4409
X4.7165Y-2.4291
X4.7165Y-2.5827
X4.7244Y-3.626
X4.7244Y-4.3622
X4.7244Y-4.6496
X4.73Y-2.736
X4.7475Y-2.7025
X4.748Y-3.7913
X4.7559Y-4.1181
X4.7638Y-1.2598
X4.768Y-2.672
X4.7816Y-1.6999
X4.7823Y-2.2014
X4.878Y-3.9724
X4.878Y-4.4409
X4.8858Y-2.4449
X4.908Y-1.612
X4.908Y-1.652
X4.908Y-1.69
X5.0118Y-2.0236
X5.0253Y-1.8561
X5.1181Y-1.2598
X5.1181Y-2.2047
X5.1735Y-2.0532
X5.3071Y-1.6772
X5.5118Y-1.2598
X5.5118Y-1.9685
X5.5236Y-1.6575
X5.5989Y-1.3993
X5.6366Y-1.4742
X5.6477Y-1.4297
X5.6477Y-1.5188
X5.6979Y-1.413
X5.6979Y-1.5355
X5.7145Y-1.6861
X5.7535Y-1.413
X5.7535Y-1.5355
X5.8092Y-1.413
X5.8092Y-1.5355
X5.824Y-1.626
X5.8593Y-1.5188
X5.8593Y-1.4297
X5.8705Y-1.4742
X5.9055Y-1.2598
X5.907Y-1.4752
X5.9182Y-1.4307
X5.9182Y-1.5198
X5.9683Y-1.414
X5.9683Y-1.5365
X6.0071Y-1.8914
X6.024Y-1.414
X6.024Y-1.5365
X6.0796Y-1.414
X6.0796Y-1.5365
X6.1298Y-1.4307
X6.1298Y-1.5198
X6.1409Y-1.4752
X6.1912Y-1.837
X6.252Y-1.4759
X6.2632Y-1.4313
X6.2632Y-1.5204
X6.2677Y-1.7165
X6.2992Y-1.2598
X6.2992Y-1.9685
X6.3133Y-1.4146
X6.3133Y-1.5371
X6.3689Y-1.4146
X6.3689Y-1.5371
X6.3985Y-1.8275
X6.4246Y-1.4146
X6.4246Y-1.5371
X6.4747Y-1.4313
X6.4747Y-1.5204
X6.4859Y-1.4759
X6.5429Y-2.0084
X6.5669Y-1.5236
X6.5748Y-1.7205
X6.65Y-1.518
X6.6929Y-1.2598
X6.6929Y-1.7913
X6.6929Y-2.2047
X6.7047Y-1.4409
X6.7909Y-2.1365
X6.7909Y-2.1922
X6.7909Y-2.2479
X6.7929Y-1.7913
X6.7929Y-1.8469
X6.7929Y-1.9026
X6.8076Y-2.0864
X6.8076Y-2.298
X6.8096Y-1.7412
X6.8096Y-1.9527
X6.8228Y-1.563
X6.8521Y-2.0753
X6.8521Y-2.3091
X6.8541Y-1.73
X6.8541Y-1.9639
X6.89Y-2.3
X6.8967Y-2.0864
X6.8968Y-1.7451
X6.8987Y-1.9527
X6.904Y-1.522
X6.91Y-1.708
X6.9154Y-1.7913
X6.9154Y-1.8469
X6.9154Y-1.9026
X6.9567Y-1.4921
X7.015Y-2.31
X7.044Y-1.768
X7.051Y-1.4032
X7.052Y-1.939
X7.056Y-1.524
X7.056Y-1.582
X7.058Y-1.714
X7.06Y-1.85
X7.064Y-2.16
X7.074Y-2.1205
X7.0866Y-1.2598
X7.1Y-2.2672
X7.1Y-2.31
X7.108Y-1.864
X7.1142Y-3.5276
X7.1175Y-2.0345
X7.1299Y-3.2244
X7.132Y-2.08
X7.1322Y-2.1938
X7.145Y-2.34
X7.151Y-2.2315
X7.154Y-1.736
X7.1576Y-2.1637
X7.1723Y-2.0818
X7.185Y-1.8602
X7.1906Y-1.9974
X7.192Y-2.302
X7.1926Y-2.5453
X7.1926Y-2.5847
X7.1926Y-2.624
X7.1926Y-2.6634
X7.1926Y-2.7028
X7.1929Y-3.374
X7.2047Y-2.8445
X7.2047Y-2.8839
X7.208Y-1.572
X7.212Y-1.712
X7.2224Y-2.0528
X7.232Y-2.444
X7.2323Y-2.5453
X7.2323Y-2.5846
X7.2323Y-2.624
X7.2323Y-2.6634
X7.2323Y-2.7028
X7.2376Y-2.8596
X7.238Y-1.99
X7.238Y-2.914
X7.2461Y-1.4382
X7.252Y-3.2244
X7.2526Y-2.2667
X7.2585Y-2.8805
X7.2598Y-3.5236
X7.268Y-2.304
X7.2713Y-2.5453
X7.2713Y-2.5847
X7.2713Y-2.624
X7.2713Y-2.6634
X7.2713Y-2.7028
X7.276Y-2.916
X7.2851Y-2.0422
X7.2875Y-2.0815
X7.29Y-2.5
X7.3135Y-2.1889
X7.322Y-2.32
X7.3228Y-2.7185
X7.3228Y-2.7579
X7.3228Y-3.374
X7.324Y-2.2308
X7.3248Y-2.8031
X7.3264Y-1.9974
X7.3268Y-2.8445
X7.328Y-2.088
X7.3484Y-2.6831
X7.3543Y-2.3878
X7.3686Y-2.1769
X7.3917Y-2.6575
X7.3917Y-2.6969
X7.3917Y-2.7362
X7.3917Y-2.7953
X7.3917Y-2.8445
X7.3935Y-2.1243
X7.4016Y-2.5492
X7.4016Y-2.6102
X7.4165Y-1.876
X7.4195Y-1.9745
X7.42Y-2.035
X7.426Y-2.3156
X7.4311Y-2.5492
X7.4311Y-2.6102
X7.4311Y-2.6575
X7.4311Y-2.6969
X7.4311Y-2.7362
X7.4311Y-2.7756
X7.4311Y-2.815
X7.4315Y-2.2575
X7.46Y-2.295
X7.4803Y-1.2598
X7.4843Y-2.0984
X7.5035Y-2.2989
X7.5685Y-1.7913
X7.5685Y-1.847
X7.5685Y-1.9027
X7.5689Y-2.1377
X7.5689Y-2.1934
X7.5689Y-2.2491
X7.5735Y-2.484
X7.5757Y-2.5443
X7.5757Y-2.5837
X7.5757Y-2.6231
X7.5757Y-2.6625
X7.5757Y-2.7018
X7.5852Y-1.7412
X7.5852Y-1.9528
X7.5856Y-2.0876
X7.6083Y-2.8445
X7.6142Y-2.5453
X7.6142Y-2.5846
X7.6142Y-2.624
X7.6142Y-2.6634
X7.6142Y-2.7028
X7.615Y-2.3945
X7.628Y-2.456
X7.6298Y-1.7301
X7.6298Y-1.9639
X7.6301Y-2.0765
X7.6476Y-2.8445
X7.6545Y-2.5443
X7.6545Y-2.5837
X7.6545Y-2.6231
X7.6545Y-2.6625
X7.6545Y-2.7018
X7.6743Y-1.7412
X7.6743Y-1.9528
X7.6747Y-2.0876
X7.691Y-1.7913
X7.691Y-1.847
X7.691Y-1.9027
X7.6914Y-2.1377
X7.6914Y-2.1934
X7.6914Y-2.2491
X7.6928Y-1.6262
X7.7046Y-2.5653
X7.7046Y-2.6053
X7.7046Y-2.6453
X7.7046Y-2.6853
X7.7046Y-2.7253
X7.7165Y-1.3386
X7.72Y-2.882
X7.72Y-2.932
X7.74Y-2.585
X7.74Y-2.625
X7.74Y-2.665
X7.74Y-2.705
X7.74Y-2.745
X7.74Y-2.785
X7.74Y-2.825
X7.766Y-3.022
X7.79Y-2.53
X7.7953Y-1.5748
X7.7953Y-1.9685
X7.8228Y-2.2835
X7.83Y-2.435
X7.835Y-2.53
X7.835Y-2.6
X7.838Y-2.954
X7.844Y-2.884
T2
X7.3858Y-4.7244
X7.4135Y-4.6576
X7.4135Y-4.7912
X7.4803Y-4.6299
X7.4803Y-4.8189
X7.5471Y-4.6576
X7.5471Y-4.7912
X7.5748Y-4.7244
X4.2362Y-4.7244
X4.2639Y-4.6576
X4.2639Y-4.7912
X4.3307Y-4.6299
X4.3307Y-4.8189
X4.3975Y-4.6576
X4.3975Y-4.7912
X4.4252Y-4.7244
X4.2362Y-1.5748
X4.2639Y-1.508
X4.2639Y-1.6416
X4.3307Y-1.4803
X4.3307Y-1.6693
X4.3975Y-1.508
X4.3975Y-1.6416
X4.4252Y-1.5748
X7.3858Y-1.5748
X7.4135Y-1.508
X7.4135Y-1.6416
X7.4803Y-1.4803
X7.4803Y-1.6693
X7.5471Y-1.508
X7.5471Y-1.6416
X7.5748Y-1.5748
T4
X7.2196Y-4.1736
X7.2688Y-4.1736
X7.564Y-4.1736
X7.6133Y-4.1736
X7.2196Y-3.6421
X7.2688Y-3.6421
X7.564Y-3.6421
X7.6133Y-3.6421
X7.2196Y-3.9098
X7.2688Y-3.9098
X7.564Y-3.9098
X7.6133Y-3.9098
T5
X4.3307Y-4.7244
X4.3307Y-1.5748
X7.4803Y-1.5748
X7.4803Y-4.7244
T6
X7.5591Y-3.002
X7.5591Y-3.2972
T3
X4.0662Y-2.9799G85X4.0426Y-2.9799
G05
X4.0662Y-3.3201G85X4.0426Y-3.3201
G05
X4.2406Y-2.9799G85X4.1973Y-2.9799
G05
X4.2406Y-3.3201G85X4.1973Y-3.3201
G05
T0
M30
