G04 #@! TF.GenerationSoftware,KiCad,Pcbnew,5.0.2-bee76a0~70~ubuntu18.04.1*
G04 #@! TF.CreationDate,2019-04-27T16:33:21+02:00*
G04 #@! TF.ProjectId,pcbtc,70636274-632e-46b6-9963-61645f706362,rev?*
G04 #@! TF.SameCoordinates,Original*
G04 #@! TF.FileFunction,Paste,Bot*
G04 #@! TF.FilePolarity,Positive*
%FSLAX46Y46*%
G04 Gerber Fmt 4.6, Leading zero omitted, Abs format (unit mm)*
G04 Created by KiCad (PCBNEW 5.0.2-bee76a0~70~ubuntu18.04.1) date Sa 27 Apr 2019 16:33:21 CEST*
%MOMM*%
%LPD*%
G01*
G04 APERTURE LIST*
%ADD10C,0.100000*%
%ADD11C,1.250000*%
G04 APERTURE END LIST*
D10*
G04 #@! TO.C,C33*
G36*
X184507383Y-66758476D02*
X184531652Y-66762076D01*
X184555450Y-66768037D01*
X184578550Y-66776302D01*
X184600728Y-66786792D01*
X184621772Y-66799405D01*
X184641477Y-66814019D01*
X184659656Y-66830495D01*
X185189986Y-67360825D01*
X185206462Y-67379004D01*
X185221076Y-67398709D01*
X185233689Y-67419753D01*
X185244179Y-67441931D01*
X185252444Y-67465031D01*
X185258405Y-67488829D01*
X185262005Y-67513098D01*
X185263209Y-67537602D01*
X185262005Y-67562106D01*
X185258405Y-67586375D01*
X185252444Y-67610173D01*
X185244179Y-67633273D01*
X185233689Y-67655451D01*
X185221076Y-67676495D01*
X185206462Y-67696200D01*
X185189986Y-67714379D01*
X184306102Y-68598263D01*
X184287923Y-68614739D01*
X184268218Y-68629353D01*
X184247174Y-68641966D01*
X184224996Y-68652456D01*
X184201896Y-68660721D01*
X184178098Y-68666682D01*
X184153829Y-68670282D01*
X184129325Y-68671486D01*
X184104821Y-68670282D01*
X184080552Y-68666682D01*
X184056754Y-68660721D01*
X184033654Y-68652456D01*
X184011476Y-68641966D01*
X183990432Y-68629353D01*
X183970727Y-68614739D01*
X183952548Y-68598263D01*
X183422218Y-68067933D01*
X183405742Y-68049754D01*
X183391128Y-68030049D01*
X183378515Y-68009005D01*
X183368025Y-67986827D01*
X183359760Y-67963727D01*
X183353799Y-67939929D01*
X183350199Y-67915660D01*
X183348995Y-67891156D01*
X183350199Y-67866652D01*
X183353799Y-67842383D01*
X183359760Y-67818585D01*
X183368025Y-67795485D01*
X183378515Y-67773307D01*
X183391128Y-67752263D01*
X183405742Y-67732558D01*
X183422218Y-67714379D01*
X184306102Y-66830495D01*
X184324281Y-66814019D01*
X184343986Y-66799405D01*
X184365030Y-66786792D01*
X184387208Y-66776302D01*
X184410308Y-66768037D01*
X184434106Y-66762076D01*
X184458375Y-66758476D01*
X184482879Y-66757272D01*
X184507383Y-66758476D01*
X184507383Y-66758476D01*
G37*
D11*
X184306102Y-67714379D03*
D10*
G36*
X186487281Y-68738374D02*
X186511550Y-68741974D01*
X186535348Y-68747935D01*
X186558448Y-68756200D01*
X186580626Y-68766690D01*
X186601670Y-68779303D01*
X186621375Y-68793917D01*
X186639554Y-68810393D01*
X187169884Y-69340723D01*
X187186360Y-69358902D01*
X187200974Y-69378607D01*
X187213587Y-69399651D01*
X187224077Y-69421829D01*
X187232342Y-69444929D01*
X187238303Y-69468727D01*
X187241903Y-69492996D01*
X187243107Y-69517500D01*
X187241903Y-69542004D01*
X187238303Y-69566273D01*
X187232342Y-69590071D01*
X187224077Y-69613171D01*
X187213587Y-69635349D01*
X187200974Y-69656393D01*
X187186360Y-69676098D01*
X187169884Y-69694277D01*
X186286000Y-70578161D01*
X186267821Y-70594637D01*
X186248116Y-70609251D01*
X186227072Y-70621864D01*
X186204894Y-70632354D01*
X186181794Y-70640619D01*
X186157996Y-70646580D01*
X186133727Y-70650180D01*
X186109223Y-70651384D01*
X186084719Y-70650180D01*
X186060450Y-70646580D01*
X186036652Y-70640619D01*
X186013552Y-70632354D01*
X185991374Y-70621864D01*
X185970330Y-70609251D01*
X185950625Y-70594637D01*
X185932446Y-70578161D01*
X185402116Y-70047831D01*
X185385640Y-70029652D01*
X185371026Y-70009947D01*
X185358413Y-69988903D01*
X185347923Y-69966725D01*
X185339658Y-69943625D01*
X185333697Y-69919827D01*
X185330097Y-69895558D01*
X185328893Y-69871054D01*
X185330097Y-69846550D01*
X185333697Y-69822281D01*
X185339658Y-69798483D01*
X185347923Y-69775383D01*
X185358413Y-69753205D01*
X185371026Y-69732161D01*
X185385640Y-69712456D01*
X185402116Y-69694277D01*
X186286000Y-68810393D01*
X186304179Y-68793917D01*
X186323884Y-68779303D01*
X186344928Y-68766690D01*
X186367106Y-68756200D01*
X186390206Y-68747935D01*
X186414004Y-68741974D01*
X186438273Y-68738374D01*
X186462777Y-68737170D01*
X186487281Y-68738374D01*
X186487281Y-68738374D01*
G37*
D11*
X186286000Y-69694277D03*
G04 #@! TD*
D10*
G04 #@! TO.C,C39*
G36*
X188106556Y-67119100D02*
X188130825Y-67122700D01*
X188154623Y-67128661D01*
X188177723Y-67136926D01*
X188199901Y-67147416D01*
X188220945Y-67160029D01*
X188240650Y-67174643D01*
X188258829Y-67191119D01*
X188789159Y-67721449D01*
X188805635Y-67739628D01*
X188820249Y-67759333D01*
X188832862Y-67780377D01*
X188843352Y-67802555D01*
X188851617Y-67825655D01*
X188857578Y-67849453D01*
X188861178Y-67873722D01*
X188862382Y-67898226D01*
X188861178Y-67922730D01*
X188857578Y-67946999D01*
X188851617Y-67970797D01*
X188843352Y-67993897D01*
X188832862Y-68016075D01*
X188820249Y-68037119D01*
X188805635Y-68056824D01*
X188789159Y-68075003D01*
X187905275Y-68958887D01*
X187887096Y-68975363D01*
X187867391Y-68989977D01*
X187846347Y-69002590D01*
X187824169Y-69013080D01*
X187801069Y-69021345D01*
X187777271Y-69027306D01*
X187753002Y-69030906D01*
X187728498Y-69032110D01*
X187703994Y-69030906D01*
X187679725Y-69027306D01*
X187655927Y-69021345D01*
X187632827Y-69013080D01*
X187610649Y-69002590D01*
X187589605Y-68989977D01*
X187569900Y-68975363D01*
X187551721Y-68958887D01*
X187021391Y-68428557D01*
X187004915Y-68410378D01*
X186990301Y-68390673D01*
X186977688Y-68369629D01*
X186967198Y-68347451D01*
X186958933Y-68324351D01*
X186952972Y-68300553D01*
X186949372Y-68276284D01*
X186948168Y-68251780D01*
X186949372Y-68227276D01*
X186952972Y-68203007D01*
X186958933Y-68179209D01*
X186967198Y-68156109D01*
X186977688Y-68133931D01*
X186990301Y-68112887D01*
X187004915Y-68093182D01*
X187021391Y-68075003D01*
X187905275Y-67191119D01*
X187923454Y-67174643D01*
X187943159Y-67160029D01*
X187964203Y-67147416D01*
X187986381Y-67136926D01*
X188009481Y-67128661D01*
X188033279Y-67122700D01*
X188057548Y-67119100D01*
X188082052Y-67117896D01*
X188106556Y-67119100D01*
X188106556Y-67119100D01*
G37*
D11*
X187905275Y-68075003D03*
D10*
G36*
X186126658Y-65139202D02*
X186150927Y-65142802D01*
X186174725Y-65148763D01*
X186197825Y-65157028D01*
X186220003Y-65167518D01*
X186241047Y-65180131D01*
X186260752Y-65194745D01*
X186278931Y-65211221D01*
X186809261Y-65741551D01*
X186825737Y-65759730D01*
X186840351Y-65779435D01*
X186852964Y-65800479D01*
X186863454Y-65822657D01*
X186871719Y-65845757D01*
X186877680Y-65869555D01*
X186881280Y-65893824D01*
X186882484Y-65918328D01*
X186881280Y-65942832D01*
X186877680Y-65967101D01*
X186871719Y-65990899D01*
X186863454Y-66013999D01*
X186852964Y-66036177D01*
X186840351Y-66057221D01*
X186825737Y-66076926D01*
X186809261Y-66095105D01*
X185925377Y-66978989D01*
X185907198Y-66995465D01*
X185887493Y-67010079D01*
X185866449Y-67022692D01*
X185844271Y-67033182D01*
X185821171Y-67041447D01*
X185797373Y-67047408D01*
X185773104Y-67051008D01*
X185748600Y-67052212D01*
X185724096Y-67051008D01*
X185699827Y-67047408D01*
X185676029Y-67041447D01*
X185652929Y-67033182D01*
X185630751Y-67022692D01*
X185609707Y-67010079D01*
X185590002Y-66995465D01*
X185571823Y-66978989D01*
X185041493Y-66448659D01*
X185025017Y-66430480D01*
X185010403Y-66410775D01*
X184997790Y-66389731D01*
X184987300Y-66367553D01*
X184979035Y-66344453D01*
X184973074Y-66320655D01*
X184969474Y-66296386D01*
X184968270Y-66271882D01*
X184969474Y-66247378D01*
X184973074Y-66223109D01*
X184979035Y-66199311D01*
X184987300Y-66176211D01*
X184997790Y-66154033D01*
X185010403Y-66132989D01*
X185025017Y-66113284D01*
X185041493Y-66095105D01*
X185925377Y-65211221D01*
X185943556Y-65194745D01*
X185963261Y-65180131D01*
X185984305Y-65167518D01*
X186006483Y-65157028D01*
X186029583Y-65148763D01*
X186053381Y-65142802D01*
X186077650Y-65139202D01*
X186102154Y-65137998D01*
X186126658Y-65139202D01*
X186126658Y-65139202D01*
G37*
D11*
X185925377Y-66095105D03*
G04 #@! TD*
D10*
G04 #@! TO.C,C34*
G36*
X193794503Y-69010341D02*
X193818772Y-69013941D01*
X193842570Y-69019902D01*
X193865670Y-69028167D01*
X193887848Y-69038657D01*
X193908892Y-69051270D01*
X193928597Y-69065884D01*
X193946776Y-69082360D01*
X193963252Y-69100539D01*
X193977866Y-69120244D01*
X193990479Y-69141288D01*
X194000969Y-69163466D01*
X194009234Y-69186566D01*
X194015195Y-69210364D01*
X194018795Y-69234633D01*
X194019999Y-69259137D01*
X194019999Y-70509137D01*
X194018795Y-70533641D01*
X194015195Y-70557910D01*
X194009234Y-70581708D01*
X194000969Y-70604808D01*
X193990479Y-70626986D01*
X193977866Y-70648030D01*
X193963252Y-70667735D01*
X193946776Y-70685914D01*
X193928597Y-70702390D01*
X193908892Y-70717004D01*
X193887848Y-70729617D01*
X193865670Y-70740107D01*
X193842570Y-70748372D01*
X193818772Y-70754333D01*
X193794503Y-70757933D01*
X193769999Y-70759137D01*
X193019999Y-70759137D01*
X192995495Y-70757933D01*
X192971226Y-70754333D01*
X192947428Y-70748372D01*
X192924328Y-70740107D01*
X192902150Y-70729617D01*
X192881106Y-70717004D01*
X192861401Y-70702390D01*
X192843222Y-70685914D01*
X192826746Y-70667735D01*
X192812132Y-70648030D01*
X192799519Y-70626986D01*
X192789029Y-70604808D01*
X192780764Y-70581708D01*
X192774803Y-70557910D01*
X192771203Y-70533641D01*
X192769999Y-70509137D01*
X192769999Y-69259137D01*
X192771203Y-69234633D01*
X192774803Y-69210364D01*
X192780764Y-69186566D01*
X192789029Y-69163466D01*
X192799519Y-69141288D01*
X192812132Y-69120244D01*
X192826746Y-69100539D01*
X192843222Y-69082360D01*
X192861401Y-69065884D01*
X192881106Y-69051270D01*
X192902150Y-69038657D01*
X192924328Y-69028167D01*
X192947428Y-69019902D01*
X192971226Y-69013941D01*
X192995495Y-69010341D01*
X193019999Y-69009137D01*
X193769999Y-69009137D01*
X193794503Y-69010341D01*
X193794503Y-69010341D01*
G37*
D11*
X193394999Y-69884137D03*
D10*
G36*
X196594503Y-69010341D02*
X196618772Y-69013941D01*
X196642570Y-69019902D01*
X196665670Y-69028167D01*
X196687848Y-69038657D01*
X196708892Y-69051270D01*
X196728597Y-69065884D01*
X196746776Y-69082360D01*
X196763252Y-69100539D01*
X196777866Y-69120244D01*
X196790479Y-69141288D01*
X196800969Y-69163466D01*
X196809234Y-69186566D01*
X196815195Y-69210364D01*
X196818795Y-69234633D01*
X196819999Y-69259137D01*
X196819999Y-70509137D01*
X196818795Y-70533641D01*
X196815195Y-70557910D01*
X196809234Y-70581708D01*
X196800969Y-70604808D01*
X196790479Y-70626986D01*
X196777866Y-70648030D01*
X196763252Y-70667735D01*
X196746776Y-70685914D01*
X196728597Y-70702390D01*
X196708892Y-70717004D01*
X196687848Y-70729617D01*
X196665670Y-70740107D01*
X196642570Y-70748372D01*
X196618772Y-70754333D01*
X196594503Y-70757933D01*
X196569999Y-70759137D01*
X195819999Y-70759137D01*
X195795495Y-70757933D01*
X195771226Y-70754333D01*
X195747428Y-70748372D01*
X195724328Y-70740107D01*
X195702150Y-70729617D01*
X195681106Y-70717004D01*
X195661401Y-70702390D01*
X195643222Y-70685914D01*
X195626746Y-70667735D01*
X195612132Y-70648030D01*
X195599519Y-70626986D01*
X195589029Y-70604808D01*
X195580764Y-70581708D01*
X195574803Y-70557910D01*
X195571203Y-70533641D01*
X195569999Y-70509137D01*
X195569999Y-69259137D01*
X195571203Y-69234633D01*
X195574803Y-69210364D01*
X195580764Y-69186566D01*
X195589029Y-69163466D01*
X195599519Y-69141288D01*
X195612132Y-69120244D01*
X195626746Y-69100539D01*
X195643222Y-69082360D01*
X195661401Y-69065884D01*
X195681106Y-69051270D01*
X195702150Y-69038657D01*
X195724328Y-69028167D01*
X195747428Y-69019902D01*
X195771226Y-69013941D01*
X195795495Y-69010341D01*
X195819999Y-69009137D01*
X196569999Y-69009137D01*
X196594503Y-69010341D01*
X196594503Y-69010341D01*
G37*
D11*
X196194999Y-69884137D03*
G04 #@! TD*
D10*
G04 #@! TO.C,C40*
G36*
X181059504Y-64846204D02*
X181083773Y-64849804D01*
X181107571Y-64855765D01*
X181130671Y-64864030D01*
X181152849Y-64874520D01*
X181173893Y-64887133D01*
X181193598Y-64901747D01*
X181211777Y-64918223D01*
X181228253Y-64936402D01*
X181242867Y-64956107D01*
X181255480Y-64977151D01*
X181265970Y-64999329D01*
X181274235Y-65022429D01*
X181280196Y-65046227D01*
X181283796Y-65070496D01*
X181285000Y-65095000D01*
X181285000Y-66345000D01*
X181283796Y-66369504D01*
X181280196Y-66393773D01*
X181274235Y-66417571D01*
X181265970Y-66440671D01*
X181255480Y-66462849D01*
X181242867Y-66483893D01*
X181228253Y-66503598D01*
X181211777Y-66521777D01*
X181193598Y-66538253D01*
X181173893Y-66552867D01*
X181152849Y-66565480D01*
X181130671Y-66575970D01*
X181107571Y-66584235D01*
X181083773Y-66590196D01*
X181059504Y-66593796D01*
X181035000Y-66595000D01*
X180285000Y-66595000D01*
X180260496Y-66593796D01*
X180236227Y-66590196D01*
X180212429Y-66584235D01*
X180189329Y-66575970D01*
X180167151Y-66565480D01*
X180146107Y-66552867D01*
X180126402Y-66538253D01*
X180108223Y-66521777D01*
X180091747Y-66503598D01*
X180077133Y-66483893D01*
X180064520Y-66462849D01*
X180054030Y-66440671D01*
X180045765Y-66417571D01*
X180039804Y-66393773D01*
X180036204Y-66369504D01*
X180035000Y-66345000D01*
X180035000Y-65095000D01*
X180036204Y-65070496D01*
X180039804Y-65046227D01*
X180045765Y-65022429D01*
X180054030Y-64999329D01*
X180064520Y-64977151D01*
X180077133Y-64956107D01*
X180091747Y-64936402D01*
X180108223Y-64918223D01*
X180126402Y-64901747D01*
X180146107Y-64887133D01*
X180167151Y-64874520D01*
X180189329Y-64864030D01*
X180212429Y-64855765D01*
X180236227Y-64849804D01*
X180260496Y-64846204D01*
X180285000Y-64845000D01*
X181035000Y-64845000D01*
X181059504Y-64846204D01*
X181059504Y-64846204D01*
G37*
D11*
X180660000Y-65720000D03*
D10*
G36*
X183859504Y-64846204D02*
X183883773Y-64849804D01*
X183907571Y-64855765D01*
X183930671Y-64864030D01*
X183952849Y-64874520D01*
X183973893Y-64887133D01*
X183993598Y-64901747D01*
X184011777Y-64918223D01*
X184028253Y-64936402D01*
X184042867Y-64956107D01*
X184055480Y-64977151D01*
X184065970Y-64999329D01*
X184074235Y-65022429D01*
X184080196Y-65046227D01*
X184083796Y-65070496D01*
X184085000Y-65095000D01*
X184085000Y-66345000D01*
X184083796Y-66369504D01*
X184080196Y-66393773D01*
X184074235Y-66417571D01*
X184065970Y-66440671D01*
X184055480Y-66462849D01*
X184042867Y-66483893D01*
X184028253Y-66503598D01*
X184011777Y-66521777D01*
X183993598Y-66538253D01*
X183973893Y-66552867D01*
X183952849Y-66565480D01*
X183930671Y-66575970D01*
X183907571Y-66584235D01*
X183883773Y-66590196D01*
X183859504Y-66593796D01*
X183835000Y-66595000D01*
X183085000Y-66595000D01*
X183060496Y-66593796D01*
X183036227Y-66590196D01*
X183012429Y-66584235D01*
X182989329Y-66575970D01*
X182967151Y-66565480D01*
X182946107Y-66552867D01*
X182926402Y-66538253D01*
X182908223Y-66521777D01*
X182891747Y-66503598D01*
X182877133Y-66483893D01*
X182864520Y-66462849D01*
X182854030Y-66440671D01*
X182845765Y-66417571D01*
X182839804Y-66393773D01*
X182836204Y-66369504D01*
X182835000Y-66345000D01*
X182835000Y-65095000D01*
X182836204Y-65070496D01*
X182839804Y-65046227D01*
X182845765Y-65022429D01*
X182854030Y-64999329D01*
X182864520Y-64977151D01*
X182877133Y-64956107D01*
X182891747Y-64936402D01*
X182908223Y-64918223D01*
X182926402Y-64901747D01*
X182946107Y-64887133D01*
X182967151Y-64874520D01*
X182989329Y-64864030D01*
X183012429Y-64855765D01*
X183036227Y-64849804D01*
X183060496Y-64846204D01*
X183085000Y-64845000D01*
X183835000Y-64845000D01*
X183859504Y-64846204D01*
X183859504Y-64846204D01*
G37*
D11*
X183460000Y-65720000D03*
G04 #@! TD*
D10*
G04 #@! TO.C,C41*
G36*
X193794503Y-66720342D02*
X193818772Y-66723942D01*
X193842570Y-66729903D01*
X193865670Y-66738168D01*
X193887848Y-66748658D01*
X193908892Y-66761271D01*
X193928597Y-66775885D01*
X193946776Y-66792361D01*
X193963252Y-66810540D01*
X193977866Y-66830245D01*
X193990479Y-66851289D01*
X194000969Y-66873467D01*
X194009234Y-66896567D01*
X194015195Y-66920365D01*
X194018795Y-66944634D01*
X194019999Y-66969138D01*
X194019999Y-68219138D01*
X194018795Y-68243642D01*
X194015195Y-68267911D01*
X194009234Y-68291709D01*
X194000969Y-68314809D01*
X193990479Y-68336987D01*
X193977866Y-68358031D01*
X193963252Y-68377736D01*
X193946776Y-68395915D01*
X193928597Y-68412391D01*
X193908892Y-68427005D01*
X193887848Y-68439618D01*
X193865670Y-68450108D01*
X193842570Y-68458373D01*
X193818772Y-68464334D01*
X193794503Y-68467934D01*
X193769999Y-68469138D01*
X193019999Y-68469138D01*
X192995495Y-68467934D01*
X192971226Y-68464334D01*
X192947428Y-68458373D01*
X192924328Y-68450108D01*
X192902150Y-68439618D01*
X192881106Y-68427005D01*
X192861401Y-68412391D01*
X192843222Y-68395915D01*
X192826746Y-68377736D01*
X192812132Y-68358031D01*
X192799519Y-68336987D01*
X192789029Y-68314809D01*
X192780764Y-68291709D01*
X192774803Y-68267911D01*
X192771203Y-68243642D01*
X192769999Y-68219138D01*
X192769999Y-66969138D01*
X192771203Y-66944634D01*
X192774803Y-66920365D01*
X192780764Y-66896567D01*
X192789029Y-66873467D01*
X192799519Y-66851289D01*
X192812132Y-66830245D01*
X192826746Y-66810540D01*
X192843222Y-66792361D01*
X192861401Y-66775885D01*
X192881106Y-66761271D01*
X192902150Y-66748658D01*
X192924328Y-66738168D01*
X192947428Y-66729903D01*
X192971226Y-66723942D01*
X192995495Y-66720342D01*
X193019999Y-66719138D01*
X193769999Y-66719138D01*
X193794503Y-66720342D01*
X193794503Y-66720342D01*
G37*
D11*
X193394999Y-67594138D03*
D10*
G36*
X196594503Y-66720342D02*
X196618772Y-66723942D01*
X196642570Y-66729903D01*
X196665670Y-66738168D01*
X196687848Y-66748658D01*
X196708892Y-66761271D01*
X196728597Y-66775885D01*
X196746776Y-66792361D01*
X196763252Y-66810540D01*
X196777866Y-66830245D01*
X196790479Y-66851289D01*
X196800969Y-66873467D01*
X196809234Y-66896567D01*
X196815195Y-66920365D01*
X196818795Y-66944634D01*
X196819999Y-66969138D01*
X196819999Y-68219138D01*
X196818795Y-68243642D01*
X196815195Y-68267911D01*
X196809234Y-68291709D01*
X196800969Y-68314809D01*
X196790479Y-68336987D01*
X196777866Y-68358031D01*
X196763252Y-68377736D01*
X196746776Y-68395915D01*
X196728597Y-68412391D01*
X196708892Y-68427005D01*
X196687848Y-68439618D01*
X196665670Y-68450108D01*
X196642570Y-68458373D01*
X196618772Y-68464334D01*
X196594503Y-68467934D01*
X196569999Y-68469138D01*
X195819999Y-68469138D01*
X195795495Y-68467934D01*
X195771226Y-68464334D01*
X195747428Y-68458373D01*
X195724328Y-68450108D01*
X195702150Y-68439618D01*
X195681106Y-68427005D01*
X195661401Y-68412391D01*
X195643222Y-68395915D01*
X195626746Y-68377736D01*
X195612132Y-68358031D01*
X195599519Y-68336987D01*
X195589029Y-68314809D01*
X195580764Y-68291709D01*
X195574803Y-68267911D01*
X195571203Y-68243642D01*
X195569999Y-68219138D01*
X195569999Y-66969138D01*
X195571203Y-66944634D01*
X195574803Y-66920365D01*
X195580764Y-66896567D01*
X195589029Y-66873467D01*
X195599519Y-66851289D01*
X195612132Y-66830245D01*
X195626746Y-66810540D01*
X195643222Y-66792361D01*
X195661401Y-66775885D01*
X195681106Y-66761271D01*
X195702150Y-66748658D01*
X195724328Y-66738168D01*
X195747428Y-66729903D01*
X195771226Y-66723942D01*
X195795495Y-66720342D01*
X195819999Y-66719138D01*
X196569999Y-66719138D01*
X196594503Y-66720342D01*
X196594503Y-66720342D01*
G37*
D11*
X196194999Y-67594138D03*
G04 #@! TD*
D10*
G04 #@! TO.C,C42*
G36*
X196594503Y-64430341D02*
X196618772Y-64433941D01*
X196642570Y-64439902D01*
X196665670Y-64448167D01*
X196687848Y-64458657D01*
X196708892Y-64471270D01*
X196728597Y-64485884D01*
X196746776Y-64502360D01*
X196763252Y-64520539D01*
X196777866Y-64540244D01*
X196790479Y-64561288D01*
X196800969Y-64583466D01*
X196809234Y-64606566D01*
X196815195Y-64630364D01*
X196818795Y-64654633D01*
X196819999Y-64679137D01*
X196819999Y-65929137D01*
X196818795Y-65953641D01*
X196815195Y-65977910D01*
X196809234Y-66001708D01*
X196800969Y-66024808D01*
X196790479Y-66046986D01*
X196777866Y-66068030D01*
X196763252Y-66087735D01*
X196746776Y-66105914D01*
X196728597Y-66122390D01*
X196708892Y-66137004D01*
X196687848Y-66149617D01*
X196665670Y-66160107D01*
X196642570Y-66168372D01*
X196618772Y-66174333D01*
X196594503Y-66177933D01*
X196569999Y-66179137D01*
X195819999Y-66179137D01*
X195795495Y-66177933D01*
X195771226Y-66174333D01*
X195747428Y-66168372D01*
X195724328Y-66160107D01*
X195702150Y-66149617D01*
X195681106Y-66137004D01*
X195661401Y-66122390D01*
X195643222Y-66105914D01*
X195626746Y-66087735D01*
X195612132Y-66068030D01*
X195599519Y-66046986D01*
X195589029Y-66024808D01*
X195580764Y-66001708D01*
X195574803Y-65977910D01*
X195571203Y-65953641D01*
X195569999Y-65929137D01*
X195569999Y-64679137D01*
X195571203Y-64654633D01*
X195574803Y-64630364D01*
X195580764Y-64606566D01*
X195589029Y-64583466D01*
X195599519Y-64561288D01*
X195612132Y-64540244D01*
X195626746Y-64520539D01*
X195643222Y-64502360D01*
X195661401Y-64485884D01*
X195681106Y-64471270D01*
X195702150Y-64458657D01*
X195724328Y-64448167D01*
X195747428Y-64439902D01*
X195771226Y-64433941D01*
X195795495Y-64430341D01*
X195819999Y-64429137D01*
X196569999Y-64429137D01*
X196594503Y-64430341D01*
X196594503Y-64430341D01*
G37*
D11*
X196194999Y-65304137D03*
D10*
G36*
X193794503Y-64430341D02*
X193818772Y-64433941D01*
X193842570Y-64439902D01*
X193865670Y-64448167D01*
X193887848Y-64458657D01*
X193908892Y-64471270D01*
X193928597Y-64485884D01*
X193946776Y-64502360D01*
X193963252Y-64520539D01*
X193977866Y-64540244D01*
X193990479Y-64561288D01*
X194000969Y-64583466D01*
X194009234Y-64606566D01*
X194015195Y-64630364D01*
X194018795Y-64654633D01*
X194019999Y-64679137D01*
X194019999Y-65929137D01*
X194018795Y-65953641D01*
X194015195Y-65977910D01*
X194009234Y-66001708D01*
X194000969Y-66024808D01*
X193990479Y-66046986D01*
X193977866Y-66068030D01*
X193963252Y-66087735D01*
X193946776Y-66105914D01*
X193928597Y-66122390D01*
X193908892Y-66137004D01*
X193887848Y-66149617D01*
X193865670Y-66160107D01*
X193842570Y-66168372D01*
X193818772Y-66174333D01*
X193794503Y-66177933D01*
X193769999Y-66179137D01*
X193019999Y-66179137D01*
X192995495Y-66177933D01*
X192971226Y-66174333D01*
X192947428Y-66168372D01*
X192924328Y-66160107D01*
X192902150Y-66149617D01*
X192881106Y-66137004D01*
X192861401Y-66122390D01*
X192843222Y-66105914D01*
X192826746Y-66087735D01*
X192812132Y-66068030D01*
X192799519Y-66046986D01*
X192789029Y-66024808D01*
X192780764Y-66001708D01*
X192774803Y-65977910D01*
X192771203Y-65953641D01*
X192769999Y-65929137D01*
X192769999Y-64679137D01*
X192771203Y-64654633D01*
X192774803Y-64630364D01*
X192780764Y-64606566D01*
X192789029Y-64583466D01*
X192799519Y-64561288D01*
X192812132Y-64540244D01*
X192826746Y-64520539D01*
X192843222Y-64502360D01*
X192861401Y-64485884D01*
X192881106Y-64471270D01*
X192902150Y-64458657D01*
X192924328Y-64448167D01*
X192947428Y-64439902D01*
X192971226Y-64433941D01*
X192995495Y-64430341D01*
X193019999Y-64429137D01*
X193769999Y-64429137D01*
X193794503Y-64430341D01*
X193794503Y-64430341D01*
G37*
D11*
X193394999Y-65304137D03*
G04 #@! TD*
M02*
