G04 Layer_Physical_Order=2*
G04 Layer_Color=16711680*
%FSLAX25Y25*%
%MOIN*%
G70*
G01*
G75*
%ADD10C,0.07874*%
%ADD11C,0.02756*%
%ADD12C,0.11811*%
%ADD13O,0.19685X0.23622*%
%ADD14C,0.23622*%
D10*
X29528Y29528D02*
D03*
D11*
X190945Y119874D02*
X190897Y120854D01*
X190753Y121825D01*
X190514Y122776D01*
X190184Y123700D01*
X189764Y124588D01*
X189260Y125429D01*
X188675Y126217D01*
X188016Y126945D01*
X183071Y0D02*
X184099Y67D01*
X185109Y268D01*
X186084Y599D01*
X187008Y1055D01*
X187864Y1627D01*
X188639Y2306D01*
X189318Y3081D01*
X189890Y3937D01*
X190346Y4861D01*
X190677Y5836D01*
X190877Y6846D01*
X190945Y7874D01*
X56126Y2929D02*
X56853Y2270D01*
X57642Y1685D01*
X58483Y1181D01*
X59370Y761D01*
X60294Y431D01*
X61246Y192D01*
X62217Y48D01*
X63197Y0D01*
X160433Y154527D02*
X188016Y126945D01*
X190945Y45276D02*
Y119874D01*
Y7874D02*
Y45276D01*
X173228Y0D02*
X183071D01*
X63197D02*
X173228D01*
X29528Y29528D02*
X56126Y2929D01*
D12*
X163386Y13780D02*
X164313Y13871D01*
X165205Y14141D01*
X166026Y14580D01*
X166746Y15171D01*
X174236Y24630D02*
X174896Y25357D01*
X175480Y26145D01*
X175985Y26987D01*
X176404Y27874D01*
X176735Y28798D01*
X176973Y29750D01*
X177117Y30721D01*
X177165Y31701D01*
X176602Y61513D02*
X176270Y62457D01*
X175933Y63399D01*
X175592Y64339D01*
X175245Y65277D01*
X174893Y66214D01*
X174537Y67149D01*
X174175Y68081D01*
X173808Y69012D01*
X173436Y69941D01*
X173060Y70868D01*
X172678Y71793D01*
X172292Y72715D01*
X171900Y73636D01*
X171504Y74555D01*
X171103Y75471D01*
X170696Y76385D01*
X170285Y77297D01*
X169869Y78207D01*
X169449Y79115D01*
X169023Y80020D01*
X168593Y80923D01*
X168157Y81824D01*
X167717Y82722D01*
X167272Y83618D01*
X166822Y84512D01*
X166368Y85403D01*
X165909Y86292D01*
X165445Y87178D01*
X164976Y88062D01*
X164503Y88943D01*
X164024Y89822D01*
X163541Y90698D01*
X163054Y91572D01*
X162562Y92443D01*
X162065Y93311D01*
X161563Y94177D01*
X161057Y95039D01*
X160547Y95900D01*
X160031Y96757D01*
X159511Y97612D01*
X158987Y98464D01*
X158458Y99313D01*
X157924Y100159D01*
X157386Y101003D01*
X156844Y101843D01*
X156297Y102681D01*
X155745Y103515D01*
X155189Y104347D01*
X154629Y105176D01*
X154064Y106001D01*
X153495Y106824D01*
X152921Y107644D01*
X152343Y108460D01*
X151760Y109274D01*
X151174Y110084D01*
X150583Y110891D01*
X149987Y111695D01*
X149388Y112496D01*
X148784Y113293D01*
X148176Y114087D01*
X147563Y114878D01*
X146947Y115666D01*
X146326Y116451D01*
X145701Y117232D01*
X145071Y118009D01*
X144438Y118784D01*
X143800Y119555D01*
X143159Y120323D01*
X142513Y121087D01*
X141863Y121847D01*
X141209Y122604D01*
X140552Y123358D01*
X139890Y124108D01*
X139224Y124855D01*
X138554Y125598D01*
X137880Y126337D01*
X137202Y127073D01*
X136520Y127805D01*
X135835Y128533D01*
X135145Y129258D01*
X134452Y129980D01*
X133755Y130697D01*
X133054Y131411D01*
X132349Y132120D01*
X131640Y132826D01*
X130927Y133529D01*
X130211Y134227D01*
X129491Y134922D01*
X128768Y135613D01*
X128040Y136300D01*
X127309Y136983D01*
X126575Y137662D01*
X125837Y138337D01*
X125095Y139008D01*
X124349Y139675D01*
X123600Y140339D01*
X122848Y140998D01*
X122092Y141653D01*
X121332Y142304D01*
X120569Y142951D01*
X119803Y143594D01*
X119033Y144233D01*
X118260Y144868D01*
X117483Y145498D01*
X116703Y146124D01*
X115920Y146747D01*
X115133Y147365D01*
X114343Y147978D01*
X113550Y148588D01*
X112753Y149193D01*
X111953Y149794D01*
X111151Y150391D01*
X110344Y150984D01*
X109535Y151572D01*
X108723Y152155D01*
X107907Y152735D01*
X107089Y153310D01*
X106267Y153881D01*
X105442Y154447D01*
X104614Y155009D01*
X103784Y155566D01*
X102950Y156119D01*
X102113Y156668D01*
X101274Y157212D01*
X100432Y157751D01*
X99586Y158286D01*
X98738Y158817D01*
X97887Y159343D01*
X97033Y159864D01*
X96176Y160381D01*
X95317Y160893D01*
X94455Y161401D01*
X93590Y161904D01*
X92723Y162402D01*
X91853Y162896D01*
X90980Y163385D01*
X90105Y163869D01*
X89227Y164349D01*
X88346Y164824D01*
X87463Y165294D01*
X86578Y165760D01*
X85690Y166220D01*
X84799Y166676D01*
X83907Y167128D01*
X83011Y167574D01*
X82114Y168016D01*
X81214Y168453D01*
X80312Y168885D01*
X79407Y169312D01*
X78500Y169734D01*
X77591Y170152D01*
X76680Y170564D01*
X75766Y170972D01*
X74850Y171375D01*
X73932Y171773D01*
X73013Y172166D01*
X72091Y172554D01*
X71166Y172937D01*
X70240Y173316D01*
X69312Y173689D01*
X68382Y174057D01*
X67450Y174420D01*
X66516Y174779D01*
X65580Y175132D01*
X64642Y175480D01*
X63702Y175824D01*
X62761Y176162D01*
X61818Y176495D01*
X60873Y176823D01*
X59926Y177146D01*
X58978Y177464D01*
X58027Y177777D01*
X57075Y178085D01*
X56122Y178388D01*
X55167Y178686D01*
X54210Y178978D01*
X53252Y179266D01*
X52292Y179548D01*
X51331Y179825D01*
X50368Y180097D01*
X49404Y180364D01*
X48439Y180626D01*
X47472Y180882D01*
X46503Y181134D01*
X45534Y181380D01*
X44563Y181621D01*
X43591Y181857D01*
X42617Y182087D01*
X41642Y182313D01*
X40667Y182533D01*
X39690Y182748D01*
X38711Y182957D01*
X37732Y183162D01*
X36752Y183361D01*
X35770Y183555D01*
X34788Y183744D01*
X33805Y183927D01*
X32820Y184105D01*
X31835Y184278D01*
X30849Y184446D01*
X29861Y184608D01*
X28873Y184766D01*
X27885Y184917D01*
X26895Y185064D01*
X25905Y185205D01*
X24914Y185341D01*
X23922Y185472D01*
X22929Y185597D01*
X21936Y185717D01*
X20942Y185832D01*
X19948Y185941D01*
X18953Y186045D01*
X17957Y186144D01*
X16961Y186237D01*
X15965Y186325D01*
X14968Y186408D01*
X13970Y186485D01*
X12973Y186557D01*
X11974Y186624D01*
X10976Y186686D01*
X9977Y186741D01*
X8978Y186792D01*
X7979Y186838D01*
X6979Y186878D01*
X5979Y186912D01*
X4979Y186942D01*
X3979Y186966D01*
X2979Y186984D01*
X1979Y186997D01*
X978Y187005D01*
X-22Y187008D01*
X-1023Y187005D01*
X-2023Y186997D01*
X-3023Y186983D01*
X-4023Y186965D01*
X-5023Y186940D01*
X-6024Y186911D01*
X-7023Y186876D01*
X-8023Y186836D01*
X-9022Y186790D01*
X-10021Y186739D01*
X-11020Y186683D01*
X-12019Y186621D01*
X-13017Y186554D01*
X-14015Y186482D01*
X-15012Y186404D01*
X-16009Y186321D01*
X-17005Y186233D01*
X-18001Y186140D01*
X-18997Y186040D01*
X-19992Y185936D01*
X-20986Y185827D01*
X-21980Y185712D01*
X-22973Y185591D01*
X-23966Y185466D01*
X-24957Y185335D01*
X-25949Y185199D01*
X-26939Y185057D01*
X-27928Y184911D01*
X-28917Y184759D01*
X-29905Y184601D01*
X-30892Y184439D01*
X-31878Y184271D01*
X-32864Y184098D01*
X-33848Y183919D01*
X-34832Y183735D01*
X-35814Y183546D01*
X-36795Y183352D01*
X-37775Y183153D01*
X-38755Y182948D01*
X-39733Y182738D01*
X-40710Y182523D01*
X-41686Y182303D01*
X-42660Y182077D01*
X-43634Y181846D01*
X-44606Y181610D01*
X-45577Y181369D01*
X-46546Y181123D01*
X-47515Y180871D01*
X-48481Y180614D01*
X-49447Y180352D01*
X-50411Y180085D01*
X-51374Y179813D01*
X-52335Y179535D01*
X-53294Y179253D01*
X-54253Y178965D01*
X-55209Y178673D01*
X-56164Y178375D01*
X-57118Y178072D01*
X-58069Y177764D01*
X-59020Y177450D01*
X-59968Y177132D01*
X-60915Y176809D01*
X-61860Y176480D01*
X-62803Y176147D01*
X-63744Y175809D01*
X-64684Y175465D01*
X-65622Y175116D01*
X-66557Y174763D01*
X-67491Y174404D01*
X-68423Y174041D01*
X-69353Y173672D01*
X-70281Y173299D01*
X-71207Y172920D01*
X-72131Y172537D01*
X-73053Y172149D01*
X-73973Y171755D01*
X-74891Y171357D01*
X-75807Y170954D01*
X-76720Y170546D01*
X-77631Y170133D01*
X-78540Y169716D01*
X-79447Y169293D01*
X-80352Y168866D01*
X-81254Y168433D01*
X-82154Y167996D01*
X-83051Y167554D01*
X-83946Y167108D01*
X-84839Y166656D01*
X-85729Y166200D01*
X-86617Y165739D01*
X-87502Y165273D01*
X-88385Y164803D01*
X-89266Y164328D01*
X-90144Y163848D01*
X-91019Y163363D01*
X-91891Y162874D01*
X-92761Y162380D01*
X-93629Y161881D01*
X-94493Y161378D01*
X-95355Y160871D01*
X-96214Y160358D01*
X-97071Y159841D01*
X-97925Y159320D01*
X-98775Y158793D01*
X-99623Y158263D01*
X-100469Y157728D01*
X-101311Y157188D01*
X-102150Y156644D01*
X-102987Y156095D01*
X-103820Y155542D01*
X-104651Y154984D01*
X-105479Y154422D01*
X-106303Y153856D01*
X-107125Y153285D01*
X-107943Y152710D01*
X-108758Y152130D01*
X-109571Y151546D01*
X-110380Y150958D01*
X-111186Y150365D01*
X-111989Y149768D01*
X-112788Y149167D01*
X-113585Y148561D01*
X-114378Y147952D01*
X-115167Y147338D01*
X-115954Y146720D01*
X-116737Y146097D01*
X-117517Y145470D01*
X-118294Y144840D01*
X-119067Y144205D01*
X-119836Y143566D01*
X-120603Y142923D01*
X-121366Y142276D01*
X-122125Y141624D01*
X-122881Y140969D01*
X-123633Y140310D01*
X-124382Y139646D01*
X-125127Y138979D01*
X-125869Y138307D01*
X-126607Y137632D01*
X-127341Y136953D01*
X-128072Y136270D01*
X-128799Y135583D01*
X-129523Y134892D01*
X-130243Y134197D01*
X-130959Y133498D01*
X-131671Y132796D01*
X-132379Y132090D01*
X-133084Y131379D01*
X-133785Y130666D01*
X-134482Y129948D01*
X-135175Y129227D01*
X-135865Y128502D01*
X-136550Y127773D01*
X-137232Y127041D01*
X-137909Y126305D01*
X-138583Y125566D01*
X-139253Y124822D01*
X-139918Y124076D01*
X-140580Y123325D01*
X-141238Y122572D01*
X-141892Y121814D01*
X-142541Y121054D01*
X-143187Y120289D01*
X-143828Y119522D01*
X-144465Y118751D01*
X-145099Y117976D01*
X-145728Y117198D01*
X-146353Y116417D01*
X-146973Y115632D01*
X-147590Y114844D01*
X-148202Y114053D01*
X-148810Y113259D01*
X-149414Y112461D01*
X-150013Y111660D01*
X-150608Y110856D01*
X-151199Y110049D01*
X-151786Y109238D01*
X-152368Y108425D01*
X-152946Y107608D01*
X-153519Y106789D01*
X-154088Y105966D01*
X-154653Y105140D01*
X-155213Y104311D01*
X-155769Y103479D01*
X-156320Y102645D01*
X-156867Y101807D01*
X-157410Y100966D01*
X-157947Y100123D01*
X-158481Y99276D01*
X-159010Y98427D01*
X-159534Y97575D01*
X-160054Y96720D01*
X-160569Y95863D01*
X-161079Y95002D01*
X-161585Y94139D01*
X-162086Y93274D01*
X-162583Y92405D01*
X-163075Y91534D01*
X-163562Y90661D01*
X-164045Y89784D01*
X-164523Y88905D01*
X-164996Y88024D01*
X-165465Y87140D01*
X-165928Y86254D01*
X-166387Y85365D01*
X-166842Y84474D01*
X-167291Y83580D01*
X-167736Y82684D01*
X-168176Y81785D01*
X-168611Y80884D01*
X-169041Y79981D01*
X-169467Y79076D01*
X-169887Y78168D01*
X-170303Y77258D01*
X-170714Y76346D01*
X-171120Y75432D01*
X-171521Y74515D01*
X-171917Y73597D01*
X-172308Y72676D01*
X-172695Y71753D01*
X-173076Y70828D01*
X-173452Y69902D01*
X-173824Y68973D01*
X-174190Y68042D01*
X-174552Y67109D01*
X-174908Y66174D01*
X-175260Y65238D01*
X-175606Y64299D01*
X-175948Y63359D01*
X-176284Y62417D01*
X-176616Y61473D01*
X-176942Y60527D01*
X-177263Y59580D01*
X-177579Y58631D01*
X-177890Y57680D01*
X-178196Y56727D01*
X-178497Y55773D01*
X-178793Y54818D01*
X-179084Y53860D01*
X-179369Y52902D01*
X-179650Y51941D01*
X-179925Y50980D01*
X-180195Y50016D01*
X-180460Y49052D01*
X-180720Y48086D01*
X-180975Y47118D01*
X-181224Y46149D01*
X-181468Y45179D01*
X-181708Y44208D01*
X-181941Y43235D01*
X-182170Y42261D01*
X-182394Y41286D01*
X-182612Y40310D01*
X-182825Y39332D01*
X-183033Y38354D01*
X-183235Y37374D01*
X-183432Y36393D01*
X-183624Y35412D01*
X-183811Y34429D01*
X-183993Y33445D01*
X-184169Y32460D01*
X-184340Y31475D01*
X-184506Y30488D01*
X-184666Y29500D01*
X-184821Y28512D01*
X-184971Y27523D01*
X-185116Y26533D01*
X-185255Y25543D01*
X-185389Y24551D01*
X-185518Y23559D01*
X-185641Y22566D01*
X-185759Y21573D01*
X-185872Y20579D01*
X-185980Y19584D01*
X-186082Y18589D01*
X-186178Y17594D01*
X-186270Y16597D01*
X-186356Y15601D01*
X-186437Y14604D01*
X-186512Y13606D01*
X-186582Y12608D01*
X-186647Y11610D01*
X-186707Y10611D01*
X-186761Y9612D01*
X-186809Y8613D01*
X-186853Y7614D01*
X-186891Y6614D01*
X-186924Y5614D01*
X-186951Y4614D01*
X-186973Y3614D01*
X-186990Y2613D01*
X-187001Y1613D01*
X-187007Y613D01*
X-187007Y-388D01*
X-187003Y-1388D01*
X-186993Y-2388D01*
X-186977Y-3389D01*
X-186956Y-4389D01*
X-186930Y-5389D01*
X-186899Y-6389D01*
X-186862Y-7389D01*
X-186820Y-8388D01*
X-186772Y-9387D01*
X-186719Y-10386D01*
X-186661Y-11385D01*
X-186597Y-12383D01*
X-186529Y-13381D01*
X-186454Y-14379D01*
X-186375Y-15376D01*
X-186290Y-16373D01*
X-186199Y-17369D01*
X-186104Y-18365D01*
X-186003Y-19360D01*
X-185897Y-20355D01*
X-185785Y-21349D01*
X-185668Y-22343D01*
X-185546Y-23336D01*
X-185419Y-24328D01*
X-185286Y-25319D01*
X-185148Y-26310D01*
X-185004Y-27300D01*
X-184856Y-28290D01*
X-184702Y-29278D01*
X-184543Y-30266D01*
X-184378Y-31253D01*
X-184208Y-32239D01*
X-184033Y-33223D01*
X-183853Y-34207D01*
X-183667Y-35190D01*
X-183476Y-36173D01*
X-183280Y-37153D01*
X-183079Y-38133D01*
X-182872Y-39112D01*
X-182660Y-40090D01*
X-182443Y-41067D01*
X-182221Y-42042D01*
X-181993Y-43016D01*
X-181761Y-43989D01*
X-181523Y-44961D01*
X-181280Y-45931D01*
X-181031Y-46900D01*
X-180778Y-47868D01*
X-180519Y-48834D01*
X-180255Y-49799D01*
X-179986Y-50763D01*
X-179712Y-51725D01*
X-179433Y-52686D01*
X-179148Y-53645D01*
X-178859Y-54602D01*
X-178564Y-55558D01*
X-178265Y-56513D01*
X-177960Y-57465D01*
X-177650Y-58417D01*
X-177335Y-59366D01*
X-177015Y-60314D01*
X-176689Y-61260D01*
X-176359Y-62204D01*
X-176024Y-63147D01*
X-175684Y-64088D01*
X-175338Y-65026D01*
X-174988Y-65964D01*
X-174633Y-66899D01*
X-174272Y-67832D01*
X-173907Y-68763D01*
X-173536Y-69693D01*
X-173161Y-70620D01*
X-172781Y-71545D01*
X-172396Y-72469D01*
X-172005Y-73390D01*
X-171610Y-74309D01*
X-171211Y-75226D01*
X-170806Y-76140D01*
X-170396Y-77053D01*
X-169981Y-77964D01*
X-169562Y-78872D01*
X-169137Y-79778D01*
X-168708Y-80681D01*
X-168274Y-81583D01*
X-167835Y-82482D01*
X-167392Y-83378D01*
X-166943Y-84273D01*
X-166490Y-85164D01*
X-166032Y-86054D01*
X-165569Y-86941D01*
X-165102Y-87825D01*
X-164630Y-88707D01*
X-164153Y-89587D01*
X-163671Y-90464D01*
X-163185Y-91338D01*
X-162694Y-92209D01*
X-162198Y-93078D01*
X-161698Y-93945D01*
X-161193Y-94808D01*
X-160684Y-95669D01*
X-160170Y-96528D01*
X-159651Y-97383D01*
X-159128Y-98236D01*
X-158600Y-99085D01*
X-158068Y-99932D01*
X-157531Y-100777D01*
X-156990Y-101618D01*
X-156444Y-102456D01*
X-155893Y-103292D01*
X-155339Y-104124D01*
X-154779Y-104954D01*
X-154216Y-105780D01*
X-153648Y-106604D01*
X-153075Y-107424D01*
X-152498Y-108241D01*
X-151917Y-109056D01*
X-151332Y-109867D01*
X-150742Y-110675D01*
X-150147Y-111479D01*
X-149549Y-112281D01*
X-148946Y-113080D01*
X-148339Y-113875D01*
X-147728Y-114667D01*
X-147112Y-115455D01*
X-146493Y-116241D01*
X-145869Y-117023D01*
X-145241Y-117801D01*
X-144608Y-118576D01*
X-143972Y-119348D01*
X-143331Y-120117D01*
X-142687Y-120882D01*
X-142038Y-121643D01*
X-141385Y-122401D01*
X-140729Y-123156D01*
X-140068Y-123907D01*
X-139403Y-124655D01*
X-138734Y-125399D01*
X-138061Y-126139D01*
X-137384Y-126876D01*
X-136704Y-127609D01*
X-136019Y-128338D01*
X-135331Y-129064D01*
X-134638Y-129786D01*
X-133942Y-130505D01*
X-133242Y-131219D01*
X-132538Y-131930D01*
X-131831Y-132637D01*
X-131119Y-133341D01*
X-130404Y-134040D01*
X-129685Y-134736D01*
X-128963Y-135427D01*
X-128236Y-136116D01*
X-127506Y-136800D01*
X-126773Y-137480D01*
X-126035Y-138156D01*
X-125294Y-138828D01*
X-124550Y-139496D01*
X-123802Y-140161D01*
X-123050Y-140821D01*
X-122295Y-141477D01*
X-121537Y-142129D01*
X-120775Y-142778D01*
X-120009Y-143421D01*
X-119240Y-144061D01*
X-118468Y-144697D01*
X-117692Y-145329D01*
X-116913Y-145956D01*
X-116131Y-146580D01*
X-115345Y-147199D01*
X-114556Y-147814D01*
X-113763Y-148424D01*
X-112968Y-149031D01*
X-112169Y-149633D01*
X-111367Y-150231D01*
X-110562Y-150825D01*
X-109753Y-151414D01*
X-108942Y-151999D01*
X-108127Y-152579D01*
X-107309Y-153156D01*
X-106488Y-153728D01*
X-105664Y-154295D01*
X-104838Y-154858D01*
X-104008Y-155417D01*
X-103175Y-155971D01*
X-102339Y-156521D01*
X-101500Y-157066D01*
X-100659Y-157606D01*
X-99814Y-158143D01*
X-98966Y-158674D01*
X-98116Y-159202D01*
X-97263Y-159724D01*
X-96407Y-160242D01*
X-95549Y-160756D01*
X-94687Y-161265D01*
X-93823Y-161769D01*
X-92957Y-162268D01*
X-92087Y-162763D01*
X-91215Y-163253D01*
X-90341Y-163739D01*
X-89464Y-164220D01*
X-88584Y-164696D01*
X-87701Y-165168D01*
X-86817Y-165635D01*
X-85929Y-166097D01*
X-85040Y-166554D01*
X-84147Y-167007D01*
X-83253Y-167454D01*
X-82356Y-167897D01*
X-81456Y-168335D01*
X-80555Y-168769D01*
X-79651Y-169197D01*
X-78745Y-169621D01*
X-77836Y-170040D01*
X-76925Y-170454D01*
X-76012Y-170863D01*
X-75097Y-171267D01*
X-74180Y-171666D01*
X-73261Y-172061D01*
X-72339Y-172450D01*
X-71416Y-172835D01*
X-70490Y-173214D01*
X-69562Y-173589D01*
X-68633Y-173958D01*
X-67701Y-174323D01*
X-66768Y-174683D01*
X-65832Y-175037D01*
X-64895Y-175387D01*
X-63956Y-175732D01*
X-63015Y-176071D01*
X-62072Y-176406D01*
X-61128Y-176735D01*
X-60181Y-177060D01*
X-59233Y-177379D01*
X-58283Y-177693D01*
X-57332Y-178003D01*
X-56379Y-178307D01*
X-55424Y-178606D01*
X-54468Y-178900D01*
X-53510Y-179189D01*
X-52551Y-179472D01*
X-51590Y-179751D01*
X-50628Y-180024D01*
X-49664Y-180293D01*
X-48699Y-180556D01*
X-47732Y-180814D01*
X-46764Y-181066D01*
X-45795Y-181314D01*
X-44824Y-181556D01*
X-43852Y-181794D01*
X-42879Y-182026D01*
X-41905Y-182252D01*
X-40929Y-182474D01*
X-39953Y-182690D01*
X-38975Y-182901D01*
X-37996Y-183107D01*
X-37016Y-183308D01*
X-36034Y-183503D01*
X-35052Y-183694D01*
X-34069Y-183878D01*
X-33085Y-184058D01*
X-32100Y-184232D01*
X-31113Y-184401D01*
X-30127Y-184565D01*
X-29139Y-184724D01*
X-28150Y-184877D01*
X-27161Y-185025D01*
X-26171Y-185168D01*
X-25179Y-185305D01*
X-24188Y-185437D01*
X-23195Y-185564D01*
X-22202Y-185685D01*
X-21209Y-185801D01*
X-20214Y-185912D01*
X-19219Y-186018D01*
X-18224Y-186118D01*
X-17228Y-186213D01*
X-16232Y-186302D01*
X-15235Y-186386D01*
X-14238Y-186465D01*
X-13240Y-186539D01*
X-12242Y-186607D01*
X-11243Y-186670D01*
X-10244Y-186727D01*
X-9245Y-186779D01*
X-8246Y-186826D01*
X-7246Y-186867D01*
X-6247Y-186904D01*
X-5247Y-186934D01*
X-4247Y-186960D01*
X-3246Y-186980D01*
X-2246Y-186994D01*
X-1245Y-187004D01*
X-245Y-187008D01*
X755Y-187006D01*
X1756Y-187000D01*
X2756Y-186988D01*
X3757Y-186970D01*
X4757Y-186947D01*
X5757Y-186919D01*
X6757Y-186886D01*
X7756Y-186847D01*
X8756Y-186803D01*
X9755Y-186753D01*
X10754Y-186698D01*
X11753Y-186638D01*
X12751Y-186573D01*
X13749Y-186502D01*
X14746Y-186426D01*
X15743Y-186344D01*
X16740Y-186257D01*
X17736Y-186165D01*
X18732Y-186067D01*
X19727Y-185965D01*
X20722Y-185856D01*
X21716Y-185743D01*
X22709Y-185624D01*
X23702Y-185500D01*
X24694Y-185370D01*
X25685Y-185236D01*
X26676Y-185096D01*
X27666Y-184950D01*
X28655Y-184800D01*
X29643Y-184644D01*
X30630Y-184482D01*
X31617Y-184316D01*
X32602Y-184144D01*
X33587Y-183967D01*
X34571Y-183785D01*
X35553Y-183597D01*
X36535Y-183404D01*
X37516Y-183206D01*
X38495Y-183003D01*
X39474Y-182794D01*
X40451Y-182580D01*
X41427Y-182361D01*
X42402Y-182137D01*
X43376Y-181908D01*
X44348Y-181673D01*
X45320Y-181433D01*
X46290Y-181188D01*
X47258Y-180938D01*
X48226Y-180683D01*
X49192Y-180422D01*
X50156Y-180156D01*
X51119Y-179885D01*
X52081Y-179609D01*
X53041Y-179328D01*
X54000Y-179042D01*
X54957Y-178750D01*
X55912Y-178454D01*
X56866Y-178152D01*
X57818Y-177846D01*
X58769Y-177534D01*
X59718Y-177217D01*
X60665Y-176895D01*
X61610Y-176568D01*
X62554Y-176235D01*
X63496Y-175898D01*
X64436Y-175556D01*
X65374Y-175209D01*
X66311Y-174857D01*
X67245Y-174499D01*
X68178Y-174137D01*
X69108Y-173770D01*
X70037Y-173398D01*
X70964Y-173021D01*
X71888Y-172638D01*
X72811Y-172251D01*
X73731Y-171859D01*
X74650Y-171463D01*
X75566Y-171061D01*
X76480Y-170654D01*
X77392Y-170242D01*
X78301Y-169826D01*
X79209Y-169405D01*
X80114Y-168978D01*
X81017Y-168547D01*
X81917Y-168112D01*
X82815Y-167671D01*
X83711Y-167226D01*
X84605Y-166775D01*
X85496Y-166320D01*
X86384Y-165860D01*
X87270Y-165396D01*
X88154Y-164927D01*
X89035Y-164453D01*
X89913Y-163974D01*
X90789Y-163491D01*
X91663Y-163003D01*
X92533Y-162510D01*
X93401Y-162013D01*
X94267Y-161511D01*
X95130Y-161004D01*
X95990Y-160493D01*
X96847Y-159977D01*
X97701Y-159457D01*
X98553Y-158932D01*
X99402Y-158402D01*
X100248Y-157868D01*
X101091Y-157330D01*
X101931Y-156787D01*
X102768Y-156239D01*
X103603Y-155687D01*
X104434Y-155131D01*
X105262Y-154570D01*
X106088Y-154004D01*
X106910Y-153435D01*
X107729Y-152860D01*
X108546Y-152282D01*
X109359Y-151699D01*
X110169Y-151112D01*
X110976Y-150520D01*
X111779Y-149924D01*
X112580Y-149324D01*
X113377Y-148720D01*
X114171Y-148111D01*
X114962Y-147498D01*
X115749Y-146881D01*
X116533Y-146260D01*
X117314Y-145634D01*
X118091Y-145005D01*
X118866Y-144371D01*
X119636Y-143733D01*
X120403Y-143091D01*
X121167Y-142445D01*
X121927Y-141794D01*
X122684Y-141140D01*
X123438Y-140482D01*
X124187Y-139819D01*
X124934Y-139153D01*
X125676Y-138483D01*
X126415Y-137808D01*
X127151Y-137130D01*
X127883Y-136448D01*
X128611Y-135762D01*
X129335Y-135072D01*
X130056Y-134378D01*
X130773Y-133680D01*
X131486Y-132979D01*
X132196Y-132273D01*
X132901Y-131564D01*
X133603Y-130851D01*
X134301Y-130135D01*
X134996Y-129414D01*
X135686Y-128690D01*
X136373Y-127963D01*
X137055Y-127231D01*
X137734Y-126496D01*
X138409Y-125758D01*
X139079Y-125015D01*
X139746Y-124270D01*
X140409Y-123520D01*
X141068Y-122767D01*
X141723Y-122011D01*
X142373Y-121251D01*
X143020Y-120487D01*
X143663Y-119721D01*
X144301Y-118950D01*
X144935Y-118177D01*
X145565Y-117400D01*
X146191Y-116619D01*
X146813Y-115835D01*
X147431Y-115048D01*
X148044Y-114258D01*
X148653Y-113464D01*
X149258Y-112668D01*
X149859Y-111867D01*
X150455Y-111064D01*
X151047Y-110258D01*
X151635Y-109448D01*
X152218Y-108635D01*
X152797Y-107819D01*
X153372Y-107000D01*
X153942Y-106178D01*
X154508Y-105353D01*
X155069Y-104525D01*
X155626Y-103694D01*
X156178Y-102860D01*
X156727Y-102023D01*
X157270Y-101183D01*
X157809Y-100340D01*
X158344Y-99495D01*
X158874Y-98646D01*
X159399Y-97795D01*
X159920Y-96941D01*
X160436Y-96084D01*
X160948Y-95224D01*
X161455Y-94362D01*
X161958Y-93497D01*
X162456Y-92629D01*
X162949Y-91759D01*
X163437Y-90886D01*
X163921Y-90010D01*
X164400Y-89132D01*
X164875Y-88251D01*
X165345Y-87367D01*
X165810Y-86482D01*
X166270Y-85593D01*
X166726Y-84703D01*
X167176Y-83810D01*
X167622Y-82914D01*
X168063Y-82016D01*
X168500Y-81116D01*
X168931Y-80213D01*
X169358Y-79308D01*
X169780Y-78401D01*
X170197Y-77492D01*
X170609Y-76580D01*
X171016Y-75666D01*
X171419Y-74750D01*
X171816Y-73832D01*
X172208Y-72912D01*
X172596Y-71990D01*
X172979Y-71065D01*
X173356Y-70139D01*
X173729Y-69211D01*
X174097Y-68280D01*
X174460Y-67348D01*
X174818Y-66413D01*
X175170Y-65477D01*
X175518Y-64539D01*
X175861Y-63599D01*
X176199Y-62658D01*
X176531Y-61714D01*
X176859Y-60769D01*
X177181Y-59822D01*
X177499Y-58873D01*
X177811Y-57923D01*
X178119Y-56971D01*
X178421Y-56017D01*
X178718Y-55062D01*
X179010Y-54105D01*
X179297Y-53146D01*
X179579Y-52186D01*
X179855Y-51225D01*
X180127Y-50262D01*
X180393Y-49298D01*
X180654Y-48332D01*
X180910Y-47365D01*
X181161Y-46396D01*
X181407Y-45426D01*
X181647Y-44455D01*
X181882Y-43483D01*
X182112Y-42509D01*
X182337Y-41534D01*
X182557Y-40558D01*
X182771Y-39581D01*
X182980Y-38603D01*
X183184Y-37623D01*
X183383Y-36643D01*
X183576Y-35661D01*
X183764Y-34679D01*
X183947Y-33695D01*
X184125Y-32710D01*
X184297Y-31725D01*
X184464Y-30739D01*
X184626Y-29751D01*
X184783Y-28763D01*
X184934Y-27774D01*
X185080Y-26785D01*
X185220Y-25794D01*
X185356Y-24803D01*
X185486Y-23811D01*
X185610Y-22818D01*
X185730Y-21825D01*
X185844Y-20831D01*
X185953Y-19837D01*
X186056Y-18841D01*
X186154Y-17846D01*
X186247Y-16850D01*
X186334Y-15860D01*
X166746Y15171D02*
X167323Y15748D01*
X163386Y13780D02*
X174236Y24630D01*
X177165Y31701D02*
Y62992D01*
X161417Y-15748D02*
X187008D01*
D13*
X165354Y-14764D02*
D03*
Y14764D02*
D03*
D14*
X157480Y157480D02*
D03*
M02*
